<svg width="42" height="42" viewBox="0 0 42 42" fill="none" xmlns="http://www.w3.org/2000/svg">
<rect x="1" y="1" width="40" height="40" rx="12" stroke="#282828"/>
<g clip-path="url(#clip0_2001_793)">
<path d="M32.6101 9.25488C32.365 9.04706 32.038 8.96284 31.7205 9.0151L16.4478 11.7019C15.9258 11.7946 15.5455 12.2475 15.5455 12.7773V25.3607C15.5455 25.9629 15.0564 26.4521 14.4546 26.4521H13.3636C10.957 26.452 9 27.9206 9 29.726C9 31.5314 10.957 33 13.3636 33C15.7702 33 17.7272 31.5314 17.7272 29.726V18.0578L30.8182 15.7476V23.178C30.8182 23.7801 30.3291 24.2693 29.7273 24.2693H28.6364C26.2297 24.2693 24.2728 25.738 24.2728 27.5434C24.2728 29.3487 26.2298 30.8174 28.6364 30.8174C31.043 30.8174 33 29.3487 33 27.5434V10.0904C33 9.76752 32.8573 9.46167 32.6101 9.25488Z" fill="#282828"/>
</g>
<defs>
<clipPath id="clip0_2001_793">
<rect width="24" height="24" fill="white" transform="translate(9 9)"/>
</clipPath>
</defs>
</svg>
