<svg width="341" height="32" viewBox="0 0 341 32" fill="none" xmlns="http://www.w3.org/2000/svg">
<path d="M23.5582 19.8426C23.5366 19.7692 23.4964 19.7026 23.4415 19.6493C23.3867 19.596 23.319 19.5577 23.245 19.5382C22.978 19.5023 19.6775 18.5273 19.5307 18.6251C19.5474 18.6124 16.1489 19.5168 16.0457 19.5382C15.9711 19.5563 15.9026 19.5941 15.8475 19.6476C15.7924 19.7012 15.7527 19.7685 15.7325 19.8426C15.5552 20.2089 14.7812 24.6659 17.1177 26.8125C17.7873 27.4724 18.6081 27.9585 19.5086 28.2285C19.596 28.2572 19.6902 28.2572 19.7776 28.2285C25.3271 26.4464 23.5759 19.9088 23.5582 19.8426ZM19.8306 26.4508C19.773 26.4792 19.7096 26.4939 19.6453 26.4939C19.5811 26.4939 19.5177 26.4792 19.4601 26.4508C16.9897 25.3127 16.9368 22.6923 17.1309 21.2322C17.1422 21.1456 17.1788 21.0643 17.2361 20.9984C17.2934 20.9325 17.3688 20.8849 17.4529 20.8616L19.5306 20.319C19.5463 20.2086 21.7403 20.858 21.8334 20.8616C21.9184 20.884 21.9949 20.9312 22.053 20.9972C22.1111 21.0632 22.1483 21.145 22.1598 21.2322C22.3495 22.6923 22.301 25.3127 19.8306 26.4508Z" fill="#282828"/>
<path d="M19.6454 21.2012L17.9735 21.6423C17.8632 22.8466 18.0087 24.6817 19.6454 25.5596C21.282 24.6817 21.4231 22.8466 21.3172 21.6423L19.6454 21.2012Z" fill="#282828"/>
<path d="M9.90954 8.7171H14.3032C14.4974 8.71683 14.6835 8.63959 14.8207 8.50231C14.958 8.36504 15.0352 8.17893 15.0355 7.9848C15.0289 6.51758 15.2759 6.14233 13.5709 5.96005L13.5709 5.21008C13.5703 4.82267 13.4159 4.45136 13.1417 4.17767C12.8676 3.90397 12.496 3.75024 12.1086 3.75024C11.7212 3.75024 11.3496 3.90397 11.0754 4.17767C10.8013 4.45136 10.6469 4.82267 10.6462 5.21008V5.96002C10.0492 6.05695 9.18891 6.07398 9.17728 6.83789V7.9848C9.17829 8.1787 9.25576 8.36437 9.39287 8.50148C9.52997 8.63859 9.71564 8.71608 9.90954 8.7171ZM12.1064 4.41604C12.327 4.41779 12.5379 4.50663 12.6932 4.66322C12.8486 4.8198 12.9357 5.03143 12.9357 5.252C12.9357 5.47256 12.8486 5.68419 12.6932 5.84077C12.5379 5.99735 12.3269 6.08619 12.1064 6.08793C11.886 6.08598 11.6752 5.99704 11.52 5.84048C11.3649 5.68392 11.2778 5.47241 11.2778 5.25198C11.2778 5.03155 11.3649 4.82004 11.5201 4.66348C11.6752 4.50693 11.886 4.41799 12.1064 4.41604Z" fill="#282828"/>
<path d="M14.8811 19.6044C14.9436 19.3821 15.0632 19.18 15.228 19.0182C15.3929 18.8564 15.5972 18.7407 15.8207 18.6825L19.1646 17.809C19.449 17.7089 19.7578 17.7012 20.0468 17.787V8.74372C20.0467 8.17943 19.8228 7.63823 19.4242 7.23881C19.0256 6.83938 18.4849 6.61434 17.9206 6.61304H15.9046C15.9343 6.99648 15.9104 7.60199 15.9178 7.98496C15.9176 8.41311 15.7474 8.82365 15.4447 9.1264C15.1419 9.42914 14.7314 9.59931 14.3033 9.59952H9.90952C9.48139 9.59931 9.07084 9.42913 8.7681 9.12639C8.46537 8.82365 8.2952 8.4131 8.295 7.98496C8.30321 7.61195 8.27844 6.98921 8.30821 6.61307L6.29224 6.61305C5.72818 6.61509 5.18788 6.84037 4.78945 7.23964C4.39101 7.6389 4.16686 8.17967 4.16599 8.74373V24.6863C4.16704 25.2499 4.39139 25.7901 4.78991 26.1886C5.18843 26.5871 5.72864 26.8115 6.29224 26.8125H15.9266C15.716 26.5361 15.5314 26.2407 15.3752 25.9303C13.9327 23.0982 14.8679 19.6574 14.8811 19.6044ZM13.4121 12.3522H17.6294C17.7453 12.3539 17.8558 12.4011 17.9372 12.4837C18.0186 12.5662 18.0642 12.6774 18.0642 12.7934C18.0642 12.9093 18.0186 13.0205 17.9372 13.1031C17.8558 13.1856 17.7453 13.2328 17.6294 13.2345H13.4121C13.2961 13.233 13.1854 13.1858 13.1039 13.1033C13.0224 13.0207 12.9767 12.9094 12.9767 12.7934C12.9767 12.6773 13.0224 12.566 13.1039 12.4834C13.1854 12.4009 13.2961 12.3537 13.4121 12.3522ZM10.2448 12.3522H11.5153C11.6313 12.3537 11.742 12.4009 11.8235 12.4834C11.905 12.566 11.9507 12.6773 11.9507 12.7934C11.9507 12.9094 11.905 13.0207 11.8235 13.1033C11.742 13.1858 11.6313 13.233 11.5153 13.2345H10.2448C10.1289 13.2328 10.0183 13.1856 9.93695 13.1031C9.85559 13.0205 9.80998 12.9093 9.80998 12.7934C9.80998 12.6774 9.85559 12.5662 9.93695 12.4837C10.0183 12.4011 10.1289 12.3539 10.2448 12.3522ZM10.2448 17.1253H15.9398C16.0557 17.127 16.1662 17.1743 16.2475 17.2568C16.3288 17.3394 16.3743 17.4506 16.3743 17.5664C16.3743 17.6823 16.3287 17.7935 16.2474 17.876C16.1661 17.9586 16.0556 18.0058 15.9398 18.0076H10.2448C10.1288 18.006 10.0181 17.9588 9.93664 17.8763C9.85518 17.7937 9.8095 17.6824 9.8095 17.5664C9.8095 17.4504 9.85518 17.3391 9.93664 17.2565C10.0181 17.174 10.1288 17.1268 10.2448 17.1253ZM9.09343 20.8881L7.90237 22.5953C7.8656 22.648 7.81769 22.6919 7.76203 22.7239C7.70638 22.7559 7.64435 22.7753 7.58037 22.7806C7.51584 22.7854 7.45102 22.7765 7.39018 22.7545C7.32935 22.7324 7.27388 22.6977 7.22744 22.6526L6.41575 21.841C6.33612 21.7573 6.29243 21.6458 6.29405 21.5304C6.29567 21.4149 6.34248 21.3046 6.42442 21.2233C6.50637 21.1419 6.61694 21.0959 6.73243 21.0951C6.84791 21.0943 6.95911 21.1388 7.04218 21.219L7.47888 21.6557L8.36997 20.3852C8.43747 20.2913 8.53918 20.2278 8.65315 20.2082C8.76713 20.1886 8.88423 20.2146 8.97918 20.2806C9.07414 20.3466 9.13934 20.4473 9.16071 20.561C9.18209 20.6746 9.15792 20.7921 9.09343 20.8881ZM9.09343 16.1151L7.90237 17.8178C7.86583 17.8713 7.81794 17.916 7.76212 17.9488C7.70629 17.9816 7.64391 18.0017 7.57943 18.0076C7.51495 18.0135 7.44997 18.0051 7.38912 17.983C7.32826 17.9608 7.27305 17.9255 7.22742 17.8796L6.41575 17.0679C6.33556 16.9844 6.29141 16.8727 6.29279 16.7569C6.29418 16.6411 6.341 16.5305 6.42317 16.4489C6.50534 16.3674 6.61627 16.3213 6.73206 16.3208C6.84784 16.3202 6.95922 16.3651 7.04217 16.4459L7.47887 16.8826L8.36997 15.6078C8.43855 15.5152 8.54058 15.453 8.65433 15.4345C8.76807 15.4161 8.88453 15.4428 8.97888 15.5089C9.07322 15.5751 9.138 15.6755 9.1594 15.7887C9.1808 15.9019 9.15713 16.019 9.09343 16.1151ZM9.09343 11.3376L7.90237 13.0448C7.86561 13.0974 7.8177 13.1413 7.76204 13.1733C7.70639 13.2054 7.64436 13.2247 7.58037 13.23C7.51569 13.2369 7.45031 13.2289 7.38916 13.2068C7.32802 13.1846 7.27272 13.1488 7.22744 13.1021L6.41577 12.2904C6.33609 12.2068 6.29235 12.0953 6.29395 11.9798C6.29555 11.8643 6.34235 11.754 6.42433 11.6726C6.5063 11.5912 6.6169 11.5452 6.73241 11.5444C6.84792 11.5437 6.95914 11.5882 7.04219 11.6685L7.47889 12.1052L8.36999 10.8347C8.43761 10.7411 8.53927 10.6778 8.65309 10.6584C8.76691 10.639 8.88379 10.6651 8.97859 10.731C9.0734 10.7969 9.13855 10.8974 9.16002 11.0108C9.1815 11.1243 9.15759 11.2416 9.09343 11.3376ZM13.6151 22.785H10.2448C10.1289 22.7833 10.0184 22.7361 9.93705 22.6535C9.85572 22.571 9.81013 22.4597 9.81014 22.3439C9.81014 22.228 9.85573 22.1168 9.93707 22.0342C10.0184 21.9517 10.1289 21.9045 10.2448 21.9027H13.6151C13.7309 21.9045 13.8413 21.9518 13.9226 22.0343C14.0039 22.1169 14.0494 22.228 14.0494 22.3439C14.0494 22.4597 14.0039 22.5709 13.9226 22.6534C13.8413 22.736 13.7309 22.7832 13.6151 22.785Z" fill="#282828"/>
<path d="M41.7422 11.8301H38.6045V13.833C38.9964 13.6644 39.3838 13.5801 39.7666 13.5801C40.5231 13.5801 41.1611 13.8512 41.6807 14.3936C42.2139 14.945 42.4805 15.6514 42.4805 16.5127C42.4805 17.1735 42.3164 17.7751 41.9883 18.3174C41.7148 18.764 41.3434 19.1058 40.874 19.3428C40.4274 19.5706 39.9375 19.6846 39.4043 19.6846C38.5384 19.6846 37.8229 19.402 37.2578 18.8369C36.957 18.5361 36.6995 18.1077 36.4854 17.5518L38.0439 16.9639C38.3037 17.6475 38.7389 17.9893 39.3496 17.9893C39.7507 17.9893 40.0811 17.8434 40.3408 17.5518C40.5915 17.2738 40.7168 16.9388 40.7168 16.5469C40.7168 16.1641 40.5938 15.8314 40.3477 15.5488C40.0788 15.2526 39.7415 15.1045 39.3359 15.1045C38.862 15.1045 38.4655 15.3164 38.1465 15.7402H36.9707V10.21H41.7422V11.8301ZM55.1543 10.1689L52.085 15.3848V19.5H50.1709V15.3848L47.0469 10.1689H49.3232L51.1348 13.4023L52.9121 10.1689H55.1543ZM60.8486 11.7344H57.5742V14.0312H60.8486V15.5967H57.5742V17.9346H60.8486V19.5H55.6602V10.1689H60.8486V11.7344ZM68.2178 19.5L67.6982 17.8867H64.1025L63.5488 19.5H61.5186L64.7451 10.1689H67.1377L70.3232 19.5H68.2178ZM64.5947 16.3145H67.1924L65.9004 12.4521L64.5947 16.3145ZM75.8057 19.5L73.249 15.7881V19.5H71.335V10.1689H74.2061C75.3773 10.1689 76.2591 10.415 76.8516 10.9072C77.084 11.0895 77.2686 11.3128 77.4053 11.5771C77.6514 12.0374 77.7744 12.5456 77.7744 13.1016C77.7744 13.9902 77.4919 14.6966 76.9268 15.2207C76.5758 15.5443 76.1201 15.7767 75.5596 15.918L78.1299 19.5H75.8057ZM73.249 11.7549V14.667H74.124C74.6208 14.667 75.015 14.5622 75.3066 14.3525C75.6576 14.0928 75.833 13.71 75.833 13.2041C75.833 12.7803 75.7054 12.4362 75.4502 12.1719C75.1859 11.8939 74.7962 11.7549 74.2812 11.7549H73.249ZM78.9707 16.7725H80.8369C80.8369 17.0186 80.8665 17.2031 80.9258 17.3262C81.0306 17.5312 81.1969 17.6953 81.4248 17.8184C81.639 17.9277 81.8691 17.9824 82.1152 17.9824C82.4798 17.9824 82.7874 17.8753 83.0381 17.6611C83.2432 17.4743 83.3457 17.2487 83.3457 16.9844C83.3457 16.6836 83.2181 16.4375 82.9629 16.2461C82.776 16.1094 82.3978 15.9385 81.8281 15.7334C80.9212 15.4144 80.2581 15.0703 79.8389 14.7012C79.3148 14.2454 79.0527 13.6165 79.0527 12.8145C79.0527 11.9258 79.3558 11.2262 79.9619 10.7158C80.527 10.2327 81.2539 9.99121 82.1426 9.99121C82.9993 9.99121 83.7057 10.2236 84.2617 10.6885C84.8633 11.2035 85.2051 11.9212 85.2871 12.8418H83.3457C83.2865 12.0716 82.8809 11.6865 82.1289 11.6865C81.7415 11.6865 81.4476 11.7936 81.2471 12.0078C81.0739 12.1947 80.9873 12.4134 80.9873 12.6641C80.9873 13.0469 81.1787 13.3431 81.5615 13.5527C81.7575 13.6576 82.1221 13.8079 82.6553 14.0039C83.3252 14.2454 83.8174 14.4688 84.1318 14.6738C84.9385 15.1934 85.3418 15.918 85.3418 16.8477C85.3418 17.832 84.959 18.584 84.1934 19.1035C83.6283 19.4863 82.9401 19.6777 82.1289 19.6777C81.1992 19.6777 80.4587 19.443 79.9072 18.9736C79.2738 18.445 78.9616 17.7113 78.9707 16.7725ZM96.9971 10.1689L98.46 16.1641L100.005 10.1689H102.001L99.3965 19.5H97.4756L95.9922 13.3887L94.5293 19.5H92.6016L90.0518 10.1689H92.082L93.5859 16.0615L95.0967 10.1689H96.9971ZM108.755 19.5L108.235 17.8867H104.64L104.086 19.5H102.056L105.282 10.1689H107.675L110.86 19.5H108.755ZM105.132 16.3145H107.729L106.438 12.4521L105.132 16.3145ZM116.343 19.5L113.786 15.7881V19.5H111.872V10.1689H114.743C115.914 10.1689 116.796 10.415 117.389 10.9072C117.621 11.0895 117.806 11.3128 117.942 11.5771C118.188 12.0374 118.312 12.5456 118.312 13.1016C118.312 13.9902 118.029 14.6966 117.464 15.2207C117.113 15.5443 116.657 15.7767 116.097 15.918L118.667 19.5H116.343ZM113.786 11.7549V14.667H114.661C115.158 14.667 115.552 14.5622 115.844 14.3525C116.195 14.0928 116.37 13.71 116.37 13.2041C116.37 12.7803 116.243 12.4362 115.987 12.1719C115.723 11.8939 115.333 11.7549 114.818 11.7549H113.786ZM124.519 19.5L121.962 15.7881V19.5H120.048V10.1689H122.919C124.09 10.1689 124.972 10.415 125.564 10.9072C125.797 11.0895 125.981 11.3128 126.118 11.5771C126.364 12.0374 126.487 12.5456 126.487 13.1016C126.487 13.9902 126.205 14.6966 125.64 15.2207C125.289 15.5443 124.833 15.7767 124.272 15.918L126.843 19.5H124.519ZM121.962 11.7549V14.667H122.837C123.334 14.667 123.728 14.5622 124.02 14.3525C124.37 14.0928 124.546 13.71 124.546 13.2041C124.546 12.7803 124.418 12.4362 124.163 12.1719C123.899 11.8939 123.509 11.7549 122.994 11.7549H121.962ZM133.966 19.5L133.446 17.8867H129.851L129.297 19.5H127.267L130.493 10.1689H132.886L136.071 19.5H133.966ZM130.343 16.3145H132.94L131.648 12.4521L130.343 16.3145ZM142.928 19.5L138.997 13.6006V19.5H137.083V10.1689H138.963L142.88 15.9932V10.1689H144.794V19.5H142.928ZM152.177 11.7344H149.955V19.5H148.041V11.7344H145.819V10.1689H152.177V11.7344ZM160.182 10.1689L157.112 15.3848V19.5H155.198V15.3848L152.074 10.1689H154.351L156.162 13.4023L157.939 10.1689H160.182Z" fill="#282828"/>
<rect x="310" y="1" width="30" height="30" rx="15" fill="#282828"/>
<rect x="310" y="1" width="30" height="30" rx="15" stroke="#626262"/>
<path d="M317 16H333M325 24V8" stroke="white" stroke-width="2" stroke-linecap="round" stroke-linejoin="round"/>
</svg>
