<svg width="28" height="28" viewBox="0 0 28 28" fill="none" xmlns="http://www.w3.org/2000/svg">
<path d="M8.84625 2.62849C8.89259 2.79456 8.9918 2.94101 9.12885 3.04562C9.26591 3.15024 9.43333 3.20732 9.60575 3.20822H13.4304C13.6034 3.20721 13.7714 3.14953 13.9085 3.04403C14.0457 2.93852 14.1445 2.79098 14.1899 2.62398C14.2324 2.46587 14.3858 1.90521 14.4281 1.75659H8.60803C8.65069 1.90119 8.80333 2.47204 8.84625 2.62849Z" fill="#282828"/>
<path d="M15.7584 14.2821H14.7788C14.2933 14.2818 13.8277 14.0892 13.484 13.7463C13.1404 13.4035 12.9466 12.9384 12.9451 12.4529C12.9447 10.9129 12.9454 9.04323 12.9451 7.51355C12.9466 7.02809 13.1404 6.563 13.484 6.22014C13.8277 5.87729 14.2933 5.68463 14.7788 5.68436C14.8975 5.69101 16.8121 5.6796 16.8821 5.68436V3.10937C16.8806 2.91732 16.8388 2.72773 16.7593 2.55286C16.6799 2.37799 16.5647 2.22175 16.4211 2.09423C16.2774 1.96672 16.1087 1.87078 15.9256 1.81262C15.7426 1.75447 15.5494 1.73539 15.3585 1.75662L15.3001 1.98128L15.0574 2.86214C14.9598 3.21908 14.7477 3.53414 14.4539 3.75901C14.16 3.98389 13.8004 4.10616 13.4304 4.10709H9.60576C9.23637 4.10622 8.8774 3.98452 8.58365 3.76054C8.2899 3.53657 8.07751 3.22263 7.97888 2.86665L7.73615 1.98128L7.67775 1.75658C7.48661 1.73519 7.29311 1.75413 7.10975 1.81218C6.9264 1.87023 6.75725 1.96609 6.61325 2.09358C6.46924 2.22106 6.35358 2.37734 6.27373 2.55231C6.19389 2.72728 6.15163 2.91705 6.14969 3.10937V10.7362C6.83136 10.9379 7.41963 11.3744 7.81035 11.9683C8.20106 12.5622 8.369 13.2752 8.28443 13.9811C8.13016 14.473 8.56674 14.883 8.52711 15.3968C9.05761 15.7672 9.48828 16.263 9.78076 16.8401C10.0732 17.4172 10.2185 18.0577 10.2035 18.7045C11.4306 18.704 14.3422 18.7048 15.5337 18.7045C15.7111 18.7043 15.8866 18.6691 16.0504 18.6009C16.2142 18.5328 16.3629 18.4331 16.4881 18.3075C16.6133 18.1819 16.7125 18.0328 16.7801 17.8688C16.8477 17.7048 16.8823 17.5292 16.882 17.3518V14.2821C16.7519 14.273 15.9105 14.2887 15.7584 14.2821ZM11.0934 8.1068H11.6463C11.7641 8.10882 11.8765 8.15705 11.9591 8.24112C12.0418 8.32518 12.0881 8.43834 12.0881 8.55622C12.0881 8.67411 12.0418 8.78727 11.9591 8.87133C11.8765 8.9554 11.7641 9.00363 11.6463 9.00565H11.0934C10.9755 9.00363 10.8632 8.9554 10.7805 8.87133C10.6979 8.78727 10.6516 8.67411 10.6516 8.55622C10.6516 8.43834 10.6979 8.32518 10.7805 8.24112C10.8632 8.15705 10.9755 8.10882 11.0934 8.1068ZM10.1316 9.53148H11.6463C11.7641 9.53349 11.8765 9.58173 11.9591 9.66579C12.0418 9.74986 12.0881 9.86302 12.0881 9.9809C12.0881 10.0988 12.0418 10.2119 11.9591 10.296C11.8765 10.3801 11.7641 10.4283 11.6463 10.4303H10.1316C10.0145 10.4273 9.90314 10.3786 9.82137 10.2946C9.7396 10.2107 9.69384 10.0982 9.69384 9.98099C9.69384 9.86381 9.7396 9.75126 9.82137 9.66733C9.90314 9.58339 10.0145 9.53454 10.1316 9.53148ZM8.67564 11.8597C8.55777 11.8577 8.44542 11.8094 8.36278 11.7254C8.28014 11.6413 8.23383 11.5281 8.23383 11.4103C8.23383 11.2924 8.28014 11.1792 8.36278 11.0951C8.44542 11.0111 8.55777 10.9628 8.67564 10.9608H11.6463C11.7641 10.9628 11.8765 11.0111 11.9591 11.0951C12.0418 11.1792 12.0881 11.2924 12.0881 11.4103C12.0881 11.5281 12.0418 11.6413 11.9591 11.7254C11.8765 11.8094 11.7641 11.8577 11.6463 11.8597H8.67564ZM12.5857 16.3899H10.4507C10.3323 16.3887 10.2191 16.3409 10.1358 16.2567C10.0524 16.1726 10.0057 16.0589 10.0057 15.9405C10.0057 15.8221 10.0524 15.7084 10.1358 15.6242C10.2191 15.5401 10.3323 15.4922 10.4507 15.4911H12.5857C12.7041 15.4923 12.8173 15.5401 12.9006 15.6243C12.9839 15.7085 13.0306 15.8222 13.0306 15.9406C13.0306 16.059 12.9838 16.1727 12.9005 16.2568C12.8171 16.3409 12.7041 16.3888 12.5857 16.3899Z" fill="#282828"/>
<path d="M6.40137 21.1359C5.97306 20.9453 5.25272 20.6097 4.82839 20.4213C4.80154 20.409 4.77095 20.4078 4.74321 20.4179C4.71547 20.428 4.69279 20.4486 4.68007 20.4752C4.68007 20.4796 4.43367 21.0006 4.43739 21.0055L3.38569 23.3336C3.37884 23.3468 3.3748 23.3612 3.37383 23.376C3.37285 23.3908 3.37497 23.4057 3.38005 23.4196C3.38512 23.4335 3.39303 23.4463 3.40329 23.457C3.41355 23.4677 3.42593 23.4762 3.43963 23.4819L9.51589 26.2412C9.52945 26.2473 9.54407 26.2505 9.55891 26.2508C9.57374 26.2512 9.5885 26.2485 9.6023 26.2431C9.61611 26.2376 9.62869 26.2295 9.63932 26.2192C9.64995 26.2088 9.65841 26.1964 9.66421 26.1828L10.9585 23.329C10.9654 23.3158 10.9695 23.3014 10.9704 23.2865C10.9714 23.2717 10.9693 23.2569 10.9642 23.2429C10.9591 23.229 10.9512 23.2162 10.941 23.2055C10.9307 23.1948 10.9183 23.1863 10.9046 23.1806L6.40137 21.1359Z" fill="#282828"/>
<path d="M13.8438 9.1092V9.77884C13.8438 9.77884 20.5313 9.77884 21.0616 9.77884C21.1794 9.78086 21.2918 9.82909 21.3744 9.91316C21.4571 9.99722 21.5034 10.1104 21.5034 10.2283C21.5034 10.3461 21.4571 10.4593 21.3744 10.5434C21.2918 10.6274 21.1794 10.6757 21.0616 10.6777C20.4297 10.6779 14.239 10.6775 13.8438 10.6777V12.4529C13.8446 12.7002 13.9435 12.9371 14.1188 13.1115C14.2941 13.2859 14.5315 13.3836 14.7788 13.3831C16.7277 13.3862 21.6407 13.3808 23.6953 13.3831C23.9419 13.3826 24.1782 13.2844 24.3525 13.1101C24.5269 12.9358 24.625 12.6995 24.6256 12.4529V9.1092C24.5875 9.11122 14.234 9.10868 13.8438 9.1092Z" fill="#282828"/>
<path d="M23.6953 6.58339C22.1225 6.58339 16.2545 6.58308 14.7787 6.58339C14.5314 6.58296 14.294 6.6807 14.1188 6.85513C13.9435 7.02957 13.8446 7.26645 13.8439 7.51373V8.21032C14.8028 8.20936 23.6209 8.21102 24.6256 8.21032V7.51369C24.6251 7.2671 24.527 7.03075 24.3526 6.85639C24.1782 6.68203 23.9419 6.58386 23.6953 6.58339Z" fill="#282828"/>
<path d="M10.1181 19.6034L9.97177 20.2082L9.95716 20.2047C9.73942 20.1511 9.549 20.0193 9.42216 19.8344C9.29533 19.6495 9.24094 19.4243 9.26937 19.2019C9.28977 19.0368 9.30155 18.8707 9.30467 18.7044C9.32157 18.1213 9.16874 17.5458 8.86475 17.048C8.56076 16.5501 8.1187 16.1513 7.5923 15.9C7.65171 15.6466 7.64881 15.3825 7.58385 15.1305C7.5189 14.8785 7.39382 14.6459 7.21933 14.4528C7.3886 14.0958 7.44861 13.6968 7.39184 13.3058C7.33506 12.9148 7.16403 12.5492 6.90022 12.2551C6.41971 11.6169 4.66735 10.9438 4.57215 12.1832C4.60203 12.9263 4.60851 13.6539 4.56318 14.4438C4.42756 16.81 5.12699 18.3544 5.47112 19.7291C6.29774 20.0972 9.97339 21.7733 10.8911 22.1874C11.1852 21.7796 11.5658 21.442 12.0057 21.1987C12.6837 20.8455 13.2327 20.2871 13.5742 19.6032L10.1181 19.6034Z" fill="#282828"/>
</svg>
