<svg width="340" height="206" viewBox="0 0 340 206" fill="none" xmlns="http://www.w3.org/2000/svg">
<path d="M5.84473 3.23438H2.57031V5.53125H5.84473V7.09668H2.57031V9.43457H5.84473V11H0.65625V1.66895H5.84473V3.23438ZM13.2139 11L12.6943 9.38672H9.09863L8.54492 11H6.51465L9.74121 1.66895H12.1338L15.3193 11H13.2139ZM9.59082 7.81445H12.1885L10.8965 3.95215L9.59082 7.81445ZM20.8018 11L18.2451 7.28809V11H16.3311V1.66895H19.2021C20.3734 1.66895 21.2552 1.91504 21.8477 2.40723C22.0801 2.58952 22.2646 2.81283 22.4014 3.07715C22.6475 3.53743 22.7705 4.04557 22.7705 4.60156C22.7705 5.49023 22.488 6.19661 21.9229 6.7207C21.5719 7.04427 21.1162 7.27669 20.5557 7.41797L23.126 11H20.8018ZM18.2451 3.25488V6.16699H19.1201C19.6169 6.16699 20.0111 6.06217 20.3027 5.85254C20.6536 5.59277 20.8291 5.20996 20.8291 4.7041C20.8291 4.28027 20.7015 3.9362 20.4463 3.67188C20.182 3.39388 19.7923 3.25488 19.2773 3.25488H18.2451ZM29.2236 6.33105C29.6976 6.43132 30.0645 6.59766 30.3242 6.83008C30.7754 7.23112 31.001 7.79167 31.001 8.51172C31.001 9.13151 30.8392 9.65788 30.5156 10.0908C30.2103 10.4873 29.8024 10.7493 29.292 10.877C28.9639 10.959 28.515 11 27.9453 11H24.5068V1.66895H27.5215C28.6335 1.66895 29.4242 1.84896 29.8936 2.20898C30.4951 2.66016 30.7959 3.31185 30.7959 4.16406C30.7959 4.82031 30.5977 5.35579 30.2012 5.77051C29.9779 6.00293 29.652 6.18978 29.2236 6.33105ZM27.0908 3.125H26.4209V5.62695H27.1865C27.7881 5.62695 28.2188 5.51758 28.4785 5.29883C28.7383 5.08008 28.8682 4.7679 28.8682 4.3623C28.8682 4.02051 28.7725 3.74251 28.5811 3.52832C28.3486 3.25944 27.8519 3.125 27.0908 3.125ZM27.248 7.05566H26.4209V9.5918H27.3574C27.7904 9.5918 28.098 9.56217 28.2803 9.50293C28.8044 9.33431 29.0664 8.94922 29.0664 8.34766C29.0664 7.84635 28.8887 7.48861 28.5332 7.27441C28.278 7.12858 27.8496 7.05566 27.248 7.05566ZM32.3682 1.66895H34.2822V7.1377C34.2822 7.93978 34.4212 8.50716 34.6992 8.83984C35.0137 9.2181 35.4512 9.40723 36.0117 9.40723C36.4082 9.40723 36.7614 9.29329 37.0713 9.06543C37.3766 8.83757 37.5726 8.52083 37.6592 8.11523C37.7093 7.87826 37.7344 7.55013 37.7344 7.13086V1.66895H39.6621V7.06934C39.6621 7.99902 39.5277 8.74642 39.2588 9.31152C38.9489 9.96322 38.4795 10.4486 37.8506 10.7676C37.3083 11.041 36.7021 11.1777 36.0322 11.1777C35.2347 11.1777 34.526 10.9863 33.9062 10.6035C33.2591 10.2025 32.8216 9.6556 32.5938 8.96289C32.4434 8.48893 32.3682 7.85775 32.3682 7.06934V1.66895ZM44.2148 11H41.46V1.66895H44.1055C45.1582 1.66895 46.0013 1.82845 46.6348 2.14746C47.4186 2.53483 48.0133 3.13184 48.4189 3.93848C48.7607 4.6084 48.9316 5.37174 48.9316 6.22852C48.9316 7.30404 48.6787 8.2474 48.1729 9.05859C47.3662 10.3529 46.0469 11 44.2148 11ZM44.0781 3.2207H43.374V9.4209H43.7432C44.4313 9.4209 44.9736 9.32747 45.3701 9.14062C45.9124 8.88086 46.3294 8.4707 46.6211 7.91016C46.8672 7.4362 46.9902 6.89616 46.9902 6.29004C46.9902 5.611 46.8398 5.014 46.5391 4.49902C46.2565 4.02051 45.8577 3.67643 45.3428 3.4668C44.9554 3.30273 44.5339 3.2207 44.0781 3.2207ZM49.8887 8.27246H51.7549C51.7549 8.51855 51.7845 8.70312 51.8438 8.82617C51.9486 9.03125 52.1149 9.19531 52.3428 9.31836C52.557 9.42773 52.7871 9.48242 53.0332 9.48242C53.3978 9.48242 53.7054 9.37533 53.9561 9.16113C54.1611 8.97428 54.2637 8.7487 54.2637 8.48438C54.2637 8.18359 54.1361 7.9375 53.8809 7.74609C53.694 7.60938 53.3158 7.43848 52.7461 7.2334C51.8392 6.91439 51.1761 6.57031 50.7568 6.20117C50.2327 5.74544 49.9707 5.11654 49.9707 4.31445C49.9707 3.42578 50.2738 2.72624 50.8799 2.21582C51.445 1.73275 52.1719 1.49121 53.0605 1.49121C53.9173 1.49121 54.6237 1.72363 55.1797 2.18848C55.7812 2.70345 56.123 3.42122 56.2051 4.3418H54.2637C54.2044 3.57161 53.7988 3.18652 53.0469 3.18652C52.6595 3.18652 52.3656 3.29362 52.165 3.50781C51.9919 3.69466 51.9053 3.91341 51.9053 4.16406C51.9053 4.54688 52.0967 4.8431 52.4795 5.05273C52.6755 5.15755 53.04 5.30794 53.5732 5.50391C54.2432 5.74544 54.7354 5.96875 55.0498 6.17383C55.8564 6.69336 56.2598 7.41797 56.2598 8.34766C56.2598 9.33203 55.877 10.084 55.1113 10.6035C54.5462 10.9863 53.8581 11.1777 53.0469 11.1777C52.1172 11.1777 51.3766 10.943 50.8252 10.4736C50.1917 9.94499 49.8796 9.21126 49.8887 8.27246Z" fill="#282828"/>
<path d="M7.112 34.358V30.2H8.4V40H7.112V35.59H2.352V40H1.05V30.2H2.352V34.358H7.112ZM17.0913 37.06H11.2253C11.3466 37.676 11.6313 38.1613 12.0793 38.516C12.5273 38.8613 13.0873 39.034 13.7593 39.034C14.6833 39.034 15.3553 38.6933 15.7753 38.012L16.8113 38.6C16.1206 39.6547 15.0939 40.182 13.7313 40.182C12.6299 40.182 11.7246 39.8367 11.0153 39.146C10.3246 38.4367 9.97927 37.5547 9.97927 36.5C9.97927 35.436 10.3199 34.5587 11.0013 33.868C11.6826 33.168 12.5646 32.818 13.6473 32.818C14.6739 32.818 15.5093 33.182 16.1533 33.91C16.8066 34.6193 17.1333 35.4873 17.1333 36.514C17.1333 36.6913 17.1193 36.8733 17.0913 37.06ZM13.6473 33.966C13.0033 33.966 12.4619 34.148 12.0233 34.512C11.5939 34.876 11.3279 35.3707 11.2253 35.996H15.9013C15.7986 35.352 15.5419 34.8527 15.1313 34.498C14.7206 34.1433 14.2259 33.966 13.6473 33.966ZM19.1494 31.726C18.916 31.726 18.72 31.6467 18.5614 31.488C18.4027 31.3293 18.3234 31.138 18.3234 30.914C18.3234 30.69 18.4027 30.4987 18.5614 30.34C18.72 30.172 18.916 30.088 19.1494 30.088C19.3734 30.088 19.5647 30.172 19.7234 30.34C19.882 30.4987 19.9614 30.69 19.9614 30.914C19.9614 31.138 19.882 31.3293 19.7234 31.488C19.5647 31.6467 19.3734 31.726 19.1494 31.726ZM19.7514 40H18.5334V33H19.7514V40ZM27.4195 34.204V33H28.6235V39.706C28.6235 40.742 28.2735 41.5447 27.5735 42.114C26.8642 42.6927 26.0242 42.982 25.0535 42.982C24.2695 42.982 23.5929 42.8327 23.0235 42.534C22.4542 42.2447 22.0249 41.8247 21.7355 41.274L22.7995 40.672C23.1822 41.456 23.9429 41.848 25.0815 41.848C25.8095 41.848 26.3789 41.6567 26.7895 41.274C27.2095 40.8913 27.4195 40.3687 27.4195 39.706V38.712C26.8035 39.6453 25.9262 40.112 24.7875 40.112C23.7795 40.112 22.9349 39.7573 22.2535 39.048C21.5629 38.3293 21.2175 37.466 21.2175 36.458C21.2175 35.45 21.5629 34.5913 22.2535 33.882C22.9349 33.1727 23.7795 32.818 24.7875 32.818C25.9355 32.818 26.8129 33.28 27.4195 34.204ZM27.4195 36.458C27.4195 35.758 27.1815 35.17 26.7055 34.694C26.2295 34.218 25.6369 33.98 24.9275 33.98C24.2182 33.98 23.6255 34.218 23.1495 34.694C22.6735 35.17 22.4355 35.758 22.4355 36.458C22.4355 37.1673 22.6735 37.76 23.1495 38.236C23.6255 38.712 24.2182 38.95 24.9275 38.95C25.6369 38.95 26.2295 38.712 26.7055 38.236C27.1815 37.76 27.4195 37.1673 27.4195 36.458ZM33.9549 32.818C34.7763 32.818 35.4343 33.0793 35.9289 33.602C36.4236 34.1153 36.6709 34.8153 36.6709 35.702V40H35.4529V35.772C35.4529 35.212 35.2989 34.7733 34.9909 34.456C34.6829 34.1387 34.2583 33.98 33.7169 33.98C33.0916 33.98 32.5969 34.176 32.2329 34.568C31.8689 34.9507 31.6869 35.5247 31.6869 36.29V40H30.4689V30.2H31.6869V34.008C32.1723 33.2147 32.9283 32.818 33.9549 32.818ZM42.1793 33V34.176H40.3173V37.97C40.3173 38.3153 40.3826 38.5627 40.5133 38.712C40.6533 38.852 40.8633 38.9267 41.1433 38.936C41.4233 38.936 41.7686 38.9267 42.1793 38.908V40C41.1059 40.14 40.3219 40.0513 39.8273 39.734C39.3419 39.4167 39.0993 38.8287 39.0993 37.97V34.176H37.7133V33H39.0993V31.404L40.3173 31.04V33H42.1793ZM44.4323 34.652C44.1803 34.652 43.9656 34.5633 43.7883 34.386C43.6109 34.2087 43.5223 33.994 43.5223 33.742C43.5223 33.49 43.6109 33.2753 43.7883 33.098C43.9656 32.9207 44.1803 32.832 44.4323 32.832C44.6936 32.832 44.9083 32.9207 45.0763 33.098C45.2536 33.2753 45.3423 33.49 45.3423 33.742C45.3423 33.994 45.2536 34.2087 45.0763 34.386C44.9083 34.5633 44.6936 34.652 44.4323 34.652ZM44.4323 40.154C44.1803 40.154 43.9656 40.0653 43.7883 39.888C43.6109 39.7107 43.5223 39.496 43.5223 39.244C43.5223 38.992 43.6109 38.7773 43.7883 38.6C43.9656 38.4227 44.1803 38.334 44.4323 38.334C44.6936 38.334 44.9083 38.4227 45.0763 38.6C45.2536 38.7773 45.3423 38.992 45.3423 39.244C45.3423 39.496 45.2536 39.7107 45.0763 39.888C44.9083 40.0653 44.6936 40.154 44.4323 40.154Z" fill="#282828"/>
<path d="M187.14 38.796C186.496 39.7107 185.586 40.168 184.41 40.168C183.243 40.168 182.329 39.7107 181.666 38.796C181.022 37.872 180.7 36.64 180.7 35.1C180.7 33.5507 181.022 32.3233 181.666 31.418C182.329 30.494 183.243 30.032 184.41 30.032C185.586 30.032 186.496 30.494 187.14 31.418C187.793 32.3233 188.12 33.5507 188.12 35.1C188.12 36.6493 187.793 37.8813 187.14 38.796ZM182.394 38.138C182.889 38.8567 183.561 39.216 184.41 39.216C185.269 39.216 185.936 38.8567 186.412 38.138C186.897 37.4287 187.14 36.416 187.14 35.1C187.14 33.784 186.897 32.7713 186.412 32.062C185.936 31.3433 185.269 30.984 184.41 30.984C183.561 30.984 182.889 31.3433 182.394 32.062C181.918 32.7807 181.68 33.7933 181.68 35.1C181.68 36.4067 181.918 37.4193 182.394 38.138ZM190.775 39.37C190.775 39.5847 190.7 39.7667 190.551 39.916C190.401 40.0653 190.219 40.14 190.005 40.14C189.79 40.14 189.608 40.0653 189.459 39.916C189.309 39.7667 189.235 39.5847 189.235 39.37C189.235 39.1553 189.309 38.9733 189.459 38.824C189.608 38.6747 189.79 38.6 190.005 38.6C190.219 38.6 190.401 38.6747 190.551 38.824C190.7 38.9733 190.775 39.1553 190.775 39.37ZM193.679 34.148H195.331C196.255 34.148 197.03 34.4187 197.655 34.96C198.299 35.492 198.621 36.2247 198.621 37.158C198.621 38.082 198.299 38.8193 197.655 39.37C197.03 39.902 196.255 40.168 195.331 40.168C194.575 40.168 193.908 39.986 193.329 39.622C192.76 39.2487 192.377 38.7353 192.181 38.082L193.007 37.606C193.147 38.1193 193.422 38.516 193.833 38.796C194.244 39.076 194.743 39.216 195.331 39.216C196.022 39.216 196.577 39.034 196.997 38.67C197.426 38.2967 197.641 37.7927 197.641 37.158C197.641 36.5233 197.426 36.024 196.997 35.66C196.577 35.2867 196.022 35.1 195.331 35.1H192.671L193.021 30.2H198.271V31.124H193.889L193.679 34.148ZM205.334 33.266C205.334 34.0033 205.133 34.6567 204.732 35.226L201.526 40H200.42L202.828 36.416C202.576 36.472 202.315 36.5 202.044 36.5C201.073 36.5 200.285 36.2013 199.678 35.604C199.062 35.0067 198.754 34.2273 198.754 33.266C198.754 32.3233 199.062 31.5487 199.678 30.942C200.303 30.3353 201.092 30.032 202.044 30.032C202.996 30.032 203.785 30.3353 204.41 30.942C205.026 31.5487 205.334 32.3233 205.334 33.266ZM200.364 31.614C199.944 32.034 199.734 32.5847 199.734 33.266C199.734 33.9473 199.944 34.498 200.364 34.918C200.803 35.338 201.363 35.548 202.044 35.548C202.735 35.548 203.29 35.338 203.71 34.918C204.139 34.498 204.354 33.9473 204.354 33.266C204.354 32.5847 204.139 32.034 203.71 31.614C203.29 31.194 202.735 30.984 202.044 30.984C201.363 30.984 200.803 31.194 200.364 31.614ZM211.372 30.844C211.372 31.0307 211.306 31.1893 211.176 31.32C211.045 31.4507 210.886 31.516 210.7 31.516C210.513 31.516 210.354 31.4507 210.224 31.32C210.093 31.1893 210.028 31.0307 210.028 30.844C210.028 30.6573 210.093 30.4987 210.224 30.368C210.354 30.2373 210.513 30.172 210.7 30.172C210.886 30.172 211.045 30.2373 211.176 30.368C211.306 30.4987 211.372 30.6573 211.372 30.844ZM211.162 40H210.238V33H211.162V40ZM216.399 32.832C217.239 32.832 217.906 33.0933 218.401 33.616C218.895 34.1293 219.143 34.8247 219.143 35.702V40H218.219V35.702C218.219 35.0767 218.051 34.5913 217.715 34.246C217.388 33.9007 216.921 33.728 216.315 33.728C215.615 33.728 215.059 33.9473 214.649 34.386C214.247 34.8247 214.047 35.4733 214.047 36.332V40H213.123V33H214.047V34.092C214.569 33.252 215.353 32.832 216.399 32.832ZM230.309 28.8L224.709 41.4H224.009L229.609 28.8H230.309ZM234.583 31.096L237.173 30.2H238.013V40H237.033V31.278L234.835 31.936L234.583 31.096ZM241.511 39.37C241.511 39.5847 241.436 39.7667 241.287 39.916C241.138 40.0653 240.956 40.14 240.741 40.14C240.526 40.14 240.344 40.0653 240.195 39.916C240.046 39.7667 239.971 39.5847 239.971 39.37C239.971 39.1553 240.046 38.9733 240.195 38.824C240.344 38.6747 240.526 38.6 240.741 38.6C240.956 38.6 241.138 38.6747 241.287 38.824C241.436 38.9733 241.511 39.1553 241.511 39.37ZM244.415 34.148H246.067C246.991 34.148 247.766 34.4187 248.391 34.96C249.035 35.492 249.357 36.2247 249.357 37.158C249.357 38.082 249.035 38.8193 248.391 39.37C247.766 39.902 246.991 40.168 246.067 40.168C245.311 40.168 244.644 39.986 244.065 39.622C243.496 39.2487 243.113 38.7353 242.917 38.082L243.743 37.606C243.883 38.1193 244.159 38.516 244.569 38.796C244.98 39.076 245.479 39.216 246.067 39.216C246.758 39.216 247.313 39.034 247.733 38.67C248.163 38.2967 248.377 37.7927 248.377 37.158C248.377 36.5233 248.163 36.024 247.733 35.66C247.313 35.2867 246.758 35.1 246.067 35.1H243.407L243.757 30.2H249.007V31.124H244.625L244.415 34.148ZM257.66 40.168C256.605 40.168 255.728 39.818 255.028 39.118C254.328 38.3993 253.978 37.5267 253.978 36.5C253.978 35.464 254.328 34.596 255.028 33.896C255.728 33.1867 256.605 32.832 257.66 32.832C258.351 32.832 258.971 33 259.522 33.336C260.073 33.6627 260.474 34.106 260.726 34.666L259.97 35.1C259.783 34.68 259.48 34.3487 259.06 34.106C258.649 33.854 258.183 33.728 257.66 33.728C256.885 33.728 256.232 33.9987 255.7 34.54C255.168 35.072 254.902 35.7253 254.902 36.5C254.902 37.2653 255.168 37.9233 255.7 38.474C256.232 39.006 256.885 39.272 257.66 39.272C258.173 39.272 258.635 39.1507 259.046 38.908C259.466 38.6653 259.793 38.3293 260.026 37.9L260.796 38.348C260.507 38.908 260.082 39.3513 259.522 39.678C258.962 40.0047 258.341 40.168 257.66 40.168ZM269.585 32.832C270.378 32.832 271.013 33.084 271.489 33.588C271.965 34.092 272.203 34.7733 272.203 35.632V40H271.279V35.632C271.279 35.0347 271.125 34.568 270.817 34.232C270.509 33.896 270.093 33.728 269.571 33.728C268.964 33.728 268.488 33.9287 268.143 34.33C267.797 34.7313 267.625 35.3287 267.625 36.122V40H266.701V35.632C266.701 35.0253 266.556 34.5587 266.267 34.232C265.977 33.896 265.576 33.728 265.063 33.728C264.475 33.728 263.989 33.9333 263.607 34.344C263.233 34.7547 263.047 35.3473 263.047 36.122V40H262.123V33H263.047V34.022C263.551 33.2287 264.265 32.832 265.189 32.832C266.206 32.832 266.915 33.2567 267.317 34.106C267.821 33.2567 268.577 32.832 269.585 32.832Z" fill="#282828" fill-opacity="0.8"/>
<path d="M4.676 66H3.164L0.35 56.2H1.722L3.962 64.264L6.342 56.2H7.658L10.038 64.264L12.278 56.2H13.65L10.836 66H9.324L7 58.174L4.676 66ZM20.81 63.06H14.944C15.0653 63.676 15.35 64.1613 15.798 64.516C16.246 64.8613 16.806 65.034 17.478 65.034C18.402 65.034 19.074 64.6933 19.494 64.012L20.53 64.6C19.8393 65.6547 18.8127 66.182 17.45 66.182C16.3487 66.182 15.4433 65.8367 14.734 65.146C14.0433 64.4367 13.698 63.5547 13.698 62.5C13.698 61.436 14.0387 60.5587 14.72 59.868C15.4013 59.168 16.2833 58.818 17.366 58.818C18.3927 58.818 19.228 59.182 19.872 59.91C20.5253 60.6193 20.852 61.4873 20.852 62.514C20.852 62.6913 20.838 62.8733 20.81 63.06ZM17.366 59.966C16.722 59.966 16.1807 60.148 15.742 60.512C15.3127 60.876 15.0467 61.3707 14.944 61.996H19.62C19.5173 61.352 19.2607 60.8527 18.85 60.498C18.4393 60.1433 17.9447 59.966 17.366 59.966ZM22.8681 57.726C22.6348 57.726 22.4388 57.6467 22.2801 57.488C22.1215 57.3293 22.0421 57.138 22.0421 56.914C22.0421 56.69 22.1215 56.4987 22.2801 56.34C22.4388 56.172 22.6348 56.088 22.8681 56.088C23.0921 56.088 23.2835 56.172 23.4421 56.34C23.6008 56.4987 23.6801 56.69 23.6801 56.914C23.6801 57.138 23.6008 57.3293 23.4421 57.488C23.2835 57.6467 23.0921 57.726 22.8681 57.726ZM23.4701 66H22.2521V59H23.4701V66ZM31.1383 60.204V59H32.3423V65.706C32.3423 66.742 31.9923 67.5447 31.2923 68.114C30.583 68.6927 29.743 68.982 28.7723 68.982C27.9883 68.982 27.3116 68.8327 26.7423 68.534C26.173 68.2447 25.7436 67.8247 25.4543 67.274L26.5183 66.672C26.901 67.456 27.6616 67.848 28.8003 67.848C29.5283 67.848 30.0976 67.6567 30.5083 67.274C30.9283 66.8913 31.1383 66.3687 31.1383 65.706V64.712C30.5223 65.6453 29.645 66.112 28.5063 66.112C27.4983 66.112 26.6536 65.7573 25.9723 65.048C25.2816 64.3293 24.9363 63.466 24.9363 62.458C24.9363 61.45 25.2816 60.5913 25.9723 59.882C26.6536 59.1727 27.4983 58.818 28.5063 58.818C29.6543 58.818 30.5316 59.28 31.1383 60.204ZM31.1383 62.458C31.1383 61.758 30.9003 61.17 30.4243 60.694C29.9483 60.218 29.3556 59.98 28.6463 59.98C27.937 59.98 27.3443 60.218 26.8683 60.694C26.3923 61.17 26.1543 61.758 26.1543 62.458C26.1543 63.1673 26.3923 63.76 26.8683 64.236C27.3443 64.712 27.937 64.95 28.6463 64.95C29.3556 64.95 29.9483 64.712 30.4243 64.236C30.9003 63.76 31.1383 63.1673 31.1383 62.458ZM37.6737 58.818C38.495 58.818 39.153 59.0793 39.6477 59.602C40.1423 60.1153 40.3897 60.8153 40.3897 61.702V66H39.1717V61.772C39.1717 61.212 39.0177 60.7733 38.7097 60.456C38.4017 60.1387 37.977 59.98 37.4357 59.98C36.8103 59.98 36.3157 60.176 35.9517 60.568C35.5877 60.9507 35.4057 61.5247 35.4057 62.29V66H34.1877V56.2H35.4057V60.008C35.891 59.2147 36.647 58.818 37.6737 58.818ZM45.898 59V60.176H44.036V63.97C44.036 64.3153 44.1013 64.5627 44.232 64.712C44.372 64.852 44.582 64.9267 44.862 64.936C45.142 64.936 45.4873 64.9267 45.898 64.908V66C44.8247 66.14 44.0407 66.0513 43.546 65.734C43.0607 65.4167 42.818 64.8287 42.818 63.97V60.176H41.432V59H42.818V57.404L44.036 57.04V59H45.898ZM48.151 60.652C47.899 60.652 47.6844 60.5633 47.507 60.386C47.3297 60.2087 47.241 59.994 47.241 59.742C47.241 59.49 47.3297 59.2753 47.507 59.098C47.6844 58.9207 47.899 58.832 48.151 58.832C48.4124 58.832 48.627 58.9207 48.795 59.098C48.9724 59.2753 49.061 59.49 49.061 59.742C49.061 59.994 48.9724 60.2087 48.795 60.386C48.627 60.5633 48.4124 60.652 48.151 60.652ZM48.151 66.154C47.899 66.154 47.6844 66.0653 47.507 65.888C47.3297 65.7107 47.241 65.496 47.241 65.244C47.241 64.992 47.3297 64.7773 47.507 64.6C47.6844 64.4227 47.899 64.334 48.151 64.334C48.4124 64.334 48.627 64.4227 48.795 64.6C48.9724 64.7773 49.061 64.992 49.061 65.244C49.061 65.496 48.9724 65.7107 48.795 65.888C48.627 66.0653 48.4124 66.154 48.151 66.154Z" fill="#282828"/>
<path d="M182.058 60.148H183.71C184.634 60.148 185.409 60.4187 186.034 60.96C186.678 61.492 187 62.2247 187 63.158C187 64.082 186.678 64.8193 186.034 65.37C185.409 65.902 184.634 66.168 183.71 66.168C182.954 66.168 182.287 65.986 181.708 65.622C181.139 65.2487 180.756 64.7353 180.56 64.082L181.386 63.606C181.526 64.1193 181.801 64.516 182.212 64.796C182.623 65.076 183.122 65.216 183.71 65.216C184.401 65.216 184.956 65.034 185.376 64.67C185.805 64.2967 186.02 63.7927 186.02 63.158C186.02 62.5233 185.805 62.024 185.376 61.66C184.956 61.2867 184.401 61.1 183.71 61.1H181.05L181.4 56.2H186.65V57.124H182.268L182.058 60.148ZM198.061 60.372V59H198.985V65.72C198.985 66.728 198.639 67.5213 197.949 68.1C197.258 68.6787 196.432 68.968 195.471 68.968C193.837 68.968 192.731 68.3987 192.153 67.26L192.965 66.798C193.385 67.6473 194.22 68.072 195.471 68.072C196.273 68.072 196.903 67.862 197.361 67.442C197.827 67.022 198.061 66.448 198.061 65.72V64.628C197.417 65.6547 196.474 66.168 195.233 66.168C194.234 66.168 193.38 65.8133 192.671 65.104C191.971 64.3947 191.621 63.5267 191.621 62.5C191.621 61.4733 191.971 60.6053 192.671 59.896C193.38 59.1867 194.234 58.832 195.233 58.832C196.474 58.832 197.417 59.3453 198.061 60.372ZM193.343 64.474C193.875 65.006 194.528 65.272 195.303 65.272C196.077 65.272 196.731 65.006 197.263 64.474C197.795 63.9233 198.061 63.2653 198.061 62.5C198.061 61.7253 197.795 61.072 197.263 60.54C196.731 59.9987 196.077 59.728 195.303 59.728C194.528 59.728 193.875 59.9987 193.343 60.54C192.811 61.072 192.545 61.7253 192.545 62.5C192.545 63.2653 192.811 63.9233 193.343 64.474Z" fill="#282828" fill-opacity="0.8"/>
<path d="M7.43066 91.4502L8.59277 92.7695C8.13249 93.2025 7.69499 93.5192 7.28027 93.7197C6.62402 94.0296 5.90397 94.1846 5.12012 94.1846C3.73014 94.1846 2.61589 93.7174 1.77734 92.7832C1.31706 92.2728 0.977539 91.6667 0.758789 90.9648C0.599284 90.4316 0.519531 89.8939 0.519531 89.3516C0.519531 88.4264 0.733724 87.5719 1.16211 86.7881C1.59049 85.9951 2.1875 85.3981 2.95312 84.9971C3.60026 84.6598 4.33398 84.4912 5.1543 84.4912C5.99284 84.4912 6.74935 84.6644 7.42383 85.0107C7.80664 85.2067 8.22591 85.5257 8.68164 85.9678L7.43066 87.2324C6.72428 86.5853 5.99512 86.2617 5.24316 86.2617C4.39095 86.2617 3.7028 86.5693 3.17871 87.1846C2.7002 87.7451 2.46094 88.4538 2.46094 89.3105C2.46094 89.944 2.60905 90.5228 2.90527 91.0469C3.13314 91.457 3.47038 91.7897 3.91699 92.0449C4.34538 92.291 4.82161 92.4141 5.3457 92.4141C6.18424 92.4141 6.87923 92.0928 7.43066 91.4502ZM15.6064 94L15.0869 92.3867H11.4912L10.9375 94H8.90723L12.1338 84.6689H14.5264L17.7119 94H15.6064ZM11.9834 90.8145H14.5811L13.2891 86.9521L11.9834 90.8145ZM18.1836 91.2725H20.0498C20.0498 91.5186 20.0794 91.7031 20.1387 91.8262C20.2435 92.0312 20.4098 92.1953 20.6377 92.3184C20.8519 92.4277 21.082 92.4824 21.3281 92.4824C21.6927 92.4824 22.0003 92.3753 22.251 92.1611C22.4561 91.9743 22.5586 91.7487 22.5586 91.4844C22.5586 91.1836 22.431 90.9375 22.1758 90.7461C21.9889 90.6094 21.6107 90.4385 21.041 90.2334C20.1341 89.9144 19.471 89.5703 19.0518 89.2012C18.5277 88.7454 18.2656 88.1165 18.2656 87.3145C18.2656 86.4258 18.5687 85.7262 19.1748 85.2158C19.7399 84.7327 20.4668 84.4912 21.3555 84.4912C22.2122 84.4912 22.9186 84.7236 23.4746 85.1885C24.0762 85.7035 24.418 86.4212 24.5 87.3418H22.5586C22.4993 86.5716 22.0938 86.1865 21.3418 86.1865C20.9544 86.1865 20.6605 86.2936 20.46 86.5078C20.2868 86.6947 20.2002 86.9134 20.2002 87.1641C20.2002 87.5469 20.3916 87.8431 20.7744 88.0527C20.9704 88.1576 21.335 88.3079 21.8682 88.5039C22.5381 88.7454 23.0303 88.9688 23.3447 89.1738C24.1514 89.6934 24.5547 90.418 24.5547 91.3477C24.5547 92.332 24.1719 93.084 23.4062 93.6035C22.8411 93.9863 22.153 94.1777 21.3418 94.1777C20.4121 94.1777 19.6715 93.943 19.1201 93.4736C18.4867 92.945 18.1745 92.2113 18.1836 91.2725ZM30.8916 86.2344H27.6172V88.5312H30.8916V90.0967H27.6172V92.4346H30.8916V94H25.7031V84.6689H30.8916V86.2344Z" fill="#282828"/>
<path d="M7.112 117.358V113.2H8.4V123H7.112V118.59H2.352V123H1.05V113.2H2.352V117.358H7.112ZM17.0913 120.06H11.2253C11.3466 120.676 11.6313 121.161 12.0793 121.516C12.5273 121.861 13.0873 122.034 13.7593 122.034C14.6833 122.034 15.3553 121.693 15.7753 121.012L16.8113 121.6C16.1206 122.655 15.0939 123.182 13.7313 123.182C12.6299 123.182 11.7246 122.837 11.0153 122.146C10.3246 121.437 9.97927 120.555 9.97927 119.5C9.97927 118.436 10.3199 117.559 11.0013 116.868C11.6826 116.168 12.5646 115.818 13.6473 115.818C14.6739 115.818 15.5093 116.182 16.1533 116.91C16.8066 117.619 17.1333 118.487 17.1333 119.514C17.1333 119.691 17.1193 119.873 17.0913 120.06ZM13.6473 116.966C13.0033 116.966 12.4619 117.148 12.0233 117.512C11.5939 117.876 11.3279 118.371 11.2253 118.996H15.9013C15.7986 118.352 15.5419 117.853 15.1313 117.498C14.7206 117.143 14.2259 116.966 13.6473 116.966ZM19.1494 114.726C18.916 114.726 18.72 114.647 18.5614 114.488C18.4027 114.329 18.3234 114.138 18.3234 113.914C18.3234 113.69 18.4027 113.499 18.5614 113.34C18.72 113.172 18.916 113.088 19.1494 113.088C19.3734 113.088 19.5647 113.172 19.7234 113.34C19.882 113.499 19.9614 113.69 19.9614 113.914C19.9614 114.138 19.882 114.329 19.7234 114.488C19.5647 114.647 19.3734 114.726 19.1494 114.726ZM19.7514 123H18.5334V116H19.7514V123ZM27.4195 117.204V116H28.6235V122.706C28.6235 123.742 28.2735 124.545 27.5735 125.114C26.8642 125.693 26.0242 125.982 25.0535 125.982C24.2695 125.982 23.5929 125.833 23.0235 125.534C22.4542 125.245 22.0249 124.825 21.7355 124.274L22.7995 123.672C23.1822 124.456 23.9429 124.848 25.0815 124.848C25.8095 124.848 26.3789 124.657 26.7895 124.274C27.2095 123.891 27.4195 123.369 27.4195 122.706V121.712C26.8035 122.645 25.9262 123.112 24.7875 123.112C23.7795 123.112 22.9349 122.757 22.2535 122.048C21.5629 121.329 21.2175 120.466 21.2175 119.458C21.2175 118.45 21.5629 117.591 22.2535 116.882C22.9349 116.173 23.7795 115.818 24.7875 115.818C25.9355 115.818 26.8129 116.28 27.4195 117.204ZM27.4195 119.458C27.4195 118.758 27.1815 118.17 26.7055 117.694C26.2295 117.218 25.6369 116.98 24.9275 116.98C24.2182 116.98 23.6255 117.218 23.1495 117.694C22.6735 118.17 22.4355 118.758 22.4355 119.458C22.4355 120.167 22.6735 120.76 23.1495 121.236C23.6255 121.712 24.2182 121.95 24.9275 121.95C25.6369 121.95 26.2295 121.712 26.7055 121.236C27.1815 120.76 27.4195 120.167 27.4195 119.458ZM33.9549 115.818C34.7763 115.818 35.4343 116.079 35.9289 116.602C36.4236 117.115 36.6709 117.815 36.6709 118.702V123H35.4529V118.772C35.4529 118.212 35.2989 117.773 34.9909 117.456C34.6829 117.139 34.2583 116.98 33.7169 116.98C33.0916 116.98 32.5969 117.176 32.2329 117.568C31.8689 117.951 31.6869 118.525 31.6869 119.29V123H30.4689V113.2H31.6869V117.008C32.1723 116.215 32.9283 115.818 33.9549 115.818ZM42.1793 116V117.176H40.3173V120.97C40.3173 121.315 40.3826 121.563 40.5133 121.712C40.6533 121.852 40.8633 121.927 41.1433 121.936C41.4233 121.936 41.7686 121.927 42.1793 121.908V123C41.1059 123.14 40.3219 123.051 39.8273 122.734C39.3419 122.417 39.0993 121.829 39.0993 120.97V117.176H37.7133V116H39.0993V114.404L40.3173 114.04V116H42.1793ZM44.4323 117.652C44.1803 117.652 43.9656 117.563 43.7883 117.386C43.6109 117.209 43.5223 116.994 43.5223 116.742C43.5223 116.49 43.6109 116.275 43.7883 116.098C43.9656 115.921 44.1803 115.832 44.4323 115.832C44.6936 115.832 44.9083 115.921 45.0763 116.098C45.2536 116.275 45.3423 116.49 45.3423 116.742C45.3423 116.994 45.2536 117.209 45.0763 117.386C44.9083 117.563 44.6936 117.652 44.4323 117.652ZM44.4323 123.154C44.1803 123.154 43.9656 123.065 43.7883 122.888C43.6109 122.711 43.5223 122.496 43.5223 122.244C43.5223 121.992 43.6109 121.777 43.7883 121.6C43.9656 121.423 44.1803 121.334 44.4323 121.334C44.6936 121.334 44.9083 121.423 45.0763 121.6C45.2536 121.777 45.3423 121.992 45.3423 122.244C45.3423 122.496 45.2536 122.711 45.0763 122.888C44.9083 123.065 44.6936 123.154 44.4323 123.154Z" fill="#282828"/>
<path d="M180.21 114.096L182.8 113.2H183.64V123H182.66V114.278L180.462 114.936L180.21 114.096ZM190.372 113.844C190.372 114.031 190.306 114.189 190.176 114.32C190.045 114.451 189.886 114.516 189.7 114.516C189.513 114.516 189.354 114.451 189.224 114.32C189.093 114.189 189.028 114.031 189.028 113.844C189.028 113.657 189.093 113.499 189.224 113.368C189.354 113.237 189.513 113.172 189.7 113.172C189.886 113.172 190.045 113.237 190.176 113.368C190.306 113.499 190.372 113.657 190.372 113.844ZM190.162 123H189.238V116H190.162V123ZM195.399 115.832C196.239 115.832 196.906 116.093 197.401 116.616C197.895 117.129 198.143 117.825 198.143 118.702V123H197.219V118.702C197.219 118.077 197.051 117.591 196.715 117.246C196.388 116.901 195.921 116.728 195.315 116.728C194.615 116.728 194.059 116.947 193.649 117.386C193.247 117.825 193.047 118.473 193.047 119.332V123H192.123V116H193.047V117.092C193.569 116.252 194.353 115.832 195.399 115.832ZM209.309 111.8L203.709 124.4H203.009L208.609 111.8H209.309ZM220.163 123H213.933V122.118L217.461 118.562C218.469 117.554 218.973 116.691 218.973 115.972C218.973 115.365 218.782 114.885 218.399 114.53C218.026 114.166 217.559 113.984 216.999 113.984C216 113.984 215.268 114.446 214.801 115.37L213.975 114.88C214.274 114.283 214.689 113.825 215.221 113.508C215.753 113.191 216.346 113.032 216.999 113.032C217.783 113.032 218.469 113.298 219.057 113.83C219.654 114.343 219.953 115.057 219.953 115.972C219.953 116.513 219.804 117.045 219.505 117.568C219.206 118.081 218.749 118.646 218.133 119.262L215.333 122.048H220.163V123ZM223.109 122.37C223.109 122.585 223.034 122.767 222.885 122.916C222.735 123.065 222.553 123.14 222.339 123.14C222.124 123.14 221.942 123.065 221.793 122.916C221.643 122.767 221.569 122.585 221.569 122.37C221.569 122.155 221.643 121.973 221.793 121.824C221.942 121.675 222.124 121.6 222.339 121.6C222.553 121.6 222.735 121.675 222.885 121.824C223.034 121.973 223.109 122.155 223.109 122.37ZM226.013 117.148H227.665C228.589 117.148 229.364 117.419 229.989 117.96C230.633 118.492 230.955 119.225 230.955 120.158C230.955 121.082 230.633 121.819 229.989 122.37C229.364 122.902 228.589 123.168 227.665 123.168C226.909 123.168 226.242 122.986 225.663 122.622C225.094 122.249 224.711 121.735 224.515 121.082L225.341 120.606C225.481 121.119 225.756 121.516 226.167 121.796C226.578 122.076 227.077 122.216 227.665 122.216C228.356 122.216 228.911 122.034 229.331 121.67C229.76 121.297 229.975 120.793 229.975 120.158C229.975 119.523 229.76 119.024 229.331 118.66C228.911 118.287 228.356 118.1 227.665 118.1H225.005L225.355 113.2H230.605V114.124H226.223L226.013 117.148ZM233.3 117.148H234.952C235.876 117.148 236.651 117.419 237.276 117.96C237.92 118.492 238.242 119.225 238.242 120.158C238.242 121.082 237.92 121.819 237.276 122.37C236.651 122.902 235.876 123.168 234.952 123.168C234.196 123.168 233.529 122.986 232.95 122.622C232.381 122.249 231.998 121.735 231.802 121.082L232.628 120.606C232.768 121.119 233.044 121.516 233.454 121.796C233.865 122.076 234.364 122.216 234.952 122.216C235.643 122.216 236.198 122.034 236.618 121.67C237.048 121.297 237.262 120.793 237.262 120.158C237.262 119.523 237.048 119.024 236.618 118.66C236.198 118.287 235.643 118.1 234.952 118.1H232.292L232.642 113.2H237.892V114.124H233.51L233.3 117.148ZM246.545 123.168C245.49 123.168 244.613 122.818 243.913 122.118C243.213 121.399 242.863 120.527 242.863 119.5C242.863 118.464 243.213 117.596 243.913 116.896C244.613 116.187 245.49 115.832 246.545 115.832C247.235 115.832 247.856 116 248.407 116.336C248.957 116.663 249.359 117.106 249.611 117.666L248.855 118.1C248.668 117.68 248.365 117.349 247.945 117.106C247.534 116.854 247.067 116.728 246.545 116.728C245.77 116.728 245.117 116.999 244.585 117.54C244.053 118.072 243.787 118.725 243.787 119.5C243.787 120.265 244.053 120.923 244.585 121.474C245.117 122.006 245.77 122.272 246.545 122.272C247.058 122.272 247.52 122.151 247.931 121.908C248.351 121.665 248.677 121.329 248.911 120.9L249.681 121.348C249.391 121.908 248.967 122.351 248.407 122.678C247.847 123.005 247.226 123.168 246.545 123.168ZM258.469 115.832C259.263 115.832 259.897 116.084 260.373 116.588C260.849 117.092 261.087 117.773 261.087 118.632V123H260.163V118.632C260.163 118.035 260.009 117.568 259.701 117.232C259.393 116.896 258.978 116.728 258.455 116.728C257.849 116.728 257.373 116.929 257.027 117.33C256.682 117.731 256.509 118.329 256.509 119.122V123H255.585V118.632C255.585 118.025 255.441 117.559 255.151 117.232C254.862 116.896 254.461 116.728 253.947 116.728C253.359 116.728 252.874 116.933 252.491 117.344C252.118 117.755 251.931 118.347 251.931 119.122V123H251.007V116H251.931V117.022C252.435 116.229 253.149 115.832 254.073 115.832C255.091 115.832 255.8 116.257 256.201 117.106C256.705 116.257 257.461 115.832 258.469 115.832Z" fill="#282828" fill-opacity="0.8"/>
<path d="M4.676 149H3.164L0.35 139.2H1.722L3.962 147.264L6.342 139.2H7.658L10.038 147.264L12.278 139.2H13.65L10.836 149H9.324L7 141.174L4.676 149ZM20.81 146.06H14.944C15.0653 146.676 15.35 147.161 15.798 147.516C16.246 147.861 16.806 148.034 17.478 148.034C18.402 148.034 19.074 147.693 19.494 147.012L20.53 147.6C19.8393 148.655 18.8127 149.182 17.45 149.182C16.3487 149.182 15.4433 148.837 14.734 148.146C14.0433 147.437 13.698 146.555 13.698 145.5C13.698 144.436 14.0387 143.559 14.72 142.868C15.4013 142.168 16.2833 141.818 17.366 141.818C18.3927 141.818 19.228 142.182 19.872 142.91C20.5253 143.619 20.852 144.487 20.852 145.514C20.852 145.691 20.838 145.873 20.81 146.06ZM17.366 142.966C16.722 142.966 16.1807 143.148 15.742 143.512C15.3127 143.876 15.0467 144.371 14.944 144.996H19.62C19.5173 144.352 19.2607 143.853 18.85 143.498C18.4393 143.143 17.9447 142.966 17.366 142.966ZM22.8681 140.726C22.6348 140.726 22.4388 140.647 22.2801 140.488C22.1215 140.329 22.0421 140.138 22.0421 139.914C22.0421 139.69 22.1215 139.499 22.2801 139.34C22.4388 139.172 22.6348 139.088 22.8681 139.088C23.0921 139.088 23.2835 139.172 23.4421 139.34C23.6008 139.499 23.6801 139.69 23.6801 139.914C23.6801 140.138 23.6008 140.329 23.4421 140.488C23.2835 140.647 23.0921 140.726 22.8681 140.726ZM23.4701 149H22.2521V142H23.4701V149ZM31.1383 143.204V142H32.3423V148.706C32.3423 149.742 31.9923 150.545 31.2923 151.114C30.583 151.693 29.743 151.982 28.7723 151.982C27.9883 151.982 27.3116 151.833 26.7423 151.534C26.173 151.245 25.7436 150.825 25.4543 150.274L26.5183 149.672C26.901 150.456 27.6616 150.848 28.8003 150.848C29.5283 150.848 30.0976 150.657 30.5083 150.274C30.9283 149.891 31.1383 149.369 31.1383 148.706V147.712C30.5223 148.645 29.645 149.112 28.5063 149.112C27.4983 149.112 26.6536 148.757 25.9723 148.048C25.2816 147.329 24.9363 146.466 24.9363 145.458C24.9363 144.45 25.2816 143.591 25.9723 142.882C26.6536 142.173 27.4983 141.818 28.5063 141.818C29.6543 141.818 30.5316 142.28 31.1383 143.204ZM31.1383 145.458C31.1383 144.758 30.9003 144.17 30.4243 143.694C29.9483 143.218 29.3556 142.98 28.6463 142.98C27.937 142.98 27.3443 143.218 26.8683 143.694C26.3923 144.17 26.1543 144.758 26.1543 145.458C26.1543 146.167 26.3923 146.76 26.8683 147.236C27.3443 147.712 27.937 147.95 28.6463 147.95C29.3556 147.95 29.9483 147.712 30.4243 147.236C30.9003 146.76 31.1383 146.167 31.1383 145.458ZM37.6737 141.818C38.495 141.818 39.153 142.079 39.6477 142.602C40.1423 143.115 40.3897 143.815 40.3897 144.702V149H39.1717V144.772C39.1717 144.212 39.0177 143.773 38.7097 143.456C38.4017 143.139 37.977 142.98 37.4357 142.98C36.8103 142.98 36.3157 143.176 35.9517 143.568C35.5877 143.951 35.4057 144.525 35.4057 145.29V149H34.1877V139.2H35.4057V143.008C35.891 142.215 36.647 141.818 37.6737 141.818ZM45.898 142V143.176H44.036V146.97C44.036 147.315 44.1013 147.563 44.232 147.712C44.372 147.852 44.582 147.927 44.862 147.936C45.142 147.936 45.4873 147.927 45.898 147.908V149C44.8247 149.14 44.0407 149.051 43.546 148.734C43.0607 148.417 42.818 147.829 42.818 146.97V143.176H41.432V142H42.818V140.404L44.036 140.04V142H45.898ZM48.151 143.652C47.899 143.652 47.6844 143.563 47.507 143.386C47.3297 143.209 47.241 142.994 47.241 142.742C47.241 142.49 47.3297 142.275 47.507 142.098C47.6844 141.921 47.899 141.832 48.151 141.832C48.4124 141.832 48.627 141.921 48.795 142.098C48.9724 142.275 49.061 142.49 49.061 142.742C49.061 142.994 48.9724 143.209 48.795 143.386C48.627 143.563 48.4124 143.652 48.151 143.652ZM48.151 149.154C47.899 149.154 47.6844 149.065 47.507 148.888C47.3297 148.711 47.241 148.496 47.241 148.244C47.241 147.992 47.3297 147.777 47.507 147.6C47.6844 147.423 47.899 147.334 48.151 147.334C48.4124 147.334 48.627 147.423 48.795 147.6C48.9724 147.777 49.061 147.992 49.061 148.244C49.061 148.496 48.9724 148.711 48.795 148.888C48.627 149.065 48.4124 149.154 48.151 149.154Z" fill="#282828"/>
<path d="M186.51 146.116H187.77V147.04H186.51V149H185.53V147.04H180.35V146.116L183.99 139.2H185.068L181.428 146.116H185.53V143.12H186.51V146.116ZM193.609 143.946C194.113 144.179 194.51 144.506 194.799 144.926C195.088 145.346 195.233 145.817 195.233 146.34C195.233 147.227 194.92 147.922 194.295 148.426C193.66 148.921 192.881 149.168 191.957 149.168C191.033 149.168 190.254 148.921 189.619 148.426C188.994 147.922 188.681 147.227 188.681 146.34C188.681 145.817 188.826 145.346 189.115 144.926C189.404 144.506 189.801 144.179 190.305 143.946C189.437 143.451 189.003 142.719 189.003 141.748C189.003 140.871 189.292 140.199 189.871 139.732C190.468 139.265 191.164 139.032 191.957 139.032C192.76 139.032 193.45 139.265 194.029 139.732C194.617 140.199 194.911 140.871 194.911 141.748C194.911 142.719 194.477 143.451 193.609 143.946ZM189.983 141.748C189.983 142.289 190.17 142.719 190.543 143.036C190.926 143.353 191.397 143.512 191.957 143.512C192.517 143.512 192.984 143.353 193.357 143.036C193.74 142.719 193.931 142.289 193.931 141.748C193.931 141.179 193.749 140.745 193.385 140.446C193.021 140.138 192.545 139.984 191.957 139.984C191.369 139.984 190.893 140.138 190.529 140.446C190.165 140.745 189.983 141.179 189.983 141.748ZM190.291 147.74C190.702 148.057 191.257 148.216 191.957 148.216C192.657 148.216 193.212 148.057 193.623 147.74C194.043 147.413 194.253 146.947 194.253 146.34C194.253 145.743 194.043 145.281 193.623 144.954C193.194 144.627 192.638 144.464 191.957 144.464C191.276 144.464 190.72 144.627 190.291 144.954C189.871 145.281 189.661 145.743 189.661 146.34C189.661 146.956 189.871 147.423 190.291 147.74ZM206.291 143.372V142H207.215V148.72C207.215 149.728 206.87 150.521 206.179 151.1C205.488 151.679 204.662 151.968 203.701 151.968C202.068 151.968 200.962 151.399 200.383 150.26L201.195 149.798C201.615 150.647 202.45 151.072 203.701 151.072C204.504 151.072 205.134 150.862 205.591 150.442C206.058 150.022 206.291 149.448 206.291 148.72V147.628C205.647 148.655 204.704 149.168 203.463 149.168C202.464 149.168 201.61 148.813 200.901 148.104C200.201 147.395 199.851 146.527 199.851 145.5C199.851 144.473 200.201 143.605 200.901 142.896C201.61 142.187 202.464 141.832 203.463 141.832C204.704 141.832 205.647 142.345 206.291 143.372ZM201.573 147.474C202.105 148.006 202.758 148.272 203.533 148.272C204.308 148.272 204.961 148.006 205.493 147.474C206.025 146.923 206.291 146.265 206.291 145.5C206.291 144.725 206.025 144.072 205.493 143.54C204.961 142.999 204.308 142.728 203.533 142.728C202.758 142.728 202.105 142.999 201.573 143.54C201.041 144.072 200.775 144.725 200.775 145.5C200.775 146.265 201.041 146.923 201.573 147.474Z" fill="#282828" fill-opacity="0.8"/>
<path d="M2.352 165.2V173.768H6.58V175H1.05V165.2H2.352ZM14.2065 172.06H8.3405C8.46183 172.676 8.7465 173.161 9.1945 173.516C9.6425 173.861 10.2025 174.034 10.8745 174.034C11.7985 174.034 12.4705 173.693 12.8905 173.012L13.9265 173.6C13.2358 174.655 12.2092 175.182 10.8465 175.182C9.74517 175.182 8.83983 174.837 8.1305 174.146C7.43983 173.437 7.0945 172.555 7.0945 171.5C7.0945 170.436 7.43517 169.559 8.1165 168.868C8.79783 168.168 9.67983 167.818 10.7625 167.818C11.7892 167.818 12.6245 168.182 13.2685 168.91C13.9218 169.619 14.2485 170.487 14.2485 171.514C14.2485 171.691 14.2345 171.873 14.2065 172.06ZM10.7625 168.966C10.1185 168.966 9.57717 169.148 9.1385 169.512C8.70917 169.876 8.44317 170.371 8.3405 170.996H13.0165C12.9138 170.352 12.6572 169.853 12.2465 169.498C11.8358 169.143 11.3412 168.966 10.7625 168.966ZM19.1346 167.818C19.9559 167.818 20.6139 168.079 21.1086 168.602C21.6033 169.115 21.8506 169.815 21.8506 170.702V175H20.6326V170.772C20.6326 170.212 20.4786 169.773 20.1706 169.456C19.8626 169.139 19.4379 168.98 18.8966 168.98C18.2713 168.98 17.7766 169.176 17.4126 169.568C17.0486 169.951 16.8666 170.525 16.8666 171.29V175H15.6486V168H16.8666V169.008C17.3519 168.215 18.1079 167.818 19.1346 167.818ZM29.361 169.204V168H30.565V174.706C30.565 175.742 30.215 176.545 29.515 177.114C28.8056 177.693 27.9656 177.982 26.995 177.982C26.211 177.982 25.5343 177.833 24.965 177.534C24.3956 177.245 23.9663 176.825 23.677 176.274L24.741 175.672C25.1236 176.456 25.8843 176.848 27.023 176.848C27.751 176.848 28.3203 176.657 28.731 176.274C29.151 175.891 29.361 175.369 29.361 174.706V173.712C28.745 174.645 27.8676 175.112 26.729 175.112C25.721 175.112 24.8763 174.757 24.195 174.048C23.5043 173.329 23.159 172.466 23.159 171.458C23.159 170.45 23.5043 169.591 24.195 168.882C24.8763 168.173 25.721 167.818 26.729 167.818C27.877 167.818 28.7543 168.28 29.361 169.204ZM29.361 171.458C29.361 170.758 29.123 170.17 28.647 169.694C28.171 169.218 27.5783 168.98 26.869 168.98C26.1596 168.98 25.567 169.218 25.091 169.694C24.615 170.17 24.377 170.758 24.377 171.458C24.377 172.167 24.615 172.76 25.091 173.236C25.567 173.712 26.1596 173.95 26.869 173.95C27.5783 173.95 28.171 173.712 28.647 173.236C29.123 172.76 29.361 172.167 29.361 171.458ZM36.2183 168V169.176H34.3563V172.97C34.3563 173.315 34.4217 173.563 34.5523 173.712C34.6923 173.852 34.9023 173.927 35.1823 173.936C35.4623 173.936 35.8077 173.927 36.2183 173.908V175C35.145 175.14 34.361 175.051 33.8663 174.734C33.381 174.417 33.1383 173.829 33.1383 172.97V169.176H31.7523V168H33.1383V166.404L34.3563 166.04V168H36.2183ZM41.1463 167.818C41.9677 167.818 42.6257 168.079 43.1203 168.602C43.615 169.115 43.8623 169.815 43.8623 170.702V175H42.6443V170.772C42.6443 170.212 42.4903 169.773 42.1823 169.456C41.8743 169.139 41.4497 168.98 40.9083 168.98C40.283 168.98 39.7883 169.176 39.4243 169.568C39.0603 169.951 38.8783 170.525 38.8783 171.29V175H37.6603V165.2H38.8783V169.008C39.3637 168.215 40.1197 167.818 41.1463 167.818ZM46.3327 169.652C46.0807 169.652 45.866 169.563 45.6887 169.386C45.5113 169.209 45.4227 168.994 45.4227 168.742C45.4227 168.49 45.5113 168.275 45.6887 168.098C45.866 167.921 46.0807 167.832 46.3327 167.832C46.594 167.832 46.8087 167.921 46.9767 168.098C47.154 168.275 47.2427 168.49 47.2427 168.742C47.2427 168.994 47.154 169.209 46.9767 169.386C46.8087 169.563 46.594 169.652 46.3327 169.652ZM46.3327 175.154C46.0807 175.154 45.866 175.065 45.6887 174.888C45.5113 174.711 45.4227 174.496 45.4227 174.244C45.4227 173.992 45.5113 173.777 45.6887 173.6C45.866 173.423 46.0807 173.334 46.3327 173.334C46.594 173.334 46.8087 173.423 46.9767 173.6C47.154 173.777 47.2427 173.992 47.2427 174.244C47.2427 174.496 47.154 174.711 46.9767 174.888C46.8087 175.065 46.594 175.154 46.3327 175.154Z" fill="#282828"/>
<path d="M186.79 175H180.56V174.118L184.088 170.562C185.096 169.554 185.6 168.691 185.6 167.972C185.6 167.365 185.409 166.885 185.026 166.53C184.653 166.166 184.186 165.984 183.626 165.984C182.627 165.984 181.895 166.446 181.428 167.37L180.602 166.88C180.901 166.283 181.316 165.825 181.848 165.508C182.38 165.191 182.973 165.032 183.626 165.032C184.41 165.032 185.096 165.298 185.684 165.83C186.281 166.343 186.58 167.057 186.58 167.972C186.58 168.513 186.431 169.045 186.132 169.568C185.833 170.081 185.376 170.646 184.76 171.262L181.96 174.048H186.79V175ZM189.735 174.37C189.735 174.585 189.661 174.767 189.511 174.916C189.362 175.065 189.18 175.14 188.965 175.14C188.751 175.14 188.569 175.065 188.419 174.916C188.27 174.767 188.195 174.585 188.195 174.37C188.195 174.155 188.27 173.973 188.419 173.824C188.569 173.675 188.751 173.6 188.965 173.6C189.18 173.6 189.362 173.675 189.511 173.824C189.661 173.973 189.735 174.155 189.735 174.37ZM196.07 169.946C196.574 170.179 196.971 170.506 197.26 170.926C197.549 171.346 197.694 171.817 197.694 172.34C197.694 173.227 197.381 173.922 196.756 174.426C196.121 174.921 195.342 175.168 194.418 175.168C193.494 175.168 192.715 174.921 192.08 174.426C191.455 173.922 191.142 173.227 191.142 172.34C191.142 171.817 191.287 171.346 191.576 170.926C191.865 170.506 192.262 170.179 192.766 169.946C191.898 169.451 191.464 168.719 191.464 167.748C191.464 166.871 191.753 166.199 192.332 165.732C192.929 165.265 193.625 165.032 194.418 165.032C195.221 165.032 195.911 165.265 196.49 165.732C197.078 166.199 197.372 166.871 197.372 167.748C197.372 168.719 196.938 169.451 196.07 169.946ZM192.444 167.748C192.444 168.289 192.631 168.719 193.004 169.036C193.387 169.353 193.858 169.512 194.418 169.512C194.978 169.512 195.445 169.353 195.818 169.036C196.201 168.719 196.392 168.289 196.392 167.748C196.392 167.179 196.21 166.745 195.846 166.446C195.482 166.138 195.006 165.984 194.418 165.984C193.83 165.984 193.354 166.138 192.99 166.446C192.626 166.745 192.444 167.179 192.444 167.748ZM192.752 173.74C193.163 174.057 193.718 174.216 194.418 174.216C195.118 174.216 195.673 174.057 196.084 173.74C196.504 173.413 196.714 172.947 196.714 172.34C196.714 171.743 196.504 171.281 196.084 170.954C195.655 170.627 195.099 170.464 194.418 170.464C193.737 170.464 193.181 170.627 192.752 170.954C192.332 171.281 192.122 171.743 192.122 172.34C192.122 172.956 192.332 173.423 192.752 173.74ZM204.419 166.124L202.137 169.274C202.911 169.367 203.555 169.671 204.069 170.184C204.582 170.669 204.839 171.327 204.839 172.158C204.839 173.082 204.517 173.819 203.873 174.37C203.247 174.902 202.473 175.168 201.549 175.168C200.811 175.168 200.158 175 199.589 174.664C199.019 174.319 198.623 173.838 198.399 173.222L199.211 172.746C199.369 173.222 199.649 173.586 200.051 173.838C200.461 174.09 200.961 174.216 201.549 174.216C202.239 174.216 202.795 174.034 203.215 173.67C203.644 173.297 203.859 172.793 203.859 172.158C203.859 171.523 203.644 171.024 203.215 170.66C202.795 170.287 202.239 170.1 201.549 170.1V170.086L201.535 170.1H201.269L200.849 169.456L203.285 166.124H198.679V165.2H204.419V166.124ZM211.016 165.844C211.016 166.031 210.951 166.189 210.82 166.32C210.69 166.451 210.531 166.516 210.344 166.516C210.158 166.516 209.999 166.451 209.868 166.32C209.738 166.189 209.672 166.031 209.672 165.844C209.672 165.657 209.738 165.499 209.868 165.368C209.999 165.237 210.158 165.172 210.344 165.172C210.531 165.172 210.69 165.237 210.82 165.368C210.951 165.499 211.016 165.657 211.016 165.844ZM210.806 175H209.882V168H210.806V175ZM216.043 167.832C216.883 167.832 217.55 168.093 218.045 168.616C218.54 169.129 218.787 169.825 218.787 170.702V175H217.863V170.702C217.863 170.077 217.695 169.591 217.359 169.246C217.032 168.901 216.566 168.728 215.959 168.728C215.259 168.728 214.704 168.947 214.293 169.386C213.892 169.825 213.691 170.473 213.691 171.332V175H212.767V168H213.691V169.092C214.214 168.252 214.998 167.832 216.043 167.832ZM229.954 163.8L224.354 176.4H223.654L229.254 163.8H229.954ZM234.298 166.124V165.2H240.318V166.124L236.622 175H235.6L239.296 166.124H234.298ZM241.155 174.37C241.155 174.585 241.081 174.767 240.931 174.916C240.782 175.065 240.6 175.14 240.385 175.14C240.171 175.14 239.989 175.065 239.839 174.916C239.69 174.767 239.615 174.585 239.615 174.37C239.615 174.155 239.69 173.973 239.839 173.824C239.989 173.675 240.171 173.6 240.385 173.6C240.6 173.6 240.782 173.675 240.931 173.824C241.081 173.973 241.155 174.155 241.155 174.37ZM248.792 175H242.562V174.118L246.09 170.562C247.098 169.554 247.602 168.691 247.602 167.972C247.602 167.365 247.411 166.885 247.028 166.53C246.655 166.166 246.188 165.984 245.628 165.984C244.629 165.984 243.897 166.446 243.43 167.37L242.604 166.88C242.903 166.283 243.318 165.825 243.85 165.508C244.382 165.191 244.975 165.032 245.628 165.032C246.412 165.032 247.098 165.298 247.686 165.83C248.283 166.343 248.582 167.057 248.582 167.972C248.582 168.513 248.433 169.045 248.134 169.568C247.835 170.081 247.378 170.646 246.762 171.262L243.962 174.048H248.792V175ZM257.099 175.168C256.045 175.168 255.167 174.818 254.467 174.118C253.767 173.399 253.417 172.527 253.417 171.5C253.417 170.464 253.767 169.596 254.467 168.896C255.167 168.187 256.045 167.832 257.099 167.832C257.79 167.832 258.411 168 258.961 168.336C259.512 168.663 259.913 169.106 260.165 169.666L259.409 170.1C259.223 169.68 258.919 169.349 258.499 169.106C258.089 168.854 257.622 168.728 257.099 168.728C256.325 168.728 255.671 168.999 255.139 169.54C254.607 170.072 254.341 170.725 254.341 171.5C254.341 172.265 254.607 172.923 255.139 173.474C255.671 174.006 256.325 174.272 257.099 174.272C257.613 174.272 258.075 174.151 258.485 173.908C258.905 173.665 259.232 173.329 259.465 172.9L260.235 173.348C259.946 173.908 259.521 174.351 258.961 174.678C258.401 175.005 257.781 175.168 257.099 175.168ZM269.024 167.832C269.817 167.832 270.452 168.084 270.928 168.588C271.404 169.092 271.642 169.773 271.642 170.632V175H270.718V170.632C270.718 170.035 270.564 169.568 270.256 169.232C269.948 168.896 269.533 168.728 269.01 168.728C268.403 168.728 267.927 168.929 267.582 169.33C267.237 169.731 267.064 170.329 267.064 171.122V175H266.14V170.632C266.14 170.025 265.995 169.559 265.706 169.232C265.417 168.896 265.015 168.728 264.502 168.728C263.914 168.728 263.429 168.933 263.046 169.344C262.673 169.755 262.486 170.347 262.486 171.122V175H261.562V168H262.486V169.022C262.99 168.229 263.704 167.832 264.628 167.832C265.645 167.832 266.355 168.257 266.756 169.106C267.26 168.257 268.016 167.832 269.024 167.832Z" fill="#282828" fill-opacity="0.8"/>
<path d="M4.676 201H3.164L0.35 191.2H1.722L3.962 199.264L6.342 191.2H7.658L10.038 199.264L12.278 191.2H13.65L10.836 201H9.324L7 193.174L4.676 201ZM15.2666 192.726C15.0332 192.726 14.8372 192.647 14.6786 192.488C14.5199 192.329 14.4406 192.138 14.4406 191.914C14.4406 191.69 14.5199 191.499 14.6786 191.34C14.8372 191.172 15.0332 191.088 15.2666 191.088C15.4906 191.088 15.6819 191.172 15.8406 191.34C15.9992 191.499 16.0786 191.69 16.0786 191.914C16.0786 192.138 15.9992 192.329 15.8406 192.488C15.6819 192.647 15.4906 192.726 15.2666 192.726ZM15.8686 201H14.6506V194H15.8686V201ZM23.5227 195.204V191.2H24.7407V201H23.5227V199.796C22.9254 200.72 22.0434 201.182 20.8767 201.182C19.8874 201.182 19.0521 200.827 18.3707 200.118C17.6801 199.399 17.3347 198.527 17.3347 197.5C17.3347 196.483 17.6801 195.615 18.3707 194.896C19.0614 194.177 19.8967 193.818 20.8767 193.818C22.0434 193.818 22.9254 194.28 23.5227 195.204ZM21.0307 200.006C21.7401 200.006 22.3327 199.768 22.8087 199.292C23.2847 198.797 23.5227 198.2 23.5227 197.5C23.5227 196.791 23.2847 196.198 22.8087 195.722C22.3327 195.237 21.7401 194.994 21.0307 194.994C20.3307 194.994 19.7427 195.237 19.2667 195.722C18.7907 196.198 18.5527 196.791 18.5527 197.5C18.5527 198.2 18.7907 198.797 19.2667 199.292C19.7427 199.768 20.3307 200.006 21.0307 200.006ZM30.3941 194V195.176H28.5321V198.97C28.5321 199.315 28.5974 199.563 28.7281 199.712C28.8681 199.852 29.0781 199.927 29.3581 199.936C29.6381 199.936 29.9834 199.927 30.3941 199.908V201C29.3208 201.14 28.5368 201.051 28.0421 200.734C27.5568 200.417 27.3141 199.829 27.3141 198.97V195.176H25.9281V194H27.3141V192.404L28.5321 192.04V194H30.3941ZM35.3221 193.818C36.1434 193.818 36.8014 194.079 37.2961 194.602C37.7908 195.115 38.0381 195.815 38.0381 196.702V201H36.8201V196.772C36.8201 196.212 36.6661 195.773 36.3581 195.456C36.0501 195.139 35.6254 194.98 35.0841 194.98C34.4588 194.98 33.9641 195.176 33.6001 195.568C33.2361 195.951 33.0541 196.525 33.0541 197.29V201H31.8361V191.2H33.0541V195.008C33.5394 194.215 34.2954 193.818 35.3221 193.818ZM40.5085 195.652C40.2565 195.652 40.0418 195.563 39.8645 195.386C39.6871 195.209 39.5985 194.994 39.5985 194.742C39.5985 194.49 39.6871 194.275 39.8645 194.098C40.0418 193.921 40.2565 193.832 40.5085 193.832C40.7698 193.832 40.9845 193.921 41.1525 194.098C41.3298 194.275 41.4185 194.49 41.4185 194.742C41.4185 194.994 41.3298 195.209 41.1525 195.386C40.9845 195.563 40.7698 195.652 40.5085 195.652ZM40.5085 201.154C40.2565 201.154 40.0418 201.065 39.8645 200.888C39.6871 200.711 39.5985 200.496 39.5985 200.244C39.5985 199.992 39.6871 199.777 39.8645 199.6C40.0418 199.423 40.2565 199.334 40.5085 199.334C40.7698 199.334 40.9845 199.423 41.1525 199.6C41.3298 199.777 41.4185 199.992 41.4185 200.244C41.4185 200.496 41.3298 200.711 41.1525 200.888C40.9845 201.065 40.7698 201.154 40.5085 201.154Z" fill="#282828"/>
<path d="M186.79 201H180.56V200.118L184.088 196.562C185.096 195.554 185.6 194.691 185.6 193.972C185.6 193.365 185.409 192.885 185.026 192.53C184.653 192.166 184.186 191.984 183.626 191.984C182.627 191.984 181.895 192.446 181.428 193.37L180.602 192.88C180.901 192.283 181.316 191.825 181.848 191.508C182.38 191.191 182.973 191.032 183.626 191.032C184.41 191.032 185.096 191.298 185.684 191.83C186.281 192.343 186.58 193.057 186.58 193.972C186.58 194.513 186.431 195.045 186.132 195.568C185.833 196.081 185.376 196.646 184.76 197.262L181.96 200.048H186.79V201ZM192.969 191.844C192.969 192.031 192.904 192.189 192.773 192.32C192.643 192.451 192.484 192.516 192.297 192.516C192.111 192.516 191.952 192.451 191.821 192.32C191.691 192.189 191.625 192.031 191.625 191.844C191.625 191.657 191.691 191.499 191.821 191.368C191.952 191.237 192.111 191.172 192.297 191.172C192.484 191.172 192.643 191.237 192.773 191.368C192.904 191.499 192.969 191.657 192.969 191.844ZM192.759 201H191.835V194H192.759V201ZM197.996 193.832C198.836 193.832 199.504 194.093 199.998 194.616C200.493 195.129 200.74 195.825 200.74 196.702V201H199.816V196.702C199.816 196.077 199.648 195.591 199.312 195.246C198.986 194.901 198.519 194.728 197.912 194.728C197.212 194.728 196.657 194.947 196.246 195.386C195.845 195.825 195.644 196.473 195.644 197.332V201H194.72V194H195.644V195.092C196.167 194.252 196.951 193.832 197.996 193.832ZM211.907 189.8L206.307 202.4H205.607L211.207 189.8H211.907ZM218.029 195.148H219.681C220.605 195.148 221.379 195.419 222.005 195.96C222.649 196.492 222.971 197.225 222.971 198.158C222.971 199.082 222.649 199.819 222.005 200.37C221.379 200.902 220.605 201.168 219.681 201.168C218.925 201.168 218.257 200.986 217.679 200.622C217.109 200.249 216.727 199.735 216.531 199.082L217.357 198.606C217.497 199.119 217.772 199.516 218.183 199.796C218.593 200.076 219.093 200.216 219.681 200.216C220.371 200.216 220.927 200.034 221.347 199.67C221.776 199.297 221.991 198.793 221.991 198.158C221.991 197.523 221.776 197.024 221.347 196.66C220.927 196.287 220.371 196.1 219.681 196.1H217.021L217.371 191.2H222.621V192.124H218.239L218.029 195.148ZM225.638 200.37C225.638 200.585 225.563 200.767 225.414 200.916C225.264 201.065 225.082 201.14 224.868 201.14C224.653 201.14 224.471 201.065 224.322 200.916C224.172 200.767 224.098 200.585 224.098 200.37C224.098 200.155 224.172 199.973 224.322 199.824C224.471 199.675 224.653 199.6 224.868 199.6C225.082 199.6 225.264 199.675 225.414 199.824C225.563 199.973 225.638 200.155 225.638 200.37ZM226.694 192.096L229.284 191.2H230.124V201H229.144V192.278L226.946 192.936L226.694 192.096ZM238.984 201.168C237.93 201.168 237.052 200.818 236.352 200.118C235.652 199.399 235.302 198.527 235.302 197.5C235.302 196.464 235.652 195.596 236.352 194.896C237.052 194.187 237.93 193.832 238.984 193.832C239.675 193.832 240.296 194 240.846 194.336C241.397 194.663 241.798 195.106 242.05 195.666L241.294 196.1C241.108 195.68 240.804 195.349 240.384 195.106C239.974 194.854 239.507 194.728 238.984 194.728C238.21 194.728 237.556 194.999 237.024 195.54C236.492 196.072 236.226 196.725 236.226 197.5C236.226 198.265 236.492 198.923 237.024 199.474C237.556 200.006 238.21 200.272 238.984 200.272C239.498 200.272 239.96 200.151 240.37 199.908C240.79 199.665 241.117 199.329 241.35 198.9L242.12 199.348C241.831 199.908 241.406 200.351 240.846 200.678C240.286 201.005 239.666 201.168 238.984 201.168ZM250.909 193.832C251.702 193.832 252.337 194.084 252.813 194.588C253.289 195.092 253.527 195.773 253.527 196.632V201H252.603V196.632C252.603 196.035 252.449 195.568 252.141 195.232C251.833 194.896 251.417 194.728 250.895 194.728C250.288 194.728 249.812 194.929 249.467 195.33C249.121 195.731 248.949 196.329 248.949 197.122V201H248.025V196.632C248.025 196.025 247.88 195.559 247.591 195.232C247.301 194.896 246.9 194.728 246.387 194.728C245.799 194.728 245.313 194.933 244.931 195.344C244.557 195.755 244.371 196.347 244.371 197.122V201H243.447V194H244.371V195.022C244.875 194.229 245.589 193.832 246.513 193.832C247.53 193.832 248.239 194.257 248.641 195.106C249.145 194.257 249.901 193.832 250.909 193.832Z" fill="#282828" fill-opacity="0.8"/>
</svg>
