<svg width="341" height="161" viewBox="0 0 341 161" fill="none" xmlns="http://www.w3.org/2000/svg">
<rect x="1" y="1" width="40" height="40" rx="12" stroke="#282828"/>
<g clip-path="url(#clip0_2001_790)">
<path d="M32.6101 9.25488C32.365 9.04706 32.038 8.96284 31.7205 9.0151L16.4478 11.7019C15.9258 11.7946 15.5455 12.2475 15.5455 12.7773V25.3607C15.5455 25.9629 15.0564 26.4521 14.4546 26.4521H13.3636C10.957 26.452 9 27.9206 9 29.726C9 31.5314 10.957 33 13.3636 33C15.7702 33 17.7272 31.5314 17.7272 29.726V18.0578L30.8182 15.7476V23.178C30.8182 23.7801 30.3291 24.2693 29.7273 24.2693H28.6364C26.2297 24.2693 24.2728 25.738 24.2728 27.5434C24.2728 29.3487 26.2298 30.8174 28.6364 30.8174C31.043 30.8174 33 29.3487 33 27.5434V10.0904C33 9.76752 32.8573 9.46167 32.6101 9.25488Z" fill="#282828"/>
</g>
<path d="M57.1729 16.7344H53.8916V19.0312H57.1729V20.5967H53.8916V24.5H51.9775V15.1689H57.1729V16.7344ZM62.9971 24.5L60.4404 20.7881V24.5H58.5264V15.1689H61.3975C62.5687 15.1689 63.4505 15.415 64.043 15.9072C64.2754 16.0895 64.46 16.3128 64.5967 16.5771C64.8428 17.0374 64.9658 17.5456 64.9658 18.1016C64.9658 18.9902 64.6833 19.6966 64.1182 20.2207C63.7673 20.5443 63.3115 20.7767 62.751 20.918L65.3213 24.5H62.9971ZM60.4404 16.7549V19.667H61.3154C61.8122 19.667 62.2064 19.5622 62.498 19.3525C62.849 19.0928 63.0244 18.71 63.0244 18.2041C63.0244 17.7803 62.8968 17.4362 62.6416 17.1719C62.3773 16.8939 61.9876 16.7549 61.4727 16.7549H60.4404ZM71.5693 16.7344H68.2949V19.0312H71.5693V20.5967H68.2949V22.9346H71.5693V24.5H66.3809V15.1689H71.5693V16.7344ZM78.0635 16.7344H74.7891V19.0312H78.0635V20.5967H74.7891V22.9346H78.0635V24.5H72.875V15.1689H78.0635V16.7344ZM89.6299 24.5L89.1104 22.8867H85.5146L84.9609 24.5H82.9307L86.1572 15.1689H88.5498L91.7354 24.5H89.6299ZM86.0068 21.3145H88.6045L87.3125 17.4521L86.0068 21.3145ZM95.8574 21.2939H94.6611V24.5H92.7471V15.1689H95.7275C96.8441 15.1689 97.7008 15.4333 98.2979 15.9619C98.8857 16.4814 99.1797 17.2129 99.1797 18.1562C99.1797 18.9082 98.9906 19.5485 98.6123 20.0771C98.0381 20.8883 97.1198 21.2939 95.8574 21.2939ZM94.6611 16.7549V19.7148H95.4814C95.8506 19.7148 96.1582 19.6624 96.4043 19.5576C96.9603 19.3115 97.2383 18.874 97.2383 18.2451C97.2383 17.6572 96.9922 17.2288 96.5 16.96C96.2357 16.8232 95.9144 16.7549 95.5361 16.7549H94.6611ZM103.582 21.2939H102.386V24.5H100.472V15.1689H103.452C104.569 15.1689 105.425 15.4333 106.022 15.9619C106.61 16.4814 106.904 17.2129 106.904 18.1562C106.904 18.9082 106.715 19.5485 106.337 20.0771C105.763 20.8883 104.844 21.2939 103.582 21.2939ZM102.386 16.7549V19.7148H103.206C103.575 19.7148 103.883 19.6624 104.129 19.5576C104.685 19.3115 104.963 18.874 104.963 18.2451C104.963 17.6572 104.717 17.2288 104.225 16.96C103.96 16.8232 103.639 16.7549 103.261 16.7549H102.386ZM110.11 15.1689V22.9141H113.234V24.5H108.196V15.1689H110.11ZM119.38 16.7344H116.105V19.0312H119.38V20.5967H116.105V22.9346H119.38V24.5H114.191V15.1689H119.38V16.7344ZM130.167 24.7871L127.118 18.6895V24.5H125.204V15.1689H127.371L130.167 20.8359L132.963 15.1689H135.13V24.5H133.216V18.6895L130.167 24.7871ZM136.935 15.1689H138.849V20.6377C138.849 21.4398 138.988 22.0072 139.266 22.3398C139.58 22.7181 140.018 22.9072 140.578 22.9072C140.975 22.9072 141.328 22.7933 141.638 22.5654C141.943 22.3376 142.139 22.0208 142.226 21.6152C142.276 21.3783 142.301 21.0501 142.301 20.6309V15.1689H144.229V20.5693C144.229 21.499 144.094 22.2464 143.825 22.8115C143.515 23.4632 143.046 23.9486 142.417 24.2676C141.875 24.541 141.269 24.6777 140.599 24.6777C139.801 24.6777 139.092 24.4863 138.473 24.1035C137.826 23.7025 137.388 23.1556 137.16 22.4629C137.01 21.9889 136.935 21.3577 136.935 20.5693V15.1689ZM145.486 21.7725H147.353C147.353 22.0186 147.382 22.2031 147.441 22.3262C147.546 22.5312 147.713 22.6953 147.94 22.8184C148.155 22.9277 148.385 22.9824 148.631 22.9824C148.995 22.9824 149.303 22.8753 149.554 22.6611C149.759 22.4743 149.861 22.2487 149.861 21.9844C149.861 21.6836 149.734 21.4375 149.479 21.2461C149.292 21.1094 148.913 20.9385 148.344 20.7334C147.437 20.4144 146.774 20.0703 146.354 19.7012C145.83 19.2454 145.568 18.6165 145.568 17.8145C145.568 16.9258 145.871 16.2262 146.478 15.7158C147.043 15.2327 147.77 14.9912 148.658 14.9912C149.515 14.9912 150.221 15.2236 150.777 15.6885C151.379 16.2035 151.721 16.9212 151.803 17.8418H149.861C149.802 17.0716 149.396 16.6865 148.645 16.6865C148.257 16.6865 147.963 16.7936 147.763 17.0078C147.59 17.1947 147.503 17.4134 147.503 17.6641C147.503 18.0469 147.694 18.3431 148.077 18.5527C148.273 18.6576 148.638 18.8079 149.171 19.0039C149.841 19.2454 150.333 19.4688 150.647 19.6738C151.454 20.1934 151.857 20.918 151.857 21.8477C151.857 22.832 151.475 23.584 150.709 24.1035C150.144 24.4863 149.456 24.6777 148.645 24.6777C147.715 24.6777 146.974 24.443 146.423 23.9736C145.789 23.445 145.477 22.7113 145.486 21.7725ZM153.327 15.1689H155.241V24.5H153.327V15.1689ZM163.649 21.9502L164.812 23.2695C164.351 23.7025 163.914 24.0192 163.499 24.2197C162.843 24.5296 162.123 24.6846 161.339 24.6846C159.949 24.6846 158.835 24.2174 157.996 23.2832C157.536 22.7728 157.196 22.1667 156.978 21.4648C156.818 20.9316 156.738 20.3939 156.738 19.8516C156.738 18.9264 156.952 18.0719 157.381 17.2881C157.809 16.4951 158.406 15.8981 159.172 15.4971C159.819 15.1598 160.553 14.9912 161.373 14.9912C162.212 14.9912 162.968 15.1644 163.643 15.5107C164.025 15.7067 164.445 16.0257 164.9 16.4678L163.649 17.7324C162.943 17.0853 162.214 16.7617 161.462 16.7617C160.61 16.7617 159.922 17.0693 159.397 17.6846C158.919 18.2451 158.68 18.9538 158.68 19.8105C158.68 20.444 158.828 21.0228 159.124 21.5469C159.352 21.957 159.689 22.2897 160.136 22.5449C160.564 22.791 161.04 22.9141 161.564 22.9141C162.403 22.9141 163.098 22.5928 163.649 21.9502ZM175.708 16.7344H173.486V24.5H171.572V16.7344H169.351V15.1689H175.708V16.7344ZM181.204 24.5L178.647 20.7881V24.5H176.733V15.1689H179.604C180.776 15.1689 181.658 15.415 182.25 15.9072C182.482 16.0895 182.667 16.3128 182.804 16.5771C183.05 17.0374 183.173 17.5456 183.173 18.1016C183.173 18.9902 182.89 19.6966 182.325 20.2207C181.974 20.5443 181.519 20.7767 180.958 20.918L183.528 24.5H181.204ZM178.647 16.7549V19.667H179.522C180.019 19.667 180.413 19.5622 180.705 19.3525C181.056 19.0928 181.231 18.71 181.231 18.2041C181.231 17.7803 181.104 17.4362 180.849 17.1719C180.584 16.8939 180.195 16.7549 179.68 16.7549H178.647ZM184.909 15.1689H186.823V24.5H184.909V15.1689ZM194.521 24.5L194.001 22.8867H190.405L189.852 24.5H187.821L191.048 15.1689H193.44L196.626 24.5H194.521ZM190.897 21.3145H193.495L192.203 17.4521L190.897 21.3145ZM199.552 15.1689V22.9141H202.676V24.5H197.638V15.1689H199.552Z" fill="#282828"/>
<path d="M6.586 57.338H11.486V57.842C11.486 59.0553 11.052 60.082 10.184 60.922C9.30667 61.7527 8.14467 62.168 6.698 62.168C5.20467 62.168 3.97733 61.678 3.016 60.698C2.04533 59.7087 1.56 58.5093 1.56 57.1C1.56 55.6907 2.04533 54.4913 3.016 53.502C3.97733 52.522 5.20467 52.032 6.698 52.032C7.594 52.032 8.42467 52.2513 9.19 52.69C9.946 53.1287 10.5293 53.712 10.94 54.44L10.072 54.944C9.764 54.3467 9.30667 53.8707 8.7 53.516C8.09333 53.1613 7.426 52.984 6.698 52.984C5.466 52.984 4.46733 53.3807 3.702 54.174C2.92733 54.9767 2.54 55.952 2.54 57.1C2.54 58.248 2.92733 59.2233 3.702 60.026C4.46733 60.8193 5.466 61.216 6.698 61.216C7.79933 61.216 8.68133 60.9407 9.344 60.39C9.99733 59.83 10.3753 59.1207 10.478 58.262H6.586V57.338ZM16.2609 54.832C17.3062 54.832 18.1415 55.2007 18.7669 55.938C19.4109 56.666 19.7329 57.5293 19.7329 58.528C19.7329 58.5747 19.7235 58.7193 19.7049 58.962H13.5589C13.6522 59.662 13.9509 60.222 14.4549 60.642C14.9589 61.062 15.5889 61.272 16.3449 61.272C17.4089 61.272 18.1602 60.8753 18.5989 60.082L19.4109 60.558C19.1029 61.062 18.6782 61.4587 18.1369 61.748C17.6049 62.028 17.0029 62.168 16.3309 62.168C15.2295 62.168 14.3335 61.8227 13.6429 61.132C12.9522 60.4413 12.6069 59.564 12.6069 58.5C12.6069 57.4453 12.9475 56.5727 13.6289 55.882C14.3102 55.182 15.1875 54.832 16.2609 54.832ZM16.2609 55.728C15.5329 55.728 14.9215 55.9427 14.4269 56.372C13.9415 56.8013 13.6522 57.366 13.5589 58.066H18.7809C18.6782 57.3193 18.3935 56.7453 17.9269 56.344C17.4415 55.9333 16.8862 55.728 16.2609 55.728ZM24.7076 55V55.896H22.6916V60.138C22.6916 60.5207 22.7662 60.796 22.9156 60.964C23.0649 61.1227 23.2889 61.2067 23.5876 61.216C23.8862 61.216 24.2596 61.2067 24.7076 61.188V62C23.7089 62.1493 22.9669 62.0793 22.4816 61.79C22.0056 61.4913 21.7676 60.9407 21.7676 60.138V55.896H20.2976V55H21.7676V53.32L22.6916 53.04V55H24.7076ZM32.4776 55.7C33.4296 55.7 34.2182 56.0033 34.8436 56.61C35.4596 57.2167 35.7676 57.9913 35.7676 58.934C35.7676 59.8953 35.4596 60.6747 34.8436 61.272C34.2369 61.8693 33.4482 62.168 32.4776 62.168C31.5069 62.168 30.7182 61.8693 30.1116 61.272C29.4956 60.6747 29.1876 59.8953 29.1876 58.934C29.1876 58.1967 29.3882 57.5433 29.7896 56.974L32.9956 52.2H34.1016L31.6936 55.784C31.9456 55.728 32.2069 55.7 32.4776 55.7ZM30.7976 60.586C31.2362 61.006 31.7962 61.216 32.4776 61.216C33.1682 61.216 33.7236 61.006 34.1436 60.586C34.5729 60.166 34.7876 59.6153 34.7876 58.934C34.7876 58.2527 34.5729 57.702 34.1436 57.282C33.7236 56.862 33.1682 56.652 32.4776 56.652C31.7962 56.652 31.2362 56.862 30.7976 57.282C30.3776 57.702 30.1676 58.2527 30.1676 58.934C30.1676 59.6153 30.3776 60.166 30.7976 60.586ZM48.1334 54.832C48.9267 54.832 49.5614 55.084 50.0374 55.588C50.5134 56.092 50.7514 56.7733 50.7514 57.632V62H49.8274V57.632C49.8274 57.0347 49.6734 56.568 49.3654 56.232C49.0574 55.896 48.6421 55.728 48.1194 55.728C47.5127 55.728 47.0367 55.9287 46.6914 56.33C46.3461 56.7313 46.1734 57.3287 46.1734 58.122V62H45.2494V57.632C45.2494 57.0253 45.1047 56.5587 44.8154 56.232C44.5261 55.896 44.1247 55.728 43.6114 55.728C43.0234 55.728 42.5381 55.9333 42.1554 56.344C41.7821 56.7547 41.5954 57.3473 41.5954 58.122V62H40.6714V55H41.5954V56.022C42.0994 55.2287 42.8134 54.832 43.7374 54.832C44.7547 54.832 45.4641 55.2567 45.8654 56.106C46.3694 55.2567 47.1254 54.832 48.1334 54.832ZM58.4046 61.118C57.6859 61.818 56.8179 62.168 55.8006 62.168C54.7646 62.168 53.8919 61.818 53.1826 61.118C52.4733 60.4087 52.1186 59.536 52.1186 58.5C52.1186 57.464 52.4733 56.596 53.1826 55.896C53.8919 55.1867 54.7646 54.832 55.8006 54.832C56.8273 54.832 57.6953 55.1867 58.4046 55.896C59.1233 56.596 59.4826 57.464 59.4826 58.5C59.4826 59.5267 59.1233 60.3993 58.4046 61.118ZM53.8406 60.474C54.3726 61.006 55.0259 61.272 55.8006 61.272C56.5753 61.272 57.2286 61.006 57.7606 60.474C58.2926 59.9233 58.5586 59.2653 58.5586 58.5C58.5586 57.7253 58.2926 57.072 57.7606 56.54C57.2286 55.9987 56.5753 55.728 55.8006 55.728C55.0259 55.728 54.3726 55.9987 53.8406 56.54C53.3086 57.072 53.0426 57.7253 53.0426 58.5C53.0426 59.2653 53.3086 59.9233 53.8406 60.474ZM64.3048 54.832C65.1448 54.832 65.8122 55.0933 66.3068 55.616C66.8015 56.1293 67.0488 56.8247 67.0488 57.702V62H66.1248V57.702C66.1248 57.0767 65.9568 56.5913 65.6208 56.246C65.2942 55.9007 64.8275 55.728 64.2208 55.728C63.5208 55.728 62.9655 55.9473 62.5548 56.386C62.1535 56.8247 61.9528 57.4733 61.9528 58.332V62H61.0288V55H61.9528V56.092C62.4755 55.252 63.2595 54.832 64.3048 54.832ZM72.5455 55V55.896H70.5295V60.138C70.5295 60.5207 70.6041 60.796 70.7535 60.964C70.9028 61.1227 71.1268 61.2067 71.4255 61.216C71.7241 61.216 72.0975 61.2067 72.5455 61.188V62C71.5468 62.1493 70.8048 62.0793 70.3195 61.79C69.8435 61.4913 69.6055 60.9407 69.6055 60.138V55.896H68.1355V55H69.6055V53.32L70.5295 53.04V55H72.5455ZM77.3615 54.832C78.2015 54.832 78.8688 55.0933 79.3635 55.616C79.8581 56.1293 80.1055 56.8247 80.1055 57.702V62H79.1815V57.702C79.1815 57.0767 79.0135 56.5913 78.6775 56.246C78.3508 55.9007 77.8841 55.728 77.2775 55.728C76.5775 55.728 76.0221 55.9473 75.6115 56.386C75.2101 56.8247 75.0095 57.4733 75.0095 58.332V62H74.0855V52.2H75.0095V56.092C75.5321 55.252 76.3161 54.832 77.3615 54.832ZM82.6201 56.834C82.6201 57.3753 83.1008 57.772 84.0621 58.024C84.3328 58.0893 84.5101 58.136 84.5941 58.164C84.6781 58.1827 84.8414 58.234 85.0841 58.318C85.3361 58.3927 85.5088 58.458 85.6021 58.514C85.7048 58.57 85.8448 58.6587 86.0221 58.78C86.1994 58.892 86.3254 59.0087 86.4001 59.13C86.4748 59.242 86.5448 59.3913 86.6101 59.578C86.6754 59.7553 86.7081 59.9467 86.7081 60.152C86.7081 60.7493 86.4701 61.2347 85.9941 61.608C85.5368 61.9813 84.9301 62.168 84.1741 62.168C83.5208 62.168 82.9561 62.0233 82.4801 61.734C82.0041 61.4353 81.6681 61.0433 81.4721 60.558L82.2561 60.096C82.3868 60.46 82.6201 60.7493 82.9561 60.964C83.3014 61.1693 83.7074 61.272 84.1741 61.272C84.6501 61.272 85.0374 61.1787 85.3361 60.992C85.6348 60.8053 85.7841 60.5253 85.7841 60.152C85.7841 59.6107 85.3034 59.214 84.3421 58.962C84.0714 58.8967 83.8941 58.8547 83.8101 58.836C83.7261 58.808 83.5581 58.7567 83.3061 58.682C83.0634 58.598 82.8908 58.528 82.7881 58.472C82.6948 58.416 82.5594 58.332 82.3821 58.22C82.2048 58.0987 82.0788 57.982 82.0041 57.87C81.9294 57.7487 81.8594 57.5993 81.7941 57.422C81.7288 57.2353 81.6961 57.0393 81.6961 56.834C81.6961 56.2647 81.9201 55.7887 82.3681 55.406C82.8348 55.0233 83.4088 54.832 84.0901 54.832C84.6501 54.832 85.1448 54.958 85.5741 55.21C86.0128 55.462 86.3348 55.812 86.5401 56.26L85.7701 56.708C85.5088 56.0547 84.9488 55.728 84.0901 55.728C83.6701 55.728 83.3201 55.826 83.0401 56.022C82.7601 56.218 82.6201 56.4887 82.6201 56.834ZM97.6155 61.118C96.8969 61.818 96.0289 62.168 95.0115 62.168C93.9755 62.168 93.1029 61.818 92.3935 61.118C91.6842 60.4087 91.3295 59.536 91.3295 58.5C91.3295 57.464 91.6842 56.596 92.3935 55.896C93.1029 55.1867 93.9755 54.832 95.0115 54.832C96.0382 54.832 96.9062 55.1867 97.6155 55.896C98.3342 56.596 98.6935 57.464 98.6935 58.5C98.6935 59.5267 98.3342 60.3993 97.6155 61.118ZM93.0515 60.474C93.5835 61.006 94.2369 61.272 95.0115 61.272C95.7862 61.272 96.4395 61.006 96.9715 60.474C97.5035 59.9233 97.7695 59.2653 97.7695 58.5C97.7695 57.7253 97.5035 57.072 96.9715 56.54C96.4395 55.9987 95.7862 55.728 95.0115 55.728C94.2369 55.728 93.5835 55.9987 93.0515 56.54C92.5195 57.072 92.2535 57.7253 92.2535 58.5C92.2535 59.2653 92.5195 59.9233 93.0515 60.474ZM103.466 52.032V52.928C102.785 52.872 102.276 52.9887 101.94 53.278C101.614 53.5673 101.45 54.048 101.45 54.72V55H103.466V55.896H101.45V62H100.526V55.896H99.3363V55H100.526V54.72C100.526 53.796 100.778 53.1007 101.282 52.634C101.796 52.1673 102.524 51.9667 103.466 52.032ZM113.971 56.372V55H114.895V62H113.971V60.628C113.327 61.6547 112.384 62.168 111.143 62.168C110.144 62.168 109.29 61.8133 108.581 61.104C107.881 60.3947 107.531 59.5267 107.531 58.5C107.531 57.4733 107.881 56.6053 108.581 55.896C109.29 55.1867 110.144 54.832 111.143 54.832C112.384 54.832 113.327 55.3453 113.971 56.372ZM109.253 60.474C109.785 61.006 110.438 61.272 111.213 61.272C111.987 61.272 112.641 61.006 113.173 60.474C113.705 59.9233 113.971 59.2653 113.971 58.5C113.971 57.7253 113.705 57.072 113.173 56.54C112.641 55.9987 111.987 55.728 111.213 55.728C110.438 55.728 109.785 55.9987 109.253 56.54C108.721 57.072 108.455 57.7253 108.455 58.5C108.455 59.2653 108.721 59.9233 109.253 60.474ZM120.113 62.168C119.058 62.168 118.181 61.818 117.481 61.118C116.781 60.3993 116.431 59.5267 116.431 58.5C116.431 57.464 116.781 56.596 117.481 55.896C118.181 55.1867 119.058 54.832 120.113 54.832C120.804 54.832 121.424 55 121.975 55.336C122.526 55.6627 122.927 56.106 123.179 56.666L122.423 57.1C122.236 56.68 121.933 56.3487 121.513 56.106C121.102 55.854 120.636 55.728 120.113 55.728C119.338 55.728 118.685 55.9987 118.153 56.54C117.621 57.072 117.355 57.7253 117.355 58.5C117.355 59.2653 117.621 59.9233 118.153 60.474C118.685 61.006 119.338 61.272 120.113 61.272C120.626 61.272 121.088 61.1507 121.499 60.908C121.919 60.6653 122.246 60.3293 122.479 59.9L123.249 60.348C122.96 60.908 122.535 61.3513 121.975 61.678C121.415 62.0047 120.794 62.168 120.113 62.168ZM127.769 62.168C126.715 62.168 125.837 61.818 125.137 61.118C124.437 60.3993 124.087 59.5267 124.087 58.5C124.087 57.464 124.437 56.596 125.137 55.896C125.837 55.1867 126.715 54.832 127.769 54.832C128.46 54.832 129.081 55 129.631 55.336C130.182 55.6627 130.583 56.106 130.835 56.666L130.079 57.1C129.893 56.68 129.589 56.3487 129.169 56.106C128.759 55.854 128.292 55.728 127.769 55.728C126.995 55.728 126.341 55.9987 125.809 56.54C125.277 57.072 125.011 57.7253 125.011 58.5C125.011 59.2653 125.277 59.9233 125.809 60.474C126.341 61.006 126.995 61.272 127.769 61.272C128.283 61.272 128.745 61.1507 129.155 60.908C129.575 60.6653 129.902 60.3293 130.135 59.9L130.905 60.348C130.616 60.908 130.191 61.3513 129.631 61.678C129.071 62.0047 128.451 62.168 127.769 62.168ZM135.398 54.832C136.443 54.832 137.278 55.2007 137.904 55.938C138.548 56.666 138.87 57.5293 138.87 58.528C138.87 58.5747 138.86 58.7193 138.842 58.962H132.696C132.789 59.662 133.088 60.222 133.592 60.642C134.096 61.062 134.726 61.272 135.482 61.272C136.546 61.272 137.297 60.8753 137.736 60.082L138.548 60.558C138.24 61.062 137.815 61.4587 137.274 61.748C136.742 62.028 136.14 62.168 135.468 62.168C134.366 62.168 133.47 61.8227 132.78 61.132C132.089 60.4413 131.744 59.564 131.744 58.5C131.744 57.4453 132.084 56.5727 132.766 55.882C133.447 55.182 134.324 54.832 135.398 54.832ZM135.398 55.728C134.67 55.728 134.058 55.9427 133.564 56.372C133.078 56.8013 132.789 57.366 132.696 58.066H137.918C137.815 57.3193 137.53 56.7453 137.064 56.344C136.578 55.9333 136.023 55.728 135.398 55.728ZM140.794 56.834C140.794 57.3753 141.275 57.772 142.236 58.024C142.507 58.0893 142.684 58.136 142.768 58.164C142.852 58.1827 143.015 58.234 143.258 58.318C143.51 58.3927 143.683 58.458 143.776 58.514C143.879 58.57 144.019 58.6587 144.196 58.78C144.373 58.892 144.499 59.0087 144.574 59.13C144.649 59.242 144.719 59.3913 144.784 59.578C144.849 59.7553 144.882 59.9467 144.882 60.152C144.882 60.7493 144.644 61.2347 144.168 61.608C143.711 61.9813 143.104 62.168 142.348 62.168C141.695 62.168 141.13 62.0233 140.654 61.734C140.178 61.4353 139.842 61.0433 139.646 60.558L140.43 60.096C140.561 60.46 140.794 60.7493 141.13 60.964C141.475 61.1693 141.881 61.272 142.348 61.272C142.824 61.272 143.211 61.1787 143.51 60.992C143.809 60.8053 143.958 60.5253 143.958 60.152C143.958 59.6107 143.477 59.214 142.516 58.962C142.245 58.8967 142.068 58.8547 141.984 58.836C141.9 58.808 141.732 58.7567 141.48 58.682C141.237 58.598 141.065 58.528 140.962 58.472C140.869 58.416 140.733 58.332 140.556 58.22C140.379 58.0987 140.253 57.982 140.178 57.87C140.103 57.7487 140.033 57.5993 139.968 57.422C139.903 57.2353 139.87 57.0393 139.87 56.834C139.87 56.2647 140.094 55.7887 140.542 55.406C141.009 55.0233 141.583 54.832 142.264 54.832C142.824 54.832 143.319 54.958 143.748 55.21C144.187 55.462 144.509 55.812 144.714 56.26L143.944 56.708C143.683 56.0547 143.123 55.728 142.264 55.728C141.844 55.728 141.494 55.826 141.214 56.022C140.934 56.218 140.794 56.4887 140.794 56.834ZM146.728 56.834C146.728 57.3753 147.208 57.772 148.17 58.024C148.44 58.0893 148.618 58.136 148.702 58.164C148.786 58.1827 148.949 58.234 149.192 58.318C149.444 58.3927 149.616 58.458 149.71 58.514C149.812 58.57 149.952 58.6587 150.13 58.78C150.307 58.892 150.433 59.0087 150.508 59.13C150.582 59.242 150.652 59.3913 150.718 59.578C150.783 59.7553 150.816 59.9467 150.816 60.152C150.816 60.7493 150.578 61.2347 150.102 61.608C149.644 61.9813 149.038 62.168 148.282 62.168C147.628 62.168 147.064 62.0233 146.588 61.734C146.112 61.4353 145.776 61.0433 145.58 60.558L146.364 60.096C146.494 60.46 146.728 60.7493 147.064 60.964C147.409 61.1693 147.815 61.272 148.282 61.272C148.758 61.272 149.145 61.1787 149.444 60.992C149.742 60.8053 149.892 60.5253 149.892 60.152C149.892 59.6107 149.411 59.214 148.45 58.962C148.179 58.8967 148.002 58.8547 147.918 58.836C147.834 58.808 147.666 58.7567 147.414 58.682C147.171 58.598 146.998 58.528 146.896 58.472C146.802 58.416 146.667 58.332 146.49 58.22C146.312 58.0987 146.186 57.982 146.112 57.87C146.037 57.7487 145.967 57.5993 145.902 57.422C145.836 57.2353 145.804 57.0393 145.804 56.834C145.804 56.2647 146.028 55.7887 146.476 55.406C146.942 55.0233 147.516 54.832 148.198 54.832C148.758 54.832 149.252 54.958 149.682 55.21C150.12 55.462 150.442 55.812 150.648 56.26L149.878 56.708C149.616 56.0547 149.056 55.728 148.198 55.728C147.778 55.728 147.428 55.826 147.148 56.022C146.868 56.218 146.728 56.4887 146.728 56.834ZM159.567 55V55.896H157.551V60.138C157.551 60.5207 157.626 60.796 157.775 60.964C157.924 61.1227 158.148 61.2067 158.447 61.216C158.746 61.216 159.119 61.2067 159.567 61.188V62C158.568 62.1493 157.826 62.0793 157.341 61.79C156.865 61.4913 156.627 60.9407 156.627 60.138V55.896H155.157V55H156.627V53.32L157.551 53.04V55H159.567ZM166.549 61.118C165.83 61.818 164.962 62.168 163.945 62.168C162.909 62.168 162.036 61.818 161.327 61.118C160.618 60.4087 160.263 59.536 160.263 58.5C160.263 57.464 160.618 56.596 161.327 55.896C162.036 55.1867 162.909 54.832 163.945 54.832C164.972 54.832 165.84 55.1867 166.549 55.896C167.268 56.596 167.627 57.464 167.627 58.5C167.627 59.5267 167.268 60.3993 166.549 61.118ZM161.985 60.474C162.517 61.006 163.17 61.272 163.945 61.272C164.72 61.272 165.373 61.006 165.905 60.474C166.437 59.9233 166.703 59.2653 166.703 58.5C166.703 57.7253 166.437 57.072 165.905 56.54C165.373 55.9987 164.72 55.728 163.945 55.728C163.17 55.728 162.517 55.9987 161.985 56.54C161.453 57.072 161.187 57.7253 161.187 58.5C161.187 59.2653 161.453 59.9233 161.985 60.474ZM178.539 61.118C177.821 61.818 176.953 62.168 175.935 62.168C174.899 62.168 174.027 61.818 173.317 61.118C172.608 60.4087 172.253 59.536 172.253 58.5C172.253 57.464 172.608 56.596 173.317 55.896C174.027 55.1867 174.899 54.832 175.935 54.832C176.962 54.832 177.83 55.1867 178.539 55.896C179.258 56.596 179.617 57.464 179.617 58.5C179.617 59.5267 179.258 60.3993 178.539 61.118ZM173.975 60.474C174.507 61.006 175.161 61.272 175.935 61.272C176.71 61.272 177.363 61.006 177.895 60.474C178.427 59.9233 178.693 59.2653 178.693 58.5C178.693 57.7253 178.427 57.072 177.895 56.54C177.363 55.9987 176.71 55.728 175.935 55.728C175.161 55.728 174.507 55.9987 173.975 56.54C173.443 57.072 173.177 57.7253 173.177 58.5C173.177 59.2653 173.443 59.9233 173.975 60.474ZM183.48 61.034L185.93 55H186.91L184.04 62H182.92L180.05 55H181.03L183.48 61.034ZM190.987 54.832C192.033 54.832 192.868 55.2007 193.493 55.938C194.137 56.666 194.459 57.5293 194.459 58.528C194.459 58.5747 194.45 58.7193 194.431 58.962H188.285C188.379 59.662 188.677 60.222 189.181 60.642C189.685 61.062 190.315 61.272 191.071 61.272C192.135 61.272 192.887 60.8753 193.325 60.082L194.137 60.558C193.829 61.062 193.405 61.4587 192.863 61.748C192.331 62.028 191.729 62.168 191.057 62.168C189.956 62.168 189.06 61.8227 188.369 61.132C187.679 60.4413 187.333 59.564 187.333 58.5C187.333 57.4453 187.674 56.5727 188.355 55.882C189.037 55.182 189.914 54.832 190.987 54.832ZM190.987 55.728C190.259 55.728 189.648 55.9427 189.153 56.372C188.668 56.8013 188.379 57.366 188.285 58.066H193.507C193.405 57.3193 193.12 56.7453 192.653 56.344C192.168 55.9333 191.613 55.728 190.987 55.728ZM196.853 55V56.162C197.283 55.3127 198.02 54.888 199.065 54.888V55.784C198.393 55.784 197.857 55.98 197.455 56.372C197.054 56.7547 196.853 57.3333 196.853 58.108V62H195.929V55H196.853ZM203.062 53.096L205.652 52.2H206.492V62H205.512V53.278L203.314 53.936L203.062 53.096ZM214.749 60.796C214.105 61.7107 213.195 62.168 212.019 62.168C210.853 62.168 209.938 61.7107 209.275 60.796C208.631 59.872 208.309 58.64 208.309 57.1C208.309 55.5507 208.631 54.3233 209.275 53.418C209.938 52.494 210.853 52.032 212.019 52.032C213.195 52.032 214.105 52.494 214.749 53.418C215.403 54.3233 215.729 55.5507 215.729 57.1C215.729 58.6493 215.403 59.8813 214.749 60.796ZM210.003 60.138C210.498 60.8567 211.17 61.216 212.019 61.216C212.878 61.216 213.545 60.8567 214.021 60.138C214.507 59.4287 214.749 58.416 214.749 57.1C214.749 55.784 214.507 54.7713 214.021 54.062C213.545 53.3433 212.878 52.984 212.019 52.984C211.17 52.984 210.498 53.3433 210.003 54.062C209.527 54.7807 209.289 55.7933 209.289 57.1C209.289 58.4067 209.527 59.4193 210.003 60.138ZM223.568 60.796C222.924 61.7107 222.014 62.168 220.838 62.168C219.671 62.168 218.756 61.7107 218.094 60.796C217.45 59.872 217.128 58.64 217.128 57.1C217.128 55.5507 217.45 54.3233 218.094 53.418C218.756 52.494 219.671 52.032 220.838 52.032C222.014 52.032 222.924 52.494 223.568 53.418C224.221 54.3233 224.548 55.5507 224.548 57.1C224.548 58.6493 224.221 59.8813 223.568 60.796ZM218.822 60.138C219.316 60.8567 219.988 61.216 220.838 61.216C221.696 61.216 222.364 60.8567 222.84 60.138C223.325 59.4287 223.568 58.416 223.568 57.1C223.568 55.784 223.325 54.7713 222.84 54.062C222.364 53.3433 221.696 52.984 220.838 52.984C219.988 52.984 219.316 53.3433 218.822 54.062C218.346 54.7807 218.108 55.7933 218.108 57.1C218.108 58.4067 218.346 59.4193 218.822 60.138ZM237.188 54.832C237.981 54.832 238.616 55.084 239.092 55.588C239.568 56.092 239.806 56.7733 239.806 57.632V62H238.882V57.632C238.882 57.0347 238.728 56.568 238.42 56.232C238.112 55.896 237.697 55.728 237.174 55.728C236.567 55.728 236.091 55.9287 235.746 56.33C235.401 56.7313 235.228 57.3287 235.228 58.122V62H234.304V57.632C234.304 57.0253 234.159 56.5587 233.87 56.232C233.581 55.896 233.179 55.728 232.666 55.728C232.078 55.728 231.593 55.9333 231.21 56.344C230.837 56.7547 230.65 57.3473 230.65 58.122V62H229.726V55H230.65V56.022C231.154 55.2287 231.868 54.832 232.792 54.832C233.809 54.832 234.519 55.2567 234.92 56.106C235.424 55.2567 236.18 54.832 237.188 54.832ZM242.727 52.844C242.727 53.0307 242.662 53.1893 242.531 53.32C242.401 53.4507 242.242 53.516 242.055 53.516C241.869 53.516 241.71 53.4507 241.579 53.32C241.449 53.1893 241.383 53.0307 241.383 52.844C241.383 52.6573 241.449 52.4987 241.579 52.368C241.71 52.2373 241.869 52.172 242.055 52.172C242.242 52.172 242.401 52.2373 242.531 52.368C242.662 52.4987 242.727 52.6573 242.727 52.844ZM242.517 62H241.593V55H242.517V62ZM245.402 62H244.478V51.78H245.402V62ZM248.287 62H247.363V51.78H248.287V62ZM251.382 52.844C251.382 53.0307 251.316 53.1893 251.186 53.32C251.055 53.4507 250.896 53.516 250.71 53.516C250.523 53.516 250.364 53.4507 250.234 53.32C250.103 53.1893 250.038 53.0307 250.038 52.844C250.038 52.6573 250.103 52.4987 250.234 52.368C250.364 52.2373 250.523 52.172 250.71 52.172C250.896 52.172 251.055 52.2373 251.186 52.368C251.316 52.4987 251.382 52.6573 251.382 52.844ZM251.172 62H250.248V55H251.172V62ZM258.998 61.118C258.28 61.818 257.412 62.168 256.394 62.168C255.358 62.168 254.486 61.818 253.776 61.118C253.067 60.4087 252.712 59.536 252.712 58.5C252.712 57.464 253.067 56.596 253.776 55.896C254.486 55.1867 255.358 54.832 256.394 54.832C257.421 54.832 258.289 55.1867 258.998 55.896C259.717 56.596 260.076 57.464 260.076 58.5C260.076 59.5267 259.717 60.3993 258.998 61.118ZM254.434 60.474C254.966 61.006 255.62 61.272 256.394 61.272C257.169 61.272 257.822 61.006 258.354 60.474C258.886 59.9233 259.152 59.2653 259.152 58.5C259.152 57.7253 258.886 57.072 258.354 56.54C257.822 55.9987 257.169 55.728 256.394 55.728C255.62 55.728 254.966 55.9987 254.434 56.54C253.902 57.072 253.636 57.7253 253.636 58.5C253.636 59.2653 253.902 59.9233 254.434 60.474ZM264.899 54.832C265.739 54.832 266.406 55.0933 266.901 55.616C267.395 56.1293 267.643 56.8247 267.643 57.702V62H266.719V57.702C266.719 57.0767 266.551 56.5913 266.215 56.246C265.888 55.9007 265.421 55.728 264.815 55.728C264.115 55.728 263.559 55.9473 263.149 56.386C262.747 56.8247 262.547 57.4733 262.547 58.332V62H261.623V55H262.547V56.092C263.069 55.252 263.853 54.832 264.899 54.832ZM273.657 56.834C273.657 57.3753 274.138 57.772 275.099 58.024C275.37 58.0893 275.547 58.136 275.631 58.164C275.715 58.1827 275.879 58.234 276.121 58.318C276.373 58.3927 276.546 58.458 276.639 58.514C276.742 58.57 276.882 58.6587 277.059 58.78C277.237 58.892 277.363 59.0087 277.437 59.13C277.512 59.242 277.582 59.3913 277.647 59.578C277.713 59.7553 277.745 59.9467 277.745 60.152C277.745 60.7493 277.507 61.2347 277.031 61.608C276.574 61.9813 275.967 62.168 275.211 62.168C274.558 62.168 273.993 62.0233 273.517 61.734C273.041 61.4353 272.705 61.0433 272.509 60.558L273.293 60.096C273.424 60.46 273.657 60.7493 273.993 60.964C274.339 61.1693 274.745 61.272 275.211 61.272C275.687 61.272 276.075 61.1787 276.373 60.992C276.672 60.8053 276.821 60.5253 276.821 60.152C276.821 59.6107 276.341 59.214 275.379 58.962C275.109 58.8967 274.931 58.8547 274.847 58.836C274.763 58.808 274.595 58.7567 274.343 58.682C274.101 58.598 273.928 58.528 273.825 58.472C273.732 58.416 273.597 58.332 273.419 58.22C273.242 58.0987 273.116 57.982 273.041 57.87C272.967 57.7487 272.897 57.5993 272.831 57.422C272.766 57.2353 272.733 57.0393 272.733 56.834C272.733 56.2647 272.957 55.7887 273.405 55.406C273.872 55.0233 274.446 54.832 275.127 54.832C275.687 54.832 276.182 54.958 276.611 55.21C277.05 55.462 277.372 55.812 277.577 56.26L276.807 56.708C276.546 56.0547 275.986 55.728 275.127 55.728C274.707 55.728 274.357 55.826 274.077 56.022C273.797 56.218 273.657 56.4887 273.657 56.834ZM284.948 61.118C284.229 61.818 283.361 62.168 282.344 62.168C281.308 62.168 280.435 61.818 279.726 61.118C279.016 60.4087 278.662 59.536 278.662 58.5C278.662 57.464 279.016 56.596 279.726 55.896C280.435 55.1867 281.308 54.832 282.344 54.832C283.37 54.832 284.238 55.1867 284.948 55.896C285.666 56.596 286.026 57.464 286.026 58.5C286.026 59.5267 285.666 60.3993 284.948 61.118ZM280.384 60.474C280.916 61.006 281.569 61.272 282.344 61.272C283.118 61.272 283.772 61.006 284.304 60.474C284.836 59.9233 285.102 59.2653 285.102 58.5C285.102 57.7253 284.836 57.072 284.304 56.54C283.772 55.9987 283.118 55.728 282.344 55.728C281.569 55.728 280.916 55.9987 280.384 56.54C279.852 57.072 279.586 57.7253 279.586 58.5C279.586 59.2653 279.852 59.9233 280.384 60.474ZM290.848 54.832C291.688 54.832 292.355 55.0933 292.85 55.616C293.344 56.1293 293.592 56.8247 293.592 57.702V62H292.668V57.702C292.668 57.0767 292.5 56.5913 292.164 56.246C291.837 55.9007 291.37 55.728 290.764 55.728C290.064 55.728 289.508 55.9473 289.098 56.386C288.696 56.8247 288.496 57.4733 288.496 58.332V62H287.572V55H288.496V56.092C289.018 55.252 289.802 54.832 290.848 54.832ZM301.398 56.372V55H302.322V61.72C302.322 62.728 301.977 63.5213 301.286 64.1C300.596 64.6787 299.77 64.968 298.808 64.968C297.175 64.968 296.069 64.3987 295.49 63.26L296.302 62.798C296.722 63.6473 297.558 64.072 298.808 64.072C299.611 64.072 300.241 63.862 300.698 63.442C301.165 63.022 301.398 62.448 301.398 61.72V60.628C300.754 61.6547 299.812 62.168 298.57 62.168C297.572 62.168 296.718 61.8133 296.008 61.104C295.308 60.3947 294.958 59.5267 294.958 58.5C294.958 57.4733 295.308 56.6053 296.008 55.896C296.718 55.1867 297.572 54.832 298.57 54.832C299.812 54.832 300.754 55.3453 301.398 56.372ZM296.68 60.474C297.212 61.006 297.866 61.272 298.64 61.272C299.415 61.272 300.068 61.006 300.6 60.474C301.132 59.9233 301.398 59.2653 301.398 58.5C301.398 57.7253 301.132 57.072 300.6 56.54C300.068 55.9987 299.415 55.728 298.64 55.728C297.866 55.728 297.212 55.9987 296.68 56.54C296.148 57.072 295.882 57.7253 295.882 58.5C295.882 59.2653 296.148 59.9233 296.68 60.474ZM305.007 56.834C305.007 57.3753 305.487 57.772 306.449 58.024C306.719 58.0893 306.897 58.136 306.981 58.164C307.065 58.1827 307.228 58.234 307.471 58.318C307.723 58.3927 307.895 58.458 307.989 58.514C308.091 58.57 308.231 58.6587 308.409 58.78C308.586 58.892 308.712 59.0087 308.787 59.13C308.861 59.242 308.931 59.3913 308.997 59.578C309.062 59.7553 309.095 59.9467 309.095 60.152C309.095 60.7493 308.857 61.2347 308.381 61.608C307.923 61.9813 307.317 62.168 306.561 62.168C305.907 62.168 305.343 62.0233 304.867 61.734C304.391 61.4353 304.055 61.0433 303.859 60.558L304.643 60.096C304.773 60.46 305.007 60.7493 305.343 60.964C305.688 61.1693 306.094 61.272 306.561 61.272C307.037 61.272 307.424 61.1787 307.723 60.992C308.021 60.8053 308.171 60.5253 308.171 60.152C308.171 59.6107 307.69 59.214 306.729 58.962C306.458 58.8967 306.281 58.8547 306.197 58.836C306.113 58.808 305.945 58.7567 305.693 58.682C305.45 58.598 305.277 58.528 305.175 58.472C305.081 58.416 304.946 58.332 304.769 58.22C304.591 58.0987 304.465 57.982 304.391 57.87C304.316 57.7487 304.246 57.5993 304.181 57.422C304.115 57.2353 304.083 57.0393 304.083 56.834C304.083 56.2647 304.307 55.7887 304.755 55.406C305.221 55.0233 305.795 54.832 306.477 54.832C307.037 54.832 307.531 54.958 307.961 55.21C308.399 55.462 308.721 55.812 308.927 56.26L308.157 56.708C307.895 56.0547 307.335 55.728 306.477 55.728C306.057 55.728 305.707 55.826 305.427 56.022C305.147 56.218 305.007 56.4887 305.007 56.834ZM310.92 60.81H312.04L311.2 63.96H310.36L310.92 60.81ZM8 74.372V73H8.924V80H8V78.628C7.356 79.6547 6.41333 80.168 5.172 80.168C4.17333 80.168 3.31933 79.8133 2.61 79.104C1.91 78.3947 1.56 77.5267 1.56 76.5C1.56 75.4733 1.91 74.6053 2.61 73.896C3.31933 73.1867 4.17333 72.832 5.172 72.832C6.41333 72.832 7.356 73.3453 8 74.372ZM3.282 78.474C3.814 79.006 4.46733 79.272 5.242 79.272C6.01667 79.272 6.67 79.006 7.202 78.474C7.734 77.9233 8 77.2653 8 76.5C8 75.7253 7.734 75.072 7.202 74.54C6.67 73.9987 6.01667 73.728 5.242 73.728C4.46733 73.728 3.814 73.9987 3.282 74.54C2.75 75.072 2.484 75.7253 2.484 76.5C2.484 77.2653 2.75 77.9233 3.282 78.474ZM16.9004 74.372V70.2H17.8244V80H16.9004V78.628C16.2564 79.6547 15.3137 80.168 14.0724 80.168C13.0737 80.168 12.2197 79.8133 11.5104 79.104C10.8104 78.3947 10.4604 77.5267 10.4604 76.5C10.4604 75.4733 10.8104 74.6053 11.5104 73.896C12.2197 73.1867 13.0737 72.832 14.0724 72.832C15.3137 72.832 16.2564 73.3453 16.9004 74.372ZM12.1824 78.474C12.7144 79.006 13.3677 79.272 14.1424 79.272C14.9171 79.272 15.5704 79.006 16.1024 78.474C16.6344 77.9233 16.9004 77.2653 16.9004 76.5C16.9004 75.7253 16.6344 75.072 16.1024 74.54C15.5704 73.9987 14.9171 73.728 14.1424 73.728C13.3677 73.728 12.7144 73.9987 12.1824 74.54C11.6504 75.072 11.3844 75.7253 11.3844 76.5C11.3844 77.2653 11.6504 77.9233 12.1824 78.474ZM24.9608 76.122H19.9208V75.226H24.9608V76.122ZM30.5542 70.032V70.928C29.8729 70.872 29.3642 70.9887 29.0282 71.278C28.7016 71.5673 28.5382 72.048 28.5382 72.72V73H30.5542V73.896H28.5382V80H27.6142V73.896H26.4242V73H27.6142V72.72C27.6142 71.796 27.8662 71.1007 28.3702 70.634C28.8836 70.1673 29.6116 69.9667 30.5542 70.032ZM32.4626 73V74.162C32.8919 73.3127 33.6293 72.888 34.6746 72.888V73.784C34.0026 73.784 33.4659 73.98 33.0646 74.372C32.6633 74.7547 32.4626 75.3333 32.4626 76.108V80H31.5386V73H32.4626ZM38.7511 72.832C39.7964 72.832 40.6318 73.2007 41.2571 73.938C41.9011 74.666 42.2231 75.5293 42.2231 76.528C42.2231 76.5747 42.2138 76.7193 42.1951 76.962H36.0491C36.1424 77.662 36.4411 78.222 36.9451 78.642C37.4491 79.062 38.0791 79.272 38.8351 79.272C39.8991 79.272 40.6504 78.8753 41.0891 78.082L41.9011 78.558C41.5931 79.062 41.1684 79.4587 40.6271 79.748C40.0951 80.028 39.4931 80.168 38.8211 80.168C37.7198 80.168 36.8238 79.8227 36.1331 79.132C35.4424 78.4413 35.0971 77.564 35.0971 76.5C35.0971 75.4453 35.4378 74.5727 36.1191 73.882C36.8004 73.182 37.6778 72.832 38.7511 72.832ZM38.7511 73.728C38.0231 73.728 37.4118 73.9427 36.9171 74.372C36.4318 74.8013 36.1424 75.366 36.0491 76.066H41.2711C41.1684 75.3193 40.8838 74.7453 40.4171 74.344C39.9318 73.9333 39.3764 73.728 38.7511 73.728ZM46.9269 72.832C47.9722 72.832 48.8076 73.2007 49.4329 73.938C50.0769 74.666 50.3989 75.5293 50.3989 76.528C50.3989 76.5747 50.3896 76.7193 50.3709 76.962H44.2249C44.3182 77.662 44.6169 78.222 45.1209 78.642C45.6249 79.062 46.2549 79.272 47.0109 79.272C48.0749 79.272 48.8262 78.8753 49.2649 78.082L50.0769 78.558C49.7689 79.062 49.3442 79.4587 48.8029 79.748C48.2709 80.028 47.6689 80.168 46.9969 80.168C45.8956 80.168 44.9996 79.8227 44.3089 79.132C43.6182 78.4413 43.2729 77.564 43.2729 76.5C43.2729 75.4453 43.6136 74.5727 44.2949 73.882C44.9762 73.182 45.8536 72.832 46.9269 72.832ZM46.9269 73.728C46.1989 73.728 45.5876 73.9427 45.0929 74.372C44.6076 74.8013 44.3182 75.366 44.2249 76.066H49.4469C49.3442 75.3193 49.0596 74.7453 48.5929 74.344C48.1076 73.9333 47.5522 73.728 46.9269 73.728Z" fill="#282828" fill-opacity="0.8"/>
<rect x="1" y="95" width="40" height="40" rx="12" stroke="#282828"/>
<path d="M25.8053 103C25.8628 103 25.9203 103 25.981 103C26.1221 104.832 25.457 106.2 24.6488 107.191C23.8558 108.176 22.7698 109.13 21.0134 108.985C20.8963 107.18 21.5624 105.913 22.3695 104.924C23.1181 104.003 24.4904 103.182 25.8053 103Z" fill="#282828"/>
<path d="M31 120.691C31 120.708 31 120.722 31 120.738C30.5099 122.173 29.8107 123.403 28.9576 124.545C28.1787 125.581 27.2243 126.976 25.5201 126.976C24.0475 126.976 23.0694 126.06 21.5602 126.035C19.9637 126.011 19.0857 126.801 17.6261 127C17.4591 127 17.2921 127 17.1284 127C16.0566 126.85 15.1915 126.029 14.5613 125.29C12.7031 123.105 11.2672 120.282 11 116.67C11 116.316 11 115.962 11 115.608C11.1131 113.023 12.4123 110.921 14.1391 109.903C15.0504 109.361 16.3032 108.899 17.6983 109.106C18.2961 109.195 18.9069 109.393 19.4423 109.589C19.9497 109.778 20.5842 110.112 21.1853 110.094C21.5925 110.083 21.9975 109.878 22.408 109.733C23.6101 109.313 24.7886 108.832 26.342 109.058C28.2089 109.331 29.5339 110.133 30.3526 111.37C28.7733 112.342 27.5248 113.806 27.7381 116.307C27.9277 118.579 29.2937 119.908 31 120.691Z" fill="#282828"/>
<path d="M51.9775 109.169H53.8916V118.5H51.9775V109.169ZM61.6914 118.5L57.7607 112.601V118.5H55.8467V109.169H57.7266L61.6436 114.993V109.169H63.5576V118.5H61.6914ZM64.5352 114.303H67.6387V115.875H64.5352V114.303ZM68.0762 115.772H69.9424C69.9424 116.019 69.972 116.203 70.0312 116.326C70.1361 116.531 70.3024 116.695 70.5303 116.818C70.7445 116.928 70.9746 116.982 71.2207 116.982C71.5853 116.982 71.8929 116.875 72.1436 116.661C72.3486 116.474 72.4512 116.249 72.4512 115.984C72.4512 115.684 72.3236 115.438 72.0684 115.246C71.8815 115.109 71.5033 114.938 70.9336 114.733C70.0267 114.414 69.3636 114.07 68.9443 113.701C68.4202 113.245 68.1582 112.617 68.1582 111.814C68.1582 110.926 68.4613 110.226 69.0674 109.716C69.6325 109.233 70.3594 108.991 71.248 108.991C72.1048 108.991 72.8112 109.224 73.3672 109.688C73.9688 110.203 74.3105 110.921 74.3926 111.842H72.4512C72.3919 111.072 71.9863 110.687 71.2344 110.687C70.847 110.687 70.5531 110.794 70.3525 111.008C70.1794 111.195 70.0928 111.413 70.0928 111.664C70.0928 112.047 70.2842 112.343 70.667 112.553C70.863 112.658 71.2275 112.808 71.7607 113.004C72.4307 113.245 72.9229 113.469 73.2373 113.674C74.0439 114.193 74.4473 114.918 74.4473 115.848C74.4473 116.832 74.0645 117.584 73.2988 118.104C72.7337 118.486 72.0456 118.678 71.2344 118.678C70.3047 118.678 69.5641 118.443 69.0127 117.974C68.3792 117.445 68.0671 116.711 68.0762 115.772ZM81.3447 110.734H79.123V118.5H77.209V110.734H74.9873V109.169H81.3447V110.734ZM86.8135 108.984C87.6156 108.984 88.3607 109.167 89.0488 109.531C89.9102 109.992 90.5618 110.634 91.0039 111.459C91.373 112.152 91.5576 112.958 91.5576 113.879C91.5576 114.727 91.348 115.524 90.9287 116.271C90.4821 117.074 89.8486 117.691 89.0283 118.124C88.3402 118.493 87.5928 118.678 86.7861 118.678C85.8975 118.678 85.0703 118.459 84.3047 118.021C83.4844 117.548 82.8646 116.907 82.4453 116.101C82.0898 115.426 81.9121 114.686 81.9121 113.879C81.9121 112.452 82.418 111.254 83.4297 110.283C84.3366 109.417 85.4645 108.984 86.8135 108.984ZM86.7588 110.755C85.8701 110.755 85.141 111.097 84.5713 111.78C84.1019 112.345 83.8672 113.034 83.8672 113.845C83.8672 114.724 84.1475 115.456 84.708 116.039C85.2686 116.618 85.9453 116.907 86.7383 116.907C87.5814 116.907 88.29 116.59 88.8643 115.957C89.1377 115.661 89.3405 115.289 89.4727 114.843C89.5684 114.506 89.6162 114.189 89.6162 113.893C89.6162 112.899 89.3086 112.113 88.6934 111.534C88.1465 111.015 87.5016 110.755 86.7588 110.755ZM97.5322 118.5L94.9756 114.788V118.5H93.0615V109.169H95.9326C97.1038 109.169 97.9857 109.415 98.5781 109.907C98.8105 110.09 98.9951 110.313 99.1318 110.577C99.3779 111.037 99.501 111.546 99.501 112.102C99.501 112.99 99.2184 113.697 98.6533 114.221C98.3024 114.544 97.8467 114.777 97.2861 114.918L99.8564 118.5H97.5322ZM94.9756 110.755V113.667H95.8506C96.3473 113.667 96.7415 113.562 97.0332 113.353C97.3841 113.093 97.5596 112.71 97.5596 112.204C97.5596 111.78 97.432 111.436 97.1768 111.172C96.9124 110.894 96.5228 110.755 96.0078 110.755H94.9756ZM106.104 110.734H102.83V113.031H106.104V114.597H102.83V116.935H106.104V118.5H100.916V109.169H106.104V110.734ZM115.039 115.294H113.843V118.5H111.929V109.169H114.909C116.026 109.169 116.882 109.433 117.479 109.962C118.067 110.481 118.361 111.213 118.361 112.156C118.361 112.908 118.172 113.549 117.794 114.077C117.22 114.888 116.301 115.294 115.039 115.294ZM113.843 110.755V113.715H114.663C115.032 113.715 115.34 113.662 115.586 113.558C116.142 113.312 116.42 112.874 116.42 112.245C116.42 111.657 116.174 111.229 115.682 110.96C115.417 110.823 115.096 110.755 114.718 110.755H113.843ZM119.653 109.169H121.567V118.5H119.653V109.169ZM129.976 115.95L131.138 117.27C130.677 117.702 130.24 118.019 129.825 118.22C129.169 118.53 128.449 118.685 127.665 118.685C126.275 118.685 125.161 118.217 124.322 117.283C123.862 116.773 123.522 116.167 123.304 115.465C123.144 114.932 123.064 114.394 123.064 113.852C123.064 112.926 123.279 112.072 123.707 111.288C124.135 110.495 124.732 109.898 125.498 109.497C126.145 109.16 126.879 108.991 127.699 108.991C128.538 108.991 129.294 109.164 129.969 109.511C130.352 109.707 130.771 110.026 131.227 110.468L129.976 111.732C129.269 111.085 128.54 110.762 127.788 110.762C126.936 110.762 126.248 111.069 125.724 111.685C125.245 112.245 125.006 112.954 125.006 113.811C125.006 114.444 125.154 115.023 125.45 115.547C125.678 115.957 126.015 116.29 126.462 116.545C126.89 116.791 127.367 116.914 127.891 116.914C128.729 116.914 129.424 116.593 129.976 115.95ZM136.948 118.5L134.323 114.344V118.5H132.409V109.169H134.323V113.223L136.976 109.169H139.19L136.169 113.667L139.19 118.5H136.948ZM140.147 109.169H142.062V114.638C142.062 115.44 142.201 116.007 142.479 116.34C142.793 116.718 143.23 116.907 143.791 116.907C144.188 116.907 144.541 116.793 144.851 116.565C145.156 116.338 145.352 116.021 145.438 115.615C145.489 115.378 145.514 115.05 145.514 114.631V109.169H147.441V114.569C147.441 115.499 147.307 116.246 147.038 116.812C146.728 117.463 146.259 117.949 145.63 118.268C145.088 118.541 144.481 118.678 143.812 118.678C143.014 118.678 142.305 118.486 141.686 118.104C141.038 117.702 140.601 117.156 140.373 116.463C140.223 115.989 140.147 115.358 140.147 114.569V109.169ZM152.35 115.294H151.153V118.5H149.239V109.169H152.22C153.336 109.169 154.193 109.433 154.79 109.962C155.378 110.481 155.672 111.213 155.672 112.156C155.672 112.908 155.483 113.549 155.104 114.077C154.53 114.888 153.612 115.294 152.35 115.294ZM151.153 110.755V113.715H151.974C152.343 113.715 152.65 113.662 152.896 113.558C153.452 113.312 153.73 112.874 153.73 112.245C153.73 111.657 153.484 111.229 152.992 110.96C152.728 110.823 152.407 110.755 152.028 110.755H151.153Z" fill="#282828"/>
<path d="M2.12 146.2H5.62C6.49733 146.2 7.23 146.494 7.818 147.082C8.406 147.67 8.7 148.403 8.7 149.28C8.7 150.157 8.406 150.89 7.818 151.478C7.23 152.066 6.49733 152.36 5.62 152.36H3.1V156H2.12V146.2ZM3.1 151.436H5.62C6.22667 151.436 6.726 151.235 7.118 150.834C7.51933 150.433 7.72 149.915 7.72 149.28C7.72 148.655 7.51933 148.141 7.118 147.74C6.726 147.329 6.22667 147.124 5.62 147.124H3.1V151.436ZM11.3718 146.844C11.3718 147.031 11.3065 147.189 11.1758 147.32C11.0451 147.451 10.8865 147.516 10.6998 147.516C10.5131 147.516 10.3545 147.451 10.2238 147.32C10.0931 147.189 10.0278 147.031 10.0278 146.844C10.0278 146.657 10.0931 146.499 10.2238 146.368C10.3545 146.237 10.5131 146.172 10.6998 146.172C10.8865 146.172 11.0451 146.237 11.1758 146.368C11.3065 146.499 11.3718 146.657 11.3718 146.844ZM11.1618 156H10.2378V149H11.1618V156ZM16.3846 156.168C15.3299 156.168 14.4526 155.818 13.7526 155.118C13.0526 154.399 12.7026 153.527 12.7026 152.5C12.7026 151.464 13.0526 150.596 13.7526 149.896C14.4526 149.187 15.3299 148.832 16.3846 148.832C17.0752 148.832 17.6959 149 18.2466 149.336C18.7972 149.663 19.1986 150.106 19.4506 150.666L18.6946 151.1C18.5079 150.68 18.2046 150.349 17.7846 150.106C17.3739 149.854 16.9072 149.728 16.3846 149.728C15.6099 149.728 14.9566 149.999 14.4246 150.54C13.8926 151.072 13.6266 151.725 13.6266 152.5C13.6266 153.265 13.8926 153.923 14.4246 154.474C14.9566 155.006 15.6099 155.272 16.3846 155.272C16.8979 155.272 17.3599 155.151 17.7706 154.908C18.1906 154.665 18.5172 154.329 18.7506 153.9L19.5206 154.348C19.2312 154.908 18.8066 155.351 18.2466 155.678C17.6866 156.005 17.0659 156.168 16.3846 156.168ZM22.7512 152.36L26.5032 156H25.2712L21.7712 152.626V156H20.8472V146.2H21.7712V152.094L25.1032 149H26.3632L22.7512 152.36ZM36.1932 152.668V149H37.1172V156H36.1932V154.908C35.6705 155.748 34.8865 156.168 33.8412 156.168C33.0012 156.168 32.3338 155.911 31.8392 155.398C31.3445 154.875 31.0972 154.175 31.0972 153.298V149H32.0212V153.298C32.0212 153.923 32.1845 154.409 32.5112 154.754C32.8472 155.099 33.3185 155.272 33.9252 155.272C34.6252 155.272 35.1758 155.053 35.5772 154.614C35.9878 154.175 36.1932 153.527 36.1932 152.668ZM42.8238 148.832C43.8225 148.832 44.6718 149.187 45.3718 149.896C46.0811 150.605 46.4358 151.473 46.4358 152.5C46.4358 153.527 46.0811 154.395 45.3718 155.104C44.6718 155.813 43.8225 156.168 42.8238 156.168C41.5825 156.168 40.6398 155.655 39.9958 154.628V158.8H39.0718V149H39.9958V150.372C40.6398 149.345 41.5825 148.832 42.8238 148.832ZM40.7938 154.474C41.3258 155.006 41.9791 155.272 42.7538 155.272C43.5285 155.272 44.1818 155.006 44.7138 154.474C45.2458 153.923 45.5118 153.265 45.5118 152.5C45.5118 151.725 45.2458 151.072 44.7138 150.54C44.1818 149.999 43.5285 149.728 42.7538 149.728C41.9791 149.728 41.3258 149.999 40.7938 150.54C40.2618 151.072 39.9958 151.725 39.9958 152.5C39.9958 153.265 40.2618 153.923 40.7938 154.474ZM54.2442 154.866L56.5122 149H57.4922L54.4962 156.644C54.2162 157.353 53.8242 157.899 53.3202 158.282C52.8255 158.674 52.2749 158.847 51.6682 158.8V157.932C52.5082 158.035 53.1475 157.549 53.5862 156.476L53.7682 156.042L50.6322 149H51.6122L54.2442 154.866ZM64.2015 155.118C63.4828 155.818 62.6148 156.168 61.5975 156.168C60.5615 156.168 59.6888 155.818 58.9795 155.118C58.2701 154.409 57.9155 153.536 57.9155 152.5C57.9155 151.464 58.2701 150.596 58.9795 149.896C59.6888 149.187 60.5615 148.832 61.5975 148.832C62.6241 148.832 63.4921 149.187 64.2015 149.896C64.9201 150.596 65.2795 151.464 65.2795 152.5C65.2795 153.527 64.9201 154.399 64.2015 155.118ZM59.6375 154.474C60.1695 155.006 60.8228 155.272 61.5975 155.272C62.3721 155.272 63.0255 155.006 63.5575 154.474C64.0895 153.923 64.3555 153.265 64.3555 152.5C64.3555 151.725 64.0895 151.072 63.5575 150.54C63.0255 149.999 62.3721 149.728 61.5975 149.728C60.8228 149.728 60.1695 149.999 59.6375 150.54C59.1055 151.072 58.8395 151.725 58.8395 152.5C58.8395 153.265 59.1055 153.923 59.6375 154.474ZM71.7537 152.668V149H72.6777V156H71.7537V154.908C71.231 155.748 70.447 156.168 69.4017 156.168C68.5617 156.168 67.8944 155.911 67.3997 155.398C66.905 154.875 66.6577 154.175 66.6577 153.298V149H67.5817V153.298C67.5817 153.923 67.745 154.409 68.0717 154.754C68.4077 155.099 68.879 155.272 69.4857 155.272C70.1857 155.272 70.7364 155.053 71.1377 154.614C71.5484 154.175 71.7537 153.527 71.7537 152.668ZM75.5563 149V150.162C75.9857 149.313 76.723 148.888 77.7683 148.888V149.784C77.0963 149.784 76.5597 149.98 76.1583 150.372C75.757 150.755 75.5563 151.333 75.5563 152.108V156H74.6323V149H75.5563ZM88.1067 150.918C88.592 151.123 88.9747 151.436 89.2547 151.856C89.5347 152.276 89.6747 152.747 89.6747 153.27C89.6747 154.026 89.4087 154.67 88.8767 155.202C88.3447 155.734 87.7007 156 86.9447 156H82.6747V146.2H86.6227C87.3414 146.2 87.962 146.461 88.4847 146.984C88.998 147.497 89.2547 148.113 89.2547 148.832C89.2547 149.747 88.872 150.442 88.1067 150.918ZM86.6227 147.124H83.6547V150.54H86.6227C87.0707 150.54 87.458 150.377 87.7847 150.05C88.1114 149.705 88.2747 149.299 88.2747 148.832C88.2747 148.375 88.1114 147.973 87.7847 147.628C87.458 147.292 87.0707 147.124 86.6227 147.124ZM83.6547 155.076H86.9447C87.43 155.076 87.8407 154.903 88.1767 154.558C88.522 154.213 88.6947 153.783 88.6947 153.27C88.6947 152.766 88.522 152.341 88.1767 151.996C87.8407 151.641 87.43 151.464 86.9447 151.464H83.6547V155.076ZM94.4503 148.832C95.4957 148.832 96.331 149.201 96.9563 149.938C97.6003 150.666 97.9223 151.529 97.9223 152.528C97.9223 152.575 97.913 152.719 97.8943 152.962H91.7483C91.8417 153.662 92.1403 154.222 92.6443 154.642C93.1483 155.062 93.7783 155.272 94.5343 155.272C95.5983 155.272 96.3497 154.875 96.7883 154.082L97.6003 154.558C97.2923 155.062 96.8677 155.459 96.3263 155.748C95.7943 156.028 95.1923 156.168 94.5203 156.168C93.419 156.168 92.523 155.823 91.8323 155.132C91.1417 154.441 90.7963 153.564 90.7963 152.5C90.7963 151.445 91.137 150.573 91.8183 149.882C92.4997 149.182 93.377 148.832 94.4503 148.832ZM94.4503 149.728C93.7223 149.728 93.111 149.943 92.6163 150.372C92.131 150.801 91.8417 151.366 91.7483 152.066H96.9703C96.8677 151.319 96.583 150.745 96.1163 150.344C95.631 149.933 95.0757 149.728 94.4503 149.728ZM105.412 150.372V149H106.336V156H105.412V154.628C104.768 155.655 103.825 156.168 102.584 156.168C101.585 156.168 100.731 155.813 100.022 155.104C99.3221 154.395 98.9721 153.527 98.9721 152.5C98.9721 151.473 99.3221 150.605 100.022 149.896C100.731 149.187 101.585 148.832 102.584 148.832C103.825 148.832 104.768 149.345 105.412 150.372ZM100.694 154.474C101.226 155.006 101.879 155.272 102.654 155.272C103.429 155.272 104.082 155.006 104.614 154.474C105.146 153.923 105.412 153.265 105.412 152.5C105.412 151.725 105.146 151.072 104.614 150.54C104.082 149.999 103.429 149.728 102.654 149.728C101.879 149.728 101.226 149.999 100.694 150.54C100.162 151.072 99.8961 151.725 99.8961 152.5C99.8961 153.265 100.162 153.923 100.694 154.474ZM112.003 149V149.896H109.987V154.138C109.987 154.521 110.061 154.796 110.211 154.964C110.36 155.123 110.584 155.207 110.883 155.216C111.181 155.216 111.555 155.207 112.003 155.188V156C111.004 156.149 110.262 156.079 109.777 155.79C109.301 155.491 109.062 154.941 109.062 154.138V149.896H107.593V149H109.062V147.32L109.987 147.04V149H112.003ZM113.847 150.834C113.847 151.375 114.327 151.772 115.289 152.024C115.559 152.089 115.737 152.136 115.821 152.164C115.905 152.183 116.068 152.234 116.311 152.318C116.563 152.393 116.735 152.458 116.829 152.514C116.931 152.57 117.071 152.659 117.249 152.78C117.426 152.892 117.552 153.009 117.627 153.13C117.701 153.242 117.771 153.391 117.837 153.578C117.902 153.755 117.935 153.947 117.935 154.152C117.935 154.749 117.697 155.235 117.221 155.608C116.763 155.981 116.157 156.168 115.401 156.168C114.747 156.168 114.183 156.023 113.707 155.734C113.231 155.435 112.895 155.043 112.699 154.558L113.483 154.096C113.613 154.46 113.847 154.749 114.183 154.964C114.528 155.169 114.934 155.272 115.401 155.272C115.877 155.272 116.264 155.179 116.563 154.992C116.861 154.805 117.011 154.525 117.011 154.152C117.011 153.611 116.53 153.214 115.569 152.962C115.298 152.897 115.121 152.855 115.037 152.836C114.953 152.808 114.785 152.757 114.533 152.682C114.29 152.598 114.117 152.528 114.015 152.472C113.921 152.416 113.786 152.332 113.609 152.22C113.431 152.099 113.305 151.982 113.231 151.87C113.156 151.749 113.086 151.599 113.021 151.422C112.955 151.235 112.923 151.039 112.923 150.834C112.923 150.265 113.147 149.789 113.595 149.406C114.061 149.023 114.635 148.832 115.317 148.832C115.877 148.832 116.371 148.958 116.801 149.21C117.239 149.462 117.561 149.812 117.767 150.26L116.997 150.708C116.735 150.055 116.175 149.728 115.317 149.728C114.897 149.728 114.547 149.826 114.267 150.022C113.987 150.218 113.847 150.489 113.847 150.834ZM128.996 150.372V149H129.92V156H128.996V154.628C128.352 155.655 127.409 156.168 126.168 156.168C125.169 156.168 124.315 155.813 123.606 155.104C122.906 154.395 122.556 153.527 122.556 152.5C122.556 151.473 122.906 150.605 123.606 149.896C124.315 149.187 125.169 148.832 126.168 148.832C127.409 148.832 128.352 149.345 128.996 150.372ZM124.278 154.474C124.81 155.006 125.463 155.272 126.238 155.272C127.013 155.272 127.666 155.006 128.198 154.474C128.73 153.923 128.996 153.265 128.996 152.5C128.996 151.725 128.73 151.072 128.198 150.54C127.666 149.999 127.013 149.728 126.238 149.728C125.463 149.728 124.81 149.999 124.278 150.54C123.746 151.072 123.48 151.725 123.48 152.5C123.48 153.265 123.746 153.923 124.278 154.474ZM135.586 149V149.896H133.57V154.138C133.57 154.521 133.645 154.796 133.794 154.964C133.944 155.123 134.168 155.207 134.466 155.216C134.765 155.216 135.138 155.207 135.586 155.188V156C134.588 156.149 133.846 156.079 133.36 155.79C132.884 155.491 132.646 154.941 132.646 154.138V149.896H131.176V149H132.646V147.32L133.57 147.04V149H135.586ZM146.646 150.372V149H147.57V156H146.646V154.628C146.002 155.655 145.06 156.168 143.818 156.168C142.82 156.168 141.966 155.813 141.256 155.104C140.556 154.395 140.206 153.527 140.206 152.5C140.206 151.473 140.556 150.605 141.256 149.896C141.966 149.187 142.82 148.832 143.818 148.832C145.06 148.832 146.002 149.345 146.646 150.372ZM141.928 154.474C142.46 155.006 143.114 155.272 143.888 155.272C144.663 155.272 145.316 155.006 145.848 154.474C146.38 153.923 146.646 153.265 146.646 152.5C146.646 151.725 146.38 151.072 145.848 150.54C145.316 149.999 144.663 149.728 143.888 149.728C143.114 149.728 142.46 149.999 141.928 150.54C141.396 151.072 141.13 151.725 141.13 152.5C141.13 153.265 141.396 153.923 141.928 154.474ZM152.803 148.832C153.643 148.832 154.31 149.093 154.805 149.616C155.3 150.129 155.547 150.825 155.547 151.702V156H154.623V151.702C154.623 151.077 154.455 150.591 154.119 150.246C153.792 149.901 153.326 149.728 152.719 149.728C152.019 149.728 151.464 149.947 151.053 150.386C150.652 150.825 150.451 151.473 150.451 152.332V156H149.527V149H150.451V150.092C150.974 149.252 151.758 148.832 152.803 148.832ZM168.534 156H167.498L166.588 153.592H161.94L161.03 156H159.994L163.76 146.2H164.768L168.534 156ZM164.264 147.418L162.29 152.668H166.238L164.264 147.418ZM173.404 148.832C174.403 148.832 175.252 149.187 175.952 149.896C176.661 150.605 177.016 151.473 177.016 152.5C177.016 153.527 176.661 154.395 175.952 155.104C175.252 155.813 174.403 156.168 173.404 156.168C172.163 156.168 171.22 155.655 170.576 154.628V158.8H169.652V149H170.576V150.372C171.22 149.345 172.163 148.832 173.404 148.832ZM171.374 154.474C171.906 155.006 172.559 155.272 173.334 155.272C174.109 155.272 174.762 155.006 175.294 154.474C175.826 153.923 176.092 153.265 176.092 152.5C176.092 151.725 175.826 151.072 175.294 150.54C174.762 149.999 174.109 149.728 173.334 149.728C172.559 149.728 171.906 149.999 171.374 150.54C170.842 151.072 170.576 151.725 170.576 152.5C170.576 153.265 170.842 153.923 171.374 154.474ZM182.304 148.832C183.303 148.832 184.152 149.187 184.852 149.896C185.562 150.605 185.916 151.473 185.916 152.5C185.916 153.527 185.562 154.395 184.852 155.104C184.152 155.813 183.303 156.168 182.304 156.168C181.063 156.168 180.12 155.655 179.476 154.628V158.8H178.552V149H179.476V150.372C180.12 149.345 181.063 148.832 182.304 148.832ZM180.274 154.474C180.806 155.006 181.46 155.272 182.234 155.272C183.009 155.272 183.662 155.006 184.194 154.474C184.726 153.923 184.992 153.265 184.992 152.5C184.992 151.725 184.726 151.072 184.194 150.54C183.662 149.999 183.009 149.728 182.234 149.728C181.46 149.728 180.806 149.999 180.274 150.54C179.742 151.072 179.476 151.725 179.476 152.5C179.476 153.265 179.742 153.923 180.274 154.474ZM188.377 156H187.453V145.78H188.377V156ZM193.571 148.832C194.617 148.832 195.452 149.201 196.077 149.938C196.721 150.666 197.043 151.529 197.043 152.528C197.043 152.575 197.034 152.719 197.015 152.962H190.869C190.963 153.662 191.261 154.222 191.765 154.642C192.269 155.062 192.899 155.272 193.655 155.272C194.719 155.272 195.471 154.875 195.909 154.082L196.721 154.558C196.413 155.062 195.989 155.459 195.447 155.748C194.915 156.028 194.313 156.168 193.641 156.168C192.54 156.168 191.644 155.823 190.953 155.132C190.263 154.441 189.917 153.564 189.917 152.5C189.917 151.445 190.258 150.573 190.939 149.882C191.621 149.182 192.498 148.832 193.571 148.832ZM193.571 149.728C192.843 149.728 192.232 149.943 191.737 150.372C191.252 150.801 190.963 151.366 190.869 152.066H196.091C195.989 151.319 195.704 150.745 195.237 150.344C194.752 149.933 194.197 149.728 193.571 149.728ZM205.233 156.168C204.337 156.168 203.567 155.958 202.923 155.538C202.289 155.109 201.845 154.521 201.593 153.774L202.433 153.284C202.611 153.9 202.937 154.376 203.413 154.712C203.899 155.048 204.51 155.216 205.247 155.216C205.966 155.216 206.531 155.057 206.941 154.74C207.352 154.423 207.557 153.993 207.557 153.452C207.557 152.939 207.371 152.551 206.997 152.29C206.633 152.029 206.017 151.758 205.149 151.478C204.113 151.133 203.441 150.862 203.133 150.666C202.387 150.218 202.013 149.569 202.013 148.72C202.013 147.889 202.303 147.236 202.881 146.76C203.451 146.275 204.165 146.032 205.023 146.032C205.761 146.032 206.414 146.228 206.983 146.62C207.553 147.003 207.977 147.511 208.257 148.146L207.431 148.608C206.983 147.525 206.181 146.984 205.023 146.984C204.407 146.984 203.913 147.138 203.539 147.446C203.175 147.745 202.993 148.155 202.993 148.678C202.993 149.173 203.161 149.537 203.497 149.77C203.843 150.013 204.398 150.26 205.163 150.512L205.919 150.778C206.078 150.825 206.302 150.909 206.591 151.03C206.909 151.151 207.128 151.254 207.249 151.338C207.744 151.637 208.057 151.912 208.187 152.164C208.421 152.537 208.537 152.957 208.537 153.424C208.537 154.255 208.234 154.922 207.627 155.426C207.021 155.921 206.223 156.168 205.233 156.168ZM213.585 149V149.896H211.569V154.138C211.569 154.521 211.643 154.796 211.793 154.964C211.942 155.123 212.166 155.207 212.465 155.216C212.763 155.216 213.137 155.207 213.585 155.188V156C212.586 156.149 211.844 156.079 211.359 155.79C210.883 155.491 210.645 154.941 210.645 154.138V149.896H209.175V149H210.645V147.32L211.569 147.04V149H213.585ZM220.567 155.118C219.848 155.818 218.98 156.168 217.963 156.168C216.927 156.168 216.054 155.818 215.345 155.118C214.635 154.409 214.281 153.536 214.281 152.5C214.281 151.464 214.635 150.596 215.345 149.896C216.054 149.187 216.927 148.832 217.963 148.832C218.989 148.832 219.857 149.187 220.567 149.896C221.285 150.596 221.645 151.464 221.645 152.5C221.645 153.527 221.285 154.399 220.567 155.118ZM216.003 154.474C216.535 155.006 217.188 155.272 217.963 155.272C218.737 155.272 219.391 155.006 219.923 154.474C220.455 153.923 220.721 153.265 220.721 152.5C220.721 151.725 220.455 151.072 219.923 150.54C219.391 149.999 218.737 149.728 217.963 149.728C217.188 149.728 216.535 149.999 216.003 150.54C215.471 151.072 215.205 151.725 215.205 152.5C215.205 153.265 215.471 153.923 216.003 154.474ZM224.115 149V150.162C224.544 149.313 225.282 148.888 226.327 148.888V149.784C225.655 149.784 225.118 149.98 224.717 150.372C224.316 150.755 224.115 151.333 224.115 152.108V156H223.191V149H224.115ZM230.403 148.832C231.449 148.832 232.284 149.201 232.909 149.938C233.553 150.666 233.875 151.529 233.875 152.528C233.875 152.575 233.866 152.719 233.847 152.962H227.701C227.795 153.662 228.093 154.222 228.597 154.642C229.101 155.062 229.731 155.272 230.487 155.272C231.551 155.272 232.303 154.875 232.741 154.082L233.553 154.558C233.245 155.062 232.821 155.459 232.279 155.748C231.747 156.028 231.145 156.168 230.473 156.168C229.372 156.168 228.476 155.823 227.785 155.132C227.095 154.441 226.749 153.564 226.749 152.5C226.749 151.445 227.09 150.573 227.771 149.882C228.453 149.182 229.33 148.832 230.403 148.832ZM230.403 149.728C229.675 149.728 229.064 149.943 228.569 150.372C228.084 150.801 227.795 151.366 227.701 152.066H232.923C232.821 151.319 232.536 150.745 232.069 150.344C231.584 149.933 231.029 149.728 230.403 149.728ZM242.121 148.832C242.961 148.832 243.629 149.093 244.123 149.616C244.618 150.129 244.865 150.825 244.865 151.702V156H243.941V151.702C243.941 151.077 243.773 150.591 243.437 150.246C243.111 149.901 242.644 149.728 242.037 149.728C241.337 149.728 240.782 149.947 240.371 150.386C239.97 150.825 239.769 151.473 239.769 152.332V156H238.845V149H239.769V150.092C240.292 149.252 241.076 148.832 242.121 148.832ZM249.886 148.832C250.931 148.832 251.767 149.201 252.392 149.938C253.036 150.666 253.358 151.529 253.358 152.528C253.358 152.575 253.349 152.719 253.33 152.962H247.184C247.277 153.662 247.576 154.222 248.08 154.642C248.584 155.062 249.214 155.272 249.97 155.272C251.034 155.272 251.785 154.875 252.224 154.082L253.036 154.558C252.728 155.062 252.303 155.459 251.762 155.748C251.23 156.028 250.628 156.168 249.956 156.168C248.855 156.168 247.959 155.823 247.268 155.132C246.577 154.441 246.232 153.564 246.232 152.5C246.232 151.445 246.573 150.573 247.254 149.882C247.935 149.182 248.813 148.832 249.886 148.832ZM249.886 149.728C249.158 149.728 248.547 149.943 248.052 150.372C247.567 150.801 247.277 151.366 247.184 152.066H252.406C252.303 151.319 252.019 150.745 251.552 150.344C251.067 149.933 250.511 149.728 249.886 149.728ZM260.848 150.372V149H261.772V156H260.848V154.628C260.204 155.655 259.261 156.168 258.02 156.168C257.021 156.168 256.167 155.813 255.458 155.104C254.758 154.395 254.408 153.527 254.408 152.5C254.408 151.473 254.758 150.605 255.458 149.896C256.167 149.187 257.021 148.832 258.02 148.832C259.261 148.832 260.204 149.345 260.848 150.372ZM256.13 154.474C256.662 155.006 257.315 155.272 258.09 155.272C258.864 155.272 259.518 155.006 260.05 154.474C260.582 153.923 260.848 153.265 260.848 152.5C260.848 151.725 260.582 151.072 260.05 150.54C259.518 149.999 258.864 149.728 258.09 149.728C257.315 149.728 256.662 149.999 256.13 150.54C255.598 151.072 255.332 151.725 255.332 152.5C255.332 153.265 255.598 153.923 256.13 154.474ZM264.652 149V150.162C265.081 149.313 265.819 148.888 266.864 148.888V149.784C266.192 149.784 265.655 149.98 265.254 150.372C264.853 150.755 264.652 151.333 264.652 152.108V156H263.728V149H264.652ZM274.402 154.866L276.67 149H277.65L274.654 156.644C274.374 157.353 273.982 157.899 273.478 158.282C272.984 158.674 272.433 158.847 271.826 158.8V157.932C272.666 158.035 273.306 157.549 273.744 156.476L273.926 156.042L270.79 149H271.77L274.402 154.866ZM284.36 155.118C283.641 155.818 282.773 156.168 281.756 156.168C280.72 156.168 279.847 155.818 279.138 155.118C278.428 154.409 278.074 153.536 278.074 152.5C278.074 151.464 278.428 150.596 279.138 149.896C279.847 149.187 280.72 148.832 281.756 148.832C282.782 148.832 283.65 149.187 284.36 149.896C285.078 150.596 285.438 151.464 285.438 152.5C285.438 153.527 285.078 154.399 284.36 155.118ZM279.796 154.474C280.328 155.006 280.981 155.272 281.756 155.272C282.53 155.272 283.184 155.006 283.716 154.474C284.248 153.923 284.514 153.265 284.514 152.5C284.514 151.725 284.248 151.072 283.716 150.54C283.184 149.999 282.53 149.728 281.756 149.728C280.981 149.728 280.328 149.999 279.796 150.54C279.264 151.072 278.998 151.725 278.998 152.5C278.998 153.265 279.264 153.923 279.796 154.474ZM291.912 152.668V149H292.836V156H291.912V154.908C291.389 155.748 290.605 156.168 289.56 156.168C288.72 156.168 288.053 155.911 287.558 155.398C287.063 154.875 286.816 154.175 286.816 153.298V149H287.74V153.298C287.74 153.923 287.903 154.409 288.23 154.754C288.566 155.099 289.037 155.272 289.644 155.272C290.344 155.272 290.895 155.053 291.296 154.614C291.707 154.175 291.912 153.527 291.912 152.668Z" fill="#282828" fill-opacity="0.8"/>
<defs>
<clipPath id="clip0_2001_790">
<rect width="24" height="24" fill="white" transform="translate(9 9)"/>
</clipPath>
</defs>
</svg>
