<svg width="28" height="28" viewBox="0 0 28 28" fill="none" xmlns="http://www.w3.org/2000/svg">
<path d="M23.5582 17.8426C23.5366 17.7692 23.4964 17.7026 23.4415 17.6493C23.3867 17.596 23.319 17.5577 23.245 17.5382C22.978 17.5023 19.6775 16.5273 19.5307 16.6251C19.5474 16.6124 16.1489 17.5168 16.0457 17.5382C15.9711 17.5563 15.9026 17.5941 15.8475 17.6476C15.7924 17.7012 15.7527 17.7685 15.7325 17.8426C15.5552 18.2089 14.7812 22.6659 17.1177 24.8125C17.7873 25.4724 18.6081 25.9585 19.5086 26.2285C19.596 26.2572 19.6902 26.2572 19.7776 26.2285C25.3271 24.4464 23.5759 17.9088 23.5582 17.8426ZM19.8306 24.4508C19.773 24.4792 19.7096 24.4939 19.6453 24.4939C19.5811 24.4939 19.5177 24.4792 19.4601 24.4508C16.9897 23.3127 16.9368 20.6923 17.1309 19.2322C17.1422 19.1456 17.1788 19.0643 17.2361 18.9984C17.2934 18.9325 17.3688 18.8849 17.4529 18.8616L19.5306 18.319C19.5463 18.2086 21.7403 18.858 21.8334 18.8616C21.9184 18.884 21.9949 18.9312 22.053 18.9972C22.1111 19.0632 22.1483 19.145 22.1598 19.2322C22.3495 20.6923 22.301 23.3127 19.8306 24.4508Z" fill="#282828"/>
<path d="M19.6454 19.2012L17.9735 19.6423C17.8632 20.8466 18.0087 22.6817 19.6454 23.5596C21.282 22.6817 21.4231 20.8466 21.3172 19.6423L19.6454 19.2012Z" fill="#282828"/>
<path d="M9.90954 6.7171H14.3032C14.4974 6.71683 14.6835 6.63959 14.8207 6.50231C14.958 6.36504 15.0352 6.17893 15.0355 5.9848C15.0289 4.51758 15.2759 4.14233 13.5709 3.96005L13.5709 3.21008C13.5703 2.82267 13.4159 2.45136 13.1417 2.17767C12.8676 1.90397 12.496 1.75024 12.1086 1.75024C11.7212 1.75024 11.3496 1.90397 11.0754 2.17767C10.8013 2.45136 10.6469 2.82267 10.6462 3.21008V3.96002C10.0492 4.05695 9.18891 4.07398 9.17728 4.83789V5.9848C9.17829 6.1787 9.25576 6.36437 9.39287 6.50148C9.52997 6.63859 9.71564 6.71608 9.90954 6.7171ZM12.1064 2.41604C12.327 2.41779 12.5379 2.50663 12.6932 2.66322C12.8486 2.8198 12.9357 3.03143 12.9357 3.252C12.9357 3.47256 12.8486 3.68419 12.6932 3.84077C12.5379 3.99735 12.3269 4.08619 12.1064 4.08793C11.886 4.08598 11.6752 3.99704 11.52 3.84048C11.3649 3.68392 11.2778 3.47241 11.2778 3.25198C11.2778 3.03155 11.3649 2.82004 11.5201 2.66348C11.6752 2.50693 11.886 2.41799 12.1064 2.41604Z" fill="#282828"/>
<path d="M14.8811 17.6044C14.9436 17.3821 15.0632 17.18 15.228 17.0182C15.3929 16.8564 15.5972 16.7407 15.8207 16.6825L19.1646 15.809C19.449 15.7089 19.7578 15.7012 20.0468 15.787V6.74372C20.0467 6.17943 19.8228 5.63823 19.4242 5.23881C19.0256 4.83938 18.4849 4.61434 17.9206 4.61304H15.9046C15.9343 4.99648 15.9104 5.60199 15.9178 5.98496C15.9176 6.41311 15.7474 6.82365 15.4447 7.1264C15.1419 7.42914 14.7314 7.59931 14.3033 7.59952H9.90952C9.48139 7.59931 9.07084 7.42913 8.7681 7.12639C8.46537 6.82365 8.2952 6.4131 8.295 5.98496C8.30321 5.61195 8.27844 4.98921 8.30821 4.61307L6.29224 4.61305C5.72818 4.61509 5.18788 4.84037 4.78945 5.23964C4.39101 5.6389 4.16686 6.17967 4.16599 6.74373V22.6863C4.16704 23.2499 4.39139 23.7901 4.78991 24.1886C5.18843 24.5871 5.72864 24.8115 6.29224 24.8125H15.9266C15.716 24.5361 15.5314 24.2407 15.3752 23.9303C13.9327 21.0982 14.8679 17.6574 14.8811 17.6044ZM13.4121 10.3522H17.6294C17.7453 10.3539 17.8558 10.4011 17.9372 10.4837C18.0186 10.5662 18.0642 10.6774 18.0642 10.7934C18.0642 10.9093 18.0186 11.0205 17.9372 11.1031C17.8558 11.1856 17.7453 11.2328 17.6294 11.2345H13.4121C13.2961 11.233 13.1854 11.1858 13.1039 11.1033C13.0224 11.0207 12.9767 10.9094 12.9767 10.7934C12.9767 10.6773 13.0224 10.566 13.1039 10.4834C13.1854 10.4009 13.2961 10.3537 13.4121 10.3522ZM10.2448 10.3522H11.5153C11.6313 10.3537 11.742 10.4009 11.8235 10.4834C11.905 10.566 11.9507 10.6773 11.9507 10.7934C11.9507 10.9094 11.905 11.0207 11.8235 11.1033C11.742 11.1858 11.6313 11.233 11.5153 11.2345H10.2448C10.1289 11.2328 10.0183 11.1856 9.93695 11.1031C9.85559 11.0205 9.80998 10.9093 9.80998 10.7934C9.80998 10.6774 9.85559 10.5662 9.93695 10.4837C10.0183 10.4011 10.1289 10.3539 10.2448 10.3522ZM10.2448 15.1253H15.9398C16.0557 15.127 16.1662 15.1743 16.2475 15.2568C16.3288 15.3394 16.3743 15.4506 16.3743 15.5664C16.3743 15.6823 16.3287 15.7935 16.2474 15.876C16.1661 15.9586 16.0556 16.0058 15.9398 16.0076H10.2448C10.1288 16.006 10.0181 15.9588 9.93664 15.8763C9.85518 15.7937 9.8095 15.6824 9.8095 15.5664C9.8095 15.4504 9.85518 15.3391 9.93664 15.2565C10.0181 15.174 10.1288 15.1268 10.2448 15.1253ZM9.09343 18.8881L7.90237 20.5953C7.8656 20.648 7.81769 20.6919 7.76203 20.7239C7.70638 20.7559 7.64435 20.7753 7.58037 20.7806C7.51584 20.7854 7.45102 20.7765 7.39018 20.7545C7.32935 20.7324 7.27388 20.6977 7.22744 20.6526L6.41575 19.841C6.33612 19.7573 6.29243 19.6458 6.29405 19.5304C6.29567 19.4149 6.34248 19.3046 6.42442 19.2233C6.50637 19.1419 6.61694 19.0959 6.73243 19.0951C6.84791 19.0943 6.95911 19.1388 7.04218 19.219L7.47888 19.6557L8.36997 18.3852C8.43747 18.2913 8.53918 18.2278 8.65315 18.2082C8.76713 18.1886 8.88423 18.2146 8.97918 18.2806C9.07414 18.3466 9.13934 18.4473 9.16071 18.561C9.18209 18.6746 9.15792 18.7921 9.09343 18.8881ZM9.09343 14.1151L7.90237 15.8178C7.86583 15.8713 7.81794 15.916 7.76212 15.9488C7.70629 15.9816 7.64391 16.0017 7.57943 16.0076C7.51495 16.0135 7.44997 16.0051 7.38912 15.983C7.32826 15.9608 7.27305 15.9255 7.22742 15.8796L6.41575 15.0679C6.33556 14.9844 6.29141 14.8727 6.29279 14.7569C6.29418 14.6411 6.341 14.5305 6.42317 14.4489C6.50534 14.3674 6.61627 14.3213 6.73206 14.3208C6.84784 14.3202 6.95922 14.3651 7.04217 14.4459L7.47887 14.8826L8.36997 13.6078C8.43855 13.5152 8.54058 13.453 8.65433 13.4345C8.76807 13.4161 8.88453 13.4428 8.97888 13.5089C9.07322 13.5751 9.138 13.6755 9.1594 13.7887C9.1808 13.9019 9.15713 14.019 9.09343 14.1151ZM9.09343 9.33758L7.90237 11.0448C7.86561 11.0974 7.8177 11.1413 7.76204 11.1733C7.70639 11.2054 7.64436 11.2247 7.58037 11.23C7.51569 11.2369 7.45031 11.2289 7.38916 11.2068C7.32802 11.1846 7.27272 11.1488 7.22744 11.1021L6.41577 10.2904C6.33609 10.2068 6.29235 10.0953 6.29395 9.97978C6.29555 9.86428 6.34235 9.754 6.42433 9.67261C6.5063 9.59123 6.6169 9.54521 6.73241 9.54443C6.84792 9.54366 6.95914 9.58819 7.04219 9.66847L7.47889 10.1052L8.36999 8.8347C8.43761 8.74112 8.53927 8.67782 8.65309 8.65843C8.76691 8.63903 8.88379 8.66509 8.97859 8.73099C9.0734 8.79689 9.13855 8.89737 9.16002 9.01082C9.1815 9.12426 9.15759 9.24158 9.09343 9.33758ZM13.6151 20.785H10.2448C10.1289 20.7833 10.0184 20.7361 9.93705 20.6535C9.85572 20.571 9.81013 20.4597 9.81014 20.3439C9.81014 20.228 9.85573 20.1168 9.93707 20.0342C10.0184 19.9517 10.1289 19.9045 10.2448 19.9027H13.6151C13.7309 19.9045 13.8413 19.9518 13.9226 20.0343C14.0039 20.1169 14.0494 20.228 14.0494 20.3439C14.0494 20.4597 14.0039 20.5709 13.9226 20.6534C13.8413 20.736 13.7309 20.7832 13.6151 20.785Z" fill="#282828"/>
</svg>
