<svg width="372" height="154" viewBox="0 0 372 154" fill="none" xmlns="http://www.w3.org/2000/svg">
<g filter="url(#filter0_b_2001_830)">
<rect x="1" y="1" width="370" height="152" rx="30" stroke="#626262"/>
<path d="M37.2658 26.88L41.3566 25.4942L31.735 22.2939L28.0104 23.5591C28.0112 23.5584 37.2638 26.8833 37.2658 26.88ZM35.7551 25.2362C35.7181 25.3405 35.6412 25.4258 35.5413 25.4734C35.4414 25.521 35.3267 25.527 35.2224 25.4901L31.219 24.0918C31.1154 24.0548 31.0306 23.9784 30.9831 23.8792C30.9357 23.7799 30.9294 23.6659 30.9656 23.5621C31.0019 23.4582 31.0778 23.3729 31.1767 23.3248C31.2756 23.2767 31.3896 23.2697 31.4936 23.3053L35.4971 24.7077C35.6012 24.7438 35.6869 24.8196 35.7352 24.9187C35.7836 25.0177 35.7907 25.1319 35.7551 25.2362Z" fill="#282828"/>
<path d="M26.7536 23.9919C26.7494 23.9893 22.3299 25.4943 22.3257 25.4943L31.735 28.757L35.9965 27.3129L26.7536 23.9919ZM32.1137 27.5168C32.0698 27.5181 32.026 27.511 31.9847 27.496L27.6442 26.0519C27.5412 26.0161 27.4565 25.9412 27.4084 25.8433C27.3603 25.7455 27.3526 25.6327 27.3871 25.5292C27.4216 25.4258 27.4954 25.3401 27.5926 25.2907C27.6898 25.2414 27.8025 25.2322 27.9064 25.2654L32.2469 26.7053C32.3393 26.738 32.4172 26.8022 32.4671 26.8865C32.5169 26.9709 32.5355 27.07 32.5197 27.1667C32.5038 27.2634 32.4545 27.3515 32.3803 27.4155C32.306 27.4795 32.2117 27.5153 32.1137 27.5168Z" fill="#282828"/>
<path d="M37.6736 27.625V34.0547C37.6733 34.1648 37.6293 34.2703 37.5513 34.3481C37.4733 34.4258 37.3676 34.4695 37.2575 34.4695C37.1473 34.4695 37.0417 34.4258 36.9637 34.3481C36.8857 34.2703 36.8417 34.1648 36.8413 34.0547V27.9039L32.2719 29.4561V39.7061L42.2472 36.3186V26.0728L37.6736 27.625ZM33.82 38.2911C33.7409 38.3259 33.6555 38.3443 33.5691 38.3451C33.4826 38.3459 33.397 38.3291 33.3172 38.2957C33.2375 38.2624 33.1653 38.2132 33.1052 38.1511C33.0451 38.089 32.9982 38.0153 32.9674 37.9345C32.9366 37.8538 32.9226 37.7676 32.9262 37.6812C32.9297 37.5949 32.9508 37.5101 32.9881 37.4321C33.0254 37.3542 33.0782 37.2846 33.1432 37.2277C33.2083 37.1707 33.2842 37.1276 33.3664 37.1009C33.4455 37.0661 33.5309 37.0478 33.6173 37.047C33.7038 37.0462 33.7895 37.063 33.8692 37.0964C33.9489 37.1297 34.0211 37.1789 34.0812 37.241C34.1413 37.3031 34.1882 37.3768 34.219 37.4575C34.2498 37.5383 34.2638 37.6245 34.2603 37.7109C34.2567 37.7972 34.2356 37.882 34.1983 37.9599C34.161 38.0379 34.1082 38.1075 34.0432 38.1644C33.9781 38.2213 33.9022 38.2645 33.82 38.2911ZM35.8509 37.5962C35.7716 37.6306 35.6861 37.6487 35.5997 37.6492C35.5133 37.6498 35.4276 37.6328 35.3479 37.5994C35.2682 37.5659 35.1961 37.5167 35.1359 37.4546C35.0758 37.3925 35.0288 37.3189 34.9979 37.2382C34.9669 37.1575 34.9527 37.0713 34.9559 36.9849C34.9592 36.8986 34.9799 36.8137 35.0168 36.7356C35.0538 36.6574 35.1061 36.5875 35.1708 36.5302C35.2355 36.4728 35.3111 36.4291 35.3931 36.4018C35.4724 36.3673 35.5578 36.3493 35.6442 36.3487C35.7307 36.3482 35.8163 36.3651 35.896 36.3986C35.9758 36.4321 36.0479 36.4813 36.108 36.5434C36.1682 36.6055 36.2151 36.6791 36.2461 36.7598C36.277 36.8405 36.2913 36.9266 36.288 37.013C36.2848 37.0994 36.264 37.1842 36.2271 37.2624C36.1902 37.3405 36.1378 37.4104 36.0731 37.4678C36.0085 37.5251 35.9329 37.5688 35.8509 37.5962Z" fill="#282828"/>
<path d="M21.4601 28.1619H20.6661C20.5559 28.1622 20.4504 28.2062 20.3727 28.2842C20.2949 28.3623 20.2512 28.4679 20.2512 28.578C20.2512 28.6882 20.2949 28.7938 20.3727 28.8718C20.4504 28.9498 20.5559 28.9938 20.6661 28.9942H23.9113C24.0206 28.9958 24.1249 29.0403 24.2017 29.1182C24.2784 29.1961 24.3214 29.301 24.3214 29.4104C24.3214 29.5197 24.2784 29.6246 24.2017 29.7025C24.1249 29.7804 24.0206 29.8249 23.9113 29.8265H21.4601V30.9002C21.0498 30.9006 20.2211 30.8999 19.811 30.9002C19.7019 30.9022 19.598 30.9469 19.5216 31.0247C19.4451 31.1026 19.4023 31.2073 19.4023 31.3164C19.4023 31.4255 19.4451 31.5302 19.5216 31.608C19.598 31.6859 19.702 31.7306 19.811 31.7325H25.4136C25.5229 31.7342 25.6271 31.7788 25.7038 31.8566C25.7805 31.9345 25.8235 32.0394 25.8235 32.1487C25.8235 32.258 25.7805 32.3629 25.7038 32.4407C25.6271 32.5186 25.5229 32.5632 25.4136 32.5648H21.4601V33.6385H18.1633C18.0539 33.64 17.9495 33.6845 17.8727 33.7623C17.7958 33.8402 17.7527 33.9453 17.7527 34.0547C17.7527 34.1641 17.7958 34.2691 17.8727 34.347C17.9495 34.4249 18.0539 34.4694 18.1633 34.4708C19.8659 34.4717 22.4707 34.4702 24.1526 34.4708C24.2619 34.4725 24.3662 34.517 24.4429 34.5949C24.5196 34.6728 24.5626 34.7777 24.5626 34.887C24.5626 34.9963 24.5196 35.1012 24.4429 35.1791C24.3662 35.257 24.2619 35.3015 24.1526 35.3031H21.4601V36.2811L31.4396 39.7061V29.5352L21.4601 26.0728V28.1619Z" fill="#282828"/>
<path d="M58.1729 26.7344H54.8916V29.0312H58.1729V30.5967H54.8916V34.5H52.9775V25.1689H58.1729V26.7344ZM63.9971 34.5L61.4404 30.7881V34.5H59.5264V25.1689H62.3975C63.5687 25.1689 64.4505 25.415 65.043 25.9072C65.2754 26.0895 65.46 26.3128 65.5967 26.5771C65.8428 27.0374 65.9658 27.5456 65.9658 28.1016C65.9658 28.9902 65.6833 29.6966 65.1182 30.2207C64.7673 30.5443 64.3115 30.7767 63.751 30.918L66.3213 34.5H63.9971ZM61.4404 26.7549V29.667H62.3154C62.8122 29.667 63.2064 29.5622 63.498 29.3525C63.849 29.0928 64.0244 28.71 64.0244 28.2041C64.0244 27.7803 63.8968 27.4362 63.6416 27.1719C63.3773 26.8939 62.9876 26.7549 62.4727 26.7549H61.4404ZM72.5693 26.7344H69.2949V29.0312H72.5693V30.5967H69.2949V32.9346H72.5693V34.5H67.3809V25.1689H72.5693V26.7344ZM79.0635 26.7344H75.7891V29.0312H79.0635V30.5967H75.7891V32.9346H79.0635V34.5H73.875V25.1689H79.0635V26.7344ZM84.3477 31.7725H86.2139C86.2139 32.0186 86.2435 32.2031 86.3027 32.3262C86.4076 32.5312 86.5739 32.6953 86.8018 32.8184C87.016 32.9277 87.2461 32.9824 87.4922 32.9824C87.8568 32.9824 88.1644 32.8753 88.415 32.6611C88.6201 32.4743 88.7227 32.2487 88.7227 31.9844C88.7227 31.6836 88.5951 31.4375 88.3398 31.2461C88.153 31.1094 87.7747 30.9385 87.2051 30.7334C86.2982 30.4144 85.6351 30.0703 85.2158 29.7012C84.6917 29.2454 84.4297 28.6165 84.4297 27.8145C84.4297 26.9258 84.7327 26.2262 85.3389 25.7158C85.904 25.2327 86.6309 24.9912 87.5195 24.9912C88.3763 24.9912 89.0827 25.2236 89.6387 25.6885C90.2402 26.2035 90.582 26.9212 90.6641 27.8418H88.7227C88.6634 27.0716 88.2578 26.6865 87.5059 26.6865C87.1185 26.6865 86.8245 26.7936 86.624 27.0078C86.4508 27.1947 86.3643 27.4134 86.3643 27.6641C86.3643 28.0469 86.5557 28.3431 86.9385 28.5527C87.1344 28.6576 87.499 28.8079 88.0322 29.0039C88.7021 29.2454 89.1943 29.4688 89.5088 29.6738C90.3154 30.1934 90.7188 30.918 90.7188 31.8477C90.7188 32.832 90.3359 33.584 89.5703 34.1035C89.0052 34.4863 88.3171 34.6777 87.5059 34.6777C86.5762 34.6777 85.8356 34.443 85.2842 33.9736C84.6507 33.445 84.3385 32.7113 84.3477 31.7725ZM97.6504 30.6719H94.1025V34.5H92.1885V25.1689H94.1025V29.1064H97.6504V25.1689H99.5645V34.5H97.6504V30.6719ZM101.526 25.1689H103.44V34.5H101.526V25.1689ZM108.506 31.2939H107.31V34.5H105.396V25.1689H108.376C109.493 25.1689 110.349 25.4333 110.946 25.9619C111.534 26.4814 111.828 27.2129 111.828 28.1562C111.828 28.9082 111.639 29.5485 111.261 30.0771C110.687 30.8883 109.768 31.2939 108.506 31.2939ZM107.31 26.7549V29.7148H108.13C108.499 29.7148 108.807 29.6624 109.053 29.5576C109.609 29.3115 109.887 28.874 109.887 28.2451C109.887 27.6572 109.641 27.2288 109.148 26.96C108.884 26.8232 108.563 26.7549 108.185 26.7549H107.31ZM116.23 31.2939H115.034V34.5H113.12V25.1689H116.101C117.217 25.1689 118.074 25.4333 118.671 25.9619C119.259 26.4814 119.553 27.2129 119.553 28.1562C119.553 28.9082 119.364 29.5485 118.985 30.0771C118.411 30.8883 117.493 31.2939 116.23 31.2939ZM115.034 26.7549V29.7148H115.854C116.224 29.7148 116.531 29.6624 116.777 29.5576C117.333 29.3115 117.611 28.874 117.611 28.2451C117.611 27.6572 117.365 27.2288 116.873 26.96C116.609 26.8232 116.287 26.7549 115.909 26.7549H115.034ZM120.845 25.1689H122.759V34.5H120.845V25.1689ZM130.559 34.5L126.628 28.6006V34.5H124.714V25.1689H126.594L130.511 30.9932V25.1689H132.425V34.5H130.559ZM138.844 30.8291V29.2637H143.513C143.517 29.3776 143.52 29.5462 143.52 29.7695C143.52 31.1641 143.066 32.3171 142.159 33.2285C141.207 34.1947 140.061 34.6777 138.721 34.6777C137.873 34.6777 137.087 34.4795 136.362 34.083C135.61 33.682 135.022 33.1237 134.599 32.4082C134.147 31.6562 133.922 30.8018 133.922 29.8447C133.922 28.4548 134.384 27.2904 135.31 26.3516C136.203 25.4447 137.333 24.9912 138.7 24.9912C139.657 24.9912 140.544 25.2487 141.359 25.7637C141.783 26.0371 142.159 26.3766 142.487 26.7822L141.038 27.917C140.783 27.6071 140.546 27.3792 140.327 27.2334C139.862 26.9189 139.334 26.7617 138.741 26.7617C138.103 26.7617 137.54 26.944 137.053 27.3086C136.643 27.6139 136.328 28.0355 136.109 28.5732C135.945 28.9834 135.863 29.4118 135.863 29.8584C135.863 30.82 136.201 31.6016 136.875 32.2031C137.431 32.6953 138.071 32.9414 138.796 32.9414C139.361 32.9414 139.881 32.7819 140.354 32.4629C140.778 32.1849 141.086 31.8112 141.277 31.3418C141.323 31.2233 141.378 31.0524 141.441 30.8291H138.844ZM149.118 25.1689H151.032V34.5H149.118V25.1689ZM158.832 34.5L154.901 28.6006V34.5H152.987V25.1689H154.867L158.784 30.9932V25.1689H160.698V34.5H158.832ZM170.597 28.6416L168.997 28.2109L170.193 24.9844L171.431 25.3057L170.597 28.6416ZM167.938 28.6416L166.345 28.2109L167.534 24.9844L168.778 25.3057L167.938 28.6416ZM179.388 31.9502L180.55 33.2695C180.09 33.7025 179.652 34.0192 179.237 34.2197C178.581 34.5296 177.861 34.6846 177.077 34.6846C175.687 34.6846 174.573 34.2174 173.734 33.2832C173.274 32.7728 172.935 32.1667 172.716 31.4648C172.556 30.9316 172.477 30.3939 172.477 29.8516C172.477 28.9264 172.691 28.0719 173.119 27.2881C173.548 26.4951 174.145 25.8981 174.91 25.4971C175.557 25.1598 176.291 24.9912 177.111 24.9912C177.95 24.9912 178.706 25.1644 179.381 25.5107C179.764 25.7067 180.183 26.0257 180.639 26.4678L179.388 27.7324C178.681 27.0853 177.952 26.7617 177.2 26.7617C176.348 26.7617 175.66 27.0693 175.136 27.6846C174.657 28.2451 174.418 28.9538 174.418 29.8105C174.418 30.444 174.566 31.0228 174.862 31.5469C175.09 31.957 175.427 32.2897 175.874 32.5449C176.302 32.791 176.779 32.9141 177.303 32.9141C178.141 32.9141 178.836 32.5928 179.388 31.9502ZM186.265 24.9844C187.067 24.9844 187.812 25.1667 188.5 25.5312C189.361 25.9915 190.013 26.6341 190.455 27.459C190.824 28.1517 191.009 28.9583 191.009 29.8789C191.009 30.7266 190.799 31.5241 190.38 32.2715C189.933 33.0736 189.3 33.6911 188.479 34.124C187.791 34.4932 187.044 34.6777 186.237 34.6777C185.349 34.6777 184.521 34.459 183.756 34.0215C182.936 33.5475 182.316 32.9072 181.896 32.1006C181.541 31.4261 181.363 30.6855 181.363 29.8789C181.363 28.4525 181.869 27.2539 182.881 26.2832C183.788 25.4173 184.916 24.9844 186.265 24.9844ZM186.21 26.7549C185.321 26.7549 184.592 27.0967 184.022 27.7803C183.553 28.3454 183.318 29.0335 183.318 29.8447C183.318 30.7243 183.599 31.4557 184.159 32.0391C184.72 32.6178 185.396 32.9072 186.189 32.9072C187.033 32.9072 187.741 32.5905 188.315 31.957C188.589 31.6608 188.792 31.2894 188.924 30.8428C189.02 30.5055 189.067 30.1888 189.067 29.8926C189.067 28.8991 188.76 28.113 188.145 27.5342C187.598 27.0146 186.953 26.7549 186.21 26.7549ZM192.362 25.1689H194.276V30.6377C194.276 31.4398 194.415 32.0072 194.693 32.3398C195.008 32.7181 195.445 32.9072 196.006 32.9072C196.402 32.9072 196.756 32.7933 197.065 32.5654C197.371 32.3376 197.567 32.0208 197.653 31.6152C197.703 31.3783 197.729 31.0501 197.729 30.6309V25.1689H199.656V30.5693C199.656 31.499 199.522 32.2464 199.253 32.8115C198.943 33.4632 198.474 33.9486 197.845 34.2676C197.302 34.541 196.696 34.6777 196.026 34.6777C195.229 34.6777 194.52 34.4863 193.9 34.1035C193.253 33.7025 192.816 33.1556 192.588 32.4629C192.438 31.9889 192.362 31.3577 192.362 30.5693V25.1689ZM207.299 34.5L203.368 28.6006V34.5H201.454V25.1689H203.334L207.251 30.9932V25.1689H209.165V34.5H207.299ZM216.548 26.7344H214.326V34.5H212.412V26.7344H210.19V25.1689H216.548V26.7344ZM222.044 34.5L219.487 30.7881V34.5H217.573V25.1689H220.444C221.616 25.1689 222.497 25.415 223.09 25.9072C223.322 26.0895 223.507 26.3128 223.644 26.5771C223.89 27.0374 224.013 27.5456 224.013 28.1016C224.013 28.9902 223.73 29.6966 223.165 30.2207C222.814 30.5443 222.358 30.7767 221.798 30.918L224.368 34.5H222.044ZM219.487 26.7549V29.667H220.362C220.859 29.667 221.253 29.5622 221.545 29.3525C221.896 29.0928 222.071 28.71 222.071 28.2041C222.071 27.7803 221.944 27.4362 221.688 27.1719C221.424 26.8939 221.035 26.7549 220.52 26.7549H219.487ZM232.729 25.1689L229.659 30.3848V34.5H227.745V30.3848L224.621 25.1689H226.897L228.709 28.4023L230.486 25.1689H232.729ZM233.938 24.9844L235.531 25.415L234.342 28.6416L233.098 28.3203L233.938 24.9844ZM236.591 24.9844L238.184 25.415L236.994 28.6416L235.75 28.3203L236.591 24.9844Z" fill="#282828"/>
<rect x="326" y="16" width="30" height="30" rx="15" fill="#282828"/>
<rect x="326" y="16" width="30" height="30" rx="15" stroke="#626262"/>
<path d="M333 31H349" stroke="white" stroke-width="2" stroke-linecap="round" stroke-linejoin="round"/>
<path d="M24.68 79H23.644L22.734 76.592H18.086L17.176 79H16.14L19.906 69.2H20.914L24.68 79ZM20.41 70.418L18.436 75.668H22.384L20.41 70.418ZM26.7224 79H25.7984V68.78H26.7224V79ZM29.6071 79H28.6831V68.78H29.6071V79ZM38.8199 71.832C39.8186 71.832 40.6679 72.1867 41.3679 72.896C42.0772 73.6053 42.4319 74.4733 42.4319 75.5C42.4319 76.5267 42.0772 77.3947 41.3679 78.104C40.6679 78.8133 39.8186 79.168 38.8199 79.168C37.5786 79.168 36.6359 78.6547 35.9919 77.628V81.8H35.0679V72H35.9919V73.372C36.6359 72.3453 37.5786 71.832 38.8199 71.832ZM36.7899 77.474C37.3219 78.006 37.9752 78.272 38.7499 78.272C39.5246 78.272 40.1779 78.006 40.7099 77.474C41.2419 76.9233 41.5079 76.2653 41.5079 75.5C41.5079 74.7253 41.2419 74.072 40.7099 73.54C40.1779 72.9987 39.5246 72.728 38.7499 72.728C37.9752 72.728 37.3219 72.9987 36.7899 73.54C36.2579 74.072 35.9919 74.7253 35.9919 75.5C35.9919 76.2653 36.2579 76.9233 36.7899 77.474ZM48.8963 75.668V72H49.8203V79H48.8963V77.908C48.3736 78.748 47.5896 79.168 46.5443 79.168C45.7043 79.168 45.0369 78.9113 44.5423 78.398C44.0476 77.8753 43.8003 77.1753 43.8003 76.298V72H44.7243V76.298C44.7243 76.9233 44.8876 77.4087 45.2143 77.754C45.5503 78.0993 46.0216 78.272 46.6283 78.272C47.3283 78.272 47.8789 78.0527 48.2803 77.614C48.6909 77.1753 48.8963 76.5267 48.8963 75.668ZM52.6989 72V73.162C53.1283 72.3127 53.8656 71.888 54.9109 71.888V72.784C54.2389 72.784 53.7023 72.98 53.3009 73.372C52.8996 73.7547 52.6989 74.3333 52.6989 75.108V79H51.7749V72H52.6989ZM59.0154 79.168C57.9608 79.168 57.0834 78.818 56.3834 78.118C55.6834 77.3993 55.3334 76.5267 55.3334 75.5C55.3334 74.464 55.6834 73.596 56.3834 72.896C57.0834 72.1867 57.9608 71.832 59.0154 71.832C59.7061 71.832 60.3268 72 60.8774 72.336C61.4281 72.6627 61.8294 73.106 62.0814 73.666L61.3254 74.1C61.1388 73.68 60.8354 73.3487 60.4154 73.106C60.0048 72.854 59.5381 72.728 59.0154 72.728C58.2408 72.728 57.5874 72.9987 57.0554 73.54C56.5234 74.072 56.2574 74.7253 56.2574 75.5C56.2574 76.2653 56.5234 76.9233 57.0554 77.474C57.5874 78.006 58.2408 78.272 59.0154 78.272C59.5288 78.272 59.9908 78.1507 60.4014 77.908C60.8214 77.6653 61.1481 77.3293 61.3814 76.9L62.1514 77.348C61.8621 77.908 61.4374 78.3513 60.8774 78.678C60.3174 79.0047 59.6968 79.168 59.0154 79.168ZM66.754 71.832C67.594 71.832 68.2614 72.0933 68.756 72.616C69.2507 73.1293 69.498 73.8247 69.498 74.702V79H68.574V74.702C68.574 74.0767 68.406 73.5913 68.07 73.246C67.7434 72.9007 67.2767 72.728 66.67 72.728C65.97 72.728 65.4147 72.9473 65.004 73.386C64.6027 73.8247 64.402 74.4733 64.402 75.332V79H63.478V69.2H64.402V73.092C64.9247 72.252 65.7087 71.832 66.754 71.832ZM77.3047 73.372V72H78.2287V79H77.3047V77.628C76.6607 78.6547 75.718 79.168 74.4767 79.168C73.478 79.168 72.624 78.8133 71.9147 78.104C71.2147 77.3947 70.8647 76.5267 70.8647 75.5C70.8647 74.4733 71.2147 73.6053 71.9147 72.896C72.624 72.1867 73.478 71.832 74.4767 71.832C75.718 71.832 76.6607 72.3453 77.3047 73.372ZM72.5867 77.474C73.1187 78.006 73.772 78.272 74.5467 78.272C75.3214 78.272 75.9747 78.006 76.5067 77.474C77.0387 76.9233 77.3047 76.2653 77.3047 75.5C77.3047 74.7253 77.0387 74.072 76.5067 73.54C75.9747 72.9987 75.3214 72.728 74.5467 72.728C73.772 72.728 73.1187 72.9987 72.5867 73.54C72.0547 74.072 71.7887 74.7253 71.7887 75.5C71.7887 76.2653 72.0547 76.9233 72.5867 77.474ZM80.9131 73.834C80.9131 74.3753 81.3937 74.772 82.3551 75.024C82.6257 75.0893 82.8031 75.136 82.8871 75.164C82.9711 75.1827 83.1344 75.234 83.3771 75.318C83.6291 75.3927 83.8017 75.458 83.8951 75.514C83.9977 75.57 84.1377 75.6587 84.3151 75.78C84.4924 75.892 84.6184 76.0087 84.6931 76.13C84.7677 76.242 84.8377 76.3913 84.9031 76.578C84.9684 76.7553 85.0011 76.9467 85.0011 77.152C85.0011 77.7493 84.7631 78.2347 84.2871 78.608C83.8297 78.9813 83.2231 79.168 82.4671 79.168C81.8137 79.168 81.2491 79.0233 80.7731 78.734C80.2971 78.4353 79.9611 78.0433 79.7651 77.558L80.5491 77.096C80.6797 77.46 80.9131 77.7493 81.2491 77.964C81.5944 78.1693 82.0004 78.272 82.4671 78.272C82.9431 78.272 83.3304 78.1787 83.6291 77.992C83.9277 77.8053 84.0771 77.5253 84.0771 77.152C84.0771 76.6107 83.5964 76.214 82.6351 75.962C82.3644 75.8967 82.1871 75.8547 82.1031 75.836C82.0191 75.808 81.8511 75.7567 81.5991 75.682C81.3564 75.598 81.1837 75.528 81.0811 75.472C80.9877 75.416 80.8524 75.332 80.6751 75.22C80.4977 75.0987 80.3717 74.982 80.2971 74.87C80.2224 74.7487 80.1524 74.5993 80.0871 74.422C80.0217 74.2353 79.9891 74.0393 79.9891 73.834C79.9891 73.2647 80.2131 72.7887 80.6611 72.406C81.1277 72.0233 81.7017 71.832 82.3831 71.832C82.9431 71.832 83.4377 71.958 83.8671 72.21C84.3057 72.462 84.6277 72.812 84.8331 73.26L84.0631 73.708C83.8017 73.0547 83.2417 72.728 82.3831 72.728C81.9631 72.728 81.6131 72.826 81.3331 73.022C81.0531 73.218 80.9131 73.4887 80.9131 73.834ZM89.5714 71.832C90.6168 71.832 91.4521 72.2007 92.0774 72.938C92.7214 73.666 93.0434 74.5293 93.0434 75.528C93.0434 75.5747 93.0341 75.7193 93.0154 75.962H86.8694C86.9628 76.662 87.2614 77.222 87.7654 77.642C88.2694 78.062 88.8994 78.272 89.6554 78.272C90.7194 78.272 91.4708 77.8753 91.9094 77.082L92.7214 77.558C92.4134 78.062 91.9888 78.4587 91.4474 78.748C90.9154 79.028 90.3134 79.168 89.6414 79.168C88.5401 79.168 87.6441 78.8227 86.9534 78.132C86.2628 77.4413 85.9174 76.564 85.9174 75.5C85.9174 74.4453 86.2581 73.5727 86.9394 72.882C87.6208 72.182 88.4981 71.832 89.5714 71.832ZM89.5714 72.728C88.8434 72.728 88.2321 72.9427 87.7374 73.372C87.2521 73.8013 86.9628 74.366 86.8694 75.066H92.0914C91.9888 74.3193 91.7041 73.7453 91.2374 73.344C90.7521 72.9333 90.1968 72.728 89.5714 72.728ZM94.9678 73.834C94.9678 74.3753 95.4484 74.772 96.4098 75.024C96.6804 75.0893 96.8578 75.136 96.9418 75.164C97.0258 75.1827 97.1891 75.234 97.4318 75.318C97.6838 75.3927 97.8564 75.458 97.9498 75.514C98.0524 75.57 98.1924 75.6587 98.3698 75.78C98.5471 75.892 98.6731 76.0087 98.7478 76.13C98.8224 76.242 98.8924 76.3913 98.9578 76.578C99.0231 76.7553 99.0558 76.9467 99.0558 77.152C99.0558 77.7493 98.8178 78.2347 98.3418 78.608C97.8844 78.9813 97.2778 79.168 96.5218 79.168C95.8684 79.168 95.3038 79.0233 94.8278 78.734C94.3518 78.4353 94.0158 78.0433 93.8198 77.558L94.6038 77.096C94.7344 77.46 94.9678 77.7493 95.3038 77.964C95.6491 78.1693 96.0551 78.272 96.5218 78.272C96.9978 78.272 97.3851 78.1787 97.6838 77.992C97.9824 77.8053 98.1318 77.5253 98.1318 77.152C98.1318 76.6107 97.6511 76.214 96.6898 75.962C96.4191 75.8967 96.2418 75.8547 96.1578 75.836C96.0738 75.808 95.9058 75.7567 95.6538 75.682C95.4111 75.598 95.2384 75.528 95.1358 75.472C95.0424 75.416 94.9071 75.332 94.7298 75.22C94.5524 75.0987 94.4264 74.982 94.3518 74.87C94.2771 74.7487 94.2071 74.5993 94.1418 74.422C94.0764 74.2353 94.0438 74.0393 94.0438 73.834C94.0438 73.2647 94.2678 72.7887 94.7158 72.406C95.1824 72.0233 95.7564 71.832 96.4378 71.832C96.9978 71.832 97.4924 71.958 97.9218 72.21C98.3604 72.462 98.6824 72.812 98.8878 73.26L98.1178 73.708C97.8564 73.0547 97.2964 72.728 96.4378 72.728C96.0178 72.728 95.6678 72.826 95.3878 73.022C95.1078 73.218 94.9678 73.4887 94.9678 73.834ZM110.117 73.372V72H111.041V79H110.117V77.628C109.473 78.6547 108.531 79.168 107.289 79.168C106.291 79.168 105.437 78.8133 104.727 78.104C104.027 77.3947 103.677 76.5267 103.677 75.5C103.677 74.4733 104.027 73.6053 104.727 72.896C105.437 72.1867 106.291 71.832 107.289 71.832C108.531 71.832 109.473 72.3453 110.117 73.372ZM105.399 77.474C105.931 78.006 106.585 78.272 107.359 78.272C108.134 78.272 108.787 78.006 109.319 77.474C109.851 76.9233 110.117 76.2653 110.117 75.5C110.117 74.7253 109.851 74.072 109.319 73.54C108.787 72.9987 108.134 72.728 107.359 72.728C106.585 72.728 105.931 72.9987 105.399 73.54C104.867 74.072 104.601 74.7253 104.601 75.5C104.601 76.2653 104.867 76.9233 105.399 77.474ZM113.922 72V73.162C114.351 72.3127 115.088 71.888 116.134 71.888V72.784C115.462 72.784 114.925 72.98 114.524 73.372C114.122 73.7547 113.922 74.3333 113.922 75.108V79H112.998V72H113.922ZM120.21 71.832C121.255 71.832 122.091 72.2007 122.716 72.938C123.36 73.666 123.682 74.5293 123.682 75.528C123.682 75.5747 123.673 75.7193 123.654 75.962H117.508C117.601 76.662 117.9 77.222 118.404 77.642C118.908 78.062 119.538 78.272 120.294 78.272C121.358 78.272 122.109 77.8753 122.548 77.082L123.36 77.558C123.052 78.062 122.627 78.4587 122.086 78.748C121.554 79.028 120.952 79.168 120.28 79.168C119.179 79.168 118.283 78.8227 117.592 78.132C116.901 77.4413 116.556 76.564 116.556 75.5C116.556 74.4453 116.897 73.5727 117.578 72.882C118.259 72.182 119.137 71.832 120.21 71.832ZM120.21 72.728C119.482 72.728 118.871 72.9427 118.376 73.372C117.891 73.8013 117.601 74.366 117.508 75.066H122.73C122.627 74.3193 122.343 73.7453 121.876 73.344C121.391 72.9333 120.835 72.728 120.21 72.728ZM129.38 73.834C129.38 74.3753 129.861 74.772 130.822 75.024C131.093 75.0893 131.27 75.136 131.354 75.164C131.438 75.1827 131.601 75.234 131.844 75.318C132.096 75.3927 132.269 75.458 132.362 75.514C132.465 75.57 132.605 75.6587 132.782 75.78C132.959 75.892 133.085 76.0087 133.16 76.13C133.235 76.242 133.305 76.3913 133.37 76.578C133.435 76.7553 133.468 76.9467 133.468 77.152C133.468 77.7493 133.23 78.2347 132.754 78.608C132.297 78.9813 131.69 79.168 130.934 79.168C130.281 79.168 129.716 79.0233 129.24 78.734C128.764 78.4353 128.428 78.0433 128.232 77.558L129.016 77.096C129.147 77.46 129.38 77.7493 129.716 77.964C130.061 78.1693 130.467 78.272 130.934 78.272C131.41 78.272 131.797 78.1787 132.096 77.992C132.395 77.8053 132.544 77.5253 132.544 77.152C132.544 76.6107 132.063 76.214 131.102 75.962C130.831 75.8967 130.654 75.8547 130.57 75.836C130.486 75.808 130.318 75.7567 130.066 75.682C129.823 75.598 129.651 75.528 129.548 75.472C129.455 75.416 129.319 75.332 129.142 75.22C128.965 75.0987 128.839 74.982 128.764 74.87C128.689 74.7487 128.619 74.5993 128.554 74.422C128.489 74.2353 128.456 74.0393 128.456 73.834C128.456 73.2647 128.68 72.7887 129.128 72.406C129.595 72.0233 130.169 71.832 130.85 71.832C131.41 71.832 131.905 71.958 132.334 72.21C132.773 72.462 133.095 72.812 133.3 73.26L132.53 73.708C132.269 73.0547 131.709 72.728 130.85 72.728C130.43 72.728 130.08 72.826 129.8 73.022C129.52 73.218 129.38 73.4887 129.38 73.834ZM138.217 71.832C139.057 71.832 139.724 72.0933 140.219 72.616C140.714 73.1293 140.961 73.8247 140.961 74.702V79H140.037V74.702C140.037 74.0767 139.869 73.5913 139.533 73.246C139.206 72.9007 138.74 72.728 138.133 72.728C137.433 72.728 136.878 72.9473 136.467 73.386C136.066 73.8247 135.865 74.4733 135.865 75.332V79H134.941V69.2H135.865V73.092C136.388 72.252 137.172 71.832 138.217 71.832ZM143.882 69.844C143.882 70.0307 143.816 70.1893 143.686 70.32C143.555 70.4507 143.396 70.516 143.21 70.516C143.023 70.516 142.864 70.4507 142.734 70.32C142.603 70.1893 142.538 70.0307 142.538 69.844C142.538 69.6573 142.603 69.4987 142.734 69.368C142.864 69.2373 143.023 69.172 143.21 69.172C143.396 69.172 143.555 69.2373 143.686 69.368C143.816 69.4987 143.882 69.6573 143.882 69.844ZM143.672 79H142.748V72H143.672V79ZM149.384 71.832C150.383 71.832 151.232 72.1867 151.932 72.896C152.642 73.6053 152.996 74.4733 152.996 75.5C152.996 76.5267 152.642 77.3947 151.932 78.104C151.232 78.8133 150.383 79.168 149.384 79.168C148.143 79.168 147.2 78.6547 146.556 77.628V81.8H145.632V72H146.556V73.372C147.2 72.3453 148.143 71.832 149.384 71.832ZM147.354 77.474C147.886 78.006 148.54 78.272 149.314 78.272C150.089 78.272 150.742 78.006 151.274 77.474C151.806 76.9233 152.072 76.2653 152.072 75.5C152.072 74.7253 151.806 74.072 151.274 73.54C150.742 72.9987 150.089 72.728 149.314 72.728C148.54 72.728 147.886 72.9987 147.354 73.54C146.822 74.072 146.556 74.7253 146.556 75.5C146.556 76.2653 146.822 76.9233 147.354 77.474ZM158.285 71.832C159.283 71.832 160.133 72.1867 160.833 72.896C161.542 73.6053 161.897 74.4733 161.897 75.5C161.897 76.5267 161.542 77.3947 160.833 78.104C160.133 78.8133 159.283 79.168 158.285 79.168C157.043 79.168 156.101 78.6547 155.457 77.628V81.8H154.533V72H155.457V73.372C156.101 72.3453 157.043 71.832 158.285 71.832ZM156.255 77.474C156.787 78.006 157.44 78.272 158.215 78.272C158.989 78.272 159.643 78.006 160.175 77.474C160.707 76.9233 160.973 76.2653 160.973 75.5C160.973 74.7253 160.707 74.072 160.175 73.54C159.643 72.9987 158.989 72.728 158.215 72.728C157.44 72.728 156.787 72.9987 156.255 73.54C155.723 74.072 155.457 74.7253 155.457 75.5C155.457 76.2653 155.723 76.9233 156.255 77.474ZM166.667 71.832C167.712 71.832 168.548 72.2007 169.173 72.938C169.817 73.666 170.139 74.5293 170.139 75.528C170.139 75.5747 170.13 75.7193 170.111 75.962H163.965C164.058 76.662 164.357 77.222 164.861 77.642C165.365 78.062 165.995 78.272 166.751 78.272C167.815 78.272 168.566 77.8753 169.005 77.082L169.817 77.558C169.509 78.062 169.084 78.4587 168.543 78.748C168.011 79.028 167.409 79.168 166.737 79.168C165.636 79.168 164.74 78.8227 164.049 78.132C163.358 77.4413 163.013 76.564 163.013 75.5C163.013 74.4453 163.354 73.5727 164.035 72.882C164.716 72.182 165.594 71.832 166.667 71.832ZM166.667 72.728C165.939 72.728 165.328 72.9427 164.833 73.372C164.348 73.8013 164.058 74.366 163.965 75.066H169.187C169.084 74.3193 168.8 73.7453 168.333 73.344C167.848 72.9333 167.292 72.728 166.667 72.728ZM177.629 73.372V69.2H178.553V79H177.629V77.628C176.985 78.6547 176.042 79.168 174.801 79.168C173.802 79.168 172.948 78.8133 172.239 78.104C171.539 77.3947 171.189 76.5267 171.189 75.5C171.189 74.4733 171.539 73.6053 172.239 72.896C172.948 72.1867 173.802 71.832 174.801 71.832C176.042 71.832 176.985 72.3453 177.629 73.372ZM172.911 77.474C173.443 78.006 174.096 78.272 174.871 78.272C175.646 78.272 176.299 78.006 176.831 77.474C177.363 76.9233 177.629 76.2653 177.629 75.5C177.629 74.7253 177.363 74.072 176.831 73.54C176.299 72.9987 175.646 72.728 174.871 72.728C174.096 72.728 173.443 72.9987 172.911 73.54C172.379 74.072 172.113 74.7253 172.113 75.5C172.113 76.2653 172.379 76.9233 172.911 77.474ZM187.509 69.032V69.928C186.828 69.872 186.319 69.9887 185.983 70.278C185.657 70.5673 185.493 71.048 185.493 71.72V72H187.509V72.896H185.493V79H184.569V72.896H183.379V72H184.569V71.72C184.569 70.796 184.821 70.1007 185.325 69.634C185.839 69.1673 186.567 68.9667 187.509 69.032ZM189.418 72V73.162C189.847 72.3127 190.584 71.888 191.63 71.888V72.784C190.958 72.784 190.421 72.98 190.02 73.372C189.618 73.7547 189.418 74.3333 189.418 75.108V79H188.494V72H189.418ZM198.338 78.118C197.62 78.818 196.752 79.168 195.734 79.168C194.698 79.168 193.826 78.818 193.116 78.118C192.407 77.4087 192.052 76.536 192.052 75.5C192.052 74.464 192.407 73.596 193.116 72.896C193.826 72.1867 194.698 71.832 195.734 71.832C196.761 71.832 197.629 72.1867 198.338 72.896C199.057 73.596 199.416 74.464 199.416 75.5C199.416 76.5267 199.057 77.3993 198.338 78.118ZM193.774 77.474C194.306 78.006 194.96 78.272 195.734 78.272C196.509 78.272 197.162 78.006 197.694 77.474C198.226 76.9233 198.492 76.2653 198.492 75.5C198.492 74.7253 198.226 74.072 197.694 73.54C197.162 72.9987 196.509 72.728 195.734 72.728C194.96 72.728 194.306 72.9987 193.774 73.54C193.242 74.072 192.976 74.7253 192.976 75.5C192.976 76.2653 193.242 76.9233 193.774 77.474ZM208.424 71.832C209.218 71.832 209.852 72.084 210.328 72.588C210.804 73.092 211.042 73.7733 211.042 74.632V79H210.118V74.632C210.118 74.0347 209.964 73.568 209.656 73.232C209.348 72.896 208.933 72.728 208.41 72.728C207.804 72.728 207.328 72.9287 206.982 73.33C206.637 73.7313 206.464 74.3287 206.464 75.122V79H205.54V74.632C205.54 74.0253 205.396 73.5587 205.106 73.232C204.817 72.896 204.416 72.728 203.902 72.728C203.314 72.728 202.829 72.9333 202.446 73.344C202.073 73.7547 201.886 74.3473 201.886 75.122V79H200.962V72H201.886V73.022C202.39 72.2287 203.104 71.832 204.028 71.832C205.046 71.832 205.755 72.2567 206.156 73.106C206.66 72.2567 207.416 71.832 208.424 71.832ZM222.196 78.118C221.477 78.818 220.609 79.168 219.592 79.168C218.556 79.168 217.683 78.818 216.974 78.118C216.264 77.4087 215.91 76.536 215.91 75.5C215.91 74.464 216.264 73.596 216.974 72.896C217.683 72.1867 218.556 71.832 219.592 71.832C220.618 71.832 221.486 72.1867 222.196 72.896C222.914 73.596 223.274 74.464 223.274 75.5C223.274 76.5267 222.914 77.3993 222.196 78.118ZM217.632 77.474C218.164 78.006 218.817 78.272 219.592 78.272C220.366 78.272 221.02 78.006 221.552 77.474C222.084 76.9233 222.35 76.2653 222.35 75.5C222.35 74.7253 222.084 74.072 221.552 73.54C221.02 72.9987 220.366 72.728 219.592 72.728C218.817 72.728 218.164 72.9987 217.632 73.54C217.1 74.072 216.834 74.7253 216.834 75.5C216.834 76.2653 217.1 76.9233 217.632 77.474ZM229.748 75.668V72H230.672V79H229.748V77.908C229.225 78.748 228.441 79.168 227.396 79.168C226.556 79.168 225.889 78.9113 225.394 78.398C224.899 77.8753 224.652 77.1753 224.652 76.298V72H225.576V76.298C225.576 76.9233 225.739 77.4087 226.066 77.754C226.402 78.0993 226.873 78.272 227.48 78.272C228.18 78.272 228.731 78.0527 229.132 77.614C229.543 77.1753 229.748 76.5267 229.748 75.668ZM233.55 72V73.162C233.98 72.3127 234.717 71.888 235.762 71.888V72.784C235.09 72.784 234.554 72.98 234.152 73.372C233.751 73.7547 233.55 74.3333 233.55 75.108V79H232.626V72H233.55ZM247.235 77.81L248.957 72H249.909L247.753 79H246.745L244.939 73.358L243.133 79H242.125L239.969 72H240.921L242.643 77.81L244.477 72H245.401L247.235 77.81ZM257.049 73.372V72H257.973V79H257.049V77.628C256.405 78.6547 255.462 79.168 254.221 79.168C253.222 79.168 252.368 78.8133 251.659 78.104C250.959 77.3947 250.609 76.5267 250.609 75.5C250.609 74.4733 250.959 73.6053 251.659 72.896C252.368 72.1867 253.222 71.832 254.221 71.832C255.462 71.832 256.405 72.3453 257.049 73.372ZM252.331 77.474C252.863 78.006 253.516 78.272 254.291 78.272C255.065 78.272 255.719 78.006 256.251 77.474C256.783 76.9233 257.049 76.2653 257.049 75.5C257.049 74.7253 256.783 74.072 256.251 73.54C255.719 72.9987 255.065 72.728 254.291 72.728C253.516 72.728 252.863 72.9987 252.331 73.54C251.799 74.072 251.533 74.7253 251.533 75.5C251.533 76.2653 251.799 76.9233 252.331 77.474ZM260.853 72V73.162C261.283 72.3127 262.02 71.888 263.065 71.888V72.784C262.393 72.784 261.857 72.98 261.455 73.372C261.054 73.7547 260.853 74.3333 260.853 75.108V79H259.929V72H260.853ZM267.142 71.832C268.187 71.832 269.022 72.2007 269.648 72.938C270.292 73.666 270.614 74.5293 270.614 75.528C270.614 75.5747 270.604 75.7193 270.586 75.962H264.44C264.533 76.662 264.832 77.222 265.336 77.642C265.84 78.062 266.47 78.272 267.226 78.272C268.29 78.272 269.041 77.8753 269.48 77.082L270.292 77.558C269.984 78.062 269.559 78.4587 269.018 78.748C268.486 79.028 267.884 79.168 267.212 79.168C266.11 79.168 265.214 78.8227 264.524 78.132C263.833 77.4413 263.488 76.564 263.488 75.5C263.488 74.4453 263.828 73.5727 264.51 72.882C265.191 72.182 266.068 71.832 267.142 71.832ZM267.142 72.728C266.414 72.728 265.802 72.9427 265.308 73.372C264.822 73.8013 264.533 74.366 264.44 75.066H269.662C269.559 74.3193 269.274 73.7453 268.808 73.344C268.322 72.9333 267.767 72.728 267.142 72.728ZM275.36 71.832C276.2 71.832 276.867 72.0933 277.362 72.616C277.856 73.1293 278.104 73.8247 278.104 74.702V79H277.18V74.702C277.18 74.0767 277.012 73.5913 276.676 73.246C276.349 72.9007 275.882 72.728 275.276 72.728C274.576 72.728 274.02 72.9473 273.61 73.386C273.208 73.8247 273.008 74.4733 273.008 75.332V79H272.084V69.2H273.008V73.092C273.53 72.252 274.314 71.832 275.36 71.832ZM285.756 78.118C285.037 78.818 284.169 79.168 283.152 79.168C282.116 79.168 281.243 78.818 280.534 78.118C279.825 77.4087 279.47 76.536 279.47 75.5C279.47 74.464 279.825 73.596 280.534 72.896C281.243 72.1867 282.116 71.832 283.152 71.832C284.179 71.832 285.047 72.1867 285.756 72.896C286.475 73.596 286.834 74.464 286.834 75.5C286.834 76.5267 286.475 77.3993 285.756 78.118ZM281.192 77.474C281.724 78.006 282.377 78.272 283.152 78.272C283.927 78.272 284.58 78.006 285.112 77.474C285.644 76.9233 285.91 76.2653 285.91 75.5C285.91 74.7253 285.644 74.072 285.112 73.54C284.58 72.9987 283.927 72.728 283.152 72.728C282.377 72.728 281.724 72.9987 281.192 73.54C280.66 74.072 280.394 74.7253 280.394 75.5C280.394 76.2653 280.66 76.9233 281.192 77.474ZM293.308 75.668V72H294.232V79H293.308V77.908C292.786 78.748 292.002 79.168 290.956 79.168C290.116 79.168 289.449 78.9113 288.954 78.398C288.46 77.8753 288.212 77.1753 288.212 76.298V72H289.136V76.298C289.136 76.9233 289.3 77.4087 289.626 77.754C289.962 78.0993 290.434 78.272 291.04 78.272C291.74 78.272 292.291 78.0527 292.692 77.614C293.103 77.1753 293.308 76.5267 293.308 75.668ZM296.915 73.834C296.915 74.3753 297.396 74.772 298.357 75.024C298.628 75.0893 298.805 75.136 298.889 75.164C298.973 75.1827 299.136 75.234 299.379 75.318C299.631 75.3927 299.804 75.458 299.897 75.514C300 75.57 300.14 75.6587 300.317 75.78C300.494 75.892 300.62 76.0087 300.695 76.13C300.77 76.242 300.84 76.3913 300.905 76.578C300.97 76.7553 301.003 76.9467 301.003 77.152C301.003 77.7493 300.765 78.2347 300.289 78.608C299.832 78.9813 299.225 79.168 298.469 79.168C297.816 79.168 297.251 79.0233 296.775 78.734C296.299 78.4353 295.963 78.0433 295.767 77.558L296.551 77.096C296.682 77.46 296.915 77.7493 297.251 77.964C297.596 78.1693 298.002 78.272 298.469 78.272C298.945 78.272 299.332 78.1787 299.631 77.992C299.93 77.8053 300.079 77.5253 300.079 77.152C300.079 76.6107 299.598 76.214 298.637 75.962C298.366 75.8967 298.189 75.8547 298.105 75.836C298.021 75.808 297.853 75.7567 297.601 75.682C297.358 75.598 297.186 75.528 297.083 75.472C296.99 75.416 296.854 75.332 296.677 75.22C296.5 75.0987 296.374 74.982 296.299 74.87C296.224 74.7487 296.154 74.5993 296.089 74.422C296.024 74.2353 295.991 74.0393 295.991 73.834C295.991 73.2647 296.215 72.7887 296.663 72.406C297.13 72.0233 297.704 71.832 298.385 71.832C298.945 71.832 299.44 71.958 299.869 72.21C300.308 72.462 300.63 72.812 300.835 73.26L300.065 73.708C299.804 73.0547 299.244 72.728 298.385 72.728C297.965 72.728 297.615 72.826 297.335 73.022C297.055 73.218 296.915 73.4887 296.915 73.834ZM305.573 71.832C306.619 71.832 307.454 72.2007 308.079 72.938C308.723 73.666 309.045 74.5293 309.045 75.528C309.045 75.5747 309.036 75.7193 309.017 75.962H302.871C302.965 76.662 303.263 77.222 303.767 77.642C304.271 78.062 304.901 78.272 305.657 78.272C306.721 78.272 307.473 77.8753 307.911 77.082L308.723 77.558C308.415 78.062 307.991 78.4587 307.449 78.748C306.917 79.028 306.315 79.168 305.643 79.168C304.542 79.168 303.646 78.8227 302.955 78.132C302.265 77.4413 301.919 76.564 301.919 75.5C301.919 74.4453 302.26 73.5727 302.941 72.882C303.623 72.182 304.5 71.832 305.573 71.832ZM305.573 72.728C304.845 72.728 304.234 72.9427 303.739 73.372C303.254 73.8013 302.965 74.366 302.871 75.066H308.093C307.991 74.3193 307.706 73.7453 307.239 73.344C306.754 72.9333 306.199 72.728 305.573 72.728ZM315.149 69.844C315.149 70.0307 315.084 70.1893 314.953 70.32C314.822 70.4507 314.664 70.516 314.477 70.516C314.29 70.516 314.132 70.4507 314.001 70.32C313.87 70.1893 313.805 70.0307 313.805 69.844C313.805 69.6573 313.87 69.4987 314.001 69.368C314.132 69.2373 314.29 69.172 314.477 69.172C314.664 69.172 314.822 69.2373 314.953 69.368C315.084 69.4987 315.149 69.6573 315.149 69.844ZM314.939 79H314.015V72H314.939V79ZM320.176 71.832C321.016 71.832 321.683 72.0933 322.178 72.616C322.673 73.1293 322.92 73.8247 322.92 74.702V79H321.996V74.702C321.996 74.0767 321.828 73.5913 321.492 73.246C321.165 72.9007 320.699 72.728 320.092 72.728C319.392 72.728 318.837 72.9473 318.426 73.386C318.025 73.8247 317.824 74.4733 317.824 75.332V79H316.9V72H317.824V73.092C318.347 72.252 319.131 71.832 320.176 71.832ZM17.96 90.35H16.84L17.68 87.2H18.52L17.96 90.35ZM19.92 90.35H18.8L19.64 87.2H20.48L19.92 90.35ZM26.4558 97.168C24.9625 97.168 23.7351 96.678 22.7738 95.698C21.8031 94.7087 21.3178 93.5093 21.3178 92.1C21.3178 90.6907 21.8031 89.4913 22.7738 88.502C23.7351 87.522 24.9625 87.032 26.4558 87.032C27.3518 87.032 28.1778 87.2513 28.9338 87.69C29.6898 88.1193 30.2778 88.7027 30.6978 89.44L29.8298 89.944C29.5218 89.3467 29.0645 88.8707 28.4578 88.516C27.8511 88.1613 27.1838 87.984 26.4558 87.984C25.2238 87.984 24.2251 88.3807 23.4598 89.174C22.6851 89.9767 22.2978 90.952 22.2978 92.1C22.2978 93.248 22.6851 94.2233 23.4598 95.026C24.2251 95.8193 25.2238 96.216 26.4558 96.216C27.1838 96.216 27.8511 96.0387 28.4578 95.684C29.0645 95.3293 29.5218 94.8533 29.8298 94.256L30.6978 94.746C30.2965 95.4833 29.7131 96.0713 28.9478 96.51C28.1825 96.9487 27.3518 97.168 26.4558 97.168ZM37.9671 96.118C37.2484 96.818 36.3804 97.168 35.3631 97.168C34.3271 97.168 33.4544 96.818 32.7451 96.118C32.0358 95.4087 31.6811 94.536 31.6811 93.5C31.6811 92.464 32.0358 91.596 32.7451 90.896C33.4544 90.1867 34.3271 89.832 35.3631 89.832C36.3898 89.832 37.2578 90.1867 37.9671 90.896C38.6858 91.596 39.0451 92.464 39.0451 93.5C39.0451 94.5267 38.6858 95.3993 37.9671 96.118ZM33.4031 95.474C33.9351 96.006 34.5884 96.272 35.3631 96.272C36.1378 96.272 36.7911 96.006 37.3231 95.474C37.8551 94.9233 38.1211 94.2653 38.1211 93.5C38.1211 92.7253 37.8551 92.072 37.3231 91.54C36.7911 90.9987 36.1378 90.728 35.3631 90.728C34.5884 90.728 33.9351 90.9987 33.4031 91.54C32.8711 92.072 32.6051 92.7253 32.6051 93.5C32.6051 94.2653 32.8711 94.9233 33.4031 95.474ZM45.5193 93.668V90H46.4433V97H45.5193V95.908C44.9967 96.748 44.2127 97.168 43.1673 97.168C42.3273 97.168 41.66 96.9113 41.1653 96.398C40.6707 95.8753 40.4233 95.1753 40.4233 94.298V90H41.3473V94.298C41.3473 94.9233 41.5107 95.4087 41.8373 95.754C42.1733 96.0993 42.6447 96.272 43.2513 96.272C43.9513 96.272 44.502 96.0527 44.9033 95.614C45.314 95.1753 45.5193 94.5267 45.5193 93.668ZM51.674 89.832C52.514 89.832 53.1813 90.0933 53.676 90.616C54.1706 91.1293 54.418 91.8247 54.418 92.702V97H53.494V92.702C53.494 92.0767 53.326 91.5913 52.99 91.246C52.6633 90.9007 52.1966 90.728 51.59 90.728C50.89 90.728 50.3346 90.9473 49.924 91.386C49.5226 91.8247 49.322 92.4733 49.322 93.332V97H48.398V90H49.322V91.092C49.8446 90.252 50.6286 89.832 51.674 89.832ZM59.9146 90V90.896H57.8986V95.138C57.8986 95.5207 57.9733 95.796 58.1226 95.964C58.2719 96.1227 58.4959 96.2067 58.7946 96.216C59.0933 96.216 59.4666 96.2067 59.9146 96.188V97C58.9159 97.1493 58.1739 97.0793 57.6886 96.79C57.2126 96.4913 56.9746 95.9407 56.9746 95.138V90.896H55.5046V90H56.9746V88.32L57.8986 88.04V90H59.9146ZM62.3786 90V91.162C62.8079 90.3127 63.5453 89.888 64.5906 89.888V90.784C63.9186 90.784 63.3819 90.98 62.9806 91.372C62.5793 91.7547 62.3786 92.3333 62.3786 93.108V97H61.4546V90H62.3786ZM68.7657 95.866L71.0337 90H72.0137L69.0177 97.644C68.7377 98.3533 68.3457 98.8993 67.8417 99.282C67.347 99.674 66.7963 99.8467 66.1897 99.8V98.932C67.0297 99.0347 67.669 98.5493 68.1077 97.476L68.2897 97.042L65.1537 90H66.1337L68.7657 95.866ZM73.5504 87.2H74.6704L73.8304 90.35H72.9904L73.5504 87.2ZM75.5104 87.2H76.6304L75.7904 90.35H74.9504L75.5104 87.2ZM87.9688 91.372V90H88.8928V97H87.9688V95.628C87.3248 96.6547 86.3821 97.168 85.1408 97.168C84.1421 97.168 83.2881 96.8133 82.5788 96.104C81.8788 95.3947 81.5288 94.5267 81.5288 93.5C81.5288 92.4733 81.8788 91.6053 82.5788 90.896C83.2881 90.1867 84.1421 89.832 85.1408 89.832C86.3821 89.832 87.3248 90.3453 87.9688 91.372ZM83.2508 95.474C83.7828 96.006 84.4361 96.272 85.2108 96.272C85.9854 96.272 86.6388 96.006 87.1708 95.474C87.7028 94.9233 87.9688 94.2653 87.9688 93.5C87.9688 92.7253 87.7028 92.072 87.1708 91.54C86.6388 90.9987 85.9854 90.728 85.2108 90.728C84.4361 90.728 83.7828 90.9987 83.2508 91.54C82.7188 92.072 82.4528 92.7253 82.4528 93.5C82.4528 94.2653 82.7188 94.9233 83.2508 95.474ZM94.1251 89.832C94.9651 89.832 95.6325 90.0933 96.1271 90.616C96.6218 91.1293 96.8691 91.8247 96.8691 92.702V97H95.9451V92.702C95.9451 92.0767 95.7771 91.5913 95.4411 91.246C95.1145 90.9007 94.6478 90.728 94.0411 90.728C93.3411 90.728 92.7858 90.9473 92.3751 91.386C91.9738 91.8247 91.7731 92.4733 91.7731 93.332V97H90.8491V90H91.7731V91.092C92.2958 90.252 93.0798 89.832 94.1251 89.832ZM104.676 91.372V87.2H105.6V97H104.676V95.628C104.032 96.6547 103.089 97.168 101.848 97.168C100.849 97.168 99.9951 96.8133 99.2858 96.104C98.5858 95.3947 98.2358 94.5267 98.2358 93.5C98.2358 92.4733 98.5858 91.6053 99.2858 90.896C99.9951 90.1867 100.849 89.832 101.848 89.832C103.089 89.832 104.032 90.3453 104.676 91.372ZM99.9578 95.474C100.49 96.006 101.143 96.272 101.918 96.272C102.692 96.272 103.346 96.006 103.878 95.474C104.41 94.9233 104.676 94.2653 104.676 93.5C104.676 92.7253 104.41 92.072 103.878 91.54C103.346 90.9987 102.692 90.728 101.918 90.728C101.143 90.728 100.49 90.9987 99.9578 91.54C99.4258 92.072 99.1598 92.7253 99.1598 93.5C99.1598 94.2653 99.4258 94.9233 99.9578 95.474ZM117.076 91.372V90H118V97H117.076V95.628C116.432 96.6547 115.49 97.168 114.248 97.168C113.25 97.168 112.396 96.8133 111.686 96.104C110.986 95.3947 110.636 94.5267 110.636 93.5C110.636 92.4733 110.986 91.6053 111.686 90.896C112.396 90.1867 113.25 89.832 114.248 89.832C115.49 89.832 116.432 90.3453 117.076 91.372ZM112.358 95.474C112.89 96.006 113.544 96.272 114.318 96.272C115.093 96.272 115.746 96.006 116.278 95.474C116.81 94.9233 117.076 94.2653 117.076 93.5C117.076 92.7253 116.81 92.072 116.278 91.54C115.746 90.9987 115.093 90.728 114.318 90.728C113.544 90.728 112.89 90.9987 112.358 91.54C111.826 92.072 111.56 92.7253 111.56 93.5C111.56 94.2653 111.826 94.9233 112.358 95.474ZM120.881 90V91.162C121.31 90.3127 122.047 89.888 123.093 89.888V90.784C122.421 90.784 121.884 90.98 121.483 91.372C121.081 91.7547 120.881 92.3333 120.881 93.108V97H119.957V90H120.881ZM127.169 89.832C128.214 89.832 129.05 90.2007 129.675 90.938C130.319 91.666 130.641 92.5293 130.641 93.528C130.641 93.5747 130.632 93.7193 130.613 93.962H124.467C124.56 94.662 124.859 95.222 125.363 95.642C125.867 96.062 126.497 96.272 127.253 96.272C128.317 96.272 129.068 95.8753 129.507 95.082L130.319 95.558C130.011 96.062 129.586 96.4587 129.045 96.748C128.513 97.028 127.911 97.168 127.239 97.168C126.138 97.168 125.242 96.8227 124.551 96.132C123.86 95.4413 123.515 94.564 123.515 93.5C123.515 92.4453 123.856 91.5727 124.537 90.882C125.218 90.182 126.096 89.832 127.169 89.832ZM127.169 90.728C126.441 90.728 125.83 90.9427 125.335 91.372C124.85 91.8013 124.56 92.366 124.467 93.066H129.689C129.586 92.3193 129.302 91.7453 128.835 91.344C128.35 90.9333 127.794 90.728 127.169 90.728ZM139.111 87.032V87.928C138.43 87.872 137.921 87.9887 137.585 88.278C137.258 88.5673 137.095 89.048 137.095 89.72V90H139.111V90.896H137.095V97H136.171V90.896H134.981V90H136.171V89.72C136.171 88.796 136.423 88.1007 136.927 87.634C137.44 87.1673 138.168 86.9667 139.111 87.032ZM145.023 93.668V90H145.947V97H145.023V95.908C144.501 96.748 143.717 97.168 142.671 97.168C141.831 97.168 141.164 96.9113 140.669 96.398C140.175 95.8753 139.927 95.1753 139.927 94.298V90H140.851V94.298C140.851 94.9233 141.015 95.4087 141.341 95.754C141.677 96.0993 142.149 96.272 142.755 96.272C143.455 96.272 144.006 96.0527 144.407 95.614C144.818 95.1753 145.023 94.5267 145.023 93.668ZM148.826 97H147.902V86.78H148.826V97ZM151.711 97H150.787V86.78H151.711V97ZM156.443 95.866L158.711 90H159.691L156.695 97.644C156.415 98.3533 156.023 98.8993 155.519 99.282C155.025 99.674 154.474 99.8467 153.867 99.8V98.932C154.707 99.0347 155.347 98.5493 155.785 97.476L155.967 97.042L152.831 90H153.811L156.443 95.866ZM165.442 87.844C165.442 88.0307 165.377 88.1893 165.246 88.32C165.115 88.4507 164.957 88.516 164.77 88.516C164.583 88.516 164.425 88.4507 164.294 88.32C164.163 88.1893 164.098 88.0307 164.098 87.844C164.098 87.6573 164.163 87.4987 164.294 87.368C164.425 87.2373 164.583 87.172 164.77 87.172C164.957 87.172 165.115 87.2373 165.246 87.368C165.377 87.4987 165.442 87.6573 165.442 87.844ZM165.232 97H164.308V90H165.232V97ZM170.469 89.832C171.309 89.832 171.976 90.0933 172.471 90.616C172.966 91.1293 173.213 91.8247 173.213 92.702V97H172.289V92.702C172.289 92.0767 172.121 91.5913 171.785 91.246C171.458 90.9007 170.992 90.728 170.385 90.728C169.685 90.728 169.13 90.9473 168.719 91.386C168.318 91.8247 168.117 92.4733 168.117 93.332V97H167.193V90H168.117V91.092C168.64 90.252 169.424 89.832 170.469 89.832ZM175.728 91.834C175.728 92.3753 176.208 92.772 177.17 93.024C177.44 93.0893 177.618 93.136 177.702 93.164C177.786 93.1827 177.949 93.234 178.192 93.318C178.444 93.3927 178.616 93.458 178.71 93.514C178.812 93.57 178.952 93.6587 179.13 93.78C179.307 93.892 179.433 94.0087 179.508 94.13C179.582 94.242 179.652 94.3913 179.718 94.578C179.783 94.7553 179.816 94.9467 179.816 95.152C179.816 95.7493 179.578 96.2347 179.102 96.608C178.644 96.9813 178.038 97.168 177.282 97.168C176.628 97.168 176.064 97.0233 175.588 96.734C175.112 96.4353 174.776 96.0433 174.58 95.558L175.364 95.096C175.494 95.46 175.728 95.7493 176.064 95.964C176.409 96.1693 176.815 96.272 177.282 96.272C177.758 96.272 178.145 96.1787 178.444 95.992C178.742 95.8053 178.892 95.5253 178.892 95.152C178.892 94.6107 178.411 94.214 177.45 93.962C177.179 93.8967 177.002 93.8547 176.918 93.836C176.834 93.808 176.666 93.7567 176.414 93.682C176.171 93.598 175.998 93.528 175.896 93.472C175.802 93.416 175.667 93.332 175.49 93.22C175.312 93.0987 175.186 92.982 175.112 92.87C175.037 92.7487 174.967 92.5993 174.902 92.422C174.836 92.2353 174.804 92.0393 174.804 91.834C174.804 91.2647 175.028 90.7887 175.476 90.406C175.942 90.0233 176.516 89.832 177.198 89.832C177.758 89.832 178.252 89.958 178.682 90.21C179.12 90.462 179.442 90.812 179.648 91.26L178.878 91.708C178.616 91.0547 178.056 90.728 177.198 90.728C176.778 90.728 176.428 90.826 176.148 91.022C175.868 91.218 175.728 91.4887 175.728 91.834ZM186.217 93.668V90H187.141V97H186.217V95.908C185.694 96.748 184.91 97.168 183.865 97.168C183.025 97.168 182.357 96.9113 181.863 96.398C181.368 95.8753 181.121 95.1753 181.121 94.298V90H182.045V94.298C182.045 94.9233 182.208 95.4087 182.535 95.754C182.871 96.0993 183.342 96.272 183.949 96.272C184.649 96.272 185.199 96.0527 185.601 95.614C186.011 95.1753 186.217 94.5267 186.217 93.668ZM190.019 90V91.162C190.449 90.3127 191.186 89.888 192.231 89.888V90.784C191.559 90.784 191.023 90.98 190.621 91.372C190.22 91.7547 190.019 92.3333 190.019 93.108V97H189.095V90H190.019ZM196.308 89.832C197.353 89.832 198.188 90.2007 198.814 90.938C199.458 91.666 199.78 92.5293 199.78 93.528C199.78 93.5747 199.77 93.7193 199.752 93.962H193.606C193.699 94.662 193.998 95.222 194.502 95.642C195.006 96.062 195.636 96.272 196.392 96.272C197.456 96.272 198.207 95.8753 198.646 95.082L199.458 95.558C199.15 96.062 198.725 96.4587 198.184 96.748C197.652 97.028 197.05 97.168 196.378 97.168C195.276 97.168 194.38 96.8227 193.69 96.132C192.999 95.4413 192.654 94.564 192.654 93.5C192.654 92.4453 192.994 91.5727 193.676 90.882C194.357 90.182 195.234 89.832 196.308 89.832ZM196.308 90.728C195.58 90.728 194.968 90.9427 194.474 91.372C193.988 91.8013 193.699 92.366 193.606 93.066H198.828C198.725 92.3193 198.44 91.7453 197.974 91.344C197.488 90.9333 196.933 90.728 196.308 90.728ZM207.27 91.372V87.2H208.194V97H207.27V95.628C206.626 96.6547 205.683 97.168 204.442 97.168C203.443 97.168 202.589 96.8133 201.88 96.104C201.18 95.3947 200.83 94.5267 200.83 93.5C200.83 92.4733 201.18 91.6053 201.88 90.896C202.589 90.1867 203.443 89.832 204.442 89.832C205.683 89.832 206.626 90.3453 207.27 91.372ZM202.552 95.474C203.084 96.006 203.737 96.272 204.512 96.272C205.286 96.272 205.94 96.006 206.472 95.474C207.004 94.9233 207.27 94.2653 207.27 93.5C207.27 92.7253 207.004 92.072 206.472 91.54C205.94 90.9987 205.286 90.728 204.512 90.728C203.737 90.728 203.084 90.9987 202.552 91.54C202.02 92.072 201.754 92.7253 201.754 93.5C201.754 94.2653 202.02 94.9233 202.552 95.474ZM220.356 95.81L222.078 90H223.03L220.874 97H219.866L218.06 91.358L216.254 97H215.246L213.09 90H214.042L215.764 95.81L217.598 90H218.522L220.356 95.81ZM225.557 87.844C225.557 88.0307 225.492 88.1893 225.361 88.32C225.231 88.4507 225.072 88.516 224.885 88.516C224.699 88.516 224.54 88.4507 224.409 88.32C224.279 88.1893 224.213 88.0307 224.213 87.844C224.213 87.6573 224.279 87.4987 224.409 87.368C224.54 87.2373 224.699 87.172 224.885 87.172C225.072 87.172 225.231 87.2373 225.361 87.368C225.492 87.4987 225.557 87.6573 225.557 87.844ZM225.347 97H224.423V90H225.347V97ZM231.018 90V90.896H229.002V95.138C229.002 95.5207 229.077 95.796 229.226 95.964C229.375 96.1227 229.599 96.2067 229.898 96.216C230.197 96.216 230.57 96.2067 231.018 96.188V97C230.019 97.1493 229.277 97.0793 228.792 96.79C228.316 96.4913 228.078 95.9407 228.078 95.138V90.896H226.608V90H228.078V88.32L229.002 88.04V90H231.018ZM235.834 89.832C236.674 89.832 237.341 90.0933 237.836 90.616C238.331 91.1293 238.578 91.8247 238.578 92.702V97H237.654V92.702C237.654 92.0767 237.486 91.5913 237.15 91.246C236.823 90.9007 236.357 90.728 235.75 90.728C235.05 90.728 234.495 90.9473 234.084 91.386C233.683 91.8247 233.482 92.4733 233.482 93.332V97H232.558V87.2H233.482V91.092C234.005 90.252 234.789 89.832 235.834 89.832ZM249.885 91.372V90H250.809V97H249.885V95.628C249.241 96.6547 248.298 97.168 247.057 97.168C246.058 97.168 245.204 96.8133 244.495 96.104C243.795 95.3947 243.445 94.5267 243.445 93.5C243.445 92.4733 243.795 91.6053 244.495 90.896C245.204 90.1867 246.058 89.832 247.057 89.832C248.298 89.832 249.241 90.3453 249.885 91.372ZM245.167 95.474C245.699 96.006 246.352 96.272 247.127 96.272C247.901 96.272 248.555 96.006 249.087 95.474C249.619 94.9233 249.885 94.2653 249.885 93.5C249.885 92.7253 249.619 92.072 249.087 91.54C248.555 90.9987 247.901 90.728 247.127 90.728C246.352 90.728 245.699 90.9987 245.167 91.54C244.635 92.072 244.369 92.7253 244.369 93.5C244.369 94.2653 244.635 94.9233 245.167 95.474ZM259.975 90V90.896H257.959V95.138C257.959 95.5207 258.034 95.796 258.183 95.964C258.332 96.1227 258.556 96.2067 258.855 96.216C259.154 96.216 259.527 96.2067 259.975 96.188V97C258.976 97.1493 258.234 97.0793 257.749 96.79C257.273 96.4913 257.035 95.9407 257.035 95.138V90.896H255.565V90H257.035V88.32L257.959 88.04V90H259.975ZM262.439 90V91.162C262.868 90.3127 263.606 89.888 264.651 89.888V90.784C263.979 90.784 263.442 90.98 263.041 91.372C262.64 91.7547 262.439 92.3333 262.439 93.108V97H261.515V90H262.439ZM271.514 91.372V90H272.438V97H271.514V95.628C270.87 96.6547 269.927 97.168 268.686 97.168C267.687 97.168 266.833 96.8133 266.124 96.104C265.424 95.3947 265.074 94.5267 265.074 93.5C265.074 92.4733 265.424 91.6053 266.124 90.896C266.833 90.1867 267.687 89.832 268.686 89.832C269.927 89.832 270.87 90.3453 271.514 91.372ZM266.796 95.474C267.328 96.006 267.981 96.272 268.756 96.272C269.53 96.272 270.184 96.006 270.716 95.474C271.248 94.9233 271.514 94.2653 271.514 93.5C271.514 92.7253 271.248 92.072 270.716 91.54C270.184 90.9987 269.53 90.728 268.756 90.728C267.981 90.728 267.328 90.9987 266.796 91.54C266.264 92.072 265.998 92.7253 265.998 93.5C265.998 94.2653 266.264 94.9233 266.796 95.474ZM277.656 97.168C276.601 97.168 275.724 96.818 275.024 96.118C274.324 95.3993 273.974 94.5267 273.974 93.5C273.974 92.464 274.324 91.596 275.024 90.896C275.724 90.1867 276.601 89.832 277.656 89.832C278.347 89.832 278.967 90 279.518 90.336C280.069 90.6627 280.47 91.106 280.722 91.666L279.966 92.1C279.779 91.68 279.476 91.3487 279.056 91.106C278.645 90.854 278.179 90.728 277.656 90.728C276.881 90.728 276.228 90.9987 275.696 91.54C275.164 92.072 274.898 92.7253 274.898 93.5C274.898 94.2653 275.164 94.9233 275.696 95.474C276.228 96.006 276.881 96.272 277.656 96.272C278.169 96.272 278.631 96.1507 279.042 95.908C279.462 95.6653 279.789 95.3293 280.022 94.9L280.792 95.348C280.503 95.908 280.078 96.3513 279.518 96.678C278.958 97.0047 278.337 97.168 277.656 97.168ZM284.023 93.36L287.775 97H286.543L283.043 93.626V97H282.119V87.2H283.043V93.094L286.375 90H287.635L284.023 93.36ZM290.171 87.844C290.171 88.0307 290.105 88.1893 289.975 88.32C289.844 88.4507 289.685 88.516 289.499 88.516C289.312 88.516 289.153 88.4507 289.023 88.32C288.892 88.1893 288.827 88.0307 288.827 87.844C288.827 87.6573 288.892 87.4987 289.023 87.368C289.153 87.2373 289.312 87.172 289.499 87.172C289.685 87.172 289.844 87.2373 289.975 87.368C290.105 87.4987 290.171 87.6573 290.171 87.844ZM289.961 97H289.037V90H289.961V97ZM295.197 89.832C296.037 89.832 296.705 90.0933 297.199 90.616C297.694 91.1293 297.941 91.8247 297.941 92.702V97H297.017V92.702C297.017 92.0767 296.849 91.5913 296.513 91.246C296.187 90.9007 295.72 90.728 295.113 90.728C294.413 90.728 293.858 90.9473 293.447 91.386C293.046 91.8247 292.845 92.4733 292.845 93.332V97H291.921V90H292.845V91.092C293.368 90.252 294.152 89.832 295.197 89.832ZM305.748 91.372V90H306.672V96.72C306.672 97.728 306.327 98.5213 305.636 99.1C304.945 99.6787 304.119 99.968 303.158 99.968C301.525 99.968 300.419 99.3987 299.84 98.26L300.652 97.798C301.072 98.6473 301.907 99.072 303.158 99.072C303.961 99.072 304.591 98.862 305.048 98.442C305.515 98.022 305.748 97.448 305.748 96.72V95.628C305.104 96.6547 304.161 97.168 302.92 97.168C301.921 97.168 301.067 96.8133 300.358 96.104C299.658 95.3947 299.308 94.5267 299.308 93.5C299.308 92.4733 299.658 91.6053 300.358 90.896C301.067 90.1867 301.921 89.832 302.92 89.832C304.161 89.832 305.104 90.3453 305.748 91.372ZM301.03 95.474C301.562 96.006 302.215 96.272 302.99 96.272C303.765 96.272 304.418 96.006 304.95 95.474C305.482 94.9233 305.748 94.2653 305.748 93.5C305.748 92.7253 305.482 92.072 304.95 91.54C304.418 90.9987 303.765 90.728 302.99 90.728C302.215 90.728 301.562 90.9987 301.03 91.54C300.498 92.072 300.232 92.7253 300.232 93.5C300.232 94.2653 300.498 94.9233 301.03 95.474ZM20.256 107.832C21.096 107.832 21.7633 108.093 22.258 108.616C22.7527 109.129 23 109.825 23 110.702V115H22.076V110.702C22.076 110.077 21.908 109.591 21.572 109.246C21.2453 108.901 20.7787 108.728 20.172 108.728C19.472 108.728 18.9167 108.947 18.506 109.386C18.1047 109.825 17.904 110.473 17.904 111.332V115H16.98V108H17.904V109.092C18.4267 108.252 19.2107 107.832 20.256 107.832ZM29.7146 111.668V108H30.6386V115H29.7146V113.908C29.192 114.748 28.408 115.168 27.3626 115.168C26.5226 115.168 25.8553 114.911 25.3606 114.398C24.866 113.875 24.6186 113.175 24.6186 112.298V108H25.5426V112.298C25.5426 112.923 25.706 113.409 26.0326 113.754C26.3686 114.099 26.84 114.272 27.4466 114.272C28.1466 114.272 28.6973 114.053 29.0986 113.614C29.5093 113.175 29.7146 112.527 29.7146 111.668ZM40.0553 107.832C40.8486 107.832 41.4833 108.084 41.9593 108.588C42.4353 109.092 42.6733 109.773 42.6733 110.632V115H41.7493V110.632C41.7493 110.035 41.5953 109.568 41.2873 109.232C40.9793 108.896 40.5639 108.728 40.0413 108.728C39.4346 108.728 38.9586 108.929 38.6133 109.33C38.2679 109.731 38.0953 110.329 38.0953 111.122V115H37.1713V110.632C37.1713 110.025 37.0266 109.559 36.7373 109.232C36.4479 108.896 36.0466 108.728 35.5333 108.728C34.9453 108.728 34.4599 108.933 34.0773 109.344C33.7039 109.755 33.5173 110.347 33.5173 111.122V115H32.5933V108H33.5173V109.022C34.0213 108.229 34.7353 107.832 35.6593 107.832C36.6766 107.832 37.3859 108.257 37.7873 109.106C38.2913 108.257 39.0473 107.832 40.0553 107.832ZM48.2125 107.832C49.2111 107.832 50.0605 108.187 50.7605 108.896C51.4698 109.605 51.8245 110.473 51.8245 111.5C51.8245 112.527 51.4698 113.395 50.7605 114.104C50.0605 114.813 49.2111 115.168 48.2125 115.168C46.9711 115.168 46.0285 114.655 45.3845 113.628V115H44.4605V105.2H45.3845V109.372C46.0285 108.345 46.9711 107.832 48.2125 107.832ZM46.1825 113.474C46.7145 114.006 47.3678 114.272 48.1425 114.272C48.9171 114.272 49.5705 114.006 50.1025 113.474C50.6345 112.923 50.9005 112.265 50.9005 111.5C50.9005 110.725 50.6345 110.072 50.1025 109.54C49.5705 108.999 48.9171 108.728 48.1425 108.728C47.3678 108.728 46.7145 108.999 46.1825 109.54C45.6505 110.072 45.3845 110.725 45.3845 111.5C45.3845 112.265 45.6505 112.923 46.1825 113.474ZM56.5949 107.832C57.6402 107.832 58.4755 108.201 59.1009 108.938C59.7449 109.666 60.0669 110.529 60.0669 111.528C60.0669 111.575 60.0575 111.719 60.0389 111.962H53.8929C53.9862 112.662 54.2849 113.222 54.7889 113.642C55.2929 114.062 55.9229 114.272 56.6789 114.272C57.7429 114.272 58.4942 113.875 58.9329 113.082L59.7449 113.558C59.4369 114.062 59.0122 114.459 58.4709 114.748C57.9389 115.028 57.3369 115.168 56.6649 115.168C55.5635 115.168 54.6675 114.823 53.9769 114.132C53.2862 113.441 52.9409 112.564 52.9409 111.5C52.9409 110.445 53.2815 109.573 53.9629 108.882C54.6442 108.182 55.5215 107.832 56.5949 107.832ZM56.5949 108.728C55.8669 108.728 55.2555 108.943 54.7609 109.372C54.2755 109.801 53.9862 110.366 53.8929 111.066H59.1149C59.0122 110.319 58.7275 109.745 58.2609 109.344C57.7755 108.933 57.2202 108.728 56.5949 108.728ZM62.4606 108V109.162C62.89 108.313 63.6273 107.888 64.6726 107.888V108.784C64.0006 108.784 63.464 108.98 63.0626 109.372C62.6613 109.755 62.4606 110.333 62.4606 111.108V115H61.5366V108H62.4606ZM66.3546 114.37C66.3546 114.585 66.2799 114.767 66.1306 114.916C65.9813 115.065 65.7993 115.14 65.5846 115.14C65.3699 115.14 65.1879 115.065 65.0386 114.916C64.8893 114.767 64.8146 114.585 64.8146 114.37C64.8146 114.155 64.8893 113.973 65.0386 113.824C65.1879 113.675 65.3699 113.6 65.5846 113.6C65.7993 113.6 65.9813 113.675 66.1306 113.824C66.2799 113.973 66.3546 114.155 66.3546 114.37ZM70.9812 105.2H77.9812V106.124H74.9712V115H73.9912V106.124H70.9812V105.2ZM79.1813 108V109.162C79.6107 108.313 80.348 107.888 81.3933 107.888V108.784C80.7213 108.784 80.1847 108.98 79.7833 109.372C79.382 109.755 79.1813 110.333 79.1813 111.108V115H78.2573V108H79.1813ZM88.2559 109.372V108H89.1799V115H88.2559V113.628C87.6119 114.655 86.6692 115.168 85.4279 115.168C84.4292 115.168 83.5752 114.813 82.8659 114.104C82.1659 113.395 81.8159 112.527 81.8159 111.5C81.8159 110.473 82.1659 109.605 82.8659 108.896C83.5752 108.187 84.4292 107.832 85.4279 107.832C86.6692 107.832 87.6119 108.345 88.2559 109.372ZM83.5379 113.474C84.0699 114.006 84.7232 114.272 85.4979 114.272C86.2725 114.272 86.9259 114.006 87.4579 113.474C87.9899 112.923 88.2559 112.265 88.2559 111.5C88.2559 110.725 87.9899 110.072 87.4579 109.54C86.9259 108.999 86.2725 108.728 85.4979 108.728C84.7232 108.728 84.0699 108.999 83.5379 109.54C83.0059 110.072 82.7399 110.725 82.7399 111.5C82.7399 112.265 83.0059 112.923 83.5379 113.474ZM94.3983 115.168C93.3436 115.168 92.4663 114.818 91.7663 114.118C91.0663 113.399 90.7163 112.527 90.7163 111.5C90.7163 110.464 91.0663 109.596 91.7663 108.896C92.4663 108.187 93.3436 107.832 94.3983 107.832C95.0889 107.832 95.7096 108 96.2603 108.336C96.8109 108.663 97.2123 109.106 97.4643 109.666L96.7083 110.1C96.5216 109.68 96.2183 109.349 95.7983 109.106C95.3876 108.854 94.9209 108.728 94.3983 108.728C93.6236 108.728 92.9703 108.999 92.4383 109.54C91.9063 110.072 91.6403 110.725 91.6403 111.5C91.6403 112.265 91.9063 112.923 92.4383 113.474C92.9703 114.006 93.6236 114.272 94.3983 114.272C94.9116 114.272 95.3736 114.151 95.7843 113.908C96.2043 113.665 96.5309 113.329 96.7643 112.9L97.5343 113.348C97.2449 113.908 96.8203 114.351 96.2603 114.678C95.7003 115.005 95.0796 115.168 94.3983 115.168ZM100.765 111.36L104.517 115H103.285L99.7849 111.626V115H98.8609V105.2H99.7849V111.094L103.117 108H104.377L100.765 111.36ZM108.316 107.832C109.361 107.832 110.196 108.201 110.822 108.938C111.466 109.666 111.788 110.529 111.788 111.528C111.788 111.575 111.778 111.719 111.76 111.962H105.614C105.707 112.662 106.006 113.222 106.51 113.642C107.014 114.062 107.644 114.272 108.4 114.272C109.464 114.272 110.215 113.875 110.654 113.082L111.466 113.558C111.158 114.062 110.733 114.459 110.192 114.748C109.66 115.028 109.058 115.168 108.386 115.168C107.284 115.168 106.388 114.823 105.698 114.132C105.007 113.441 104.662 112.564 104.662 111.5C104.662 110.445 105.002 109.573 105.684 108.882C106.365 108.182 107.242 107.832 108.316 107.832ZM108.316 108.728C107.588 108.728 106.976 108.943 106.482 109.372C105.996 109.801 105.707 110.366 105.614 111.066H110.836C110.733 110.319 110.448 109.745 109.982 109.344C109.496 108.933 108.941 108.728 108.316 108.728ZM119.277 109.372V105.2H120.201V115H119.277V113.628C118.633 114.655 117.691 115.168 116.449 115.168C115.451 115.168 114.597 114.813 113.887 114.104C113.187 113.395 112.837 112.527 112.837 111.5C112.837 110.473 113.187 109.605 113.887 108.896C114.597 108.187 115.451 107.832 116.449 107.832C117.691 107.832 118.633 108.345 119.277 109.372ZM114.559 113.474C115.091 114.006 115.745 114.272 116.519 114.272C117.294 114.272 117.947 114.006 118.479 113.474C119.011 112.923 119.277 112.265 119.277 111.5C119.277 110.725 119.011 110.072 118.479 109.54C117.947 108.999 117.294 108.728 116.519 108.728C115.745 108.728 115.091 108.999 114.559 109.54C114.027 110.072 113.761 110.725 113.761 111.5C113.761 112.265 114.027 112.923 114.559 113.474ZM131.678 109.372V105.2H132.602V115H131.678V113.628C131.034 114.655 130.091 115.168 128.85 115.168C127.851 115.168 126.997 114.813 126.288 114.104C125.588 113.395 125.238 112.527 125.238 111.5C125.238 110.473 125.588 109.605 126.288 108.896C126.997 108.187 127.851 107.832 128.85 107.832C130.091 107.832 131.034 108.345 131.678 109.372ZM126.96 113.474C127.492 114.006 128.145 114.272 128.92 114.272C129.694 114.272 130.348 114.006 130.88 113.474C131.412 112.923 131.678 112.265 131.678 111.5C131.678 110.725 131.412 110.072 130.88 109.54C130.348 108.999 129.694 108.728 128.92 108.728C128.145 108.728 127.492 108.999 126.96 109.54C126.428 110.072 126.162 110.725 126.162 111.5C126.162 112.265 126.428 112.923 126.96 113.474ZM137.792 107.832C138.837 107.832 139.673 108.201 140.298 108.938C140.942 109.666 141.264 110.529 141.264 111.528C141.264 111.575 141.255 111.719 141.236 111.962H135.09C135.183 112.662 135.482 113.222 135.986 113.642C136.49 114.062 137.12 114.272 137.876 114.272C138.94 114.272 139.691 113.875 140.13 113.082L140.942 113.558C140.634 114.062 140.209 114.459 139.668 114.748C139.136 115.028 138.534 115.168 137.862 115.168C136.761 115.168 135.865 114.823 135.174 114.132C134.483 113.441 134.138 112.564 134.138 111.5C134.138 110.445 134.479 109.573 135.16 108.882C135.841 108.182 136.719 107.832 137.792 107.832ZM137.792 108.728C137.064 108.728 136.453 108.943 135.958 109.372C135.473 109.801 135.183 110.366 135.09 111.066H140.312C140.209 110.319 139.925 109.745 139.458 109.344C138.973 108.933 138.417 108.728 137.792 108.728ZM143.658 115H142.734V104.78H143.658V115ZM146.753 105.844C146.753 106.031 146.687 106.189 146.557 106.32C146.426 106.451 146.267 106.516 146.081 106.516C145.894 106.516 145.735 106.451 145.605 106.32C145.474 106.189 145.409 106.031 145.409 105.844C145.409 105.657 145.474 105.499 145.605 105.368C145.735 105.237 145.894 105.172 146.081 105.172C146.267 105.172 146.426 105.237 146.557 105.368C146.687 105.499 146.753 105.657 146.753 105.844ZM146.543 115H145.619V108H146.543V115ZM151.093 114.034L153.543 108H154.523L151.653 115H150.533L147.663 108H148.643L151.093 114.034ZM158.601 107.832C159.646 107.832 160.481 108.201 161.107 108.938C161.751 109.666 162.073 110.529 162.073 111.528C162.073 111.575 162.063 111.719 162.045 111.962H155.899C155.992 112.662 156.291 113.222 156.795 113.642C157.299 114.062 157.929 114.272 158.685 114.272C159.749 114.272 160.5 113.875 160.939 113.082L161.751 113.558C161.443 114.062 161.018 114.459 160.477 114.748C159.945 115.028 159.343 115.168 158.671 115.168C157.569 115.168 156.673 114.823 155.983 114.132C155.292 113.441 154.947 112.564 154.947 111.5C154.947 110.445 155.287 109.573 155.969 108.882C156.65 108.182 157.527 107.832 158.601 107.832ZM158.601 108.728C157.873 108.728 157.261 108.943 156.767 109.372C156.281 109.801 155.992 110.366 155.899 111.066H161.121C161.018 110.319 160.733 109.745 160.267 109.344C159.781 108.933 159.226 108.728 158.601 108.728ZM164.467 108V109.162C164.896 108.313 165.633 107.888 166.678 107.888V108.784C166.007 108.784 165.47 108.98 165.069 109.372C164.667 109.755 164.467 110.333 164.467 111.108V115H163.543V108H164.467ZM170.854 113.866L173.122 108H174.102L171.106 115.644C170.826 116.353 170.434 116.899 169.93 117.282C169.435 117.674 168.884 117.847 168.278 117.8V116.932C169.118 117.035 169.757 116.549 170.196 115.476L170.378 115.042L167.242 108H168.222L170.854 113.866ZM182.47 107.832C183.469 107.832 184.318 108.187 185.018 108.896C185.728 109.605 186.082 110.473 186.082 111.5C186.082 112.527 185.728 113.395 185.018 114.104C184.318 114.813 183.469 115.168 182.47 115.168C181.229 115.168 180.286 114.655 179.642 113.628V115H178.718V105.2H179.642V109.372C180.286 108.345 181.229 107.832 182.47 107.832ZM180.44 113.474C180.972 114.006 181.626 114.272 182.4 114.272C183.175 114.272 183.828 114.006 184.36 113.474C184.892 112.923 185.158 112.265 185.158 111.5C185.158 110.725 184.892 110.072 184.36 109.54C183.828 108.999 183.175 108.728 182.4 108.728C181.626 108.728 180.972 108.999 180.44 109.54C179.908 110.072 179.642 110.725 179.642 111.5C179.642 112.265 179.908 112.923 180.44 113.474ZM190.853 107.832C191.898 107.832 192.733 108.201 193.359 108.938C194.003 109.666 194.325 110.529 194.325 111.528C194.325 111.575 194.315 111.719 194.297 111.962H188.151C188.244 112.662 188.543 113.222 189.047 113.642C189.551 114.062 190.181 114.272 190.937 114.272C192.001 114.272 192.752 113.875 193.191 113.082L194.003 113.558C193.695 114.062 193.27 114.459 192.729 114.748C192.197 115.028 191.595 115.168 190.923 115.168C189.821 115.168 188.925 114.823 188.235 114.132C187.544 113.441 187.199 112.564 187.199 111.5C187.199 110.445 187.539 109.573 188.221 108.882C188.902 108.182 189.779 107.832 190.853 107.832ZM190.853 108.728C190.125 108.728 189.513 108.943 189.019 109.372C188.533 109.801 188.244 110.366 188.151 111.066H193.373C193.27 110.319 192.985 109.745 192.519 109.344C192.033 108.933 191.478 108.728 190.853 108.728ZM199.299 108V108.896H197.283V113.138C197.283 113.521 197.358 113.796 197.507 113.964C197.657 114.123 197.881 114.207 198.179 114.216C198.478 114.216 198.851 114.207 199.299 114.188V115C198.301 115.149 197.559 115.079 197.073 114.79C196.597 114.491 196.359 113.941 196.359 113.138V108.896H194.889V108H196.359V106.32L197.283 106.04V108H199.299ZM207.545 113.81L209.267 108H210.219L208.063 115H207.055L205.249 109.358L203.443 115H202.435L200.279 108H201.231L202.953 113.81L204.787 108H205.711L207.545 113.81ZM214.573 107.832C215.619 107.832 216.454 108.201 217.079 108.938C217.723 109.666 218.045 110.529 218.045 111.528C218.045 111.575 218.036 111.719 218.017 111.962H211.871C211.965 112.662 212.263 113.222 212.767 113.642C213.271 114.062 213.901 114.272 214.657 114.272C215.721 114.272 216.473 113.875 216.911 113.082L217.723 113.558C217.415 114.062 216.991 114.459 216.449 114.748C215.917 115.028 215.315 115.168 214.643 115.168C213.542 115.168 212.646 114.823 211.955 114.132C211.265 113.441 210.919 112.564 210.919 111.5C210.919 110.445 211.26 109.573 211.941 108.882C212.623 108.182 213.5 107.832 214.573 107.832ZM214.573 108.728C213.845 108.728 213.234 108.943 212.739 109.372C212.254 109.801 211.965 110.366 211.871 111.066H217.093C216.991 110.319 216.706 109.745 216.239 109.344C215.754 108.933 215.199 108.728 214.573 108.728ZM222.749 107.832C223.794 107.832 224.63 108.201 225.255 108.938C225.899 109.666 226.221 110.529 226.221 111.528C226.221 111.575 226.212 111.719 226.193 111.962H220.047C220.14 112.662 220.439 113.222 220.943 113.642C221.447 114.062 222.077 114.272 222.833 114.272C223.897 114.272 224.648 113.875 225.087 113.082L225.899 113.558C225.591 114.062 225.166 114.459 224.625 114.748C224.093 115.028 223.491 115.168 222.819 115.168C221.718 115.168 220.822 114.823 220.131 114.132C219.44 113.441 219.095 112.564 219.095 111.5C219.095 110.445 219.436 109.573 220.117 108.882C220.798 108.182 221.676 107.832 222.749 107.832ZM222.749 108.728C222.021 108.728 221.41 108.943 220.915 109.372C220.43 109.801 220.14 110.366 220.047 111.066H225.269C225.166 110.319 224.882 109.745 224.415 109.344C223.93 108.933 223.374 108.728 222.749 108.728ZM230.967 107.832C231.807 107.832 232.474 108.093 232.969 108.616C233.464 109.129 233.711 109.825 233.711 110.702V115H232.787V110.702C232.787 110.077 232.619 109.591 232.283 109.246C231.956 108.901 231.49 108.728 230.883 108.728C230.183 108.728 229.628 108.947 229.217 109.386C228.816 109.825 228.615 110.473 228.615 111.332V115H227.691V108H228.615V109.092C229.138 108.252 229.922 107.832 230.967 107.832ZM244.808 115H238.578V114.118L242.106 110.562C243.114 109.554 243.618 108.691 243.618 107.972C243.618 107.365 243.426 106.885 243.044 106.53C242.67 106.166 242.204 105.984 241.644 105.984C240.645 105.984 239.912 106.446 239.446 107.37L238.62 106.88C238.918 106.283 239.334 105.825 239.866 105.508C240.398 105.191 240.99 105.032 241.644 105.032C242.428 105.032 243.114 105.298 243.702 105.83C244.299 106.343 244.598 107.057 244.598 107.972C244.598 108.513 244.448 109.045 244.15 109.568C243.851 110.081 243.394 110.646 242.778 111.262L239.978 114.048H244.808V115ZM255.033 111.122H249.993V110.226H255.033V111.122ZM266.156 112.116H267.416V113.04H266.156V115H265.176V113.04H259.996V112.116L263.636 105.2H264.714L261.074 112.116H265.176V109.12H266.156V112.116ZM278.268 109.372V105.2H279.192V115H278.268V113.628C277.624 114.655 276.681 115.168 275.44 115.168C274.441 115.168 273.587 114.813 272.878 114.104C272.178 113.395 271.828 112.527 271.828 111.5C271.828 110.473 272.178 109.605 272.878 108.896C273.587 108.187 274.441 107.832 275.44 107.832C276.681 107.832 277.624 108.345 278.268 109.372ZM273.55 113.474C274.082 114.006 274.735 114.272 275.51 114.272C276.284 114.272 276.938 114.006 277.47 113.474C278.002 112.923 278.268 112.265 278.268 111.5C278.268 110.725 278.002 110.072 277.47 109.54C276.938 108.999 276.284 108.728 275.51 108.728C274.735 108.728 274.082 108.999 273.55 109.54C273.018 110.072 272.752 110.725 272.752 111.5C272.752 112.265 273.018 112.923 273.55 113.474ZM287.168 109.372V108H288.092V115H287.168V113.628C286.524 114.655 285.581 115.168 284.34 115.168C283.341 115.168 282.487 114.813 281.778 114.104C281.078 113.395 280.728 112.527 280.728 111.5C280.728 110.473 281.078 109.605 281.778 108.896C282.487 108.187 283.341 107.832 284.34 107.832C285.581 107.832 286.524 108.345 287.168 109.372ZM282.45 113.474C282.982 114.006 283.635 114.272 284.41 114.272C285.185 114.272 285.838 114.006 286.37 113.474C286.902 112.923 287.168 112.265 287.168 111.5C287.168 110.725 286.902 110.072 286.37 109.54C285.838 108.999 285.185 108.728 284.41 108.728C283.635 108.728 282.982 108.999 282.45 109.54C281.918 110.072 281.652 110.725 281.652 111.5C281.652 112.265 281.918 112.923 282.45 113.474ZM292.82 113.866L295.088 108H296.068L293.072 115.644C292.792 116.353 292.4 116.899 291.896 117.282C291.402 117.674 290.851 117.847 290.244 117.8V116.932C291.084 117.035 291.724 116.549 292.162 115.476L292.344 115.042L289.208 108H290.188L292.82 113.866ZM297.489 109.834C297.489 110.375 297.97 110.772 298.931 111.024C299.202 111.089 299.379 111.136 299.463 111.164C299.547 111.183 299.711 111.234 299.953 111.318C300.205 111.393 300.378 111.458 300.471 111.514C300.574 111.57 300.714 111.659 300.891 111.78C301.069 111.892 301.195 112.009 301.269 112.13C301.344 112.242 301.414 112.391 301.479 112.578C301.545 112.755 301.577 112.947 301.577 113.152C301.577 113.749 301.339 114.235 300.863 114.608C300.406 114.981 299.799 115.168 299.043 115.168C298.39 115.168 297.825 115.023 297.349 114.734C296.873 114.435 296.537 114.043 296.341 113.558L297.125 113.096C297.256 113.46 297.489 113.749 297.825 113.964C298.171 114.169 298.577 114.272 299.043 114.272C299.519 114.272 299.907 114.179 300.205 113.992C300.504 113.805 300.653 113.525 300.653 113.152C300.653 112.611 300.173 112.214 299.211 111.962C298.941 111.897 298.763 111.855 298.679 111.836C298.595 111.808 298.427 111.757 298.175 111.682C297.933 111.598 297.76 111.528 297.657 111.472C297.564 111.416 297.429 111.332 297.251 111.22C297.074 111.099 296.948 110.982 296.873 110.87C296.799 110.749 296.729 110.599 296.663 110.422C296.598 110.235 296.565 110.039 296.565 109.834C296.565 109.265 296.789 108.789 297.237 108.406C297.704 108.023 298.278 107.832 298.959 107.832C299.519 107.832 300.014 107.958 300.443 108.21C300.882 108.462 301.204 108.812 301.409 109.26L300.639 109.708C300.378 109.055 299.818 108.728 298.959 108.728C298.539 108.728 298.189 108.826 297.909 109.022C297.629 109.218 297.489 109.489 297.489 109.834ZM307.753 105.844C307.753 106.031 307.687 106.189 307.557 106.32C307.426 106.451 307.267 106.516 307.081 106.516C306.894 106.516 306.735 106.451 306.605 106.32C306.474 106.189 306.409 106.031 306.409 105.844C306.409 105.657 306.474 105.499 306.605 105.368C306.735 105.237 306.894 105.172 307.081 105.172C307.267 105.172 307.426 105.237 307.557 105.368C307.687 105.499 307.753 105.657 307.753 105.844ZM307.543 115H306.619V108H307.543V115ZM312.779 107.832C313.619 107.832 314.287 108.093 314.781 108.616C315.276 109.129 315.523 109.825 315.523 110.702V115H314.599V110.702C314.599 110.077 314.431 109.591 314.095 109.246C313.769 108.901 313.302 108.728 312.695 108.728C311.995 108.728 311.44 108.947 311.029 109.386C310.628 109.825 310.427 110.473 310.427 111.332V115H309.503V108H310.427V109.092C310.95 108.252 311.734 107.832 312.779 107.832ZM17.96 126.35H16.84L17.68 123.2H18.52L17.96 126.35ZM19.92 126.35H18.8L19.64 123.2H20.48L19.92 126.35ZM26.4558 133.168C24.9625 133.168 23.7351 132.678 22.7738 131.698C21.8031 130.709 21.3178 129.509 21.3178 128.1C21.3178 126.691 21.8031 125.491 22.7738 124.502C23.7351 123.522 24.9625 123.032 26.4558 123.032C27.3518 123.032 28.1778 123.251 28.9338 123.69C29.6898 124.119 30.2778 124.703 30.6978 125.44L29.8298 125.944C29.5218 125.347 29.0645 124.871 28.4578 124.516C27.8511 124.161 27.1838 123.984 26.4558 123.984C25.2238 123.984 24.2251 124.381 23.4598 125.174C22.6851 125.977 22.2978 126.952 22.2978 128.1C22.2978 129.248 22.6851 130.223 23.4598 131.026C24.2251 131.819 25.2238 132.216 26.4558 132.216C27.1838 132.216 27.8511 132.039 28.4578 131.684C29.0645 131.329 29.5218 130.853 29.8298 130.256L30.6978 130.746C30.2965 131.483 29.7131 132.071 28.9478 132.51C28.1825 132.949 27.3518 133.168 26.4558 133.168ZM37.9671 132.118C37.2484 132.818 36.3804 133.168 35.3631 133.168C34.3271 133.168 33.4544 132.818 32.7451 132.118C32.0358 131.409 31.6811 130.536 31.6811 129.5C31.6811 128.464 32.0358 127.596 32.7451 126.896C33.4544 126.187 34.3271 125.832 35.3631 125.832C36.3898 125.832 37.2578 126.187 37.9671 126.896C38.6858 127.596 39.0451 128.464 39.0451 129.5C39.0451 130.527 38.6858 131.399 37.9671 132.118ZM33.4031 131.474C33.9351 132.006 34.5884 132.272 35.3631 132.272C36.1378 132.272 36.7911 132.006 37.3231 131.474C37.8551 130.923 38.1211 130.265 38.1211 129.5C38.1211 128.725 37.8551 128.072 37.3231 127.54C36.7911 126.999 36.1378 126.728 35.3631 126.728C34.5884 126.728 33.9351 126.999 33.4031 127.54C32.8711 128.072 32.6051 128.725 32.6051 129.5C32.6051 130.265 32.8711 130.923 33.4031 131.474ZM45.5193 129.668V126H46.4433V133H45.5193V131.908C44.9967 132.748 44.2127 133.168 43.1673 133.168C42.3273 133.168 41.66 132.911 41.1653 132.398C40.6707 131.875 40.4233 131.175 40.4233 130.298V126H41.3473V130.298C41.3473 130.923 41.5107 131.409 41.8373 131.754C42.1733 132.099 42.6447 132.272 43.2513 132.272C43.9513 132.272 44.502 132.053 44.9033 131.614C45.314 131.175 45.5193 130.527 45.5193 129.668ZM51.674 125.832C52.514 125.832 53.1813 126.093 53.676 126.616C54.1706 127.129 54.418 127.825 54.418 128.702V133H53.494V128.702C53.494 128.077 53.326 127.591 52.99 127.246C52.6633 126.901 52.1966 126.728 51.59 126.728C50.89 126.728 50.3346 126.947 49.924 127.386C49.5226 127.825 49.322 128.473 49.322 129.332V133H48.398V126H49.322V127.092C49.8446 126.252 50.6286 125.832 51.674 125.832ZM59.9146 126V126.896H57.8986V131.138C57.8986 131.521 57.9733 131.796 58.1226 131.964C58.2719 132.123 58.4959 132.207 58.7946 132.216C59.0933 132.216 59.4666 132.207 59.9146 132.188V133C58.9159 133.149 58.1739 133.079 57.6886 132.79C57.2126 132.491 56.9746 131.941 56.9746 131.138V126.896H55.5046V126H56.9746V124.32L57.8986 124.04V126H59.9146ZM62.3786 126V127.162C62.8079 126.313 63.5453 125.888 64.5906 125.888V126.784C63.9186 126.784 63.3819 126.98 62.9806 127.372C62.5793 127.755 62.3786 128.333 62.3786 129.108V133H61.4546V126H62.3786ZM68.7657 131.866L71.0337 126H72.0137L69.0177 133.644C68.7377 134.353 68.3457 134.899 67.8417 135.282C67.347 135.674 66.7963 135.847 66.1897 135.8V134.932C67.0297 135.035 67.669 134.549 68.1077 133.476L68.2897 133.042L65.1537 126H66.1337L68.7657 131.866ZM73.5504 123.2H74.6704L73.8304 126.35H72.9904L73.5504 123.2ZM75.5104 123.2H76.6304L75.7904 126.35H74.9504L75.5104 123.2ZM85.1968 127.652H87.6888V128.548H85.1968V131.04H84.3008V128.548H81.8088V127.652H84.3008V125.16H85.1968V127.652ZM98.6793 123.2V124.124H94.1293V127.736H98.4693V128.66H94.1293V133H93.1493V123.2H98.6793ZM101.138 126V127.162C101.568 126.313 102.305 125.888 103.35 125.888V126.784C102.678 126.784 102.142 126.98 101.74 127.372C101.339 127.755 101.138 128.333 101.138 129.108V133H100.214V126H101.138ZM107.427 125.832C108.472 125.832 109.308 126.201 109.933 126.938C110.577 127.666 110.899 128.529 110.899 129.528C110.899 129.575 110.89 129.719 110.871 129.962H104.725C104.818 130.662 105.117 131.222 105.621 131.642C106.125 132.062 106.755 132.272 107.511 132.272C108.575 132.272 109.326 131.875 109.765 131.082L110.577 131.558C110.269 132.062 109.844 132.459 109.303 132.748C108.771 133.028 108.169 133.168 107.497 133.168C106.396 133.168 105.5 132.823 104.809 132.132C104.118 131.441 103.773 130.564 103.773 129.5C103.773 128.445 104.114 127.573 104.795 126.882C105.476 126.182 106.354 125.832 107.427 125.832ZM107.427 126.728C106.699 126.728 106.088 126.943 105.593 127.372C105.108 127.801 104.818 128.366 104.725 129.066H109.947C109.844 128.319 109.56 127.745 109.093 127.344C108.608 126.933 108.052 126.728 107.427 126.728ZM115.603 125.832C116.648 125.832 117.483 126.201 118.109 126.938C118.753 127.666 119.075 128.529 119.075 129.528C119.075 129.575 119.065 129.719 119.047 129.962H112.901C112.994 130.662 113.293 131.222 113.797 131.642C114.301 132.062 114.931 132.272 115.687 132.272C116.751 132.272 117.502 131.875 117.941 131.082L118.753 131.558C118.445 132.062 118.02 132.459 117.479 132.748C116.947 133.028 116.345 133.168 115.673 133.168C114.571 133.168 113.675 132.823 112.985 132.132C112.294 131.441 111.949 130.564 111.949 129.5C111.949 128.445 112.289 127.573 112.971 126.882C113.652 126.182 114.529 125.832 115.603 125.832ZM115.603 126.728C114.875 126.728 114.263 126.943 113.769 127.372C113.283 127.801 112.994 128.366 112.901 129.066H118.123C118.02 128.319 117.735 127.745 117.269 127.344C116.783 126.933 116.228 126.728 115.603 126.728ZM124.184 123.2H127.964C129.299 123.2 130.4 123.676 131.268 124.628C132.146 125.561 132.584 126.719 132.584 128.1C132.584 129.481 132.146 130.643 131.268 131.586C130.4 132.529 129.299 133 127.964 133H124.184V123.2ZM125.164 132.076H127.964C129.038 132.076 129.915 131.693 130.596 130.928C131.287 130.153 131.632 129.211 131.632 128.1C131.632 126.989 131.287 126.047 130.596 125.272C129.915 124.507 129.038 124.124 127.964 124.124H125.164V132.076ZM137.355 125.832C138.4 125.832 139.235 126.201 139.861 126.938C140.505 127.666 140.827 128.529 140.827 129.528C140.827 129.575 140.817 129.719 140.799 129.962H134.653C134.746 130.662 135.045 131.222 135.549 131.642C136.053 132.062 136.683 132.272 137.439 132.272C138.503 132.272 139.254 131.875 139.693 131.082L140.505 131.558C140.197 132.062 139.772 132.459 139.231 132.748C138.699 133.028 138.097 133.168 137.425 133.168C136.323 133.168 135.427 132.823 134.737 132.132C134.046 131.441 133.701 130.564 133.701 129.5C133.701 128.445 134.041 127.573 134.723 126.882C135.404 126.182 136.281 125.832 137.355 125.832ZM137.355 126.728C136.627 126.728 136.015 126.943 135.521 127.372C135.035 127.801 134.746 128.366 134.653 129.066H139.875C139.772 128.319 139.487 127.745 139.021 127.344C138.535 126.933 137.98 126.728 137.355 126.728ZM143.22 133H142.296V122.78H143.22V133ZM146.315 123.844C146.315 124.031 146.25 124.189 146.119 124.32C145.989 124.451 145.83 124.516 145.643 124.516C145.457 124.516 145.298 124.451 145.167 124.32C145.037 124.189 144.971 124.031 144.971 123.844C144.971 123.657 145.037 123.499 145.167 123.368C145.298 123.237 145.457 123.172 145.643 123.172C145.83 123.172 145.989 123.237 146.119 123.368C146.25 123.499 146.315 123.657 146.315 123.844ZM146.105 133H145.181V126H146.105V133ZM150.656 132.034L153.106 126H154.086L151.216 133H150.096L147.226 126H148.206L150.656 132.034ZM158.163 125.832C159.209 125.832 160.044 126.201 160.669 126.938C161.313 127.666 161.635 128.529 161.635 129.528C161.635 129.575 161.626 129.719 161.607 129.962H155.461C155.555 130.662 155.853 131.222 156.357 131.642C156.861 132.062 157.491 132.272 158.247 132.272C159.311 132.272 160.063 131.875 160.501 131.082L161.313 131.558C161.005 132.062 160.581 132.459 160.039 132.748C159.507 133.028 158.905 133.168 158.233 133.168C157.132 133.168 156.236 132.823 155.545 132.132C154.855 131.441 154.509 130.564 154.509 129.5C154.509 128.445 154.85 127.573 155.531 126.882C156.213 126.182 157.09 125.832 158.163 125.832ZM158.163 126.728C157.435 126.728 156.824 126.943 156.329 127.372C155.844 127.801 155.555 128.366 155.461 129.066H160.683C160.581 128.319 160.296 127.745 159.829 127.344C159.344 126.933 158.789 126.728 158.163 126.728ZM164.029 126V127.162C164.458 126.313 165.196 125.888 166.241 125.888V126.784C165.569 126.784 165.032 126.98 164.631 127.372C164.23 127.755 164.029 128.333 164.029 129.108V133H163.105V126H164.029ZM170.416 131.866L172.684 126H173.664L170.668 133.644C170.388 134.353 169.996 134.899 169.492 135.282C168.997 135.674 168.447 135.847 167.84 135.8V134.932C168.68 135.035 169.319 134.549 169.758 133.476L169.94 133.042L166.804 126H167.784L170.416 131.866Z" fill="#282828" fill-opacity="0.8"/>
</g>
<defs>
<filter id="filter0_b_2001_830" x="-14.5" y="-14.5" width="401" height="183" filterUnits="userSpaceOnUse" color-interpolation-filters="sRGB">
<feFlood flood-opacity="0" result="BackgroundImageFix"/>
<feGaussianBlur in="BackgroundImageFix" stdDeviation="7.5"/>
<feComposite in2="SourceAlpha" operator="in" result="effect1_backgroundBlur_2001_830"/>
<feBlend mode="normal" in="SourceGraphic" in2="effect1_backgroundBlur_2001_830" result="shape"/>
</filter>
</defs>
</svg>
