<svg width="372" height="118" viewBox="0 0 372 118" fill="none" xmlns="http://www.w3.org/2000/svg">
<g filter="url(#filter0_b_2001_831)">
<rect x="1" y="1" width="370" height="116" rx="30" stroke="#626262"/>
<path d="M24.8463 19.6285C24.8926 19.7946 24.9918 19.941 25.1289 20.0456C25.2659 20.1502 25.4333 20.2073 25.6058 20.2082H29.4304C29.6034 20.2072 29.7714 20.1495 29.9085 20.044C30.0457 19.9385 30.1445 19.791 30.1899 19.624C30.2324 19.4659 30.3858 18.9052 30.4281 18.7566H24.608C24.6507 18.9012 24.8033 19.472 24.8463 19.6285Z" fill="#282828"/>
<path d="M31.7584 31.2821H30.7788C30.2933 31.2818 29.8277 31.0892 29.484 30.7463C29.1404 30.4035 28.9466 29.9384 28.9451 29.4529C28.9447 27.9129 28.9454 26.0432 28.9451 24.5136C28.9466 24.0281 29.1404 23.563 29.484 23.2201C29.8277 22.8773 30.2933 22.6846 30.7788 22.6844C30.8975 22.691 32.8121 22.6796 32.8821 22.6844V20.1094C32.8806 19.9173 32.8388 19.7277 32.7593 19.5529C32.6799 19.378 32.5647 19.2217 32.4211 19.0942C32.2774 18.9667 32.1087 18.8708 31.9256 18.8126C31.7426 18.7545 31.5494 18.7354 31.3585 18.7566L31.3001 18.9813L31.0574 19.8621C30.9598 20.2191 30.7477 20.5341 30.4539 20.759C30.16 20.9839 29.8004 21.1062 29.4304 21.1071H25.6058C25.2364 21.1062 24.8774 20.9845 24.5837 20.7605C24.2899 20.5366 24.0775 20.2226 23.9789 19.8666L23.7362 18.9813L23.6777 18.7566C23.4866 18.7352 23.2931 18.7541 23.1098 18.8122C22.9264 18.8702 22.7573 18.9661 22.6132 19.0936C22.4692 19.2211 22.3536 19.3773 22.2737 19.5523C22.1939 19.7273 22.1516 19.9171 22.1497 20.1094V27.7362C22.8314 27.9379 23.4196 28.3744 23.8103 28.9683C24.2011 29.5622 24.369 30.2752 24.2844 30.9811C24.1302 31.473 24.5667 31.883 24.5271 32.3968C25.0576 32.7672 25.4883 33.263 25.7808 33.8401C26.0732 34.4172 26.2185 35.0577 26.2035 35.7045C27.4306 35.704 30.3422 35.7048 31.5337 35.7045C31.7111 35.7043 31.8866 35.6691 32.0504 35.6009C32.2142 35.5328 32.3629 35.4331 32.4881 35.3075C32.6133 35.1819 32.7125 35.0328 32.7801 34.8688C32.8477 34.7048 32.8823 34.5292 32.882 34.3518V31.2821C32.7519 31.273 31.9105 31.2887 31.7584 31.2821ZM27.0934 25.1068H27.6463C27.7641 25.1088 27.8765 25.1571 27.9591 25.2411C28.0418 25.3252 28.0881 25.4383 28.0881 25.5562C28.0881 25.6741 28.0418 25.7873 27.9591 25.8713C27.8765 25.9554 27.7641 26.0036 27.6463 26.0056H27.0934C26.9755 26.0036 26.8632 25.9554 26.7805 25.8713C26.6979 25.7873 26.6516 25.6741 26.6516 25.5562C26.6516 25.4383 26.6979 25.3252 26.7805 25.2411C26.8632 25.1571 26.9755 25.1088 27.0934 25.1068ZM26.1316 26.5315H27.6463C27.7641 26.5335 27.8765 26.5817 27.9591 26.6658C28.0418 26.7499 28.0881 26.863 28.0881 26.9809C28.0881 27.0988 28.0418 27.2119 27.9591 27.296C27.8765 27.3801 27.7641 27.4283 27.6463 27.4303H26.1316C26.0145 27.4273 25.9031 27.3786 25.8214 27.2946C25.7396 27.2107 25.6938 27.0982 25.6938 26.981C25.6938 26.8638 25.7396 26.7513 25.8214 26.6673C25.9031 26.5834 26.0145 26.5345 26.1316 26.5315ZM24.6756 28.8597C24.5578 28.8577 24.4454 28.8094 24.3628 28.7254C24.2801 28.6413 24.2338 28.5281 24.2338 28.4103C24.2338 28.2924 24.2801 28.1792 24.3628 28.0951C24.4454 28.0111 24.5578 27.9628 24.6756 27.9608H27.6463C27.7641 27.9628 27.8765 28.0111 27.9591 28.0951C28.0418 28.1792 28.0881 28.2924 28.0881 28.4103C28.0881 28.5281 28.0418 28.6413 27.9591 28.7254C27.8765 28.8094 27.7641 28.8577 27.6463 28.8597H24.6756ZM28.5857 33.3899H26.4507C26.3323 33.3887 26.2191 33.3409 26.1358 33.2567C26.0524 33.1726 26.0057 33.0589 26.0057 32.9405C26.0057 32.8221 26.0524 32.7084 26.1358 32.6242C26.2191 32.5401 26.3323 32.4922 26.4507 32.4911H28.5857C28.7041 32.4923 28.8173 32.5401 28.9006 32.6243C28.9839 32.7085 29.0306 32.8222 29.0306 32.9406C29.0306 33.059 28.9838 33.1727 28.9005 33.2568C28.8171 33.3409 28.7041 33.3888 28.5857 33.3899Z" fill="#282828"/>
<path d="M22.4014 38.1359C21.9731 37.9453 21.2527 37.6097 20.8284 37.4213C20.8015 37.409 20.7709 37.4078 20.7432 37.4179C20.7155 37.428 20.6928 37.4486 20.6801 37.4752C20.6801 37.4796 20.4337 38.0006 20.4374 38.0055L19.3857 40.3336C19.3788 40.3468 19.3748 40.3612 19.3738 40.376C19.3729 40.3908 19.375 40.4057 19.38 40.4196C19.3851 40.4335 19.393 40.4463 19.4033 40.457C19.4136 40.4677 19.4259 40.4762 19.4396 40.4819L25.5159 43.2412C25.5295 43.2473 25.5441 43.2505 25.5589 43.2508C25.5737 43.2512 25.5885 43.2485 25.6023 43.2431C25.6161 43.2376 25.6287 43.2295 25.6393 43.2192C25.6499 43.2088 25.6584 43.1964 25.6642 43.1828L26.9585 40.329C26.9654 40.3158 26.9695 40.3014 26.9704 40.2865C26.9714 40.2717 26.9693 40.2569 26.9642 40.2429C26.9591 40.229 26.9512 40.2162 26.941 40.2055C26.9307 40.1948 26.9183 40.1863 26.9046 40.1806L22.4014 38.1359Z" fill="#282828"/>
<path d="M29.8438 26.1092V26.7788C29.8438 26.7788 36.5313 26.7788 37.0616 26.7788C37.1794 26.7809 37.2918 26.8291 37.3744 26.9132C37.4571 26.9972 37.5034 27.1104 37.5034 27.2283C37.5034 27.3461 37.4571 27.4593 37.3744 27.5434C37.2918 27.6274 37.1794 27.6757 37.0616 27.6777C36.4297 27.6779 30.239 27.6775 29.8438 27.6777V29.4529C29.8446 29.7002 29.9435 29.9371 30.1188 30.1115C30.2941 30.2859 30.5315 30.3836 30.7788 30.3831C32.7277 30.3862 37.6407 30.3808 39.6953 30.3831C39.9419 30.3826 40.1782 30.2844 40.3525 30.1101C40.5269 29.9358 40.625 29.6995 40.6256 29.4529V26.1092C40.5875 26.1112 30.234 26.1087 29.8438 26.1092Z" fill="#282828"/>
<path d="M39.6953 23.5834C38.1225 23.5834 32.2545 23.5831 30.7787 23.5834C30.5314 23.583 30.294 23.6807 30.1188 23.8551C29.9435 24.0296 29.8446 24.2664 29.8439 24.5137V25.2103C30.8028 25.2094 39.6209 25.211 40.6256 25.2103V24.5137C40.6251 24.2671 40.527 24.0307 40.3526 23.8564C40.1782 23.682 39.9419 23.5839 39.6953 23.5834Z" fill="#282828"/>
<path d="M26.1181 36.6034L25.9718 37.2082L25.9572 37.2047C25.7394 37.1511 25.549 37.0193 25.4222 36.8344C25.2953 36.6495 25.2409 36.4243 25.2694 36.2019C25.2898 36.0368 25.3016 35.8707 25.3047 35.7044C25.3216 35.1213 25.1687 34.5458 24.8647 34.048C24.5608 33.5501 24.1187 33.1513 23.5923 32.9C23.6517 32.6466 23.6488 32.3825 23.5839 32.1305C23.5189 31.8785 23.3938 31.6459 23.2193 31.4528C23.3886 31.0958 23.4486 30.6968 23.3918 30.3058C23.3351 29.9148 23.164 29.5492 22.9002 29.2551C22.4197 28.6169 20.6673 27.9438 20.5721 29.1832C20.602 29.9263 20.6085 30.6539 20.5632 31.4438C20.4276 33.81 21.127 35.3544 21.4711 36.7291C22.2977 37.0972 25.9734 38.7733 26.8911 39.1874C27.1852 38.7796 27.5658 38.442 28.0057 38.1987C28.6837 37.8455 29.2327 37.2871 29.5742 36.6032L26.1181 36.6034Z" fill="#282828"/>
<path d="M55.2812 34.5V27.5547L53.5928 28.4502V26.7959L57.0859 24.9707V34.5H55.2812ZM65.4258 28.0469V31.6699C65.4258 32.3991 65.3164 32.9642 65.0977 33.3652C64.6191 34.2448 63.7624 34.6846 62.5273 34.6846C61.5521 34.6846 60.8024 34.4225 60.2783 33.8984C59.973 33.6022 59.7839 33.2536 59.7109 32.8525C59.6243 32.4196 59.5811 31.8864 59.5811 31.2529V28.2656C59.5811 27.4635 59.6699 26.8597 59.8477 26.4541C60.0755 25.9528 60.4561 25.5768 60.9893 25.3262C61.4313 25.1257 61.9235 25.0254 62.4658 25.0254C63.3408 25.0254 64.0472 25.2669 64.585 25.75C64.9313 26.0645 65.1637 26.4245 65.2822 26.8301C65.3779 27.1673 65.4258 27.5729 65.4258 28.0469ZM61.3857 28.2725V31.458C61.3857 31.8818 61.404 32.1621 61.4404 32.2988C61.5088 32.5404 61.6569 32.7272 61.8848 32.8594C62.0807 32.9733 62.2926 33.0303 62.5205 33.0303C62.9535 33.0303 63.2656 32.873 63.457 32.5586C63.5892 32.3444 63.6553 31.9707 63.6553 31.4375V28.1836C63.6553 27.778 63.6188 27.4932 63.5459 27.3291C63.3682 26.9144 63.0264 26.707 62.5205 26.707C62.0739 26.707 61.7594 26.8597 61.5771 27.165C61.4495 27.3747 61.3857 27.7438 61.3857 28.2725ZM72.4258 28.0469V31.6699C72.4258 32.3991 72.3164 32.9642 72.0977 33.3652C71.6191 34.2448 70.7624 34.6846 69.5273 34.6846C68.5521 34.6846 67.8024 34.4225 67.2783 33.8984C66.973 33.6022 66.7839 33.2536 66.7109 32.8525C66.6243 32.4196 66.5811 31.8864 66.5811 31.2529V28.2656C66.5811 27.4635 66.6699 26.8597 66.8477 26.4541C67.0755 25.9528 67.4561 25.5768 67.9893 25.3262C68.4313 25.1257 68.9235 25.0254 69.4658 25.0254C70.3408 25.0254 71.0472 25.2669 71.585 25.75C71.9313 26.0645 72.1637 26.4245 72.2822 26.8301C72.3779 27.1673 72.4258 27.5729 72.4258 28.0469ZM68.3857 28.2725V31.458C68.3857 31.8818 68.404 32.1621 68.4404 32.2988C68.5088 32.5404 68.6569 32.7272 68.8848 32.8594C69.0807 32.9733 69.2926 33.0303 69.5205 33.0303C69.9535 33.0303 70.2656 32.873 70.457 32.5586C70.5892 32.3444 70.6553 31.9707 70.6553 31.4375V28.1836C70.6553 27.778 70.6188 27.4932 70.5459 27.3291C70.3682 26.9144 70.0264 26.707 69.5205 26.707C69.0739 26.707 68.7594 26.8597 68.5771 27.165C68.4495 27.3747 68.3857 27.7438 68.3857 28.2725ZM77.0127 26.8438V28.334C77.0127 28.8991 76.8646 29.3298 76.5684 29.626C76.2767 29.9268 75.8529 30.0771 75.2969 30.0771C74.7135 30.0771 74.2692 29.9245 73.9639 29.6191C73.7861 29.446 73.6745 29.2318 73.6289 28.9766C73.5833 28.7487 73.5605 28.4639 73.5605 28.1221V26.9258C73.5605 26.265 73.6904 25.7979 73.9502 25.5244C74.2555 25.1963 74.693 25.0322 75.2627 25.0322C75.764 25.0322 76.181 25.1735 76.5137 25.4561C76.7324 25.6475 76.8714 25.8594 76.9307 26.0918C76.9854 26.2878 77.0127 26.5384 77.0127 26.8438ZM74.6611 26.9258V28.1904C74.6611 28.5231 74.6885 28.7396 74.7432 28.8398C74.848 29.013 75.0303 29.0996 75.29 29.0996C75.5544 29.0996 75.7344 29.0062 75.8301 28.8193C75.8939 28.7008 75.9258 28.4821 75.9258 28.1631V26.8916C75.9258 26.568 75.8779 26.3447 75.7822 26.2217C75.682 26.0941 75.5225 26.0303 75.3037 26.0303C75.0348 26.0303 74.8571 26.1077 74.7705 26.2627C74.6976 26.3766 74.6611 26.5977 74.6611 26.9258ZM81.9414 31.4102V32.9004C81.9414 33.4701 81.7956 33.9007 81.5039 34.1924C81.2031 34.4932 80.7793 34.6436 80.2324 34.6436C79.6491 34.6436 79.2048 34.4909 78.8994 34.1855C78.7217 34.0078 78.61 33.7936 78.5645 33.543C78.5189 33.3151 78.4961 33.0303 78.4961 32.6885V31.4922C78.4961 30.8314 78.626 30.3643 78.8857 30.0908C79.1911 29.7627 79.6286 29.5986 80.1982 29.5986C80.7041 29.5986 81.1188 29.7399 81.4424 30.0225C81.6611 30.2184 81.8001 30.4303 81.8594 30.6582C81.9141 30.8587 81.9414 31.1094 81.9414 31.4102ZM79.5967 31.4922V32.7568C79.5967 33.0895 79.6263 33.306 79.6855 33.4062C79.7812 33.5794 79.9613 33.666 80.2256 33.666C80.4899 33.666 80.6699 33.5726 80.7656 33.3857C80.8294 33.2673 80.8613 33.0485 80.8613 32.7295V31.458C80.8613 31.1344 80.8135 30.9111 80.7178 30.7881C80.6175 30.6605 80.458 30.5967 80.2393 30.5967C79.9704 30.5967 79.7926 30.6719 79.7061 30.8223C79.6331 30.9362 79.5967 31.1595 79.5967 31.4922ZM80.5469 25.0049L81.1074 25.3604L74.9482 34.6641L74.3945 34.3018L80.5469 25.0049ZM92.6533 34.7871L89.6045 28.6895V34.5H87.6904V25.1689H89.8574L92.6533 30.8359L95.4492 25.1689H97.6162V34.5H95.7021V28.6895L92.6533 34.7871ZM104.015 24.9844C104.817 24.9844 105.562 25.1667 106.25 25.5312C107.111 25.9915 107.763 26.6341 108.205 27.459C108.574 28.1517 108.759 28.9583 108.759 29.8789C108.759 30.7266 108.549 31.5241 108.13 32.2715C107.683 33.0736 107.05 33.6911 106.229 34.124C105.541 34.4932 104.794 34.6777 103.987 34.6777C103.099 34.6777 102.271 34.459 101.506 34.0215C100.686 33.5475 100.066 32.9072 99.6465 32.1006C99.291 31.4261 99.1133 30.6855 99.1133 29.8789C99.1133 28.4525 99.6191 27.2539 100.631 26.2832C101.538 25.4173 102.666 24.9844 104.015 24.9844ZM103.96 26.7549C103.071 26.7549 102.342 27.0967 101.772 27.7803C101.303 28.3454 101.068 29.0335 101.068 29.8447C101.068 30.7243 101.349 31.4557 101.909 32.0391C102.47 32.6178 103.146 32.9072 103.939 32.9072C104.783 32.9072 105.491 32.5905 106.065 31.957C106.339 31.6608 106.542 31.2894 106.674 30.8428C106.77 30.5055 106.817 30.1888 106.817 29.8926C106.817 28.8991 106.51 28.113 105.895 27.5342C105.348 27.0146 104.703 26.7549 103.96 26.7549ZM116.107 34.5L112.177 28.6006V34.5H110.263V25.1689H112.143L116.06 30.9932V25.1689H117.974V34.5H116.107ZM124.796 26.7344H121.521V29.0312H124.796V30.5967H121.521V32.9346H124.796V34.5H119.607V25.1689H124.796V26.7344ZM133.402 25.1689L130.333 30.3848V34.5H128.419V30.3848L125.295 25.1689H127.571L129.383 28.4023L131.16 25.1689H133.402ZM133.252 30.3027H136.355V31.875H133.252V30.3027ZM142.05 29.8311C142.524 29.9313 142.891 30.0977 143.15 30.3301C143.602 30.7311 143.827 31.2917 143.827 32.0117C143.827 32.6315 143.665 33.1579 143.342 33.5908C143.036 33.9873 142.629 34.2493 142.118 34.377C141.79 34.459 141.341 34.5 140.771 34.5H137.333V25.1689H140.348C141.46 25.1689 142.25 25.349 142.72 25.709C143.321 26.1602 143.622 26.8118 143.622 27.6641C143.622 28.3203 143.424 28.8558 143.027 29.2705C142.804 29.5029 142.478 29.6898 142.05 29.8311ZM139.917 26.625H139.247V29.127H140.013C140.614 29.127 141.045 29.0176 141.305 28.7988C141.564 28.5801 141.694 28.2679 141.694 27.8623C141.694 27.5205 141.599 27.2425 141.407 27.0283C141.175 26.7594 140.678 26.625 139.917 26.625ZM140.074 30.5557H139.247V33.0918H140.184C140.617 33.0918 140.924 33.0622 141.106 33.0029C141.631 32.8343 141.893 32.4492 141.893 31.8477C141.893 31.3464 141.715 30.9886 141.359 30.7744C141.104 30.6286 140.676 30.5557 140.074 30.5557ZM151.087 34.5L150.567 32.8867H146.972L146.418 34.5H144.388L147.614 25.1689H150.007L153.192 34.5H151.087ZM147.464 31.3145H150.062L148.77 27.4521L147.464 31.3145ZM160.657 31.9502L161.819 33.2695C161.359 33.7025 160.922 34.0192 160.507 34.2197C159.851 34.5296 159.131 34.6846 158.347 34.6846C156.957 34.6846 155.842 34.2174 155.004 33.2832C154.544 32.7728 154.204 32.1667 153.985 31.4648C153.826 30.9316 153.746 30.3939 153.746 29.8516C153.746 28.9264 153.96 28.0719 154.389 27.2881C154.817 26.4951 155.414 25.8981 156.18 25.4971C156.827 25.1598 157.561 24.9912 158.381 24.9912C159.219 24.9912 159.976 25.1644 160.65 25.5107C161.033 25.7067 161.452 26.0257 161.908 26.4678L160.657 27.7324C159.951 27.0853 159.222 26.7617 158.47 26.7617C157.618 26.7617 156.929 27.0693 156.405 27.6846C155.927 28.2451 155.688 28.9538 155.688 29.8105C155.688 30.444 155.836 31.0228 156.132 31.5469C156.36 31.957 156.697 32.2897 157.144 32.5449C157.572 32.791 158.048 32.9141 158.572 32.9141C159.411 32.9141 160.106 32.5928 160.657 31.9502ZM167.63 34.5L165.005 30.3438V34.5H163.091V25.1689H165.005V29.2227L167.657 25.1689H169.872L166.851 29.667L169.872 34.5H167.63ZM179.641 30.8291V29.2637H184.31C184.314 29.3776 184.316 29.5462 184.316 29.7695C184.316 31.1641 183.863 32.3171 182.956 33.2285C182.004 34.1947 180.857 34.6777 179.518 34.6777C178.67 34.6777 177.884 34.4795 177.159 34.083C176.407 33.682 175.819 33.1237 175.396 32.4082C174.944 31.6562 174.719 30.8018 174.719 29.8447C174.719 28.4548 175.181 27.2904 176.106 26.3516C177 25.4447 178.13 24.9912 179.497 24.9912C180.454 24.9912 181.34 25.2487 182.156 25.7637C182.58 26.0371 182.956 26.3766 183.284 26.7822L181.835 27.917C181.58 27.6071 181.343 27.3792 181.124 27.2334C180.659 26.9189 180.131 26.7617 179.538 26.7617C178.9 26.7617 178.337 26.944 177.85 27.3086C177.439 27.6139 177.125 28.0355 176.906 28.5732C176.742 28.9834 176.66 29.4118 176.66 29.8584C176.66 30.82 176.997 31.6016 177.672 32.2031C178.228 32.6953 178.868 32.9414 179.593 32.9414C180.158 32.9414 180.677 32.7819 181.151 32.4629C181.575 32.1849 181.883 31.8112 182.074 31.3418C182.12 31.2233 182.174 31.0524 182.238 30.8291H179.641ZM185.567 25.1689H187.481V30.6377C187.481 31.4398 187.62 32.0072 187.898 32.3398C188.213 32.7181 188.65 32.9072 189.211 32.9072C189.607 32.9072 189.961 32.7933 190.271 32.5654C190.576 32.3376 190.772 32.0208 190.858 31.6152C190.909 31.3783 190.934 31.0501 190.934 30.6309V25.1689H192.861V30.5693C192.861 31.499 192.727 32.2464 192.458 32.8115C192.148 33.4632 191.679 33.9486 191.05 34.2676C190.507 34.541 189.901 34.6777 189.231 34.6777C188.434 34.6777 187.725 34.4863 187.105 34.1035C186.458 33.7025 186.021 33.1556 185.793 32.4629C185.643 31.9889 185.567 31.3577 185.567 30.5693V25.1689ZM200.401 34.5L199.882 32.8867H196.286L195.732 34.5H193.702L196.929 25.1689H199.321L202.507 34.5H200.401ZM196.778 31.3145H199.376L198.084 27.4521L196.778 31.3145ZM207.989 34.5L205.433 30.7881V34.5H203.519V25.1689H206.39C207.561 25.1689 208.443 25.415 209.035 25.9072C209.268 26.0895 209.452 26.3128 209.589 26.5771C209.835 27.0374 209.958 27.5456 209.958 28.1016C209.958 28.9902 209.675 29.6966 209.11 30.2207C208.759 30.5443 208.304 30.7767 207.743 30.918L210.313 34.5H207.989ZM205.433 26.7549V29.667H206.308C206.804 29.667 207.199 29.5622 207.49 29.3525C207.841 29.0928 208.017 28.71 208.017 28.2041C208.017 27.7803 207.889 27.4362 207.634 27.1719C207.369 26.8939 206.98 26.7549 206.465 26.7549H205.433ZM217.437 34.5L216.917 32.8867H213.321L212.768 34.5H210.737L213.964 25.1689H216.356L219.542 34.5H217.437ZM213.813 31.3145H216.411L215.119 27.4521L213.813 31.3145ZM226.398 34.5L222.468 28.6006V34.5H220.554V25.1689H222.434L226.351 30.9932V25.1689H228.265V34.5H226.398ZM235.647 26.7344H233.426V34.5H231.512V26.7344H229.29V25.1689H235.647V26.7344ZM241.54 26.7344H238.266V29.0312H241.54V30.5967H238.266V32.9346H241.54V34.5H236.352V25.1689H241.54V26.7344ZM248.034 26.7344H244.76V29.0312H248.034V30.5967H244.76V32.9346H248.034V34.5H242.846V25.1689H248.034V26.7344Z" fill="#282828"/>
<rect x="326" y="16" width="30" height="30" rx="15" fill="#282828"/>
<rect x="326" y="16" width="30" height="30" rx="15" stroke="#626262"/>
<path d="M333 31H349" stroke="white" stroke-width="2" stroke-linecap="round" stroke-linejoin="round"/>
<path d="M17.12 79V69.2H18.1V79H17.12ZM23.7066 69.032V69.928C23.0252 69.872 22.5166 69.9887 22.1806 70.278C21.8539 70.5673 21.6906 71.048 21.6906 71.72V72H23.7066V72.896H21.6906V79H20.7666V72.896H19.5766V72H20.7666V71.72C20.7666 70.796 21.0186 70.1007 21.5226 69.634C22.0359 69.1673 22.7639 68.9667 23.7066 69.032ZM30.9629 77.866L33.2309 72H34.2109L31.2149 79.644C30.9349 80.3533 30.5429 80.8993 30.0389 81.282C29.5443 81.674 28.9936 81.8467 28.3869 81.8V80.932C29.2269 81.0347 29.8663 80.5493 30.3049 79.476L30.4869 79.042L27.3509 72H28.3309L30.9629 77.866ZM40.9202 78.118C40.2016 78.818 39.3336 79.168 38.3162 79.168C37.2802 79.168 36.4076 78.818 35.6982 78.118C34.9889 77.4087 34.6342 76.536 34.6342 75.5C34.6342 74.464 34.9889 73.596 35.6982 72.896C36.4076 72.1867 37.2802 71.832 38.3162 71.832C39.3429 71.832 40.2109 72.1867 40.9202 72.896C41.6389 73.596 41.9982 74.464 41.9982 75.5C41.9982 76.5267 41.6389 77.3993 40.9202 78.118ZM36.3562 77.474C36.8882 78.006 37.5416 78.272 38.3162 78.272C39.0909 78.272 39.7442 78.006 40.2762 77.474C40.8082 76.9233 41.0742 76.2653 41.0742 75.5C41.0742 74.7253 40.8082 74.072 40.2762 73.54C39.7442 72.9987 39.0909 72.728 38.3162 72.728C37.5416 72.728 36.8882 72.9987 36.3562 73.54C35.8242 74.072 35.5582 74.7253 35.5582 75.5C35.5582 76.2653 35.8242 76.9233 36.3562 77.474ZM48.4725 75.668V72H49.3965V79H48.4725V77.908C47.9498 78.748 47.1658 79.168 46.1205 79.168C45.2805 79.168 44.6131 78.9113 44.1185 78.398C43.6238 77.8753 43.3765 77.1753 43.3765 76.298V72H44.3005V76.298C44.3005 76.9233 44.4638 77.4087 44.7905 77.754C45.1265 78.0993 45.5978 78.272 46.2045 78.272C46.9045 78.272 47.4551 78.0527 47.8565 77.614C48.2671 77.1753 48.4725 76.5267 48.4725 75.668ZM51.9111 72H51.2111L51.0711 69.2H52.0511L51.9111 72ZM54.654 72V73.162C55.0833 72.3127 55.8207 71.888 56.866 71.888V72.784C56.194 72.784 55.6573 72.98 55.256 73.372C54.8547 73.7547 54.654 74.3333 54.654 75.108V79H53.73V72H54.654ZM60.9425 71.832C61.9878 71.832 62.8232 72.2007 63.4485 72.938C64.0925 73.666 64.4145 74.5293 64.4145 75.528C64.4145 75.5747 64.4052 75.7193 64.3865 75.962H58.2405C58.3338 76.662 58.6325 77.222 59.1365 77.642C59.6405 78.062 60.2705 78.272 61.0265 78.272C62.0905 78.272 62.8418 77.8753 63.2805 77.082L64.0925 77.558C63.7845 78.062 63.3598 78.4587 62.8185 78.748C62.2865 79.028 61.6845 79.168 61.0125 79.168C59.9112 79.168 59.0152 78.8227 58.3245 78.132C57.6338 77.4413 57.2885 76.564 57.2885 75.5C57.2885 74.4453 57.6292 73.5727 58.3105 72.882C58.9918 72.182 59.8692 71.832 60.9425 71.832ZM60.9425 72.728C60.2145 72.728 59.6032 72.9427 59.1085 73.372C58.6232 73.8013 58.3338 74.366 58.2405 75.066H63.4625C63.3598 74.3193 63.0752 73.7453 62.6085 73.344C62.1232 72.9333 61.5678 72.728 60.9425 72.728ZM72.6603 71.832C73.5003 71.832 74.1676 72.0933 74.6623 72.616C75.157 73.1293 75.4043 73.8247 75.4043 74.702V79H74.4803V74.702C74.4803 74.0767 74.3123 73.5913 73.9763 73.246C73.6496 72.9007 73.183 72.728 72.5763 72.728C71.8763 72.728 71.321 72.9473 70.9103 73.386C70.509 73.8247 70.3083 74.4733 70.3083 75.332V79H69.3843V72H70.3083V73.092C70.831 72.252 71.615 71.832 72.6603 71.832ZM83.0569 78.118C82.3383 78.818 81.4703 79.168 80.4529 79.168C79.4169 79.168 78.5443 78.818 77.8349 78.118C77.1256 77.4087 76.7709 76.536 76.7709 75.5C76.7709 74.464 77.1256 73.596 77.8349 72.896C78.5443 72.1867 79.4169 71.832 80.4529 71.832C81.4796 71.832 82.3476 72.1867 83.0569 72.896C83.7756 73.596 84.1349 74.464 84.1349 75.5C84.1349 76.5267 83.7756 77.3993 83.0569 78.118ZM78.4929 77.474C79.0249 78.006 79.6783 78.272 80.4529 78.272C81.2276 78.272 81.8809 78.006 82.4129 77.474C82.9449 76.9233 83.2109 76.2653 83.2109 75.5C83.2109 74.7253 82.9449 74.072 82.4129 73.54C81.8809 72.9987 81.2276 72.728 80.4529 72.728C79.6783 72.728 79.0249 72.9987 78.4929 73.54C77.9609 74.072 77.6949 74.7253 77.6949 75.5C77.6949 76.2653 77.9609 76.9233 78.4929 77.474ZM89.2545 72V72.896H87.2385V77.138C87.2385 77.5207 87.3131 77.796 87.4625 77.964C87.6118 78.1227 87.8358 78.2067 88.1345 78.216C88.4331 78.216 88.8065 78.2067 89.2545 78.188V79C88.2558 79.1493 87.5138 79.0793 87.0285 78.79C86.5525 78.4913 86.3145 77.9407 86.3145 77.138V72.896H84.8445V72H86.3145V70.32L87.2385 70.04V72H89.2545ZM95.0225 73.834C95.0225 74.3753 95.5031 74.772 96.4645 75.024C96.7351 75.0893 96.9125 75.136 96.9965 75.164C97.0805 75.1827 97.2438 75.234 97.4865 75.318C97.7385 75.3927 97.9111 75.458 98.0045 75.514C98.1071 75.57 98.2471 75.6587 98.4245 75.78C98.6018 75.892 98.7278 76.0087 98.8025 76.13C98.8771 76.242 98.9471 76.3913 99.0125 76.578C99.0778 76.7553 99.1105 76.9467 99.1105 77.152C99.1105 77.7493 98.8725 78.2347 98.3965 78.608C97.9391 78.9813 97.3325 79.168 96.5765 79.168C95.9231 79.168 95.3585 79.0233 94.8825 78.734C94.4065 78.4353 94.0705 78.0433 93.8745 77.558L94.6585 77.096C94.7891 77.46 95.0225 77.7493 95.3585 77.964C95.7038 78.1693 96.1098 78.272 96.5765 78.272C97.0525 78.272 97.4398 78.1787 97.7385 77.992C98.0371 77.8053 98.1865 77.5253 98.1865 77.152C98.1865 76.6107 97.7058 76.214 96.7445 75.962C96.4738 75.8967 96.2965 75.8547 96.2125 75.836C96.1285 75.808 95.9605 75.7567 95.7085 75.682C95.4658 75.598 95.2931 75.528 95.1905 75.472C95.0971 75.416 94.9618 75.332 94.7845 75.22C94.6071 75.0987 94.4811 74.982 94.4065 74.87C94.3318 74.7487 94.2618 74.5993 94.1965 74.422C94.1311 74.2353 94.0985 74.0393 94.0985 73.834C94.0985 73.2647 94.3225 72.7887 94.7705 72.406C95.2371 72.0233 95.8111 71.832 96.4925 71.832C97.0525 71.832 97.5471 71.958 97.9765 72.21C98.4151 72.462 98.7371 72.812 98.9425 73.26L98.1725 73.708C97.9111 73.0547 97.3511 72.728 96.4925 72.728C96.0725 72.728 95.7225 72.826 95.4425 73.022C95.1625 73.218 95.0225 73.4887 95.0225 73.834ZM106.467 73.372V72H107.391V79H106.467V77.628C105.823 78.6547 104.88 79.168 103.639 79.168C102.64 79.168 101.786 78.8133 101.077 78.104C100.377 77.3947 100.027 76.5267 100.027 75.5C100.027 74.4733 100.377 73.6053 101.077 72.896C101.786 72.1867 102.64 71.832 103.639 71.832C104.88 71.832 105.823 72.3453 106.467 73.372ZM101.749 77.474C102.281 78.006 102.934 78.272 103.709 78.272C104.483 78.272 105.137 78.006 105.669 77.474C106.201 76.9233 106.467 76.2653 106.467 75.5C106.467 74.7253 106.201 74.072 105.669 73.54C105.137 72.9987 104.483 72.728 103.709 72.728C102.934 72.728 102.281 72.9987 101.749 73.54C101.217 74.072 100.951 74.7253 100.951 75.5C100.951 76.2653 101.217 76.9233 101.749 77.474ZM113.057 72V72.896H111.041V77.138C111.041 77.5207 111.116 77.796 111.265 77.964C111.415 78.1227 111.639 78.2067 111.937 78.216C112.236 78.216 112.609 78.2067 113.057 78.188V79C112.059 79.1493 111.317 79.0793 110.831 78.79C110.355 78.4913 110.117 77.9407 110.117 77.138V72.896H108.647V72H110.117V70.32L111.041 70.04V72H113.057ZM115.731 69.844C115.731 70.0307 115.666 70.1893 115.535 70.32C115.405 70.4507 115.246 70.516 115.059 70.516C114.873 70.516 114.714 70.4507 114.583 70.32C114.453 70.1893 114.387 70.0307 114.387 69.844C114.387 69.6573 114.453 69.4987 114.583 69.368C114.714 69.2373 114.873 69.172 115.059 69.172C115.246 69.172 115.405 69.2373 115.535 69.368C115.666 69.4987 115.731 69.6573 115.731 69.844ZM115.521 79H114.597V72H115.521V79ZM118.21 73.834C118.21 74.3753 118.691 74.772 119.652 75.024C119.923 75.0893 120.1 75.136 120.184 75.164C120.268 75.1827 120.431 75.234 120.674 75.318C120.926 75.3927 121.099 75.458 121.192 75.514C121.295 75.57 121.435 75.6587 121.612 75.78C121.789 75.892 121.915 76.0087 121.99 76.13C122.065 76.242 122.135 76.3913 122.2 76.578C122.265 76.7553 122.298 76.9467 122.298 77.152C122.298 77.7493 122.06 78.2347 121.584 78.608C121.127 78.9813 120.52 79.168 119.764 79.168C119.111 79.168 118.546 79.0233 118.07 78.734C117.594 78.4353 117.258 78.0433 117.062 77.558L117.846 77.096C117.977 77.46 118.21 77.7493 118.546 77.964C118.891 78.1693 119.297 78.272 119.764 78.272C120.24 78.272 120.627 78.1787 120.926 77.992C121.225 77.8053 121.374 77.5253 121.374 77.152C121.374 76.6107 120.893 76.214 119.932 75.962C119.661 75.8967 119.484 75.8547 119.4 75.836C119.316 75.808 119.148 75.7567 118.896 75.682C118.653 75.598 118.481 75.528 118.378 75.472C118.285 75.416 118.149 75.332 117.972 75.22C117.795 75.0987 117.669 74.982 117.594 74.87C117.519 74.7487 117.449 74.5993 117.384 74.422C117.319 74.2353 117.286 74.0393 117.286 73.834C117.286 73.2647 117.51 72.7887 117.958 72.406C118.425 72.0233 118.999 71.832 119.68 71.832C120.24 71.832 120.735 71.958 121.164 72.21C121.603 72.462 121.925 72.812 122.13 73.26L121.36 73.708C121.099 73.0547 120.539 72.728 119.68 72.728C119.26 72.728 118.91 72.826 118.63 73.022C118.35 73.218 118.21 73.4887 118.21 73.834ZM125.187 72H128.967V79H128.043V72.896H125.187V79H124.263V72.896H123.073V72H124.263V71.72C124.263 69.928 125.243 69.032 127.203 69.032C127.595 69.032 128.043 69.088 128.547 69.2V70.04C128.08 69.9653 127.632 69.928 127.203 69.928C126.493 69.928 125.98 70.068 125.663 70.348C125.345 70.6187 125.187 71.076 125.187 71.72V72ZM134.155 71.832C135.201 71.832 136.036 72.2007 136.661 72.938C137.305 73.666 137.627 74.5293 137.627 75.528C137.627 75.5747 137.618 75.7193 137.599 75.962H131.453C131.547 76.662 131.845 77.222 132.349 77.642C132.853 78.062 133.483 78.272 134.239 78.272C135.303 78.272 136.055 77.8753 136.493 77.082L137.305 77.558C136.997 78.062 136.573 78.4587 136.031 78.748C135.499 79.028 134.897 79.168 134.225 79.168C133.124 79.168 132.228 78.8227 131.537 78.132C130.847 77.4413 130.501 76.564 130.501 75.5C130.501 74.4453 130.842 73.5727 131.523 72.882C132.205 72.182 133.082 71.832 134.155 71.832ZM134.155 72.728C133.427 72.728 132.816 72.9427 132.321 73.372C131.836 73.8013 131.547 74.366 131.453 75.066H136.675C136.573 74.3193 136.288 73.7453 135.821 73.344C135.336 72.9333 134.781 72.728 134.155 72.728ZM145.117 73.372V69.2H146.041V79H145.117V77.628C144.473 78.6547 143.531 79.168 142.289 79.168C141.291 79.168 140.437 78.8133 139.727 78.104C139.027 77.3947 138.677 76.5267 138.677 75.5C138.677 74.4733 139.027 73.6053 139.727 72.896C140.437 72.1867 141.291 71.832 142.289 71.832C143.531 71.832 144.473 72.3453 145.117 73.372ZM140.399 77.474C140.931 78.006 141.585 78.272 142.359 78.272C143.134 78.272 143.787 78.006 144.319 77.474C144.851 76.9233 145.117 76.2653 145.117 75.5C145.117 74.7253 144.851 74.072 144.319 73.54C143.787 72.9987 143.134 72.728 142.359 72.728C141.585 72.728 140.931 72.9987 140.399 73.54C139.867 74.072 139.601 74.7253 139.601 75.5C139.601 76.2653 139.867 76.9233 140.399 77.474ZM158.204 77.81L159.926 72H160.878L158.722 79H157.714L155.908 73.358L154.102 79H153.094L150.938 72H151.89L153.612 77.81L155.446 72H156.37L158.204 77.81ZM163.405 69.844C163.405 70.0307 163.34 70.1893 163.209 70.32C163.078 70.4507 162.92 70.516 162.733 70.516C162.546 70.516 162.388 70.4507 162.257 70.32C162.126 70.1893 162.061 70.0307 162.061 69.844C162.061 69.6573 162.126 69.4987 162.257 69.368C162.388 69.2373 162.546 69.172 162.733 69.172C162.92 69.172 163.078 69.2373 163.209 69.368C163.34 69.4987 163.405 69.6573 163.405 69.844ZM163.195 79H162.271V72H163.195V79ZM168.866 72V72.896H166.85V77.138C166.85 77.5207 166.924 77.796 167.074 77.964C167.223 78.1227 167.447 78.2067 167.746 78.216C168.044 78.216 168.418 78.2067 168.866 78.188V79C167.867 79.1493 167.125 79.0793 166.64 78.79C166.164 78.4913 165.926 77.9407 165.926 77.138V72.896H164.456V72H165.926V70.32L166.85 70.04V72H168.866ZM173.682 71.832C174.522 71.832 175.189 72.0933 175.684 72.616C176.178 73.1293 176.426 73.8247 176.426 74.702V79H175.502V74.702C175.502 74.0767 175.334 73.5913 174.998 73.246C174.671 72.9007 174.204 72.728 173.598 72.728C172.898 72.728 172.342 72.9473 171.932 73.386C171.53 73.8247 171.33 74.4733 171.33 75.332V79H170.406V69.2H171.33V73.092C171.852 72.252 172.636 71.832 173.682 71.832ZM184.484 77.866L186.752 72H187.732L184.736 79.644C184.456 80.3533 184.064 80.8993 183.56 81.282C183.066 81.674 182.515 81.8467 181.908 81.8V80.932C182.748 81.0347 183.388 80.5493 183.826 79.476L184.008 79.042L180.872 72H181.852L184.484 77.866ZM194.442 78.118C193.723 78.818 192.855 79.168 191.838 79.168C190.802 79.168 189.929 78.818 189.22 78.118C188.51 77.4087 188.156 76.536 188.156 75.5C188.156 74.464 188.51 73.596 189.22 72.896C189.929 72.1867 190.802 71.832 191.838 71.832C192.864 71.832 193.732 72.1867 194.442 72.896C195.16 73.596 195.52 74.464 195.52 75.5C195.52 76.5267 195.16 77.3993 194.442 78.118ZM189.878 77.474C190.41 78.006 191.063 78.272 191.838 78.272C192.612 78.272 193.266 78.006 193.798 77.474C194.33 76.9233 194.596 76.2653 194.596 75.5C194.596 74.7253 194.33 74.072 193.798 73.54C193.266 72.9987 192.612 72.728 191.838 72.728C191.063 72.728 190.41 72.9987 189.878 73.54C189.346 74.072 189.08 74.7253 189.08 75.5C189.08 76.2653 189.346 76.9233 189.878 77.474ZM201.994 75.668V72H202.918V79H201.994V77.908C201.471 78.748 200.687 79.168 199.642 79.168C198.802 79.168 198.135 78.9113 197.64 78.398C197.145 77.8753 196.898 77.1753 196.898 76.298V72H197.822V76.298C197.822 76.9233 197.985 77.4087 198.312 77.754C198.648 78.0993 199.119 78.272 199.726 78.272C200.426 78.272 200.977 78.0527 201.378 77.614C201.789 77.1753 201.994 76.5267 201.994 75.668ZM205.797 72V73.162C206.226 72.3127 206.963 71.888 208.009 71.888V72.784C207.337 72.784 206.8 72.98 206.399 73.372C205.997 73.7547 205.797 74.3333 205.797 75.108V79H204.873V72H205.797ZM217.493 79.168C216 79.168 214.772 78.678 213.811 77.698C212.84 76.7087 212.355 75.5093 212.355 74.1C212.355 72.6907 212.84 71.4913 213.811 70.502C214.772 69.522 216 69.032 217.493 69.032C218.389 69.032 219.215 69.2513 219.971 69.69C220.727 70.1193 221.315 70.7027 221.735 71.44L220.867 71.944C220.559 71.3467 220.102 70.8707 219.495 70.516C218.888 70.1613 218.221 69.984 217.493 69.984C216.261 69.984 215.262 70.3807 214.497 71.174C213.722 71.9767 213.335 72.952 213.335 74.1C213.335 75.248 213.722 76.2233 214.497 77.026C215.262 77.8193 216.261 78.216 217.493 78.216C218.221 78.216 218.888 78.0387 219.495 77.684C220.102 77.3293 220.559 76.8533 220.867 76.256L221.735 76.746C221.334 77.4833 220.75 78.0713 219.985 78.51C219.22 78.9487 218.389 79.168 217.493 79.168ZM229.158 73.372V72H230.082V79H229.158V77.628C228.514 78.6547 227.572 79.168 226.33 79.168C225.332 79.168 224.478 78.8133 223.768 78.104C223.068 77.3947 222.718 76.5267 222.718 75.5C222.718 74.4733 223.068 73.6053 223.768 72.896C224.478 72.1867 225.332 71.832 226.33 71.832C227.572 71.832 228.514 72.3453 229.158 73.372ZM224.44 77.474C224.972 78.006 225.626 78.272 226.4 78.272C227.175 78.272 227.828 78.006 228.36 77.474C228.892 76.9233 229.158 76.2653 229.158 75.5C229.158 74.7253 228.892 74.072 228.36 73.54C227.828 72.9987 227.175 72.728 226.4 72.728C225.626 72.728 224.972 72.9987 224.44 73.54C223.908 74.072 223.642 74.7253 223.642 75.5C223.642 76.2653 223.908 76.9233 224.44 77.474ZM232.767 73.834C232.767 74.3753 233.247 74.772 234.209 75.024C234.479 75.0893 234.657 75.136 234.741 75.164C234.825 75.1827 234.988 75.234 235.231 75.318C235.483 75.3927 235.655 75.458 235.749 75.514C235.851 75.57 235.991 75.6587 236.169 75.78C236.346 75.892 236.472 76.0087 236.547 76.13C236.621 76.242 236.691 76.3913 236.757 76.578C236.822 76.7553 236.855 76.9467 236.855 77.152C236.855 77.7493 236.617 78.2347 236.141 78.608C235.683 78.9813 235.077 79.168 234.321 79.168C233.667 79.168 233.103 79.0233 232.627 78.734C232.151 78.4353 231.815 78.0433 231.619 77.558L232.403 77.096C232.533 77.46 232.767 77.7493 233.103 77.964C233.448 78.1693 233.854 78.272 234.321 78.272C234.797 78.272 235.184 78.1787 235.483 77.992C235.781 77.8053 235.931 77.5253 235.931 77.152C235.931 76.6107 235.45 76.214 234.489 75.962C234.218 75.8967 234.041 75.8547 233.957 75.836C233.873 75.808 233.705 75.7567 233.453 75.682C233.21 75.598 233.037 75.528 232.935 75.472C232.841 75.416 232.706 75.332 232.529 75.22C232.351 75.0987 232.225 74.982 232.151 74.87C232.076 74.7487 232.006 74.5993 231.941 74.422C231.875 74.2353 231.843 74.0393 231.843 73.834C231.843 73.2647 232.067 72.7887 232.515 72.406C232.981 72.0233 233.555 71.832 234.237 71.832C234.797 71.832 235.291 71.958 235.721 72.21C236.159 72.462 236.481 72.812 236.687 73.26L235.917 73.708C235.655 73.0547 235.095 72.728 234.237 72.728C233.817 72.728 233.467 72.826 233.187 73.022C232.907 73.218 232.767 73.4887 232.767 73.834ZM241.425 71.832C242.47 71.832 243.306 72.2007 243.931 72.938C244.575 73.666 244.897 74.5293 244.897 75.528C244.897 75.5747 244.888 75.7193 244.869 75.962H238.723C238.816 76.662 239.115 77.222 239.619 77.642C240.123 78.062 240.753 78.272 241.509 78.272C242.573 78.272 243.324 77.8753 243.763 77.082L244.575 77.558C244.267 78.062 243.842 78.4587 243.301 78.748C242.769 79.028 242.167 79.168 241.495 79.168C240.394 79.168 239.498 78.8227 238.807 78.132C238.116 77.4413 237.771 76.564 237.771 75.5C237.771 74.4453 238.112 73.5727 238.793 72.882C239.474 72.182 240.352 71.832 241.425 71.832ZM241.425 72.728C240.697 72.728 240.086 72.9427 239.591 73.372C239.106 73.8013 238.816 74.366 238.723 75.066H243.945C243.842 74.3193 243.558 73.7453 243.091 73.344C242.606 72.9333 242.05 72.728 241.425 72.728ZM246.226 77.81H247.346L246.506 80.96H245.666L246.226 77.81ZM259.375 77.81L261.097 72H262.049L259.893 79H258.885L257.079 73.358L255.273 79H254.265L252.109 72H253.061L254.783 77.81L256.617 72H257.541L259.375 77.81ZM266.403 71.832C267.449 71.832 268.284 72.2007 268.909 72.938C269.553 73.666 269.875 74.5293 269.875 75.528C269.875 75.5747 269.866 75.7193 269.847 75.962H263.701C263.795 76.662 264.093 77.222 264.597 77.642C265.101 78.062 265.731 78.272 266.487 78.272C267.551 78.272 268.303 77.8753 268.741 77.082L269.553 77.558C269.245 78.062 268.821 78.4587 268.279 78.748C267.747 79.028 267.145 79.168 266.473 79.168C265.372 79.168 264.476 78.8227 263.785 78.132C263.095 77.4413 262.749 76.564 262.749 75.5C262.749 74.4453 263.09 73.5727 263.771 72.882C264.453 72.182 265.33 71.832 266.403 71.832ZM266.403 72.728C265.675 72.728 265.064 72.9427 264.569 73.372C264.084 73.8013 263.795 74.366 263.701 75.066H268.923C268.821 74.3193 268.536 73.7453 268.069 73.344C267.584 72.9333 267.029 72.728 266.403 72.728ZM280.711 78.118C279.993 78.818 279.125 79.168 278.107 79.168C277.071 79.168 276.199 78.818 275.489 78.118C274.78 77.4087 274.425 76.536 274.425 75.5C274.425 74.464 274.78 73.596 275.489 72.896C276.199 72.1867 277.071 71.832 278.107 71.832C279.134 71.832 280.002 72.1867 280.711 72.896C281.43 73.596 281.789 74.464 281.789 75.5C281.789 76.5267 281.43 77.3993 280.711 78.118ZM276.147 77.474C276.679 78.006 277.333 78.272 278.107 78.272C278.882 78.272 279.535 78.006 280.067 77.474C280.599 76.9233 280.865 76.2653 280.865 75.5C280.865 74.7253 280.599 74.072 280.067 73.54C279.535 72.9987 278.882 72.728 278.107 72.728C277.333 72.728 276.679 72.9987 276.147 73.54C275.615 74.072 275.349 74.7253 275.349 75.5C275.349 76.2653 275.615 76.9233 276.147 77.474ZM290.342 68.892V69.788C289.661 69.732 289.152 69.8487 288.816 70.138C288.489 70.4273 288.326 70.908 288.326 71.58V72H290.342V72.896H288.326V79H287.402V72.896H284.546V79H283.622V72.896H282.432V72H283.622V71.72C283.622 70.796 283.874 70.1007 284.378 69.634C284.891 69.1673 285.619 68.9667 286.562 69.032V69.928C285.881 69.872 285.372 69.9887 285.036 70.278C284.709 70.5673 284.546 71.048 284.546 71.72V72H287.402V71.58C287.402 70.656 287.654 69.9607 288.158 69.494C288.671 69.0273 289.399 68.8267 290.342 68.892ZM294.13 71.832C295.175 71.832 296.011 72.2007 296.636 72.938C297.28 73.666 297.602 74.5293 297.602 75.528C297.602 75.5747 297.593 75.7193 297.574 75.962H291.428C291.521 76.662 291.82 77.222 292.324 77.642C292.828 78.062 293.458 78.272 294.214 78.272C295.278 78.272 296.029 77.8753 296.468 77.082L297.28 77.558C296.972 78.062 296.547 78.4587 296.006 78.748C295.474 79.028 294.872 79.168 294.2 79.168C293.099 79.168 292.203 78.8227 291.512 78.132C290.821 77.4413 290.476 76.564 290.476 75.5C290.476 74.4453 290.817 73.5727 291.498 72.882C292.179 72.182 293.057 71.832 294.13 71.832ZM294.13 72.728C293.402 72.728 292.791 72.9427 292.296 73.372C291.811 73.8013 291.521 74.366 291.428 75.066H296.65C296.547 74.3193 296.263 73.7453 295.796 73.344C295.311 72.9333 294.755 72.728 294.13 72.728ZM299.996 72V73.162C300.425 72.3127 301.162 71.888 302.208 71.888V72.784C301.536 72.784 300.999 72.98 300.598 73.372C300.196 73.7547 299.996 74.3333 299.996 75.108V79H299.072V72H299.996ZM312.994 73.372V72H313.918V79H312.994V77.628C312.35 78.6547 311.407 79.168 310.166 79.168C309.167 79.168 308.313 78.8133 307.604 78.104C306.904 77.3947 306.554 76.5267 306.554 75.5C306.554 74.4733 306.904 73.6053 307.604 72.896C308.313 72.1867 309.167 71.832 310.166 71.832C311.407 71.832 312.35 72.3453 312.994 73.372ZM308.276 77.474C308.808 78.006 309.461 78.272 310.236 78.272C311.011 78.272 311.664 78.006 312.196 77.474C312.728 76.9233 312.994 76.2653 312.994 75.5C312.994 74.7253 312.728 74.072 312.196 73.54C311.664 72.9987 311.011 72.728 310.236 72.728C309.461 72.728 308.808 72.9987 308.276 73.54C307.744 74.072 307.478 74.7253 307.478 75.5C307.478 76.2653 307.744 76.9233 308.276 77.474ZM318.605 70.096L321.195 69.2H322.035V79H321.055V70.278L318.857 70.936L318.605 70.096ZM330.292 77.796C329.648 78.7107 328.738 79.168 327.562 79.168C326.396 79.168 325.481 78.7107 324.818 77.796C324.174 76.872 323.852 75.64 323.852 74.1C323.852 72.5507 324.174 71.3233 324.818 70.418C325.481 69.494 326.396 69.032 327.562 69.032C328.738 69.032 329.648 69.494 330.292 70.418C330.946 71.3233 331.272 72.5507 331.272 74.1C331.272 75.6493 330.946 76.8813 330.292 77.796ZM325.546 77.138C326.041 77.8567 326.713 78.216 327.562 78.216C328.421 78.216 329.088 77.8567 329.564 77.138C330.05 76.4287 330.292 75.416 330.292 74.1C330.292 72.784 330.05 71.7713 329.564 71.062C329.088 70.3433 328.421 69.984 327.562 69.984C326.713 69.984 326.041 70.3433 325.546 71.062C325.07 71.7807 324.832 72.7933 324.832 74.1C324.832 75.4067 325.07 76.4193 325.546 77.138ZM339.111 77.796C338.467 78.7107 337.557 79.168 336.381 79.168C335.214 79.168 334.299 78.7107 333.637 77.796C332.993 76.872 332.671 75.64 332.671 74.1C332.671 72.5507 332.993 71.3233 333.637 70.418C334.299 69.494 335.214 69.032 336.381 69.032C337.557 69.032 338.467 69.494 339.111 70.418C339.764 71.3233 340.091 72.5507 340.091 74.1C340.091 75.6493 339.764 76.8813 339.111 77.796ZM334.365 77.138C334.859 77.8567 335.531 78.216 336.381 78.216C337.239 78.216 337.907 77.8567 338.383 77.138C338.868 76.4287 339.111 75.416 339.111 74.1C339.111 72.784 338.868 71.7713 338.383 71.062C337.907 70.3433 337.239 69.984 336.381 69.984C335.531 69.984 334.859 70.3433 334.365 71.062C333.889 71.7807 333.651 72.7933 333.651 74.1C333.651 75.4067 333.889 76.4193 334.365 77.138ZM343.498 73.232C342.882 73.232 342.373 73.0313 341.972 72.63C341.561 72.2193 341.356 71.72 341.356 71.132C341.356 70.5533 341.561 70.0587 341.972 69.648C342.382 69.2373 342.891 69.032 343.498 69.032C344.104 69.032 344.613 69.2373 345.024 69.648C345.434 70.0587 345.64 70.5533 345.64 71.132C345.64 71.7293 345.439 72.2287 345.038 72.63C344.636 73.0313 344.123 73.232 343.498 73.232ZM342.252 71.132C342.252 71.4867 342.368 71.7853 342.602 72.028C342.835 72.2707 343.134 72.392 343.498 72.392C343.862 72.392 344.16 72.2707 344.394 72.028C344.627 71.7853 344.744 71.4867 344.744 71.132C344.744 70.7773 344.627 70.4787 344.394 70.236C344.16 69.9933 343.862 69.872 343.498 69.872C343.134 69.872 342.835 69.9933 342.602 70.236C342.368 70.4787 342.252 70.7773 342.252 71.132ZM342.434 78.006L341.846 77.67L348.412 70.292L349.014 70.628L342.434 78.006ZM348.986 78.566C348.584 78.9673 348.076 79.168 347.46 79.168C346.844 79.168 346.335 78.9673 345.934 78.566C345.523 78.1553 345.318 77.656 345.318 77.068C345.318 76.4893 345.523 75.9947 345.934 75.584C346.344 75.1733 346.853 74.968 347.46 74.968C348.066 74.968 348.575 75.1733 348.986 75.584C349.396 75.9947 349.602 76.4893 349.602 77.068C349.602 77.656 349.396 78.1553 348.986 78.566ZM346.214 77.068C346.214 77.4227 346.33 77.7213 346.564 77.964C346.797 78.2067 347.096 78.328 347.46 78.328C347.824 78.328 348.122 78.2067 348.356 77.964C348.589 77.7213 348.706 77.4227 348.706 77.068C348.706 76.7133 348.589 76.4147 348.356 76.172C348.122 75.9293 347.824 75.808 347.46 75.808C347.096 75.808 346.797 75.9293 346.564 76.172C346.33 76.4147 346.214 76.7133 346.214 77.068ZM24.862 87.2H26.08V97H25.1V88.684L21.67 94.424H21.53L18.1 88.684V97H17.12V87.2H18.338L21.6 92.66L24.862 87.2ZM34.0433 96.118C33.3246 96.818 32.4566 97.168 31.4393 97.168C30.4033 97.168 29.5306 96.818 28.8213 96.118C28.1119 95.4087 27.7573 94.536 27.7573 93.5C27.7573 92.464 28.1119 91.596 28.8213 90.896C29.5306 90.1867 30.4033 89.832 31.4393 89.832C32.4659 89.832 33.3339 90.1867 34.0433 90.896C34.7619 91.596 35.1213 92.464 35.1213 93.5C35.1213 94.5267 34.7619 95.3993 34.0433 96.118ZM29.4793 95.474C30.0113 96.006 30.6646 96.272 31.4393 96.272C32.2139 96.272 32.8673 96.006 33.3993 95.474C33.9313 94.9233 34.1973 94.2653 34.1973 93.5C34.1973 92.7253 33.9313 92.072 33.3993 91.54C32.8673 90.9987 32.2139 90.728 31.4393 90.728C30.6646 90.728 30.0113 90.9987 29.4793 91.54C28.9473 92.072 28.6813 92.7253 28.6813 93.5C28.6813 94.2653 28.9473 94.9233 29.4793 95.474ZM39.9435 89.832C40.7835 89.832 41.4508 90.0933 41.9455 90.616C42.4402 91.1293 42.6875 91.8247 42.6875 92.702V97H41.7635V92.702C41.7635 92.0767 41.5955 91.5913 41.2595 91.246C40.9328 90.9007 40.4662 90.728 39.8595 90.728C39.1595 90.728 38.6042 90.9473 38.1935 91.386C37.7922 91.8247 37.5915 92.4733 37.5915 93.332V97H36.6675V90H37.5915V91.092C38.1142 90.252 38.8982 89.832 39.9435 89.832ZM47.7081 89.832C48.7535 89.832 49.5888 90.2007 50.2141 90.938C50.8581 91.666 51.1801 92.5293 51.1801 93.528C51.1801 93.5747 51.1708 93.7193 51.1521 93.962H45.0061C45.0995 94.662 45.3981 95.222 45.9021 95.642C46.4061 96.062 47.0361 96.272 47.7921 96.272C48.8561 96.272 49.6075 95.8753 50.0461 95.082L50.8581 95.558C50.5501 96.062 50.1255 96.4587 49.5841 96.748C49.0521 97.028 48.4501 97.168 47.7781 97.168C46.6768 97.168 45.7808 96.8227 45.0901 96.132C44.3995 95.4413 44.0541 94.564 44.0541 93.5C44.0541 92.4453 44.3948 91.5727 45.0761 90.882C45.7575 90.182 46.6348 89.832 47.7081 89.832ZM47.7081 90.728C46.9801 90.728 46.3688 90.9427 45.8741 91.372C45.3888 91.8013 45.0995 92.366 45.0061 93.066H50.2281C50.1255 92.3193 49.8408 91.7453 49.3741 91.344C48.8888 90.9333 48.3335 90.728 47.7081 90.728ZM55.1485 95.866L57.4165 90H58.3965L55.4005 97.644C55.1205 98.3533 54.7285 98.8993 54.2245 99.282C53.7298 99.674 53.1792 99.8467 52.5725 99.8V98.932C53.4125 99.0347 54.0518 98.5493 54.4905 97.476L54.6725 97.042L51.5365 90H52.5165L55.1485 95.866ZM68.5852 91.918C69.0705 92.1233 69.4532 92.436 69.7332 92.856C70.0132 93.276 70.1532 93.7473 70.1532 94.27C70.1532 95.026 69.8872 95.67 69.3552 96.202C68.8232 96.734 68.1792 97 67.4232 97H63.1532V87.2H67.1012C67.8199 87.2 68.4405 87.4613 68.9632 87.984C69.4765 88.4973 69.7332 89.1133 69.7332 89.832C69.7332 90.7467 69.3505 91.442 68.5852 91.918ZM67.1012 88.124H64.1332V91.54H67.1012C67.5492 91.54 67.9365 91.3767 68.2632 91.05C68.5899 90.7047 68.7532 90.2987 68.7532 89.832C68.7532 89.3747 68.5899 88.9733 68.2632 88.628C67.9365 88.292 67.5492 88.124 67.1012 88.124ZM64.1332 96.076H67.4232C67.9085 96.076 68.3192 95.9033 68.6552 95.558C69.0005 95.2127 69.1732 94.7833 69.1732 94.27C69.1732 93.766 69.0005 93.3413 68.6552 92.996C68.3192 92.6413 67.9085 92.464 67.4232 92.464H64.1332V96.076ZM77.7148 91.372V90H78.6388V97H77.7148V95.628C77.0708 96.6547 76.1282 97.168 74.8868 97.168C73.8882 97.168 73.0342 96.8133 72.3248 96.104C71.6248 95.3947 71.2748 94.5267 71.2748 93.5C71.2748 92.4733 71.6248 91.6053 72.3248 90.896C73.0342 90.1867 73.8882 89.832 74.8868 89.832C76.1282 89.832 77.0708 90.3453 77.7148 91.372ZM72.9968 95.474C73.5288 96.006 74.1822 96.272 74.9568 96.272C75.7315 96.272 76.3848 96.006 76.9168 95.474C77.4488 94.9233 77.7148 94.2653 77.7148 93.5C77.7148 92.7253 77.4488 92.072 76.9168 91.54C76.3848 90.9987 75.7315 90.728 74.9568 90.728C74.1822 90.728 73.5288 90.9987 72.9968 91.54C72.4648 92.072 72.1988 92.7253 72.1988 93.5C72.1988 94.2653 72.4648 94.9233 72.9968 95.474ZM83.8572 97.168C82.8026 97.168 81.9252 96.818 81.2252 96.118C80.5252 95.3993 80.1752 94.5267 80.1752 93.5C80.1752 92.464 80.5252 91.596 81.2252 90.896C81.9252 90.1867 82.8026 89.832 83.8572 89.832C84.5479 89.832 85.1686 90 85.7192 90.336C86.2699 90.6627 86.6712 91.106 86.9232 91.666L86.1672 92.1C85.9806 91.68 85.6772 91.3487 85.2572 91.106C84.8466 90.854 84.3799 90.728 83.8572 90.728C83.0826 90.728 82.4292 90.9987 81.8972 91.54C81.3652 92.072 81.0992 92.7253 81.0992 93.5C81.0992 94.2653 81.3652 94.9233 81.8972 95.474C82.4292 96.006 83.0826 96.272 83.8572 96.272C84.3706 96.272 84.8326 96.1507 85.2432 95.908C85.6632 95.6653 85.9899 95.3293 86.2232 94.9L86.9932 95.348C86.7039 95.908 86.2792 96.3513 85.7192 96.678C85.1592 97.0047 84.5386 97.168 83.8572 97.168ZM90.2238 93.36L93.9758 97H92.7438L89.2438 93.626V97H88.3198V87.2H89.2438V93.094L92.5758 90H93.8358L90.2238 93.36ZM103.344 92.338H108.244V92.842C108.244 94.0553 107.81 95.082 106.942 95.922C106.064 96.7527 104.902 97.168 103.456 97.168C101.962 97.168 100.735 96.678 99.7738 95.698C98.8031 94.7087 98.3178 93.5093 98.3178 92.1C98.3178 90.6907 98.8031 89.4913 99.7738 88.502C100.735 87.522 101.962 87.032 103.456 87.032C104.352 87.032 105.182 87.2513 105.948 87.69C106.704 88.1287 107.287 88.712 107.698 89.44L106.83 89.944C106.522 89.3467 106.064 88.8707 105.458 88.516C104.851 88.1613 104.184 87.984 103.456 87.984C102.224 87.984 101.225 88.3807 100.46 89.174C99.6851 89.9767 99.2978 90.952 99.2978 92.1C99.2978 93.248 99.6851 94.2233 100.46 95.026C101.225 95.8193 102.224 96.216 103.456 96.216C104.557 96.216 105.439 95.9407 106.102 95.39C106.755 94.83 107.133 94.1207 107.236 93.262H103.344V92.338ZM114.781 93.668V90H115.705V97H114.781V95.908C114.258 96.748 113.474 97.168 112.429 97.168C111.589 97.168 110.922 96.9113 110.427 96.398C109.932 95.8753 109.685 95.1753 109.685 94.298V90H110.609V94.298C110.609 94.9233 110.772 95.4087 111.099 95.754C111.435 96.0993 111.906 96.272 112.513 96.272C113.213 96.272 113.764 96.0527 114.165 95.614C114.576 95.1753 114.781 94.5267 114.781 93.668ZM123.68 91.372V90H124.604V97H123.68V95.628C123.036 96.6547 122.093 97.168 120.852 97.168C119.853 97.168 118.999 96.8133 118.29 96.104C117.59 95.3947 117.24 94.5267 117.24 93.5C117.24 92.4733 117.59 91.6053 118.29 90.896C118.999 90.1867 119.853 89.832 120.852 89.832C122.093 89.832 123.036 90.3453 123.68 91.372ZM118.962 95.474C119.494 96.006 120.147 96.272 120.922 96.272C121.696 96.272 122.35 96.006 122.882 95.474C123.414 94.9233 123.68 94.2653 123.68 93.5C123.68 92.7253 123.414 92.072 122.882 91.54C122.35 90.9987 121.696 90.728 120.922 90.728C120.147 90.728 119.494 90.9987 118.962 91.54C118.43 92.072 118.164 92.7253 118.164 93.5C118.164 94.2653 118.43 94.9233 118.962 95.474ZM127.484 90V91.162C127.913 90.3127 128.651 89.888 129.696 89.888V90.784C129.024 90.784 128.487 90.98 128.086 91.372C127.685 91.7547 127.484 92.3333 127.484 93.108V97H126.56V90H127.484ZM136.559 91.372V90H137.483V97H136.559V95.628C135.915 96.6547 134.972 97.168 133.731 97.168C132.732 97.168 131.878 96.8133 131.169 96.104C130.469 95.3947 130.119 94.5267 130.119 93.5C130.119 92.4733 130.469 91.6053 131.169 90.896C131.878 90.1867 132.732 89.832 133.731 89.832C134.972 89.832 135.915 90.3453 136.559 91.372ZM131.841 95.474C132.373 96.006 133.026 96.272 133.801 96.272C134.575 96.272 135.229 96.006 135.761 95.474C136.293 94.9233 136.559 94.2653 136.559 93.5C136.559 92.7253 136.293 92.072 135.761 91.54C135.229 90.9987 134.575 90.728 133.801 90.728C133.026 90.728 132.373 90.9987 131.841 91.54C131.309 92.072 131.043 92.7253 131.043 93.5C131.043 94.2653 131.309 94.9233 131.841 95.474ZM142.715 89.832C143.555 89.832 144.222 90.0933 144.717 90.616C145.212 91.1293 145.459 91.8247 145.459 92.702V97H144.535V92.702C144.535 92.0767 144.367 91.5913 144.031 91.246C143.704 90.9007 143.238 90.728 142.631 90.728C141.931 90.728 141.376 90.9473 140.965 91.386C140.564 91.8247 140.363 92.4733 140.363 93.332V97H139.439V90H140.363V91.092C140.886 90.252 141.67 89.832 142.715 89.832ZM150.956 90V90.896H148.94V95.138C148.94 95.5207 149.014 95.796 149.164 95.964C149.313 96.1227 149.537 96.2067 149.836 96.216C150.134 96.216 150.508 96.2067 150.956 96.188V97C149.957 97.1493 149.215 97.0793 148.73 96.79C148.254 96.4913 148.016 95.9407 148.016 95.138V90.896H146.546V90H148.016V88.32L148.94 88.04V90H150.956ZM155.306 89.832C156.351 89.832 157.186 90.2007 157.812 90.938C158.456 91.666 158.778 92.5293 158.778 93.528C158.778 93.5747 158.768 93.7193 158.75 93.962H152.604C152.697 94.662 152.996 95.222 153.5 95.642C154.004 96.062 154.634 96.272 155.39 96.272C156.454 96.272 157.205 95.8753 157.644 95.082L158.456 95.558C158.148 96.062 157.723 96.4587 157.182 96.748C156.65 97.028 156.048 97.168 155.376 97.168C154.274 97.168 153.378 96.8227 152.688 96.132C151.997 95.4413 151.652 94.564 151.652 93.5C151.652 92.4453 151.992 91.5727 152.674 90.882C153.355 90.182 154.232 89.832 155.306 89.832ZM155.306 90.728C154.578 90.728 153.966 90.9427 153.472 91.372C152.986 91.8013 152.697 92.366 152.604 93.066H157.826C157.723 92.3193 157.438 91.7453 156.972 91.344C156.486 90.9333 155.931 90.728 155.306 90.728ZM163.482 89.832C164.527 89.832 165.362 90.2007 165.988 90.938C166.632 91.666 166.954 92.5293 166.954 93.528C166.954 93.5747 166.944 93.7193 166.926 93.962H160.78C160.873 94.662 161.172 95.222 161.676 95.642C162.18 96.062 162.81 96.272 163.566 96.272C164.63 96.272 165.381 95.8753 165.82 95.082L166.632 95.558C166.324 96.062 165.899 96.4587 165.358 96.748C164.826 97.028 164.224 97.168 163.552 97.168C162.45 97.168 161.554 96.8227 160.864 96.132C160.173 95.4413 159.828 94.564 159.828 93.5C159.828 92.4453 160.168 91.5727 160.85 90.882C161.531 90.182 162.408 89.832 163.482 89.832ZM163.482 90.728C162.754 90.728 162.142 90.9427 161.648 91.372C161.162 91.8013 160.873 92.366 160.78 93.066H166.002C165.899 92.3193 165.614 91.7453 165.148 91.344C164.662 90.9333 164.107 90.728 163.482 90.728ZM169.263 96.37C169.263 96.5847 169.188 96.7667 169.039 96.916C168.889 97.0653 168.707 97.14 168.493 97.14C168.278 97.14 168.096 97.0653 167.947 96.916C167.797 96.7667 167.723 96.5847 167.723 96.37C167.723 96.1553 167.797 95.9733 167.947 95.824C168.096 95.6747 168.278 95.6 168.493 95.6C168.707 95.6 168.889 95.6747 169.039 95.824C169.188 95.9733 169.263 96.1553 169.263 96.37ZM181.029 95.18V87.2H182.009V97H181.169L175.709 89.02V97H174.729V87.2H175.569L181.029 95.18ZM189.971 96.118C189.252 96.818 188.384 97.168 187.367 97.168C186.331 97.168 185.458 96.818 184.749 96.118C184.04 95.4087 183.685 94.536 183.685 93.5C183.685 92.464 184.04 91.596 184.749 90.896C185.458 90.1867 186.331 89.832 187.367 89.832C188.394 89.832 189.262 90.1867 189.971 90.896C190.69 91.596 191.049 92.464 191.049 93.5C191.049 94.5267 190.69 95.3993 189.971 96.118ZM185.407 95.474C185.939 96.006 186.592 96.272 187.367 96.272C188.142 96.272 188.795 96.006 189.327 95.474C189.859 94.9233 190.125 94.2653 190.125 93.5C190.125 92.7253 189.859 92.072 189.327 91.54C188.795 90.9987 188.142 90.728 187.367 90.728C186.592 90.728 185.939 90.9987 185.407 91.54C184.875 92.072 184.609 92.7253 184.609 93.5C184.609 94.2653 184.875 94.9233 185.407 95.474ZM204.327 95.684L205.447 96.776L204.789 97.378L203.655 96.258C202.769 96.8647 201.798 97.168 200.743 97.168C199.343 97.168 198.149 96.6733 197.159 95.684C196.17 94.6947 195.675 93.5 195.675 92.1C195.675 90.7 196.17 89.5053 197.159 88.516C198.149 87.5267 199.343 87.032 200.743 87.032C202.143 87.032 203.338 87.5267 204.327 88.516C205.317 89.5053 205.811 90.7 205.811 92.1C205.811 93.5 205.317 94.6947 204.327 95.684ZM200.743 96.216C201.537 96.216 202.274 96.0013 202.955 95.572L200.827 93.472L201.485 92.87L203.655 94.998C204.439 94.2047 204.831 93.2387 204.831 92.1C204.831 90.9613 204.43 89.9907 203.627 89.188C202.825 88.3853 201.863 87.984 200.743 87.984C199.614 87.984 198.648 88.3853 197.845 89.188C197.052 89.9813 196.655 90.952 196.655 92.1C196.655 93.248 197.052 94.2187 197.845 95.012C198.648 95.8147 199.614 96.216 200.743 96.216ZM212.412 93.668V90H213.336V97H212.412V95.908C211.889 96.748 211.105 97.168 210.06 97.168C209.22 97.168 208.553 96.9113 208.058 96.398C207.563 95.8753 207.316 95.1753 207.316 94.298V90H208.24V94.298C208.24 94.9233 208.403 95.4087 208.73 95.754C209.066 96.0993 209.537 96.272 210.144 96.272C210.844 96.272 211.395 96.0527 211.796 95.614C212.207 95.1753 212.412 94.5267 212.412 93.668ZM218.525 89.832C219.57 89.832 220.405 90.2007 221.031 90.938C221.675 91.666 221.997 92.5293 221.997 93.528C221.997 93.5747 221.987 93.7193 221.969 93.962H215.823C215.916 94.662 216.215 95.222 216.719 95.642C217.223 96.062 217.853 96.272 218.609 96.272C219.673 96.272 220.424 95.8753 220.863 95.082L221.675 95.558C221.367 96.062 220.942 96.4587 220.401 96.748C219.869 97.028 219.267 97.168 218.595 97.168C217.493 97.168 216.597 96.8227 215.907 96.132C215.216 95.4413 214.871 94.564 214.871 93.5C214.871 92.4453 215.211 91.5727 215.893 90.882C216.574 90.182 217.451 89.832 218.525 89.832ZM218.525 90.728C217.797 90.728 217.185 90.9427 216.691 91.372C216.205 91.8013 215.916 92.366 215.823 93.066H221.045C220.942 92.3193 220.657 91.7453 220.191 91.344C219.705 90.9333 219.15 90.728 218.525 90.728ZM223.921 91.834C223.921 92.3753 224.402 92.772 225.363 93.024C225.634 93.0893 225.811 93.136 225.895 93.164C225.979 93.1827 226.142 93.234 226.385 93.318C226.637 93.3927 226.81 93.458 226.903 93.514C227.006 93.57 227.146 93.6587 227.323 93.78C227.5 93.892 227.626 94.0087 227.701 94.13C227.776 94.242 227.846 94.3913 227.911 94.578C227.976 94.7553 228.009 94.9467 228.009 95.152C228.009 95.7493 227.771 96.2347 227.295 96.608C226.838 96.9813 226.231 97.168 225.475 97.168C224.822 97.168 224.257 97.0233 223.781 96.734C223.305 96.4353 222.969 96.0433 222.773 95.558L223.557 95.096C223.688 95.46 223.921 95.7493 224.257 95.964C224.602 96.1693 225.008 96.272 225.475 96.272C225.951 96.272 226.338 96.1787 226.637 95.992C226.936 95.8053 227.085 95.5253 227.085 95.152C227.085 94.6107 226.604 94.214 225.643 93.962C225.372 93.8967 225.195 93.8547 225.111 93.836C225.027 93.808 224.859 93.7567 224.607 93.682C224.364 93.598 224.192 93.528 224.089 93.472C223.996 93.416 223.86 93.332 223.683 93.22C223.506 93.0987 223.38 92.982 223.305 92.87C223.23 92.7487 223.16 92.5993 223.095 92.422C223.03 92.2353 222.997 92.0393 222.997 91.834C222.997 91.2647 223.221 90.7887 223.669 90.406C224.136 90.0233 224.71 89.832 225.391 89.832C225.951 89.832 226.446 89.958 226.875 90.21C227.314 90.462 227.636 90.812 227.841 91.26L227.071 91.708C226.81 91.0547 226.25 90.728 225.391 90.728C224.971 90.728 224.621 90.826 224.341 91.022C224.061 91.218 223.921 91.4887 223.921 91.834ZM232.987 90V90.896H230.971V95.138C230.971 95.5207 231.046 95.796 231.195 95.964C231.344 96.1227 231.568 96.2067 231.867 96.216C232.166 96.216 232.539 96.2067 232.987 96.188V97C231.988 97.1493 231.246 97.0793 230.761 96.79C230.285 96.4913 230.047 95.9407 230.047 95.138V90.896H228.577V90H230.047V88.32L230.971 88.04V90H232.987ZM235.661 87.844C235.661 88.0307 235.596 88.1893 235.465 88.32C235.334 88.4507 235.176 88.516 234.989 88.516C234.802 88.516 234.644 88.4507 234.513 88.32C234.382 88.1893 234.317 88.0307 234.317 87.844C234.317 87.6573 234.382 87.4987 234.513 87.368C234.644 87.2373 234.802 87.172 234.989 87.172C235.176 87.172 235.334 87.2373 235.465 87.368C235.596 87.4987 235.661 87.6573 235.661 87.844ZM235.451 97H234.527V90H235.451V97ZM243.278 96.118C242.559 96.818 241.691 97.168 240.674 97.168C239.638 97.168 238.765 96.818 238.056 96.118C237.346 95.4087 236.992 94.536 236.992 93.5C236.992 92.464 237.346 91.596 238.056 90.896C238.765 90.1867 239.638 89.832 240.674 89.832C241.7 89.832 242.568 90.1867 243.278 90.896C243.996 91.596 244.356 92.464 244.356 93.5C244.356 94.5267 243.996 95.3993 243.278 96.118ZM238.714 95.474C239.246 96.006 239.899 96.272 240.674 96.272C241.448 96.272 242.102 96.006 242.634 95.474C243.166 94.9233 243.432 94.2653 243.432 93.5C243.432 92.7253 243.166 92.072 242.634 91.54C242.102 90.9987 241.448 90.728 240.674 90.728C239.899 90.728 239.246 90.9987 238.714 91.54C238.182 92.072 237.916 92.7253 237.916 93.5C237.916 94.2653 238.182 94.9233 238.714 95.474ZM249.178 89.832C250.018 89.832 250.685 90.0933 251.18 90.616C251.675 91.1293 251.922 91.8247 251.922 92.702V97H250.998V92.702C250.998 92.0767 250.83 91.5913 250.494 91.246C250.167 90.9007 249.701 90.728 249.094 90.728C248.394 90.728 247.839 90.9473 247.428 91.386C247.027 91.8247 246.826 92.4733 246.826 93.332V97H245.902V90H246.826V91.092C247.349 90.252 248.133 89.832 249.178 89.832ZM254.437 91.834C254.437 92.3753 254.917 92.772 255.879 93.024C256.149 93.0893 256.327 93.136 256.411 93.164C256.495 93.1827 256.658 93.234 256.901 93.318C257.153 93.3927 257.325 93.458 257.419 93.514C257.521 93.57 257.661 93.6587 257.839 93.78C258.016 93.892 258.142 94.0087 258.217 94.13C258.291 94.242 258.361 94.3913 258.427 94.578C258.492 94.7553 258.525 94.9467 258.525 95.152C258.525 95.7493 258.287 96.2347 257.811 96.608C257.353 96.9813 256.747 97.168 255.991 97.168C255.337 97.168 254.773 97.0233 254.297 96.734C253.821 96.4353 253.485 96.0433 253.289 95.558L254.073 95.096C254.203 95.46 254.437 95.7493 254.773 95.964C255.118 96.1693 255.524 96.272 255.991 96.272C256.467 96.272 256.854 96.1787 257.153 95.992C257.451 95.8053 257.601 95.5253 257.601 95.152C257.601 94.6107 257.12 94.214 256.159 93.962C255.888 93.8967 255.711 93.8547 255.627 93.836C255.543 93.808 255.375 93.7567 255.123 93.682C254.88 93.598 254.707 93.528 254.605 93.472C254.511 93.416 254.376 93.332 254.199 93.22C254.021 93.0987 253.895 92.982 253.821 92.87C253.746 92.7487 253.676 92.5993 253.611 92.422C253.545 92.2353 253.513 92.0393 253.513 91.834C253.513 91.2647 253.737 90.7887 254.185 90.406C254.651 90.0233 255.225 89.832 255.907 89.832C256.467 89.832 256.961 89.958 257.391 90.21C257.829 90.462 258.151 90.812 258.357 91.26L257.587 91.708C257.325 91.0547 256.765 90.728 255.907 90.728C255.487 90.728 255.137 90.826 254.857 91.022C254.577 91.218 254.437 91.4887 254.437 91.834ZM271.266 97H270.23L269.32 94.592H264.672L263.762 97H262.726L266.492 87.2H267.5L271.266 97ZM266.996 88.418L265.022 93.668H268.97L266.996 88.418ZM273.044 91.834C273.044 92.3753 273.525 92.772 274.486 93.024C274.757 93.0893 274.934 93.136 275.018 93.164C275.102 93.1827 275.265 93.234 275.508 93.318C275.76 93.3927 275.933 93.458 276.026 93.514C276.129 93.57 276.269 93.6587 276.446 93.78C276.623 93.892 276.749 94.0087 276.824 94.13C276.899 94.242 276.969 94.3913 277.034 94.578C277.099 94.7553 277.132 94.9467 277.132 95.152C277.132 95.7493 276.894 96.2347 276.418 96.608C275.961 96.9813 275.354 97.168 274.598 97.168C273.945 97.168 273.38 97.0233 272.904 96.734C272.428 96.4353 272.092 96.0433 271.896 95.558L272.68 95.096C272.811 95.46 273.044 95.7493 273.38 95.964C273.725 96.1693 274.131 96.272 274.598 96.272C275.074 96.272 275.461 96.1787 275.76 95.992C276.059 95.8053 276.208 95.5253 276.208 95.152C276.208 94.6107 275.727 94.214 274.766 93.962C274.495 93.8967 274.318 93.8547 274.234 93.836C274.15 93.808 273.982 93.7567 273.73 93.682C273.487 93.598 273.315 93.528 273.212 93.472C273.119 93.416 272.983 93.332 272.806 93.22C272.629 93.0987 272.503 92.982 272.428 92.87C272.353 92.7487 272.283 92.5993 272.218 92.422C272.153 92.2353 272.12 92.0393 272.12 91.834C272.12 91.2647 272.344 90.7887 272.792 90.406C273.259 90.0233 273.833 89.832 274.514 89.832C275.074 89.832 275.569 89.958 275.998 90.21C276.437 90.462 276.759 90.812 276.964 91.26L276.194 91.708C275.933 91.0547 275.373 90.728 274.514 90.728C274.094 90.728 273.744 90.826 273.464 91.022C273.184 91.218 273.044 91.4887 273.044 91.834ZM280.509 93.36L284.261 97H283.029L279.529 93.626V97H278.605V87.2H279.529V93.094L282.861 90H284.121L280.509 93.36ZM288.06 89.832C289.105 89.832 289.94 90.2007 290.566 90.938C291.21 91.666 291.532 92.5293 291.532 93.528C291.532 93.5747 291.522 93.7193 291.504 93.962H285.358C285.451 94.662 285.75 95.222 286.254 95.642C286.758 96.062 287.388 96.272 288.144 96.272C289.208 96.272 289.959 95.8753 290.398 95.082L291.21 95.558C290.902 96.062 290.477 96.4587 289.936 96.748C289.404 97.028 288.802 97.168 288.13 97.168C287.028 97.168 286.132 96.8227 285.442 96.132C284.751 95.4413 284.406 94.564 284.406 93.5C284.406 92.4453 284.746 91.5727 285.428 90.882C286.109 90.182 286.986 89.832 288.06 89.832ZM288.06 90.728C287.332 90.728 286.72 90.9427 286.226 91.372C285.74 91.8013 285.451 92.366 285.358 93.066H290.58C290.477 92.3193 290.192 91.7453 289.726 91.344C289.24 90.9333 288.685 90.728 288.06 90.728ZM299.021 91.372V87.2H299.945V97H299.021V95.628C298.377 96.6547 297.435 97.168 296.193 97.168C295.195 97.168 294.341 96.8133 293.631 96.104C292.931 95.3947 292.581 94.5267 292.581 93.5C292.581 92.4733 292.931 91.6053 293.631 90.896C294.341 90.1867 295.195 89.832 296.193 89.832C297.435 89.832 298.377 90.3453 299.021 91.372ZM294.303 95.474C294.835 96.006 295.489 96.272 296.263 96.272C297.038 96.272 297.691 96.006 298.223 95.474C298.755 94.9233 299.021 94.2653 299.021 93.5C299.021 92.7253 298.755 92.072 298.223 91.54C297.691 90.9987 297.038 90.728 296.263 90.728C295.489 90.728 294.835 90.9987 294.303 91.54C293.771 92.072 293.505 92.7253 293.505 93.5C293.505 94.2653 293.771 94.9233 294.303 95.474ZM303.302 96.37C303.302 96.5847 303.227 96.7667 303.078 96.916C302.929 97.0653 302.747 97.14 302.532 97.14C302.317 97.14 302.135 97.0653 301.986 96.916C301.837 96.7667 301.762 96.5847 301.762 96.37C301.762 96.1553 301.837 95.9733 301.986 95.824C302.135 95.6747 302.317 95.6 302.532 95.6C302.747 95.6 302.929 95.6747 303.078 95.824C303.227 95.9733 303.302 96.1553 303.302 96.37Z" fill="#282828" fill-opacity="0.8"/>
</g>
<defs>
<filter id="filter0_b_2001_831" x="-14.5" y="-14.5" width="401" height="147" filterUnits="userSpaceOnUse" color-interpolation-filters="sRGB">
<feFlood flood-opacity="0" result="BackgroundImageFix"/>
<feGaussianBlur in="BackgroundImageFix" stdDeviation="7.5"/>
<feComposite in2="SourceAlpha" operator="in" result="effect1_backgroundBlur_2001_831"/>
<feBlend mode="normal" in="SourceGraphic" in2="effect1_backgroundBlur_2001_831" result="shape"/>
</filter>
</defs>
</svg>
