<svg width="346" height="176" viewBox="0 0 346 176" fill="none" xmlns="http://www.w3.org/2000/svg">
<g filter="url(#filter0_d_1_2324)">
<rect x="6" width="290" height="170" rx="30" fill="white"/>
<rect x="6.5" y="0.5" width="289" height="169" rx="29.5" stroke="#F2F2F2"/>
<path d="M22.96 21.35H21.84L22.68 18.2H23.52L22.96 21.35ZM24.92 21.35H23.8L24.64 18.2H25.48L24.92 21.35ZM26.5984 18.2H33.5984V19.124H30.5884V28H29.6084V19.124H26.5984V18.2ZM38.1349 20.832C38.9749 20.832 39.6422 21.0933 40.1369 21.616C40.6316 22.1293 40.8789 22.8247 40.8789 23.702V28H39.9549V23.702C39.9549 23.0767 39.7869 22.5913 39.4509 22.246C39.1242 21.9007 38.6576 21.728 38.0509 21.728C37.3509 21.728 36.7956 21.9473 36.3849 22.386C35.9836 22.8247 35.7829 23.4733 35.7829 24.332V28H34.8589V18.2H35.7829V22.092C36.3056 21.252 37.0896 20.832 38.1349 20.832ZM45.8995 20.832C46.9449 20.832 47.7802 21.2007 48.4055 21.938C49.0495 22.666 49.3715 23.5293 49.3715 24.528C49.3715 24.5747 49.3622 24.7193 49.3435 24.962H43.1975C43.2909 25.662 43.5895 26.222 44.0935 26.642C44.5975 27.062 45.2275 27.272 45.9835 27.272C47.0475 27.272 47.7989 26.8753 48.2375 26.082L49.0495 26.558C48.7415 27.062 48.3169 27.4587 47.7755 27.748C47.2435 28.028 46.6415 28.168 45.9695 28.168C44.8682 28.168 43.9722 27.8227 43.2815 27.132C42.5909 26.4413 42.2455 25.564 42.2455 24.5C42.2455 23.4453 42.5862 22.5727 43.2675 21.882C43.9489 21.182 44.8262 20.832 45.8995 20.832ZM45.8995 21.728C45.1715 21.728 44.5602 21.9427 44.0655 22.372C43.5802 22.8013 43.2909 23.366 43.1975 24.066H48.4195C48.3169 23.3193 48.0322 22.7453 47.5655 22.344C47.0802 21.9333 46.5249 21.728 45.8995 21.728ZM51.2959 22.834C51.2959 23.3753 51.7766 23.772 52.7379 24.024C53.0086 24.0893 53.1859 24.136 53.2699 24.164C53.3539 24.1827 53.5172 24.234 53.7599 24.318C54.0119 24.3927 54.1846 24.458 54.2779 24.514C54.3806 24.57 54.5206 24.6587 54.6979 24.78C54.8752 24.892 55.0012 25.0087 55.0759 25.13C55.1506 25.242 55.2206 25.3913 55.2859 25.578C55.3512 25.7553 55.3839 25.9467 55.3839 26.152C55.3839 26.7493 55.1459 27.2347 54.6699 27.608C54.2126 27.9813 53.6059 28.168 52.8499 28.168C52.1966 28.168 51.6319 28.0233 51.1559 27.734C50.6799 27.4353 50.3439 27.0433 50.1479 26.558L50.9319 26.096C51.0626 26.46 51.2959 26.7493 51.6319 26.964C51.9772 27.1693 52.3832 27.272 52.8499 27.272C53.3259 27.272 53.7132 27.1787 54.0119 26.992C54.3106 26.8053 54.4599 26.5253 54.4599 26.152C54.4599 25.6107 53.9792 25.214 53.0179 24.962C52.7472 24.8967 52.5699 24.8547 52.4859 24.836C52.4019 24.808 52.2339 24.7567 51.9819 24.682C51.7392 24.598 51.5666 24.528 51.4639 24.472C51.3706 24.416 51.2352 24.332 51.0579 24.22C50.8806 24.0987 50.7546 23.982 50.6799 23.87C50.6052 23.7487 50.5352 23.5993 50.4699 23.422C50.4046 23.2353 50.3719 23.0393 50.3719 22.834C50.3719 22.2647 50.5959 21.7887 51.0439 21.406C51.5106 21.0233 52.0846 20.832 52.7659 20.832C53.3259 20.832 53.8206 20.958 54.2499 21.21C54.6886 21.462 55.0106 21.812 55.2159 22.26L54.4459 22.708C54.1846 22.0547 53.6246 21.728 52.7659 21.728C52.3459 21.728 51.9959 21.826 51.7159 22.022C51.4359 22.218 51.2959 22.4887 51.2959 22.834ZM59.9542 20.832C60.9996 20.832 61.8349 21.2007 62.4602 21.938C63.1042 22.666 63.4262 23.5293 63.4262 24.528C63.4262 24.5747 63.4169 24.7193 63.3982 24.962H57.2522C57.3456 25.662 57.6442 26.222 58.1482 26.642C58.6522 27.062 59.2822 27.272 60.0382 27.272C61.1022 27.272 61.8536 26.8753 62.2922 26.082L63.1042 26.558C62.7962 27.062 62.3716 27.4587 61.8302 27.748C61.2982 28.028 60.6962 28.168 60.0242 28.168C58.9229 28.168 58.0269 27.8227 57.3362 27.132C56.6456 26.4413 56.3002 25.564 56.3002 24.5C56.3002 23.4453 56.6409 22.5727 57.3222 21.882C58.0036 21.182 58.8809 20.832 59.9542 20.832ZM59.9542 21.728C59.2262 21.728 58.6149 21.9427 58.1202 22.372C57.6349 22.8013 57.3456 23.366 57.2522 24.066H62.4742C62.3716 23.3193 62.0869 22.7453 61.6202 22.344C61.1349 21.9333 60.5796 21.728 59.9542 21.728ZM74.416 22.372V18.2H75.34V28H74.416V26.628C73.772 27.6547 72.8293 28.168 71.588 28.168C70.5893 28.168 69.7353 27.8133 69.026 27.104C68.326 26.3947 67.976 25.5267 67.976 24.5C67.976 23.4733 68.326 22.6053 69.026 21.896C69.7353 21.1867 70.5893 20.832 71.588 20.832C72.8293 20.832 73.772 21.3453 74.416 22.372ZM69.698 26.474C70.23 27.006 70.8833 27.272 71.658 27.272C72.4327 27.272 73.086 27.006 73.618 26.474C74.15 25.9233 74.416 25.2653 74.416 24.5C74.416 23.7253 74.15 23.072 73.618 22.54C73.086 21.9987 72.4327 21.728 71.658 21.728C70.8833 21.728 70.23 21.9987 69.698 22.54C69.166 23.072 68.9 23.7253 68.9 24.5C68.9 25.2653 69.166 25.9233 69.698 26.474ZM80.5304 20.832C81.5757 20.832 82.4111 21.2007 83.0364 21.938C83.6804 22.666 84.0024 23.5293 84.0024 24.528C84.0024 24.5747 83.9931 24.7193 83.9744 24.962H77.8284C77.9217 25.662 78.2204 26.222 78.7244 26.642C79.2284 27.062 79.8584 27.272 80.6144 27.272C81.6784 27.272 82.4297 26.8753 82.8684 26.082L83.6804 26.558C83.3724 27.062 82.9477 27.4587 82.4064 27.748C81.8744 28.028 81.2724 28.168 80.6004 28.168C79.4991 28.168 78.6031 27.8227 77.9124 27.132C77.2217 26.4413 76.8764 25.564 76.8764 24.5C76.8764 23.4453 77.2171 22.5727 77.8984 21.882C78.5797 21.182 79.4571 20.832 80.5304 20.832ZM80.5304 21.728C79.8024 21.728 79.1911 21.9427 78.6964 22.372C78.2111 22.8013 77.9217 23.366 77.8284 24.066H83.0504C82.9477 23.3193 82.6631 22.7453 82.1964 22.344C81.7111 21.9333 81.1557 21.728 80.5304 21.728ZM86.3962 28H85.4722V17.78H86.3962V28ZM89.491 18.844C89.491 19.0307 89.4256 19.1893 89.295 19.32C89.1643 19.4507 89.0056 19.516 88.819 19.516C88.6323 19.516 88.4736 19.4507 88.343 19.32C88.2123 19.1893 88.147 19.0307 88.147 18.844C88.147 18.6573 88.2123 18.4987 88.343 18.368C88.4736 18.2373 88.6323 18.172 88.819 18.172C89.0056 18.172 89.1643 18.2373 89.295 18.368C89.4256 18.4987 89.491 18.6573 89.491 18.844ZM89.281 28H88.357V21H89.281V28ZM93.8317 27.034L96.2817 21H97.2617L94.3917 28H93.2717L90.4017 21H91.3817L93.8317 27.034ZM101.339 20.832C102.384 20.832 103.22 21.2007 103.845 21.938C104.489 22.666 104.811 23.5293 104.811 24.528C104.811 24.5747 104.802 24.7193 104.783 24.962H98.637C98.7303 25.662 99.029 26.222 99.533 26.642C100.037 27.062 100.667 27.272 101.423 27.272C102.487 27.272 103.238 26.8753 103.677 26.082L104.489 26.558C104.181 27.062 103.756 27.4587 103.215 27.748C102.683 28.028 102.081 28.168 101.409 28.168C100.308 28.168 99.4117 27.8227 98.721 27.132C98.0303 26.4413 97.685 25.564 97.685 24.5C97.685 23.4453 98.0257 22.5727 98.707 21.882C99.3883 21.182 100.266 20.832 101.339 20.832ZM101.339 21.728C100.611 21.728 99.9997 21.9427 99.505 22.372C99.0197 22.8013 98.7303 23.366 98.637 24.066H103.859C103.756 23.3193 103.472 22.7453 103.005 22.344C102.52 21.9333 101.964 21.728 101.339 21.728ZM107.205 21V22.162C107.634 21.3127 108.371 20.888 109.417 20.888V21.784C108.745 21.784 108.208 21.98 107.807 22.372C107.405 22.7547 107.205 23.3333 107.205 24.108V28H106.281V21H107.205ZM114.911 22.834C114.911 23.3753 115.392 23.772 116.353 24.024C116.624 24.0893 116.801 24.136 116.885 24.164C116.969 24.1827 117.132 24.234 117.375 24.318C117.627 24.3927 117.8 24.458 117.893 24.514C117.996 24.57 118.136 24.6587 118.313 24.78C118.49 24.892 118.616 25.0087 118.691 25.13C118.766 25.242 118.836 25.3913 118.901 25.578C118.966 25.7553 118.999 25.9467 118.999 26.152C118.999 26.7493 118.761 27.2347 118.285 27.608C117.828 27.9813 117.221 28.168 116.465 28.168C115.812 28.168 115.247 28.0233 114.771 27.734C114.295 27.4353 113.959 27.0433 113.763 26.558L114.547 26.096C114.678 26.46 114.911 26.7493 115.247 26.964C115.592 27.1693 115.998 27.272 116.465 27.272C116.941 27.272 117.328 27.1787 117.627 26.992C117.926 26.8053 118.075 26.5253 118.075 26.152C118.075 25.6107 117.594 25.214 116.633 24.962C116.362 24.8967 116.185 24.8547 116.101 24.836C116.017 24.808 115.849 24.7567 115.597 24.682C115.354 24.598 115.182 24.528 115.079 24.472C114.986 24.416 114.85 24.332 114.673 24.22C114.496 24.0987 114.37 23.982 114.295 23.87C114.22 23.7487 114.15 23.5993 114.085 23.422C114.02 23.2353 113.987 23.0393 113.987 22.834C113.987 22.2647 114.211 21.7887 114.659 21.406C115.126 21.0233 115.7 20.832 116.381 20.832C116.941 20.832 117.436 20.958 117.865 21.21C118.304 21.462 118.626 21.812 118.831 22.26L118.061 22.708C117.8 22.0547 117.24 21.728 116.381 21.728C115.961 21.728 115.611 21.826 115.331 22.022C115.051 22.218 114.911 22.4887 114.911 22.834ZM125.4 24.668V21H126.324V28H125.4V26.908C124.878 27.748 124.094 28.168 123.048 28.168C122.208 28.168 121.541 27.9113 121.046 27.398C120.552 26.8753 120.304 26.1753 120.304 25.298V21H121.228V25.298C121.228 25.9233 121.392 26.4087 121.718 26.754C122.054 27.0993 122.526 27.272 123.132 27.272C123.832 27.272 124.383 27.0527 124.784 26.614C125.195 26.1753 125.4 25.5267 125.4 24.668ZM132.031 20.832C133.029 20.832 133.879 21.1867 134.579 21.896C135.288 22.6053 135.643 23.4733 135.643 24.5C135.643 25.5267 135.288 26.3947 134.579 27.104C133.879 27.8133 133.029 28.168 132.031 28.168C130.789 28.168 129.847 27.6547 129.203 26.628V30.8H128.279V21H129.203V22.372C129.847 21.3453 130.789 20.832 132.031 20.832ZM130.001 26.474C130.533 27.006 131.186 27.272 131.961 27.272C132.735 27.272 133.389 27.006 133.921 26.474C134.453 25.9233 134.719 25.2653 134.719 24.5C134.719 23.7253 134.453 23.072 133.921 22.54C133.389 21.9987 132.735 21.728 131.961 21.728C131.186 21.728 130.533 21.9987 130.001 22.54C129.469 23.072 129.203 23.7253 129.203 24.5C129.203 25.2653 129.469 25.9233 130.001 26.474ZM140.413 20.832C141.459 20.832 142.294 21.2007 142.919 21.938C143.563 22.666 143.885 23.5293 143.885 24.528C143.885 24.5747 143.876 24.7193 143.857 24.962H137.711C137.805 25.662 138.103 26.222 138.607 26.642C139.111 27.062 139.741 27.272 140.497 27.272C141.561 27.272 142.313 26.8753 142.751 26.082L143.563 26.558C143.255 27.062 142.831 27.4587 142.289 27.748C141.757 28.028 141.155 28.168 140.483 28.168C139.382 28.168 138.486 27.8227 137.795 27.132C137.105 26.4413 136.759 25.564 136.759 24.5C136.759 23.4453 137.1 22.5727 137.781 21.882C138.463 21.182 139.34 20.832 140.413 20.832ZM140.413 21.728C139.685 21.728 139.074 21.9427 138.579 22.372C138.094 22.8013 137.805 23.366 137.711 24.066H142.933C142.831 23.3193 142.546 22.7453 142.079 22.344C141.594 21.9333 141.039 21.728 140.413 21.728ZM146.279 21V22.162C146.708 21.3127 147.446 20.888 148.491 20.888V21.784C147.819 21.784 147.282 21.98 146.881 22.372C146.48 22.7547 146.279 23.3333 146.279 24.108V28H145.355V21H146.279ZM150.891 18.844C150.891 19.0307 150.826 19.1893 150.695 19.32C150.565 19.4507 150.406 19.516 150.219 19.516C150.033 19.516 149.874 19.4507 149.743 19.32C149.613 19.1893 149.547 19.0307 149.547 18.844C149.547 18.6573 149.613 18.4987 149.743 18.368C149.874 18.2373 150.033 18.172 150.219 18.172C150.406 18.172 150.565 18.2373 150.695 18.368C150.826 18.4987 150.891 18.6573 150.891 18.844ZM150.681 28H149.757V21H150.681V28ZM158.508 27.118C157.789 27.818 156.921 28.168 155.904 28.168C154.868 28.168 153.995 27.818 153.286 27.118C152.577 26.4087 152.222 25.536 152.222 24.5C152.222 23.464 152.577 22.596 153.286 21.896C153.995 21.1867 154.868 20.832 155.904 20.832C156.931 20.832 157.799 21.1867 158.508 21.896C159.227 22.596 159.586 23.464 159.586 24.5C159.586 25.5267 159.227 26.3993 158.508 27.118ZM153.944 26.474C154.476 27.006 155.129 27.272 155.904 27.272C156.679 27.272 157.332 27.006 157.864 26.474C158.396 25.9233 158.662 25.2653 158.662 24.5C158.662 23.7253 158.396 23.072 157.864 22.54C157.332 21.9987 156.679 21.728 155.904 21.728C155.129 21.728 154.476 21.9987 153.944 22.54C153.412 23.072 153.146 23.7253 153.146 24.5C153.146 25.2653 153.412 25.9233 153.944 26.474ZM162.056 21V22.162C162.486 21.3127 163.223 20.888 164.268 20.888V21.784C163.596 21.784 163.06 21.98 162.658 22.372C162.257 22.7547 162.056 23.3333 162.056 24.108V28H161.132V21H162.056ZM175.055 22.372V21H175.979V28H175.055V26.628C174.411 27.6547 173.468 28.168 172.227 28.168C171.228 28.168 170.374 27.8133 169.665 27.104C168.965 26.3947 168.615 25.5267 168.615 24.5C168.615 23.4733 168.965 22.6053 169.665 21.896C170.374 21.1867 171.228 20.832 172.227 20.832C173.468 20.832 174.411 21.3453 175.055 22.372ZM170.337 26.474C170.869 27.006 171.522 27.272 172.297 27.272C173.071 27.272 173.725 27.006 174.257 26.474C174.789 25.9233 175.055 25.2653 175.055 24.5C175.055 23.7253 174.789 23.072 174.257 22.54C173.725 21.9987 173.071 21.728 172.297 21.728C171.522 21.728 170.869 21.9987 170.337 22.54C169.805 23.072 169.539 23.7253 169.539 24.5C169.539 25.2653 169.805 25.9233 170.337 26.474ZM182.863 24.668V21H183.787V28H182.863V26.908C182.34 27.748 181.556 28.168 180.511 28.168C179.671 28.168 179.004 27.9113 178.509 27.398C178.014 26.8753 177.767 26.1753 177.767 25.298V21H178.691V25.298C178.691 25.9233 178.854 26.4087 179.181 26.754C179.517 27.0993 179.988 27.272 180.595 27.272C181.295 27.272 181.846 27.0527 182.247 26.614C182.658 26.1753 182.863 25.5267 182.863 24.668ZM191.762 22.372V18.2H192.686V28H191.762V26.628C191.118 27.6547 190.175 28.168 188.934 28.168C187.935 28.168 187.081 27.8133 186.372 27.104C185.672 26.3947 185.322 25.5267 185.322 24.5C185.322 23.4733 185.672 22.6053 186.372 21.896C187.081 21.1867 187.935 20.832 188.934 20.832C190.175 20.832 191.118 21.3453 191.762 22.372ZM187.044 26.474C187.576 27.006 188.229 27.272 189.004 27.272C189.778 27.272 190.432 27.006 190.964 26.474C191.496 25.9233 191.762 25.2653 191.762 24.5C191.762 23.7253 191.496 23.072 190.964 22.54C190.432 21.9987 189.778 21.728 189.004 21.728C188.229 21.728 187.576 21.9987 187.044 22.54C186.512 23.072 186.246 23.7253 186.246 24.5C186.246 25.2653 186.512 25.9233 187.044 26.474ZM195.776 18.844C195.776 19.0307 195.711 19.1893 195.58 19.32C195.449 19.4507 195.291 19.516 195.104 19.516C194.917 19.516 194.759 19.4507 194.628 19.32C194.497 19.1893 194.432 19.0307 194.432 18.844C194.432 18.6573 194.497 18.4987 194.628 18.368C194.759 18.2373 194.917 18.172 195.104 18.172C195.291 18.172 195.449 18.2373 195.58 18.368C195.711 18.4987 195.776 18.6573 195.776 18.844ZM195.566 28H194.642V21H195.566V28ZM203.393 27.118C202.674 27.818 201.806 28.168 200.789 28.168C199.753 28.168 198.88 27.818 198.171 27.118C197.462 26.4087 197.107 25.536 197.107 24.5C197.107 23.464 197.462 22.596 198.171 21.896C198.88 21.1867 199.753 20.832 200.789 20.832C201.816 20.832 202.684 21.1867 203.393 21.896C204.112 22.596 204.471 23.464 204.471 24.5C204.471 25.5267 204.112 26.3993 203.393 27.118ZM198.829 26.474C199.361 27.006 200.014 27.272 200.789 27.272C201.564 27.272 202.217 27.006 202.749 26.474C203.281 25.9233 203.547 25.2653 203.547 24.5C203.547 23.7253 203.281 23.072 202.749 22.54C202.217 21.9987 201.564 21.728 200.789 21.728C200.014 21.728 199.361 21.9987 198.829 22.54C198.297 23.072 198.031 23.7253 198.031 24.5C198.031 25.2653 198.297 25.9233 198.829 26.474ZM212.751 20.832C213.796 20.832 214.632 21.2007 215.257 21.938C215.901 22.666 216.223 23.5293 216.223 24.528C216.223 24.5747 216.214 24.7193 216.195 24.962H210.049C210.142 25.662 210.441 26.222 210.945 26.642C211.449 27.062 212.079 27.272 212.835 27.272C213.899 27.272 214.65 26.8753 215.089 26.082L215.901 26.558C215.593 27.062 215.168 27.4587 214.627 27.748C214.095 28.028 213.493 28.168 212.821 28.168C211.72 28.168 210.824 27.8227 210.133 27.132C209.442 26.4413 209.097 25.564 209.097 24.5C209.097 23.4453 209.438 22.5727 210.119 21.882C210.8 21.182 211.678 20.832 212.751 20.832ZM212.751 21.728C212.023 21.728 211.412 21.9427 210.917 22.372C210.432 22.8013 210.142 23.366 210.049 24.066H215.271C215.168 23.3193 214.884 22.7453 214.417 22.344C213.932 21.9333 213.376 21.728 212.751 21.728ZM220.569 24.374L223.299 28H222.193L220.009 25.116L217.825 28H216.719L219.463 24.374L216.901 21H218.007L220.009 23.646L222.011 21H223.117L220.569 24.374ZM228.308 20.832C229.307 20.832 230.156 21.1867 230.856 21.896C231.566 22.6053 231.92 23.4733 231.92 24.5C231.92 25.5267 231.566 26.3947 230.856 27.104C230.156 27.8133 229.307 28.168 228.308 28.168C227.067 28.168 226.124 27.6547 225.48 26.628V30.8H224.556V21H225.48V22.372C226.124 21.3453 227.067 20.832 228.308 20.832ZM226.278 26.474C226.81 27.006 227.464 27.272 228.238 27.272C229.013 27.272 229.666 27.006 230.198 26.474C230.73 25.9233 230.996 25.2653 230.996 24.5C230.996 23.7253 230.73 23.072 230.198 22.54C229.666 21.9987 229.013 21.728 228.238 21.728C227.464 21.728 226.81 21.9987 226.278 22.54C225.746 23.072 225.48 23.7253 225.48 24.5C225.48 25.2653 225.746 25.9233 226.278 26.474ZM236.691 20.832C237.736 20.832 238.571 21.2007 239.197 21.938C239.841 22.666 240.163 23.5293 240.163 24.528C240.163 24.5747 240.153 24.7193 240.135 24.962H233.989C234.082 25.662 234.381 26.222 234.885 26.642C235.389 27.062 236.019 27.272 236.775 27.272C237.839 27.272 238.59 26.8753 239.029 26.082L239.841 26.558C239.533 27.062 239.108 27.4587 238.567 27.748C238.035 28.028 237.433 28.168 236.761 28.168C235.659 28.168 234.763 27.8227 234.073 27.132C233.382 26.4413 233.037 25.564 233.037 24.5C233.037 23.4453 233.377 22.5727 234.059 21.882C234.74 21.182 235.617 20.832 236.691 20.832ZM236.691 21.728C235.963 21.728 235.351 21.9427 234.857 22.372C234.371 22.8013 234.082 23.366 233.989 24.066H239.211C239.108 23.3193 238.823 22.7453 238.357 22.344C237.871 21.9333 237.316 21.728 236.691 21.728ZM242.556 21V22.162C242.986 21.3127 243.723 20.888 244.768 20.888V21.784C244.096 21.784 243.56 21.98 243.158 22.372C242.757 22.7547 242.556 23.3333 242.556 24.108V28H241.632V21H242.556ZM247.169 18.844C247.169 19.0307 247.103 19.1893 246.973 19.32C246.842 19.4507 246.683 19.516 246.497 19.516C246.31 19.516 246.151 19.4507 246.021 19.32C245.89 19.1893 245.825 19.0307 245.825 18.844C245.825 18.6573 245.89 18.4987 246.021 18.368C246.151 18.2373 246.31 18.172 246.497 18.172C246.683 18.172 246.842 18.2373 246.973 18.368C247.103 18.4987 247.169 18.6573 247.169 18.844ZM246.959 28H246.035V21H246.959V28ZM252.153 20.832C253.199 20.832 254.034 21.2007 254.659 21.938C255.303 22.666 255.625 23.5293 255.625 24.528C255.625 24.5747 255.616 24.7193 255.597 24.962H249.451C249.545 25.662 249.843 26.222 250.347 26.642C250.851 27.062 251.481 27.272 252.237 27.272C253.301 27.272 254.053 26.8753 254.491 26.082L255.303 26.558C254.995 27.062 254.571 27.4587 254.029 27.748C253.497 28.028 252.895 28.168 252.223 28.168C251.122 28.168 250.226 27.8227 249.535 27.132C248.845 26.4413 248.499 25.564 248.499 24.5C248.499 23.4453 248.84 22.5727 249.521 21.882C250.203 21.182 251.08 20.832 252.153 20.832ZM252.153 21.728C251.425 21.728 250.814 21.9427 250.319 22.372C249.834 22.8013 249.545 23.366 249.451 24.066H254.673C254.571 23.3193 254.286 22.7453 253.819 22.344C253.334 21.9333 252.779 21.728 252.153 21.728ZM260.371 20.832C261.211 20.832 261.879 21.0933 262.373 21.616C262.868 22.1293 263.115 22.8247 263.115 23.702V28H262.191V23.702C262.191 23.0767 262.023 22.5913 261.687 22.246C261.361 21.9007 260.894 21.728 260.287 21.728C259.587 21.728 259.032 21.9473 258.621 22.386C258.22 22.8247 258.019 23.4733 258.019 24.332V28H257.095V21H258.019V22.092C258.542 21.252 259.326 20.832 260.371 20.832ZM268.164 28.168C267.109 28.168 266.232 27.818 265.532 27.118C264.832 26.3993 264.482 25.5267 264.482 24.5C264.482 23.464 264.832 22.596 265.532 21.896C266.232 21.1867 267.109 20.832 268.164 20.832C268.855 20.832 269.475 21 270.026 21.336C270.577 21.6627 270.978 22.106 271.23 22.666L270.474 23.1C270.287 22.68 269.984 22.3487 269.564 22.106C269.153 21.854 268.687 21.728 268.164 21.728C267.389 21.728 266.736 21.9987 266.204 22.54C265.672 23.072 265.406 23.7253 265.406 24.5C265.406 25.2653 265.672 25.9233 266.204 26.474C266.736 27.006 267.389 27.272 268.164 27.272C268.677 27.272 269.139 27.1507 269.55 26.908C269.97 26.6653 270.297 26.3293 270.53 25.9L271.3 26.348C271.011 26.908 270.586 27.3513 270.026 27.678C269.466 28.0047 268.845 28.168 268.164 28.168ZM275.792 20.832C276.837 20.832 277.673 21.2007 278.298 21.938C278.942 22.666 279.264 23.5293 279.264 24.528C279.264 24.5747 279.255 24.7193 279.236 24.962H273.09C273.183 25.662 273.482 26.222 273.986 26.642C274.49 27.062 275.12 27.272 275.876 27.272C276.94 27.272 277.691 26.8753 278.13 26.082L278.942 26.558C278.634 27.062 278.209 27.4587 277.668 27.748C277.136 28.028 276.534 28.168 275.862 28.168C274.761 28.168 273.865 27.8227 273.174 27.132C272.483 26.4413 272.138 25.564 272.138 24.5C272.138 23.4453 272.479 22.5727 273.16 21.882C273.841 21.182 274.719 20.832 275.792 20.832ZM275.792 21.728C275.064 21.728 274.453 21.9427 273.958 22.372C273.473 22.8013 273.183 23.366 273.09 24.066H278.312C278.209 23.3193 277.925 22.7453 277.458 22.344C276.973 21.9333 276.417 21.728 275.792 21.728ZM28 40.372V39H28.924V46H28V44.628C27.356 45.6547 26.4133 46.168 25.172 46.168C24.1733 46.168 23.3193 45.8133 22.61 45.104C21.91 44.3947 21.56 43.5267 21.56 42.5C21.56 41.4733 21.91 40.6053 22.61 39.896C23.3193 39.1867 24.1733 38.832 25.172 38.832C26.4133 38.832 27.356 39.3453 28 40.372ZM23.282 44.474C23.814 45.006 24.4673 45.272 25.242 45.272C26.0167 45.272 26.67 45.006 27.202 44.474C27.734 43.9233 28 43.2653 28 42.5C28 41.7253 27.734 41.072 27.202 40.54C26.67 39.9987 26.0167 39.728 25.242 39.728C24.4673 39.728 23.814 39.9987 23.282 40.54C22.75 41.072 22.484 41.7253 22.484 42.5C22.484 43.2653 22.75 43.9233 23.282 44.474ZM34.1424 46.168C33.0877 46.168 32.2104 45.818 31.5104 45.118C30.8104 44.3993 30.4604 43.5267 30.4604 42.5C30.4604 41.464 30.8104 40.596 31.5104 39.896C32.2104 39.1867 33.0877 38.832 34.1424 38.832C34.8331 38.832 35.4537 39 36.0044 39.336C36.5551 39.6627 36.9564 40.106 37.2084 40.666L36.4524 41.1C36.2657 40.68 35.9624 40.3487 35.5424 40.106C35.1317 39.854 34.6651 39.728 34.1424 39.728C33.3677 39.728 32.7144 39.9987 32.1824 40.54C31.6504 41.072 31.3844 41.7253 31.3844 42.5C31.3844 43.2653 31.6504 43.9233 32.1824 44.474C32.7144 45.006 33.3677 45.272 34.1424 45.272C34.6557 45.272 35.1177 45.1507 35.5284 44.908C35.9484 44.6653 36.2751 44.3293 36.5084 43.9L37.2784 44.348C36.9891 44.908 36.5644 45.3513 36.0044 45.678C35.4444 46.0047 34.8237 46.168 34.1424 46.168ZM39.529 39V40.162C39.9583 39.3127 40.6957 38.888 41.741 38.888V39.784C41.069 39.784 40.5323 39.98 40.131 40.372C39.7297 40.7547 39.529 41.3333 39.529 42.108V46H38.605V39H39.529ZM48.4495 45.118C47.7308 45.818 46.8628 46.168 45.8455 46.168C44.8095 46.168 43.9368 45.818 43.2275 45.118C42.5182 44.4087 42.1635 43.536 42.1635 42.5C42.1635 41.464 42.5182 40.596 43.2275 39.896C43.9368 39.1867 44.8095 38.832 45.8455 38.832C46.8722 38.832 47.7402 39.1867 48.4495 39.896C49.1682 40.596 49.5275 41.464 49.5275 42.5C49.5275 43.5267 49.1682 44.3993 48.4495 45.118ZM43.8855 44.474C44.4175 45.006 45.0708 45.272 45.8455 45.272C46.6202 45.272 47.2735 45.006 47.8055 44.474C48.3375 43.9233 48.6035 43.2653 48.6035 42.5C48.6035 41.7253 48.3375 41.072 47.8055 40.54C47.2735 39.9987 46.6202 39.728 45.8455 39.728C45.0708 39.728 44.4175 39.9987 43.8855 40.54C43.3535 41.072 43.0875 41.7253 43.0875 42.5C43.0875 43.2653 43.3535 43.9233 43.8855 44.474ZM51.665 40.834C51.665 41.3753 52.1457 41.772 53.107 42.024C53.3777 42.0893 53.555 42.136 53.639 42.164C53.723 42.1827 53.8864 42.234 54.129 42.318C54.381 42.3927 54.5537 42.458 54.647 42.514C54.7497 42.57 54.8897 42.6587 55.067 42.78C55.2444 42.892 55.3704 43.0087 55.445 43.13C55.5197 43.242 55.5897 43.3913 55.655 43.578C55.7204 43.7553 55.753 43.9467 55.753 44.152C55.753 44.7493 55.515 45.2347 55.039 45.608C54.5817 45.9813 53.975 46.168 53.219 46.168C52.5657 46.168 52.001 46.0233 51.525 45.734C51.049 45.4353 50.713 45.0433 50.517 44.558L51.301 44.096C51.4317 44.46 51.665 44.7493 52.001 44.964C52.3464 45.1693 52.7524 45.272 53.219 45.272C53.695 45.272 54.0824 45.1787 54.381 44.992C54.6797 44.8053 54.829 44.5253 54.829 44.152C54.829 43.6107 54.3484 43.214 53.387 42.962C53.1164 42.8967 52.939 42.8547 52.855 42.836C52.771 42.808 52.603 42.7567 52.351 42.682C52.1084 42.598 51.9357 42.528 51.833 42.472C51.7397 42.416 51.6044 42.332 51.427 42.22C51.2497 42.0987 51.1237 41.982 51.049 41.87C50.9744 41.7487 50.9044 41.5993 50.839 41.422C50.7737 41.2353 50.741 41.0393 50.741 40.834C50.741 40.2647 50.965 39.7887 51.413 39.406C51.8797 39.0233 52.4537 38.832 53.135 38.832C53.695 38.832 54.1897 38.958 54.619 39.21C55.0577 39.462 55.3797 39.812 55.585 40.26L54.815 40.708C54.5537 40.0547 53.9937 39.728 53.135 39.728C52.715 39.728 52.365 39.826 52.085 40.022C51.805 40.218 51.665 40.4887 51.665 40.834ZM57.5986 40.834C57.5986 41.3753 58.0793 41.772 59.0406 42.024C59.3113 42.0893 59.4886 42.136 59.5726 42.164C59.6566 42.1827 59.82 42.234 60.0626 42.318C60.3146 42.3927 60.4873 42.458 60.5806 42.514C60.6833 42.57 60.8233 42.6587 61.0006 42.78C61.178 42.892 61.304 43.0087 61.3786 43.13C61.4533 43.242 61.5233 43.3913 61.5886 43.578C61.654 43.7553 61.6866 43.9467 61.6866 44.152C61.6866 44.7493 61.4486 45.2347 60.9726 45.608C60.5153 45.9813 59.9086 46.168 59.1526 46.168C58.4993 46.168 57.9346 46.0233 57.4586 45.734C56.9826 45.4353 56.6466 45.0433 56.4506 44.558L57.2346 44.096C57.3653 44.46 57.5986 44.7493 57.9346 44.964C58.28 45.1693 58.686 45.272 59.1526 45.272C59.6286 45.272 60.016 45.1787 60.3146 44.992C60.6133 44.8053 60.7626 44.5253 60.7626 44.152C60.7626 43.6107 60.282 43.214 59.3206 42.962C59.05 42.8967 58.8726 42.8547 58.7886 42.836C58.7046 42.808 58.5366 42.7567 58.2846 42.682C58.042 42.598 57.8693 42.528 57.7666 42.472C57.6733 42.416 57.538 42.332 57.3606 42.22C57.1833 42.0987 57.0573 41.982 56.9826 41.87C56.908 41.7487 56.838 41.5993 56.7726 41.422C56.7073 41.2353 56.6746 41.0393 56.6746 40.834C56.6746 40.2647 56.8986 39.7887 57.3466 39.406C57.8133 39.0233 58.3873 38.832 59.0686 38.832C59.6286 38.832 60.1233 38.958 60.5526 39.21C60.9913 39.462 61.3133 39.812 61.5186 40.26L60.7486 40.708C60.4873 40.0547 59.9273 39.728 59.0686 39.728C58.6486 39.728 58.2986 39.826 58.0186 40.022C57.7386 40.218 57.5986 40.4887 57.5986 40.834ZM72.748 40.372V39H73.672V46H72.748V44.628C72.104 45.6547 71.1614 46.168 69.92 46.168C68.9214 46.168 68.0674 45.8133 67.358 45.104C66.658 44.3947 66.308 43.5267 66.308 42.5C66.308 41.4733 66.658 40.6053 67.358 39.896C68.0674 39.1867 68.9214 38.832 69.92 38.832C71.1614 38.832 72.104 39.3453 72.748 40.372ZM68.03 44.474C68.562 45.006 69.2154 45.272 69.99 45.272C70.7647 45.272 71.418 45.006 71.95 44.474C72.482 43.9233 72.748 43.2653 72.748 42.5C72.748 41.7253 72.482 41.072 71.95 40.54C71.418 39.9987 70.7647 39.728 69.99 39.728C69.2154 39.728 68.562 39.9987 68.03 40.54C67.498 41.072 67.232 41.7253 67.232 42.5C67.232 43.2653 67.498 43.9233 68.03 44.474ZM76.5524 46H75.6284V35.78H76.5524V46ZM79.4372 46H78.5132V35.78H79.4372V46ZM88.398 36.032V36.928C87.7166 36.872 87.208 36.9887 86.872 37.278C86.5453 37.5673 86.382 38.048 86.382 38.72V39H88.398V39.896H86.382V46H85.458V39.896H84.268V39H85.458V38.72C85.458 37.796 85.71 37.1007 86.214 36.634C86.7273 36.1673 87.4553 35.9667 88.398 36.032ZM90.3063 39V40.162C90.7357 39.3127 91.473 38.888 92.5183 38.888V39.784C91.8463 39.784 91.3097 39.98 90.9083 40.372C90.507 40.7547 90.3063 41.3333 90.3063 42.108V46H89.3823V39H90.3063ZM96.5949 38.832C97.6402 38.832 98.4755 39.2007 99.1009 39.938C99.7449 40.666 100.067 41.5293 100.067 42.528C100.067 42.5747 100.058 42.7193 100.039 42.962H93.8929C93.9862 43.662 94.2849 44.222 94.7889 44.642C95.2929 45.062 95.9229 45.272 96.6789 45.272C97.7429 45.272 98.4942 44.8753 98.9329 44.082L99.7449 44.558C99.4369 45.062 99.0122 45.4587 98.4709 45.748C97.9389 46.028 97.3369 46.168 96.6649 46.168C95.5635 46.168 94.6675 45.8227 93.9769 45.132C93.2862 44.4413 92.9409 43.564 92.9409 42.5C92.9409 41.4453 93.2815 40.5727 93.9629 39.882C94.6442 39.182 95.5215 38.832 96.5949 38.832ZM96.5949 39.728C95.8669 39.728 95.2555 39.9427 94.7609 40.372C94.2755 40.8013 93.9862 41.366 93.8929 42.066H99.1149C99.0122 41.3193 98.7275 40.7453 98.2609 40.344C97.7755 39.9333 97.2202 39.728 96.5949 39.728ZM107.557 40.372V39H108.481V48.8H107.557V44.628C106.913 45.6547 105.97 46.168 104.729 46.168C103.73 46.168 102.876 45.8133 102.167 45.104C101.467 44.3947 101.117 43.5267 101.117 42.5C101.117 41.4733 101.467 40.6053 102.167 39.896C102.876 39.1867 103.73 38.832 104.729 38.832C105.97 38.832 106.913 39.3453 107.557 40.372ZM102.839 44.474C103.371 45.006 104.024 45.272 104.799 45.272C105.573 45.272 106.227 45.006 106.759 44.474C107.291 43.9233 107.557 43.2653 107.557 42.5C107.557 41.7253 107.291 41.072 106.759 40.54C106.227 39.9987 105.573 39.728 104.799 39.728C104.024 39.728 103.371 39.9987 102.839 40.54C102.307 41.072 102.041 41.7253 102.041 42.5C102.041 43.2653 102.307 43.9233 102.839 44.474ZM115.365 42.668V39H116.289V46H115.365V44.908C114.842 45.748 114.058 46.168 113.013 46.168C112.173 46.168 111.506 45.9113 111.011 45.398C110.516 44.8753 110.269 44.1753 110.269 43.298V39H111.193V43.298C111.193 43.9233 111.356 44.4087 111.683 44.754C112.019 45.0993 112.49 45.272 113.097 45.272C113.797 45.272 114.348 45.0527 114.749 44.614C115.16 44.1753 115.365 43.5267 115.365 42.668ZM121.478 38.832C122.523 38.832 123.358 39.2007 123.984 39.938C124.628 40.666 124.95 41.5293 124.95 42.528C124.95 42.5747 124.94 42.7193 124.922 42.962H118.776C118.869 43.662 119.168 44.222 119.672 44.642C120.176 45.062 120.806 45.272 121.562 45.272C122.626 45.272 123.377 44.8753 123.816 44.082L124.628 44.558C124.32 45.062 123.895 45.4587 123.354 45.748C122.822 46.028 122.22 46.168 121.548 46.168C120.446 46.168 119.55 45.8227 118.86 45.132C118.169 44.4413 117.824 43.564 117.824 42.5C117.824 41.4453 118.164 40.5727 118.846 39.882C119.527 39.182 120.404 38.832 121.478 38.832ZM121.478 39.728C120.75 39.728 120.138 39.9427 119.644 40.372C119.158 40.8013 118.869 41.366 118.776 42.066H123.998C123.895 41.3193 123.61 40.7453 123.144 40.344C122.658 39.9333 122.103 39.728 121.478 39.728ZM129.695 38.832C130.535 38.832 131.203 39.0933 131.697 39.616C132.192 40.1293 132.439 40.8247 132.439 41.702V46H131.515V41.702C131.515 41.0767 131.347 40.5913 131.011 40.246C130.685 39.9007 130.218 39.728 129.611 39.728C128.911 39.728 128.356 39.9473 127.945 40.386C127.544 40.8247 127.343 41.4733 127.343 42.332V46H126.419V39H127.343V40.092C127.866 39.252 128.65 38.832 129.695 38.832ZM137.488 46.168C136.433 46.168 135.556 45.818 134.856 45.118C134.156 44.3993 133.806 43.5267 133.806 42.5C133.806 41.464 134.156 40.596 134.856 39.896C135.556 39.1867 136.433 38.832 137.488 38.832C138.179 38.832 138.799 39 139.35 39.336C139.901 39.6627 140.302 40.106 140.554 40.666L139.798 41.1C139.611 40.68 139.308 40.3487 138.888 40.106C138.477 39.854 138.011 39.728 137.488 39.728C136.713 39.728 136.06 39.9987 135.528 40.54C134.996 41.072 134.73 41.7253 134.73 42.5C134.73 43.2653 134.996 43.9233 135.528 44.474C136.06 45.006 136.713 45.272 137.488 45.272C138.001 45.272 138.463 45.1507 138.874 44.908C139.294 44.6653 139.621 44.3293 139.854 43.9L140.624 44.348C140.335 44.908 139.91 45.3513 139.35 45.678C138.79 46.0047 138.169 46.168 137.488 46.168ZM144.723 44.866L146.991 39H147.971L144.975 46.644C144.695 47.3533 144.303 47.8993 143.799 48.282C143.304 48.674 142.753 48.8467 142.147 48.8V47.932C142.987 48.0347 143.626 47.5493 144.065 46.476L144.247 46.042L141.111 39H142.091L144.723 44.866ZM153.511 39V40.162C153.941 39.3127 154.678 38.888 155.723 38.888V39.784C155.051 39.784 154.515 39.98 154.113 40.372C153.712 40.7547 153.511 41.3333 153.511 42.108V46H152.587V39H153.511ZM162.586 40.372V39H163.51V46H162.586V44.628C161.942 45.6547 160.999 46.168 159.758 46.168C158.759 46.168 157.905 45.8133 157.196 45.104C156.496 44.3947 156.146 43.5267 156.146 42.5C156.146 41.4733 156.496 40.6053 157.196 39.896C157.905 39.1867 158.759 38.832 159.758 38.832C160.999 38.832 161.942 39.3453 162.586 40.372ZM157.868 44.474C158.4 45.006 159.053 45.272 159.828 45.272C160.603 45.272 161.256 45.006 161.788 44.474C162.32 43.9233 162.586 43.2653 162.586 42.5C162.586 41.7253 162.32 41.072 161.788 40.54C161.256 39.9987 160.603 39.728 159.828 39.728C159.053 39.728 158.4 39.9987 157.868 40.54C157.336 41.072 157.07 41.7253 157.07 42.5C157.07 43.2653 157.336 43.9233 157.868 44.474ZM168.742 38.832C169.582 38.832 170.25 39.0933 170.744 39.616C171.239 40.1293 171.486 40.8247 171.486 41.702V46H170.562V41.702C170.562 41.0767 170.394 40.5913 170.058 40.246C169.732 39.9007 169.265 39.728 168.658 39.728C167.958 39.728 167.403 39.9473 166.992 40.386C166.591 40.8247 166.39 41.4733 166.39 42.332V46H165.466V39H166.39V40.092C166.913 39.252 167.697 38.832 168.742 38.832ZM179.293 40.372V39H180.217V45.72C180.217 46.728 179.872 47.5213 179.181 48.1C178.49 48.6787 177.664 48.968 176.703 48.968C175.07 48.968 173.964 48.3987 173.385 47.26L174.197 46.798C174.617 47.6473 175.452 48.072 176.703 48.072C177.506 48.072 178.136 47.862 178.593 47.442C179.06 47.022 179.293 46.448 179.293 45.72V44.628C178.649 45.6547 177.706 46.168 176.465 46.168C175.466 46.168 174.612 45.8133 173.903 45.104C173.203 44.3947 172.853 43.5267 172.853 42.5C172.853 41.4733 173.203 40.6053 173.903 39.896C174.612 39.1867 175.466 38.832 176.465 38.832C177.706 38.832 178.649 39.3453 179.293 40.372ZM174.575 44.474C175.107 45.006 175.76 45.272 176.535 45.272C177.31 45.272 177.963 45.006 178.495 44.474C179.027 43.9233 179.293 43.2653 179.293 42.5C179.293 41.7253 179.027 41.072 178.495 40.54C177.963 39.9987 177.31 39.728 176.535 39.728C175.76 39.728 175.107 39.9987 174.575 40.54C174.043 41.072 173.777 41.7253 173.777 42.5C173.777 43.2653 174.043 43.9233 174.575 44.474ZM185.407 38.832C186.453 38.832 187.288 39.2007 187.913 39.938C188.557 40.666 188.879 41.5293 188.879 42.528C188.879 42.5747 188.87 42.7193 188.851 42.962H182.705C182.799 43.662 183.097 44.222 183.601 44.642C184.105 45.062 184.735 45.272 185.491 45.272C186.555 45.272 187.307 44.8753 187.745 44.082L188.557 44.558C188.249 45.062 187.825 45.4587 187.283 45.748C186.751 46.028 186.149 46.168 185.477 46.168C184.376 46.168 183.48 45.8227 182.789 45.132C182.099 44.4413 181.753 43.564 181.753 42.5C181.753 41.4453 182.094 40.5727 182.775 39.882C183.457 39.182 184.334 38.832 185.407 38.832ZM185.407 39.728C184.679 39.728 184.068 39.9427 183.573 40.372C183.088 40.8013 182.799 41.366 182.705 42.066H187.927C187.825 41.3193 187.54 40.7453 187.073 40.344C186.588 39.9333 186.033 39.728 185.407 39.728ZM190.804 40.834C190.804 41.3753 191.284 41.772 192.246 42.024C192.516 42.0893 192.694 42.136 192.778 42.164C192.862 42.1827 193.025 42.234 193.268 42.318C193.52 42.3927 193.692 42.458 193.786 42.514C193.888 42.57 194.028 42.6587 194.206 42.78C194.383 42.892 194.509 43.0087 194.584 43.13C194.658 43.242 194.728 43.3913 194.794 43.578C194.859 43.7553 194.892 43.9467 194.892 44.152C194.892 44.7493 194.654 45.2347 194.178 45.608C193.72 45.9813 193.114 46.168 192.358 46.168C191.704 46.168 191.14 46.0233 190.664 45.734C190.188 45.4353 189.852 45.0433 189.656 44.558L190.44 44.096C190.57 44.46 190.804 44.7493 191.14 44.964C191.485 45.1693 191.891 45.272 192.358 45.272C192.834 45.272 193.221 45.1787 193.52 44.992C193.818 44.8053 193.968 44.5253 193.968 44.152C193.968 43.6107 193.487 43.214 192.526 42.962C192.255 42.8967 192.078 42.8547 191.994 42.836C191.91 42.808 191.742 42.7567 191.49 42.682C191.247 42.598 191.074 42.528 190.972 42.472C190.878 42.416 190.743 42.332 190.566 42.22C190.388 42.0987 190.262 41.982 190.188 41.87C190.113 41.7487 190.043 41.5993 189.978 41.422C189.912 41.2353 189.88 41.0393 189.88 40.834C189.88 40.2647 190.104 39.7887 190.552 39.406C191.018 39.0233 191.592 38.832 192.274 38.832C192.834 38.832 193.328 38.958 193.758 39.21C194.196 39.462 194.518 39.812 194.724 40.26L193.954 40.708C193.692 40.0547 193.132 39.728 192.274 39.728C191.854 39.728 191.504 39.826 191.224 40.022C190.944 40.218 190.804 40.4887 190.804 40.834ZM197.696 45.37C197.696 45.5847 197.622 45.7667 197.472 45.916C197.323 46.0653 197.141 46.14 196.926 46.14C196.712 46.14 196.53 46.0653 196.38 45.916C196.231 45.7667 196.156 45.5847 196.156 45.37C196.156 45.1553 196.231 44.9733 196.38 44.824C196.53 44.6747 196.712 44.6 196.926 44.6C197.141 44.6 197.323 44.6747 197.472 44.824C197.622 44.9733 197.696 45.1553 197.696 45.37ZM199.943 36.2H201.063L200.223 39.35H199.383L199.943 36.2ZM201.903 36.2H203.023L202.183 39.35H201.343L201.903 36.2Z" fill="#282828" fill-opacity="0.8"/>
<line x1="21" y1="108.5" x2="281" y2="108.5" stroke="#DCDCDC"/>
<path d="M55.5968 126.507C54.2973 124.963 51.8981 124.333 47.3161 124.333H30.6835C25.9967 124.333 23.5568 125.003 22.2622 126.648C21 128.251 21 130.614 21 133.884V140.117C21 146.451 22.4976 149.668 30.6835 149.668H47.3162C51.2897 149.668 53.4915 149.112 54.9159 147.749C56.3767 146.351 57 144.068 57 140.117V133.884C57 130.436 56.9023 128.059 55.5968 126.507ZM44.1121 137.861L36.5593 141.808C36.3905 141.896 36.2058 141.94 36.0214 141.94C35.8126 141.94 35.6043 141.884 35.4197 141.772C35.0723 141.562 34.8601 141.185 34.8601 140.779V132.909C34.8601 132.504 35.0717 132.128 35.4185 131.917C35.7653 131.706 36.1968 131.692 36.5566 131.879L44.1094 135.801C44.4937 136 44.735 136.397 44.7356 136.83C44.7361 137.263 44.4958 137.66 44.1121 137.861Z" fill="#FF0000"/>
<path d="M77.4609 129.023H78.2422C77.9609 129.612 77.6745 130.068 77.3828 130.391C76.638 131.24 75.638 131.776 74.3828 132C74.0286 132.068 73.6641 132.102 73.2891 132.102C72.1016 132.102 71.0286 131.721 70.0703 130.961C69.4818 130.492 69.0078 129.932 68.6484 129.281C68.2109 128.474 67.9922 127.617 67.9922 126.711C67.9922 125.685 68.2682 124.74 68.8203 123.875C69.5651 122.698 70.5547 121.914 71.7891 121.523C72.3516 121.346 72.9375 121.258 73.5469 121.258C74.3906 121.258 75.1693 121.445 75.8828 121.82C76.9453 122.388 77.6823 123.19 78.0938 124.227C78.2865 124.695 78.3828 125.185 78.3828 125.695C78.3828 126.378 78.2214 127.034 77.8984 127.664C77.4557 128.534 76.7839 129.167 75.8828 129.562C75.4401 129.766 75.0208 129.867 74.625 129.867C73.9531 129.867 73.5911 129.586 73.5391 129.023C73.2786 129.237 73.0573 129.401 72.875 129.516C72.4896 129.745 72.1068 129.859 71.7266 129.859C71.2161 129.859 70.7995 129.682 70.4766 129.328C70.1536 128.964 69.9922 128.482 69.9922 127.883C69.9922 126.883 70.3047 125.922 70.9297 125C71.2474 124.521 71.6458 124.138 72.125 123.852C72.5417 123.602 73 123.477 73.5 123.477C73.8906 123.477 74.224 123.576 74.5 123.773C74.6094 123.857 74.7422 123.984 74.8984 124.156L75.0547 123.742H76.4453L74.7812 128.172C74.6458 128.547 74.5781 128.805 74.5781 128.945C74.5781 129.143 74.7109 129.242 74.9766 129.242C75.2578 129.242 75.5703 129.133 75.9141 128.914C76.487 128.555 76.9245 128.036 77.2266 127.359C77.4609 126.849 77.5781 126.323 77.5781 125.781C77.5781 124.74 77.1667 123.852 76.3438 123.117C75.5417 122.393 74.5859 122.031 73.4766 122.031C72.2005 122.031 71.1068 122.484 70.1953 123.391C69.2578 124.312 68.7891 125.435 68.7891 126.758C68.7891 128.076 69.2812 129.19 70.2656 130.102C71.1458 130.919 72.1719 131.328 73.3438 131.328C74.5312 131.328 75.5573 130.958 76.4219 130.219C76.7396 129.943 77.0859 129.544 77.4609 129.023ZM73.6328 127.43L74.4375 125.375C74.4844 125.26 74.5078 125.128 74.5078 124.977C74.5078 124.424 74.2812 124.148 73.8281 124.148C73.526 124.148 73.2188 124.315 72.9062 124.648C72.474 125.107 72.0938 125.721 71.7656 126.492C71.4375 127.279 71.2734 127.938 71.2734 128.469C71.2734 128.953 71.4922 129.195 71.9297 129.195C72.1328 129.195 72.3177 129.133 72.4844 129.008C72.9844 128.633 73.3672 128.107 73.6328 127.43ZM83.6094 132H80.4609V121.336H83.4844C84.6875 121.336 85.651 121.518 86.375 121.883C87.2708 122.326 87.9505 123.008 88.4141 123.93C88.8047 124.695 89 125.568 89 126.547C89 127.776 88.7109 128.854 88.1328 129.781C87.2109 131.26 85.7031 132 83.6094 132ZM83.4531 123.109H82.6484V130.195H83.0703C83.8568 130.195 84.4766 130.089 84.9297 129.875C85.5495 129.578 86.026 129.109 86.3594 128.469C86.6406 127.927 86.7812 127.31 86.7812 126.617C86.7812 125.841 86.6094 125.159 86.2656 124.57C85.9427 124.023 85.487 123.63 84.8984 123.391C84.4557 123.203 83.974 123.109 83.4531 123.109ZM96.2656 125.539V124.602H98.3047V132H96.2656V130.984C95.5938 131.833 94.737 132.258 93.6953 132.258C92.5651 132.258 91.6562 131.839 90.9688 131C90.401 130.307 90.1172 129.438 90.1172 128.391C90.1172 127.609 90.2969 126.885 90.6562 126.219C90.9583 125.656 91.388 125.206 91.9453 124.867C92.5078 124.523 93.1406 124.352 93.8438 124.352C94.4219 124.352 94.9427 124.49 95.4062 124.766C95.6875 124.932 95.974 125.19 96.2656 125.539ZM94.2656 126.07C93.625 126.07 93.125 126.318 92.7656 126.812C92.4479 127.255 92.2891 127.771 92.2891 128.359C92.2891 129.062 92.5052 129.63 92.9375 130.062C93.3073 130.432 93.7448 130.617 94.25 130.617C94.8646 130.617 95.3724 130.362 95.7734 129.852C96.1224 129.409 96.2969 128.891 96.2969 128.297C96.2969 127.708 96.1406 127.211 95.8281 126.805C95.4479 126.315 94.9271 126.07 94.2656 126.07ZM100.32 124.602H102.359V132H100.32V124.602ZM101.352 121.352C101.69 121.352 101.964 121.469 102.172 121.703C102.37 121.927 102.469 122.193 102.469 122.5C102.469 122.844 102.341 123.128 102.086 123.352C101.893 123.523 101.646 123.609 101.344 123.609C101 123.609 100.721 123.495 100.508 123.266C100.31 123.042 100.211 122.781 100.211 122.484C100.211 122.125 100.339 121.833 100.594 121.609C100.786 121.438 101.039 121.352 101.352 121.352ZM106.422 121.336V132H104.383V121.336H106.422ZM109.578 124.602L111.078 129L112.805 124.602H114.969L110.797 135.383H108.609L110.008 131.828L107.414 124.602H109.578ZM122.258 123.125H119.719V132H117.531V123.125H114.992V121.336H122.258V123.125ZM130.742 128.781H124.953C125.026 129.193 125.172 129.523 125.391 129.773C125.776 130.221 126.276 130.445 126.891 130.445C127.312 130.445 127.706 130.323 128.07 130.078C128.284 129.938 128.461 129.74 128.602 129.484L130.461 130C130.169 130.578 129.797 131.044 129.344 131.398C128.604 131.971 127.779 132.258 126.867 132.258C125.638 132.258 124.628 131.839 123.836 131C123.169 130.292 122.836 129.388 122.836 128.289C122.836 127.581 122.99 126.924 123.297 126.32C123.615 125.69 124.076 125.203 124.68 124.859C125.279 124.516 125.966 124.344 126.742 124.344C128.055 124.344 129.094 124.807 129.859 125.734C130.453 126.453 130.75 127.336 130.75 128.383C130.75 128.534 130.747 128.667 130.742 128.781ZM124.945 127.617H128.656C128.583 127.227 128.443 126.914 128.234 126.68C127.87 126.268 127.38 126.062 126.766 126.062C126.177 126.062 125.708 126.268 125.359 126.68C125.161 126.919 125.023 127.232 124.945 127.617ZM136.312 132L134.25 128.93V132H132.211V121.336H134.25V127.438L136.32 124.602H138.672L136.148 128.148L138.672 132H136.312ZM143.891 132L141.828 128.93V132H139.789V121.336H141.828V127.438L143.898 124.602H146.25L143.727 128.148L146.25 132H143.891ZM74.3203 141.125H71.7812V150H69.5938V141.125H67.0547V139.336H74.3203V141.125ZM82.8047 146.781H77.0156C77.0885 147.193 77.2344 147.523 77.4531 147.773C77.8385 148.221 78.3385 148.445 78.9531 148.445C79.375 148.445 79.7682 148.323 80.1328 148.078C80.3464 147.938 80.5234 147.74 80.6641 147.484L82.5234 148C82.2318 148.578 81.8594 149.044 81.4062 149.398C80.6667 149.971 79.8411 150.258 78.9297 150.258C77.7005 150.258 76.6901 149.839 75.8984 149C75.2318 148.292 74.8984 147.388 74.8984 146.289C74.8984 145.581 75.0521 144.924 75.3594 144.32C75.6771 143.69 76.138 143.203 76.7422 142.859C77.3411 142.516 78.0286 142.344 78.8047 142.344C80.1172 142.344 81.1562 142.807 81.9219 143.734C82.5156 144.453 82.8125 145.336 82.8125 146.383C82.8125 146.534 82.8099 146.667 82.8047 146.781ZM77.0078 145.617H80.7188C80.6458 145.227 80.5052 144.914 80.2969 144.68C79.9323 144.268 79.4427 144.062 78.8281 144.062C78.2396 144.062 77.7708 144.268 77.4219 144.68C77.224 144.919 77.0859 145.232 77.0078 145.617ZM89.3281 147.828L90.5547 149.148C89.737 149.888 88.7891 150.258 87.7109 150.258C86.5911 150.258 85.6432 149.875 84.8672 149.109C84.1484 148.401 83.7891 147.479 83.7891 146.344C83.7891 145.51 83.9974 144.753 84.4141 144.07C84.7786 143.482 85.2812 143.036 85.9219 142.734C86.474 142.474 87.0729 142.344 87.7188 142.344C88.7969 142.344 89.7839 142.753 90.6797 143.57L89.3281 144.812C88.8802 144.375 88.3698 144.156 87.7969 144.156C87.1927 144.156 86.7031 144.383 86.3281 144.836C86.0052 145.232 85.8438 145.711 85.8438 146.273C85.8438 146.956 86.0625 147.503 86.5 147.914C86.8698 148.268 87.3281 148.445 87.875 148.445C88.3646 148.445 88.849 148.24 89.3281 147.828ZM91.7578 139.336H93.7969V143.391C94.3854 142.693 95.0547 142.344 95.8047 142.344C96.2526 142.344 96.6823 142.456 97.0938 142.68C97.5781 142.94 97.901 143.292 98.0625 143.734C98.1875 144.057 98.25 144.518 98.25 145.117V150H96.2109V145.406C96.2109 144.927 96.0781 144.565 95.8125 144.32C95.6354 144.148 95.401 144.062 95.1094 144.062C94.7656 144.062 94.4635 144.185 94.2031 144.43C94.0312 144.596 93.9167 144.779 93.8594 144.977C93.8177 145.154 93.7969 145.359 93.7969 145.594V150H91.7578V139.336ZM110.242 150L107.32 145.758V150H105.133V139.336H108.414C109.753 139.336 110.76 139.617 111.438 140.18C111.703 140.388 111.914 140.643 112.07 140.945C112.352 141.471 112.492 142.052 112.492 142.688C112.492 143.703 112.169 144.51 111.523 145.109C111.122 145.479 110.602 145.745 109.961 145.906L112.898 150H110.242ZM107.32 141.148V144.477H108.32C108.888 144.477 109.339 144.357 109.672 144.117C110.073 143.82 110.273 143.383 110.273 142.805C110.273 142.32 110.128 141.927 109.836 141.625C109.534 141.307 109.089 141.148 108.5 141.148H107.32ZM121.789 146.781H116C116.073 147.193 116.219 147.523 116.438 147.773C116.823 148.221 117.323 148.445 117.938 148.445C118.359 148.445 118.753 148.323 119.117 148.078C119.331 147.938 119.508 147.74 119.648 147.484L121.508 148C121.216 148.578 120.844 149.044 120.391 149.398C119.651 149.971 118.826 150.258 117.914 150.258C116.685 150.258 115.674 149.839 114.883 149C114.216 148.292 113.883 147.388 113.883 146.289C113.883 145.581 114.036 144.924 114.344 144.32C114.661 143.69 115.122 143.203 115.727 142.859C116.326 142.516 117.013 142.344 117.789 142.344C119.102 142.344 120.141 142.807 120.906 143.734C121.5 144.453 121.797 145.336 121.797 146.383C121.797 146.534 121.794 146.667 121.789 146.781ZM115.992 145.617H119.703C119.63 145.227 119.49 144.914 119.281 144.68C118.917 144.268 118.427 144.062 117.812 144.062C117.224 144.062 116.755 144.268 116.406 144.68C116.208 144.919 116.07 145.232 115.992 145.617ZM125.977 147.016L127.609 142.602H129.695L127 150H124.898L122.227 142.602H124.336L125.977 147.016ZM130.68 142.602H132.719V150H130.68V142.602ZM131.711 139.352C132.049 139.352 132.323 139.469 132.531 139.703C132.729 139.927 132.828 140.193 132.828 140.5C132.828 140.844 132.701 141.128 132.445 141.352C132.253 141.523 132.005 141.609 131.703 141.609C131.359 141.609 131.081 141.495 130.867 141.266C130.669 141.042 130.57 140.781 130.57 140.484C130.57 140.125 130.698 139.833 130.953 139.609C131.146 139.438 131.398 139.352 131.711 139.352ZM142.164 146.781H136.375C136.448 147.193 136.594 147.523 136.812 147.773C137.198 148.221 137.698 148.445 138.312 148.445C138.734 148.445 139.128 148.323 139.492 148.078C139.706 147.938 139.883 147.74 140.023 147.484L141.883 148C141.591 148.578 141.219 149.044 140.766 149.398C140.026 149.971 139.201 150.258 138.289 150.258C137.06 150.258 136.049 149.839 135.258 149C134.591 148.292 134.258 147.388 134.258 146.289C134.258 145.581 134.411 144.924 134.719 144.32C135.036 143.69 135.497 143.203 136.102 142.859C136.701 142.516 137.388 142.344 138.164 142.344C139.477 142.344 140.516 142.807 141.281 143.734C141.875 144.453 142.172 145.336 142.172 146.383C142.172 146.534 142.169 146.667 142.164 146.781ZM136.367 145.617H140.078C140.005 145.227 139.865 144.914 139.656 144.68C139.292 144.268 138.802 144.062 138.188 144.062C137.599 144.062 137.13 144.268 136.781 144.68C136.583 144.919 136.445 145.232 136.367 145.617ZM150.727 147.102L152.234 142.602H154.305L151.883 150H149.766L148.469 145.469L147.148 150H144.984L142.602 142.602H144.672L146.164 147.102L147.445 142.602H149.406L150.727 147.102ZM162.711 146.781H156.922C156.995 147.193 157.141 147.523 157.359 147.773C157.745 148.221 158.245 148.445 158.859 148.445C159.281 148.445 159.674 148.323 160.039 148.078C160.253 147.938 160.43 147.74 160.57 147.484L162.43 148C162.138 148.578 161.766 149.044 161.312 149.398C160.573 149.971 159.747 150.258 158.836 150.258C157.607 150.258 156.596 149.839 155.805 149C155.138 148.292 154.805 147.388 154.805 146.289C154.805 145.581 154.958 144.924 155.266 144.32C155.583 143.69 156.044 143.203 156.648 142.859C157.247 142.516 157.935 142.344 158.711 142.344C160.023 142.344 161.062 142.807 161.828 143.734C162.422 144.453 162.719 145.336 162.719 146.383C162.719 146.534 162.716 146.667 162.711 146.781ZM156.914 145.617H160.625C160.552 145.227 160.411 144.914 160.203 144.68C159.839 144.268 159.349 144.062 158.734 144.062C158.146 144.062 157.677 144.268 157.328 144.68C157.13 144.919 156.992 145.232 156.914 145.617ZM164.18 150V142.602H166.219V143.68C166.391 143.211 166.607 142.885 166.867 142.703C167.19 142.464 167.586 142.344 168.055 142.344C168.143 142.344 168.227 142.346 168.305 142.352V144.43C168.122 144.414 167.982 144.406 167.883 144.406C167.284 144.406 166.828 144.63 166.516 145.078C166.375 145.292 166.289 145.513 166.258 145.742C166.232 145.961 166.219 146.19 166.219 146.43V150H164.18Z" fill="#282828"/>
</g>
<g filter="url(#filter1_d_1_2324)">
<rect x="304" width="290" height="170" rx="30" fill="white"/>
<rect x="304.5" y="0.5" width="289" height="169" rx="29.5" stroke="#F2F2F2"/>
<path d="M320.96 21.35H319.84L320.68 18.2H321.52L320.96 21.35ZM322.92 21.35H321.8L322.64 18.2H323.48L322.92 21.35ZM324.598 18.2H331.598V19.124H328.588V28H327.608V19.124H324.598V18.2ZM336.135 20.832C336.975 20.832 337.642 21.0933 338.137 21.616C338.632 22.1293 338.879 22.8247 338.879 23.702V28H337.955V23.702C337.955 23.0767 337.787 22.5913 337.451 22.246C337.124 21.9007 336.658 21.728 336.051 21.728C335.351 21.728 334.796 21.9473 334.385 22.386C333.984 22.8247 333.783 23.4733 333.783 24.332V28H332.859V18.2H333.783V22.092C334.306 21.252 335.09 20.832 336.135 20.832ZM343.9 20.832C344.945 20.832 345.78 21.2007 346.406 21.938C347.05 22.666 347.372 23.5293 347.372 24.528C347.372 24.5747 347.362 24.7193 347.344 24.962H341.198C341.291 25.662 341.59 26.222 342.094 26.642C342.598 27.062 343.228 27.272 343.984 27.272C345.048 27.272 345.799 26.8753 346.238 26.082L347.05 26.558C346.742 27.062 346.317 27.4587 345.776 27.748C345.244 28.028 344.642 28.168 343.97 28.168C342.868 28.168 341.972 27.8227 341.282 27.132C340.591 26.4413 340.246 25.564 340.246 24.5C340.246 23.4453 340.586 22.5727 341.268 21.882C341.949 21.182 342.826 20.832 343.9 20.832ZM343.9 21.728C343.172 21.728 342.56 21.9427 342.066 22.372C341.58 22.8013 341.291 23.366 341.198 24.066H346.42C346.317 23.3193 346.032 22.7453 345.566 22.344C345.08 21.9333 344.525 21.728 343.9 21.728ZM355.617 20.832C356.457 20.832 357.125 21.0933 357.619 21.616C358.114 22.1293 358.361 22.8247 358.361 23.702V28H357.437V23.702C357.437 23.0767 357.269 22.5913 356.933 22.246C356.607 21.9007 356.14 21.728 355.533 21.728C354.833 21.728 354.278 21.9473 353.867 22.386C353.466 22.8247 353.265 23.4733 353.265 24.332V28H352.341V21H353.265V22.092C353.788 21.252 354.572 20.832 355.617 20.832ZM366.014 27.118C365.295 27.818 364.427 28.168 363.41 28.168C362.374 28.168 361.501 27.818 360.792 27.118C360.083 26.4087 359.728 25.536 359.728 24.5C359.728 23.464 360.083 22.596 360.792 21.896C361.501 21.1867 362.374 20.832 363.41 20.832C364.437 20.832 365.305 21.1867 366.014 21.896C366.733 22.596 367.092 23.464 367.092 24.5C367.092 25.5267 366.733 26.3993 366.014 27.118ZM361.45 26.474C361.982 27.006 362.635 27.272 363.41 27.272C364.185 27.272 364.838 27.006 365.37 26.474C365.902 25.9233 366.168 25.2653 366.168 24.5C366.168 23.7253 365.902 23.072 365.37 22.54C364.838 21.9987 364.185 21.728 363.41 21.728C362.635 21.728 361.982 21.9987 361.45 22.54C360.918 23.072 360.652 23.7253 360.652 24.5C360.652 25.2653 360.918 25.9233 361.45 26.474ZM369.772 18.844C369.772 19.0307 369.707 19.1893 369.576 19.32C369.446 19.4507 369.287 19.516 369.1 19.516C368.914 19.516 368.755 19.4507 368.624 19.32C368.494 19.1893 368.428 19.0307 368.428 18.844C368.428 18.6573 368.494 18.4987 368.624 18.368C368.755 18.2373 368.914 18.172 369.1 18.172C369.287 18.172 369.446 18.2373 369.576 18.368C369.707 18.4987 369.772 18.6573 369.772 18.844ZM369.562 28H368.638V21H369.562V28ZM372.251 22.834C372.251 23.3753 372.732 23.772 373.693 24.024C373.964 24.0893 374.141 24.136 374.225 24.164C374.309 24.1827 374.472 24.234 374.715 24.318C374.967 24.3927 375.14 24.458 375.233 24.514C375.336 24.57 375.476 24.6587 375.653 24.78C375.83 24.892 375.956 25.0087 376.031 25.13C376.106 25.242 376.176 25.3913 376.241 25.578C376.306 25.7553 376.339 25.9467 376.339 26.152C376.339 26.7493 376.101 27.2347 375.625 27.608C375.168 27.9813 374.561 28.168 373.805 28.168C373.152 28.168 372.587 28.0233 372.111 27.734C371.635 27.4353 371.299 27.0433 371.103 26.558L371.887 26.096C372.018 26.46 372.251 26.7493 372.587 26.964C372.932 27.1693 373.338 27.272 373.805 27.272C374.281 27.272 374.668 27.1787 374.967 26.992C375.266 26.8053 375.415 26.5253 375.415 26.152C375.415 25.6107 374.934 25.214 373.973 24.962C373.702 24.8967 373.525 24.8547 373.441 24.836C373.357 24.808 373.189 24.7567 372.937 24.682C372.694 24.598 372.522 24.528 372.419 24.472C372.326 24.416 372.19 24.332 372.013 24.22C371.836 24.0987 371.71 23.982 371.635 23.87C371.56 23.7487 371.49 23.5993 371.425 23.422C371.36 23.2353 371.327 23.0393 371.327 22.834C371.327 22.2647 371.551 21.7887 371.999 21.406C372.466 21.0233 373.04 20.832 373.721 20.832C374.281 20.832 374.776 20.958 375.205 21.21C375.644 21.462 375.966 21.812 376.171 22.26L375.401 22.708C375.14 22.0547 374.58 21.728 373.721 21.728C373.301 21.728 372.951 21.826 372.671 22.022C372.391 22.218 372.251 22.4887 372.251 22.834ZM380.909 20.832C381.955 20.832 382.79 21.2007 383.415 21.938C384.059 22.666 384.381 23.5293 384.381 24.528C384.381 24.5747 384.372 24.7193 384.353 24.962H378.207C378.301 25.662 378.599 26.222 379.103 26.642C379.607 27.062 380.237 27.272 380.993 27.272C382.057 27.272 382.809 26.8753 383.247 26.082L384.059 26.558C383.751 27.062 383.327 27.4587 382.785 27.748C382.253 28.028 381.651 28.168 380.979 28.168C379.878 28.168 378.982 27.8227 378.291 27.132C377.601 26.4413 377.255 25.564 377.255 24.5C377.255 23.4453 377.596 22.5727 378.277 21.882C378.959 21.182 379.836 20.832 380.909 20.832ZM380.909 21.728C380.181 21.728 379.57 21.9427 379.075 22.372C378.59 22.8013 378.301 23.366 378.207 24.066H383.429C383.327 23.3193 383.042 22.7453 382.575 22.344C382.09 21.9333 381.535 21.728 380.909 21.728ZM392.613 28.168C391.558 28.168 390.681 27.818 389.981 27.118C389.281 26.3993 388.931 25.5267 388.931 24.5C388.931 23.464 389.281 22.596 389.981 21.896C390.681 21.1867 391.558 20.832 392.613 20.832C393.304 20.832 393.924 21 394.475 21.336C395.026 21.6627 395.427 22.106 395.679 22.666L394.923 23.1C394.736 22.68 394.433 22.3487 394.013 22.106C393.602 21.854 393.136 21.728 392.613 21.728C391.838 21.728 391.185 21.9987 390.653 22.54C390.121 23.072 389.855 23.7253 389.855 24.5C389.855 25.2653 390.121 25.9233 390.653 26.474C391.185 27.006 391.838 27.272 392.613 27.272C393.126 27.272 393.588 27.1507 393.999 26.908C394.419 26.6653 394.746 26.3293 394.979 25.9L395.749 26.348C395.46 26.908 395.035 27.3513 394.475 27.678C393.915 28.0047 393.294 28.168 392.613 28.168ZM403.027 22.372V21H403.951V28H403.027V26.628C402.383 27.6547 401.441 28.168 400.199 28.168C399.201 28.168 398.347 27.8133 397.637 27.104C396.937 26.3947 396.587 25.5267 396.587 24.5C396.587 23.4733 396.937 22.6053 397.637 21.896C398.347 21.1867 399.201 20.832 400.199 20.832C401.441 20.832 402.383 21.3453 403.027 22.372ZM398.309 26.474C398.841 27.006 399.495 27.272 400.269 27.272C401.044 27.272 401.697 27.006 402.229 26.474C402.761 25.9233 403.027 25.2653 403.027 24.5C403.027 23.7253 402.761 23.072 402.229 22.54C401.697 21.9987 401.044 21.728 400.269 21.728C399.495 21.728 398.841 21.9987 398.309 22.54C397.777 23.072 397.511 23.7253 397.511 24.5C397.511 25.2653 397.777 25.9233 398.309 26.474ZM409.184 20.832C410.024 20.832 410.691 21.0933 411.186 21.616C411.68 22.1293 411.928 22.8247 411.928 23.702V28H411.004V23.702C411.004 23.0767 410.836 22.5913 410.5 22.246C410.173 21.9007 409.706 21.728 409.1 21.728C408.4 21.728 407.844 21.9473 407.434 22.386C407.032 22.8247 406.832 23.4733 406.832 24.332V28H405.908V21H406.832V22.092C407.354 21.252 408.138 20.832 409.184 20.832ZM416.976 28.168C415.922 28.168 415.044 27.818 414.344 27.118C413.644 26.3993 413.294 25.5267 413.294 24.5C413.294 23.464 413.644 22.596 414.344 21.896C415.044 21.1867 415.922 20.832 416.976 20.832C417.667 20.832 418.288 21 418.838 21.336C419.389 21.6627 419.79 22.106 420.042 22.666L419.286 23.1C419.1 22.68 418.796 22.3487 418.376 22.106C417.966 21.854 417.499 21.728 416.976 21.728C416.202 21.728 415.548 21.9987 415.016 22.54C414.484 23.072 414.218 23.7253 414.218 24.5C414.218 25.2653 414.484 25.9233 415.016 26.474C415.548 27.006 416.202 27.272 416.976 27.272C417.49 27.272 417.952 27.1507 418.362 26.908C418.782 26.6653 419.109 26.3293 419.342 25.9L420.112 26.348C419.823 26.908 419.398 27.3513 418.838 27.678C418.278 28.0047 417.658 28.168 416.976 28.168ZM424.605 20.832C425.65 20.832 426.485 21.2007 427.111 21.938C427.755 22.666 428.077 23.5293 428.077 24.528C428.077 24.5747 428.067 24.7193 428.049 24.962H421.903C421.996 25.662 422.295 26.222 422.799 26.642C423.303 27.062 423.933 27.272 424.689 27.272C425.753 27.272 426.504 26.8753 426.943 26.082L427.755 26.558C427.447 27.062 427.022 27.4587 426.481 27.748C425.949 28.028 425.347 28.168 424.675 28.168C423.573 28.168 422.677 27.8227 421.987 27.132C421.296 26.4413 420.951 25.564 420.951 24.5C420.951 23.4453 421.291 22.5727 421.973 21.882C422.654 21.182 423.531 20.832 424.605 20.832ZM424.605 21.728C423.877 21.728 423.265 21.9427 422.771 22.372C422.285 22.8013 421.996 23.366 421.903 24.066H427.125C427.022 23.3193 426.737 22.7453 426.271 22.344C425.785 21.9333 425.23 21.728 424.605 21.728ZM430.47 28H429.546V17.78H430.47V28ZM433.355 28H432.431V17.78H433.355V28ZM441.336 22.372V21H442.26V28H441.336V26.628C440.692 27.6547 439.749 28.168 438.508 28.168C437.509 28.168 436.655 27.8133 435.946 27.104C435.246 26.3947 434.896 25.5267 434.896 24.5C434.896 23.4733 435.246 22.6053 435.946 21.896C436.655 21.1867 437.509 20.832 438.508 20.832C439.749 20.832 440.692 21.3453 441.336 22.372ZM436.618 26.474C437.15 27.006 437.803 27.272 438.578 27.272C439.353 27.272 440.006 27.006 440.538 26.474C441.07 25.9233 441.336 25.2653 441.336 24.5C441.336 23.7253 441.07 23.072 440.538 22.54C440.006 21.9987 439.353 21.728 438.578 21.728C437.803 21.728 437.15 21.9987 436.618 22.54C436.086 23.072 435.82 23.7253 435.82 24.5C435.82 25.2653 436.086 25.9233 436.618 26.474ZM447.926 21V21.896H445.91V26.138C445.91 26.5207 445.985 26.796 446.134 26.964C446.284 27.1227 446.508 27.2067 446.806 27.216C447.105 27.216 447.478 27.2067 447.926 27.188V28C446.928 28.1493 446.186 28.0793 445.7 27.79C445.224 27.4913 444.986 26.9407 444.986 26.138V21.896H443.516V21H444.986V19.32L445.91 19.04V21H447.926ZM450.6 18.844C450.6 19.0307 450.535 19.1893 450.404 19.32C450.274 19.4507 450.115 19.516 449.928 19.516C449.742 19.516 449.583 19.4507 449.452 19.32C449.322 19.1893 449.256 19.0307 449.256 18.844C449.256 18.6573 449.322 18.4987 449.452 18.368C449.583 18.2373 449.742 18.172 449.928 18.172C450.115 18.172 450.274 18.2373 450.404 18.368C450.535 18.4987 450.6 18.6573 450.6 18.844ZM450.39 28H449.466V21H450.39V28ZM458.217 27.118C457.498 27.818 456.63 28.168 455.613 28.168C454.577 28.168 453.704 27.818 452.995 27.118C452.286 26.4087 451.931 25.536 451.931 24.5C451.931 23.464 452.286 22.596 452.995 21.896C453.704 21.1867 454.577 20.832 455.613 20.832C456.64 20.832 457.508 21.1867 458.217 21.896C458.936 22.596 459.295 23.464 459.295 24.5C459.295 25.5267 458.936 26.3993 458.217 27.118ZM453.653 26.474C454.185 27.006 454.838 27.272 455.613 27.272C456.388 27.272 457.041 27.006 457.573 26.474C458.105 25.9233 458.371 25.2653 458.371 24.5C458.371 23.7253 458.105 23.072 457.573 22.54C457.041 21.9987 456.388 21.728 455.613 21.728C454.838 21.728 454.185 21.9987 453.653 22.54C453.121 23.072 452.855 23.7253 452.855 24.5C452.855 25.2653 453.121 25.9233 453.653 26.474ZM464.117 20.832C464.957 20.832 465.625 21.0933 466.119 21.616C466.614 22.1293 466.861 22.8247 466.861 23.702V28H465.937V23.702C465.937 23.0767 465.769 22.5913 465.433 22.246C465.107 21.9007 464.64 21.728 464.033 21.728C463.333 21.728 462.778 21.9473 462.367 22.386C461.966 22.8247 461.765 23.4733 461.765 24.332V28H460.841V21H461.765V22.092C462.288 21.252 463.072 20.832 464.117 20.832ZM478.014 27.118C477.295 27.818 476.427 28.168 475.41 28.168C474.374 28.168 473.501 27.818 472.792 27.118C472.083 26.4087 471.728 25.536 471.728 24.5C471.728 23.464 472.083 22.596 472.792 21.896C473.501 21.1867 474.374 20.832 475.41 20.832C476.437 20.832 477.305 21.1867 478.014 21.896C478.733 22.596 479.092 23.464 479.092 24.5C479.092 25.5267 478.733 26.3993 478.014 27.118ZM473.45 26.474C473.982 27.006 474.635 27.272 475.41 27.272C476.185 27.272 476.838 27.006 477.37 26.474C477.902 25.9233 478.168 25.2653 478.168 24.5C478.168 23.7253 477.902 23.072 477.37 22.54C476.838 21.9987 476.185 21.728 475.41 21.728C474.635 21.728 473.982 21.9987 473.45 22.54C472.918 23.072 472.652 23.7253 472.652 24.5C472.652 25.2653 472.918 25.9233 473.45 26.474ZM483.914 20.832C484.754 20.832 485.422 21.0933 485.916 21.616C486.411 22.1293 486.658 22.8247 486.658 23.702V28H485.734V23.702C485.734 23.0767 485.566 22.5913 485.23 22.246C484.904 21.9007 484.437 21.728 483.83 21.728C483.13 21.728 482.575 21.9473 482.164 22.386C481.763 22.8247 481.562 23.4733 481.562 24.332V28H480.638V21H481.562V22.092C482.085 21.252 482.869 20.832 483.914 20.832ZM495.655 21V21.896H493.639V26.138C493.639 26.5207 493.714 26.796 493.863 26.964C494.012 27.1227 494.236 27.2067 494.535 27.216C494.834 27.216 495.207 27.2067 495.655 27.188V28C494.656 28.1493 493.914 28.0793 493.429 27.79C492.953 27.4913 492.715 26.9407 492.715 26.138V21.896H491.245V21H492.715V19.32L493.639 19.04V21H495.655ZM500.471 20.832C501.311 20.832 501.978 21.0933 502.473 21.616C502.968 22.1293 503.215 22.8247 503.215 23.702V28H502.291V23.702C502.291 23.0767 502.123 22.5913 501.787 22.246C501.46 21.9007 500.994 21.728 500.387 21.728C499.687 21.728 499.132 21.9473 498.721 22.386C498.32 22.8247 498.119 23.4733 498.119 24.332V28H497.195V18.2H498.119V22.092C498.642 21.252 499.426 20.832 500.471 20.832ZM508.235 20.832C509.281 20.832 510.116 21.2007 510.741 21.938C511.385 22.666 511.707 23.5293 511.707 24.528C511.707 24.5747 511.698 24.7193 511.679 24.962H505.533C505.627 25.662 505.925 26.222 506.429 26.642C506.933 27.062 507.563 27.272 508.319 27.272C509.383 27.272 510.135 26.8753 510.573 26.082L511.385 26.558C511.077 27.062 510.653 27.4587 510.111 27.748C509.579 28.028 508.977 28.168 508.305 28.168C507.204 28.168 506.308 27.8227 505.617 27.132C504.927 26.4413 504.581 25.564 504.581 24.5C504.581 23.4453 504.922 22.5727 505.603 21.882C506.285 21.182 507.162 20.832 508.235 20.832ZM508.235 21.728C507.507 21.728 506.896 21.9427 506.401 22.372C505.916 22.8013 505.627 23.366 505.533 24.066H510.755C510.653 23.3193 510.368 22.7453 509.901 22.344C509.416 21.9333 508.861 21.728 508.235 21.728ZM513.632 22.834C513.632 23.3753 514.112 23.772 515.074 24.024C515.344 24.0893 515.522 24.136 515.606 24.164C515.69 24.1827 515.853 24.234 516.096 24.318C516.348 24.3927 516.52 24.458 516.614 24.514C516.716 24.57 516.856 24.6587 517.034 24.78C517.211 24.892 517.337 25.0087 517.412 25.13C517.486 25.242 517.556 25.3913 517.622 25.578C517.687 25.7553 517.72 25.9467 517.72 26.152C517.72 26.7493 517.482 27.2347 517.006 27.608C516.548 27.9813 515.942 28.168 515.186 28.168C514.532 28.168 513.968 28.0233 513.492 27.734C513.016 27.4353 512.68 27.0433 512.484 26.558L513.268 26.096C513.398 26.46 513.632 26.7493 513.968 26.964C514.313 27.1693 514.719 27.272 515.186 27.272C515.662 27.272 516.049 27.1787 516.348 26.992C516.646 26.8053 516.796 26.5253 516.796 26.152C516.796 25.6107 516.315 25.214 515.354 24.962C515.083 24.8967 514.906 24.8547 514.822 24.836C514.738 24.808 514.57 24.7567 514.318 24.682C514.075 24.598 513.902 24.528 513.8 24.472C513.706 24.416 513.571 24.332 513.394 24.22C513.216 24.0987 513.09 23.982 513.016 23.87C512.941 23.7487 512.871 23.5993 512.806 23.422C512.74 23.2353 512.708 23.0393 512.708 22.834C512.708 22.2647 512.932 21.7887 513.38 21.406C513.846 21.0233 514.42 20.832 515.102 20.832C515.662 20.832 516.156 20.958 516.586 21.21C517.024 21.462 517.346 21.812 517.552 22.26L516.782 22.708C516.52 22.0547 515.96 21.728 515.102 21.728C514.682 21.728 514.332 21.826 514.052 22.022C513.772 22.218 513.632 22.4887 513.632 22.834ZM522.29 20.832C523.336 20.832 524.171 21.2007 524.796 21.938C525.44 22.666 525.762 23.5293 525.762 24.528C525.762 24.5747 525.753 24.7193 525.734 24.962H519.588C519.682 25.662 519.98 26.222 520.484 26.642C520.988 27.062 521.618 27.272 522.374 27.272C523.438 27.272 524.19 26.8753 524.628 26.082L525.44 26.558C525.132 27.062 524.708 27.4587 524.166 27.748C523.634 28.028 523.032 28.168 522.36 28.168C521.259 28.168 520.363 27.8227 519.672 27.132C518.982 26.4413 518.636 25.564 518.636 24.5C518.636 23.4453 518.977 22.5727 519.658 21.882C520.34 21.182 521.217 20.832 522.29 20.832ZM522.29 21.728C521.562 21.728 520.951 21.9427 520.456 22.372C519.971 22.8013 519.682 23.366 519.588 24.066H524.81C524.708 23.3193 524.423 22.7453 523.956 22.344C523.471 21.9333 522.916 21.728 522.29 21.728ZM323.214 38.832C324.259 38.832 325.095 39.2007 325.72 39.938C326.364 40.666 326.686 41.5293 326.686 42.528C326.686 42.5747 326.677 42.7193 326.658 42.962H320.512C320.605 43.662 320.904 44.222 321.408 44.642C321.912 45.062 322.542 45.272 323.298 45.272C324.362 45.272 325.113 44.8753 325.552 44.082L326.364 44.558C326.056 45.062 325.631 45.4587 325.09 45.748C324.558 46.028 323.956 46.168 323.284 46.168C322.183 46.168 321.287 45.8227 320.596 45.132C319.905 44.4413 319.56 43.564 319.56 42.5C319.56 41.4453 319.901 40.5727 320.582 39.882C321.263 39.182 322.141 38.832 323.214 38.832ZM323.214 39.728C322.486 39.728 321.875 39.9427 321.38 40.372C320.895 40.8013 320.605 41.366 320.512 42.066H325.734C325.631 41.3193 325.347 40.7453 324.88 40.344C324.395 39.9333 323.839 39.728 323.214 39.728ZM334.176 40.372V39H335.1V46H334.176V44.628C333.532 45.6547 332.589 46.168 331.348 46.168C330.349 46.168 329.495 45.8133 328.786 45.104C328.086 44.3947 327.736 43.5267 327.736 42.5C327.736 41.4733 328.086 40.6053 328.786 39.896C329.495 39.1867 330.349 38.832 331.348 38.832C332.589 38.832 333.532 39.3453 334.176 40.372ZM329.458 44.474C329.99 45.006 330.643 45.272 331.418 45.272C332.192 45.272 332.846 45.006 333.378 44.474C333.91 43.9233 334.176 43.2653 334.176 42.5C334.176 41.7253 333.91 41.072 333.378 40.54C332.846 39.9987 332.192 39.728 331.418 39.728C330.643 39.728 329.99 39.9987 329.458 40.54C328.926 41.072 328.66 41.7253 328.66 42.5C328.66 43.2653 328.926 43.9233 329.458 44.474ZM337.98 39V40.162C338.41 39.3127 339.147 38.888 340.192 38.888V39.784C339.52 39.784 338.984 39.98 338.582 40.372C338.181 40.7547 337.98 41.3333 337.98 42.108V46H337.056V39H337.98ZM345.211 38.832C346.209 38.832 347.059 39.1867 347.759 39.896C348.468 40.6053 348.823 41.4733 348.823 42.5C348.823 43.5267 348.468 44.3947 347.759 45.104C347.059 45.8133 346.209 46.168 345.211 46.168C343.969 46.168 343.027 45.6547 342.383 44.628V46H341.459V36.2H342.383V40.372C343.027 39.3453 343.969 38.832 345.211 38.832ZM343.181 44.474C343.713 45.006 344.366 45.272 345.141 45.272C345.915 45.272 346.569 45.006 347.101 44.474C347.633 43.9233 347.899 43.2653 347.899 42.5C347.899 41.7253 347.633 41.072 347.101 40.54C346.569 39.9987 345.915 39.728 345.141 39.728C344.366 39.728 343.713 39.9987 343.181 40.54C342.649 41.072 342.383 41.7253 342.383 42.5C342.383 43.2653 342.649 43.9233 343.181 44.474ZM355.287 42.668V39H356.211V46H355.287V44.908C354.764 45.748 353.98 46.168 352.935 46.168C352.095 46.168 351.428 45.9113 350.933 45.398C350.438 44.8753 350.191 44.1753 350.191 43.298V39H351.115V43.298C351.115 43.9233 351.278 44.4087 351.605 44.754C351.941 45.0993 352.412 45.272 353.019 45.272C353.719 45.272 354.27 45.0527 354.671 44.614C355.082 44.1753 355.287 43.5267 355.287 42.668ZM364.186 40.372V36.2H365.11V46H364.186V44.628C363.542 45.6547 362.599 46.168 361.358 46.168C360.359 46.168 359.505 45.8133 358.796 45.104C358.096 44.3947 357.746 43.5267 357.746 42.5C357.746 41.4733 358.096 40.6053 358.796 39.896C359.505 39.1867 360.359 38.832 361.358 38.832C362.599 38.832 363.542 39.3453 364.186 40.372ZM359.468 44.474C360 45.006 360.653 45.272 361.428 45.272C362.202 45.272 362.856 45.006 363.388 44.474C363.92 43.9233 364.186 43.2653 364.186 42.5C364.186 41.7253 363.92 41.072 363.388 40.54C362.856 39.9987 362.202 39.728 361.428 39.728C360.653 39.728 360 39.9987 359.468 40.54C358.936 41.072 358.67 41.7253 358.67 42.5C358.67 43.2653 358.936 43.9233 359.468 44.474ZM367.794 40.834C367.794 41.3753 368.275 41.772 369.236 42.024C369.507 42.0893 369.684 42.136 369.768 42.164C369.852 42.1827 370.015 42.234 370.258 42.318C370.51 42.3927 370.683 42.458 370.776 42.514C370.879 42.57 371.019 42.6587 371.196 42.78C371.373 42.892 371.499 43.0087 371.574 43.13C371.649 43.242 371.719 43.3913 371.784 43.578C371.849 43.7553 371.882 43.9467 371.882 44.152C371.882 44.7493 371.644 45.2347 371.168 45.608C370.711 45.9813 370.104 46.168 369.348 46.168C368.695 46.168 368.13 46.0233 367.654 45.734C367.178 45.4353 366.842 45.0433 366.646 44.558L367.43 44.096C367.561 44.46 367.794 44.7493 368.13 44.964C368.475 45.1693 368.881 45.272 369.348 45.272C369.824 45.272 370.211 45.1787 370.51 44.992C370.809 44.8053 370.958 44.5253 370.958 44.152C370.958 43.6107 370.477 43.214 369.516 42.962C369.245 42.8967 369.068 42.8547 368.984 42.836C368.9 42.808 368.732 42.7567 368.48 42.682C368.237 42.598 368.065 42.528 367.962 42.472C367.869 42.416 367.733 42.332 367.556 42.22C367.379 42.0987 367.253 41.982 367.178 41.87C367.103 41.7487 367.033 41.5993 366.968 41.422C366.903 41.2353 366.87 41.0393 366.87 40.834C366.87 40.2647 367.094 39.7887 367.542 39.406C368.009 39.0233 368.583 38.832 369.264 38.832C369.824 38.832 370.319 38.958 370.748 39.21C371.187 39.462 371.509 39.812 371.714 40.26L370.944 40.708C370.683 40.0547 370.123 39.728 369.264 39.728C368.844 39.728 368.494 39.826 368.214 40.022C367.934 40.218 367.794 40.4887 367.794 40.834ZM378.057 36.844C378.057 37.0307 377.992 37.1893 377.861 37.32C377.731 37.4507 377.572 37.516 377.385 37.516C377.199 37.516 377.04 37.4507 376.909 37.32C376.779 37.1893 376.713 37.0307 376.713 36.844C376.713 36.6573 376.779 36.4987 376.909 36.368C377.04 36.2373 377.199 36.172 377.385 36.172C377.572 36.172 377.731 36.2373 377.861 36.368C377.992 36.4987 378.057 36.6573 378.057 36.844ZM377.847 46H376.923V39H377.847V46ZM380.536 40.834C380.536 41.3753 381.017 41.772 381.978 42.024C382.249 42.0893 382.426 42.136 382.51 42.164C382.594 42.1827 382.757 42.234 383 42.318C383.252 42.3927 383.425 42.458 383.518 42.514C383.621 42.57 383.761 42.6587 383.938 42.78C384.115 42.892 384.241 43.0087 384.316 43.13C384.391 43.242 384.461 43.3913 384.526 43.578C384.591 43.7553 384.624 43.9467 384.624 44.152C384.624 44.7493 384.386 45.2347 383.91 45.608C383.453 45.9813 382.846 46.168 382.09 46.168C381.437 46.168 380.872 46.0233 380.396 45.734C379.92 45.4353 379.584 45.0433 379.388 44.558L380.172 44.096C380.303 44.46 380.536 44.7493 380.872 44.964C381.217 45.1693 381.623 45.272 382.09 45.272C382.566 45.272 382.953 45.1787 383.252 44.992C383.551 44.8053 383.7 44.5253 383.7 44.152C383.7 43.6107 383.219 43.214 382.258 42.962C381.987 42.8967 381.81 42.8547 381.726 42.836C381.642 42.808 381.474 42.7567 381.222 42.682C380.979 42.598 380.807 42.528 380.704 42.472C380.611 42.416 380.475 42.332 380.298 42.22C380.121 42.0987 379.995 41.982 379.92 41.87C379.845 41.7487 379.775 41.5993 379.71 41.422C379.645 41.2353 379.612 41.0393 379.612 40.834C379.612 40.2647 379.836 39.7887 380.284 39.406C380.751 39.0233 381.325 38.832 382.006 38.832C382.566 38.832 383.061 38.958 383.49 39.21C383.929 39.462 384.251 39.812 384.456 40.26L383.686 40.708C383.425 40.0547 382.865 39.728 382.006 39.728C381.586 39.728 381.236 39.826 380.956 40.022C380.676 40.218 380.536 40.4887 380.536 40.834ZM392.9 38.832C393.945 38.832 394.78 39.2007 395.406 39.938C396.05 40.666 396.372 41.5293 396.372 42.528C396.372 42.5747 396.362 42.7193 396.344 42.962H390.198C390.291 43.662 390.59 44.222 391.094 44.642C391.598 45.062 392.228 45.272 392.984 45.272C394.048 45.272 394.799 44.8753 395.238 44.082L396.05 44.558C395.742 45.062 395.317 45.4587 394.776 45.748C394.244 46.028 393.642 46.168 392.97 46.168C391.868 46.168 390.972 45.8227 390.282 45.132C389.591 44.4413 389.246 43.564 389.246 42.5C389.246 41.4453 389.586 40.5727 390.268 39.882C390.949 39.182 391.826 38.832 392.9 38.832ZM392.9 39.728C392.172 39.728 391.56 39.9427 391.066 40.372C390.58 40.8013 390.291 41.366 390.198 42.066H395.42C395.317 41.3193 395.032 40.7453 394.566 40.344C394.08 39.9333 393.525 39.728 392.9 39.728ZM403.861 40.372V39H404.785V46H403.861V44.628C403.217 45.6547 402.275 46.168 401.033 46.168C400.035 46.168 399.181 45.8133 398.471 45.104C397.771 44.3947 397.421 43.5267 397.421 42.5C397.421 41.4733 397.771 40.6053 398.471 39.896C399.181 39.1867 400.035 38.832 401.033 38.832C402.275 38.832 403.217 39.3453 403.861 40.372ZM399.143 44.474C399.675 45.006 400.329 45.272 401.103 45.272C401.878 45.272 402.531 45.006 403.063 44.474C403.595 43.9233 403.861 43.2653 403.861 42.5C403.861 41.7253 403.595 41.072 403.063 40.54C402.531 39.9987 401.878 39.728 401.103 39.728C400.329 39.728 399.675 39.9987 399.143 40.54C398.611 41.072 398.345 41.7253 398.345 42.5C398.345 43.2653 398.611 43.9233 399.143 44.474ZM407.47 40.834C407.47 41.3753 407.95 41.772 408.912 42.024C409.182 42.0893 409.36 42.136 409.444 42.164C409.528 42.1827 409.691 42.234 409.934 42.318C410.186 42.3927 410.358 42.458 410.452 42.514C410.554 42.57 410.694 42.6587 410.872 42.78C411.049 42.892 411.175 43.0087 411.25 43.13C411.324 43.242 411.394 43.3913 411.46 43.578C411.525 43.7553 411.558 43.9467 411.558 44.152C411.558 44.7493 411.32 45.2347 410.844 45.608C410.386 45.9813 409.78 46.168 409.024 46.168C408.37 46.168 407.806 46.0233 407.33 45.734C406.854 45.4353 406.518 45.0433 406.322 44.558L407.106 44.096C407.236 44.46 407.47 44.7493 407.806 44.964C408.151 45.1693 408.557 45.272 409.024 45.272C409.5 45.272 409.887 45.1787 410.186 44.992C410.484 44.8053 410.634 44.5253 410.634 44.152C410.634 43.6107 410.153 43.214 409.192 42.962C408.921 42.8967 408.744 42.8547 408.66 42.836C408.576 42.808 408.408 42.7567 408.156 42.682C407.913 42.598 407.74 42.528 407.638 42.472C407.544 42.416 407.409 42.332 407.232 42.22C407.054 42.0987 406.928 41.982 406.854 41.87C406.779 41.7487 406.709 41.5993 406.644 41.422C406.578 41.2353 406.546 41.0393 406.546 40.834C406.546 40.2647 406.77 39.7887 407.218 39.406C407.684 39.0233 408.258 38.832 408.94 38.832C409.5 38.832 409.994 38.958 410.424 39.21C410.862 39.462 411.184 39.812 411.39 40.26L410.62 40.708C410.358 40.0547 409.798 39.728 408.94 39.728C408.52 39.728 408.17 39.826 407.89 40.022C407.61 40.218 407.47 40.4887 407.47 40.834ZM414.165 36.844C414.165 37.0307 414.099 37.1893 413.969 37.32C413.838 37.4507 413.679 37.516 413.493 37.516C413.306 37.516 413.147 37.4507 413.017 37.32C412.886 37.1893 412.821 37.0307 412.821 36.844C412.821 36.6573 412.886 36.4987 413.017 36.368C413.147 36.2373 413.306 36.172 413.493 36.172C413.679 36.172 413.838 36.2373 413.969 36.368C414.099 36.4987 414.165 36.6573 414.165 36.844ZM413.955 46H413.031V39H413.955V46ZM416.84 46H415.916V35.78H416.84V46ZM421.572 44.866L423.84 39H424.82L421.824 46.644C421.544 47.3533 421.152 47.8993 420.648 48.282C420.154 48.674 419.603 48.8467 418.996 48.8V47.932C419.836 48.0347 420.476 47.5493 420.914 46.476L421.096 46.042L417.96 39H418.94L421.572 44.866ZM433.147 39V39.896H431.131V44.138C431.131 44.5207 431.206 44.796 431.355 44.964C431.504 45.1227 431.728 45.2067 432.027 45.216C432.326 45.216 432.699 45.2067 433.147 45.188V46C432.148 46.1493 431.406 46.0793 430.921 45.79C430.445 45.4913 430.207 44.9407 430.207 44.138V39.896H428.737V39H430.207V37.32L431.131 37.04V39H433.147ZM440.129 45.118C439.411 45.818 438.543 46.168 437.525 46.168C436.489 46.168 435.617 45.818 434.907 45.118C434.198 44.4087 433.843 43.536 433.843 42.5C433.843 41.464 434.198 40.596 434.907 39.896C435.617 39.1867 436.489 38.832 437.525 38.832C438.552 38.832 439.42 39.1867 440.129 39.896C440.848 40.596 441.207 41.464 441.207 42.5C441.207 43.5267 440.848 44.3993 440.129 45.118ZM435.565 44.474C436.097 45.006 436.751 45.272 437.525 45.272C438.3 45.272 438.953 45.006 439.485 44.474C440.017 43.9233 440.283 43.2653 440.283 42.5C440.283 41.7253 440.017 41.072 439.485 40.54C438.953 39.9987 438.3 39.728 437.525 39.728C436.751 39.728 436.097 39.9987 435.565 40.54C435.033 41.072 434.767 41.7253 434.767 42.5C434.767 43.2653 435.033 43.9233 435.565 44.474ZM446.505 38.832C447.504 38.832 448.353 39.1867 449.053 39.896C449.763 40.6053 450.117 41.4733 450.117 42.5C450.117 43.5267 449.763 44.3947 449.053 45.104C448.353 45.8133 447.504 46.168 446.505 46.168C445.264 46.168 444.321 45.6547 443.677 44.628V48.8H442.753V39H443.677V40.372C444.321 39.3453 445.264 38.832 446.505 38.832ZM444.475 44.474C445.007 45.006 445.661 45.272 446.435 45.272C447.21 45.272 447.863 45.006 448.395 44.474C448.927 43.9233 449.193 43.2653 449.193 42.5C449.193 41.7253 448.927 41.072 448.395 40.54C447.863 39.9987 447.21 39.728 446.435 39.728C445.661 39.728 445.007 39.9987 444.475 40.54C443.943 41.072 443.677 41.7253 443.677 42.5C443.677 43.2653 443.943 43.9233 444.475 44.474ZM458.864 39V39.896H456.848V44.138C456.848 44.5207 456.922 44.796 457.072 44.964C457.221 45.1227 457.445 45.2067 457.744 45.216C458.042 45.216 458.416 45.2067 458.864 45.188V46C457.865 46.1493 457.123 46.0793 456.638 45.79C456.162 45.4913 455.924 44.9407 455.924 44.138V39.896H454.454V39H455.924V37.32L456.848 37.04V39H458.864ZM461.538 36.844C461.538 37.0307 461.472 37.1893 461.342 37.32C461.211 37.4507 461.052 37.516 460.866 37.516C460.679 37.516 460.52 37.4507 460.39 37.32C460.259 37.1893 460.194 37.0307 460.194 36.844C460.194 36.6573 460.259 36.4987 460.39 36.368C460.52 36.2373 460.679 36.172 460.866 36.172C461.052 36.172 461.211 36.2373 461.342 36.368C461.472 36.4987 461.538 36.6573 461.538 36.844ZM461.328 46H460.404V39H461.328V46ZM466.523 38.832C467.568 38.832 468.403 39.2007 469.029 39.938C469.673 40.666 469.995 41.5293 469.995 42.528C469.995 42.5747 469.985 42.7193 469.967 42.962H463.821C463.914 43.662 464.213 44.222 464.717 44.642C465.221 45.062 465.851 45.272 466.607 45.272C467.671 45.272 468.422 44.8753 468.861 44.082L469.673 44.558C469.365 45.062 468.94 45.4587 468.399 45.748C467.867 46.028 467.265 46.168 466.593 46.168C465.491 46.168 464.595 45.8227 463.905 45.132C463.214 44.4413 462.869 43.564 462.869 42.5C462.869 41.4453 463.209 40.5727 463.891 39.882C464.572 39.182 465.449 38.832 466.523 38.832ZM466.523 39.728C465.795 39.728 465.183 39.9427 464.689 40.372C464.203 40.8013 463.914 41.366 463.821 42.066H469.043C468.94 41.3193 468.655 40.7453 468.189 40.344C467.703 39.9333 467.148 39.728 466.523 39.728ZM472.388 39V40.162C472.818 39.3127 473.555 38.888 474.6 38.888V39.784C473.928 39.784 473.392 39.98 472.99 40.372C472.589 40.7547 472.388 41.3333 472.388 42.108V46H471.464V39H472.388ZM476.282 45.37C476.282 45.5847 476.208 45.7667 476.058 45.916C475.909 46.0653 475.727 46.14 475.512 46.14C475.298 46.14 475.116 46.0653 474.966 45.916C474.817 45.7667 474.742 45.5847 474.742 45.37C474.742 45.1553 474.817 44.9733 474.966 44.824C475.116 44.6747 475.298 44.6 475.512 44.6C475.727 44.6 475.909 44.6747 476.058 44.824C476.208 44.9733 476.282 45.1553 476.282 45.37ZM478.529 36.2H479.649L478.809 39.35H477.969L478.529 36.2ZM480.489 36.2H481.609L480.769 39.35H479.929L480.489 36.2Z" fill="#282828" fill-opacity="0.8"/>
<line x1="319" y1="108.5" x2="579" y2="108.5" stroke="#DCDCDC"/>
<path d="M353.597 126.507C352.297 124.963 349.898 124.333 345.316 124.333H328.684C323.997 124.333 321.557 125.003 320.262 126.648C319 128.251 319 130.614 319 133.884V140.117C319 146.451 320.498 149.668 328.684 149.668H345.316C349.29 149.668 351.492 149.112 352.916 147.749C354.377 146.351 355 144.068 355 140.117V133.884C355 130.436 354.902 128.059 353.597 126.507ZM342.112 137.861L334.559 141.808C334.39 141.896 334.206 141.94 334.021 141.94C333.813 141.94 333.604 141.884 333.42 141.772C333.072 141.562 332.86 141.185 332.86 140.779V132.909C332.86 132.504 333.072 132.128 333.418 131.917C333.765 131.706 334.197 131.692 334.557 131.879L342.109 135.801C342.494 136 342.735 136.397 342.736 136.83C342.736 137.263 342.496 137.66 342.112 137.861Z" fill="#FF0000"/>
</g>
<defs>
<filter id="filter0_d_1_2324" x="0" y="-6" width="302" height="182" filterUnits="userSpaceOnUse" color-interpolation-filters="sRGB">
<feFlood flood-opacity="0" result="BackgroundImageFix"/>
<feColorMatrix in="SourceAlpha" type="matrix" values="0 0 0 0 0 0 0 0 0 0 0 0 0 0 0 0 0 0 127 0" result="hardAlpha"/>
<feOffset/>
<feGaussianBlur stdDeviation="3"/>
<feColorMatrix type="matrix" values="0 0 0 0 0 0 0 0 0 0 0 0 0 0 0 0 0 0 0.06 0"/>
<feBlend mode="normal" in2="BackgroundImageFix" result="effect1_dropShadow_1_2324"/>
<feBlend mode="normal" in="SourceGraphic" in2="effect1_dropShadow_1_2324" result="shape"/>
</filter>
<filter id="filter1_d_1_2324" x="298" y="-6" width="302" height="182" filterUnits="userSpaceOnUse" color-interpolation-filters="sRGB">
<feFlood flood-opacity="0" result="BackgroundImageFix"/>
<feColorMatrix in="SourceAlpha" type="matrix" values="0 0 0 0 0 0 0 0 0 0 0 0 0 0 0 0 0 0 127 0" result="hardAlpha"/>
<feOffset/>
<feGaussianBlur stdDeviation="3"/>
<feColorMatrix type="matrix" values="0 0 0 0 0 0 0 0 0 0 0 0 0 0 0 0 0 0 0.06 0"/>
<feBlend mode="normal" in2="BackgroundImageFix" result="effect1_dropShadow_1_2324"/>
<feBlend mode="normal" in="SourceGraphic" in2="effect1_dropShadow_1_2324" result="shape"/>
</filter>
</defs>
</svg>
