<svg width="346" height="176" viewBox="0 0 346 176" fill="none" xmlns="http://www.w3.org/2000/svg">
<g filter="url(#filter0_d_1_2357)">
<rect x="-248" width="290" height="170" rx="30" fill="white"/>
<rect x="-247.5" y="0.5" width="289" height="169" rx="29.5" stroke="#F2F2F2"/>
<line x1="-233" y1="108.5" x2="27" y2="108.5" stroke="#DCDCDC"/>
</g>
<g filter="url(#filter1_d_1_2357)">
<rect x="50" width="290" height="170" rx="30" fill="white"/>
<rect x="50.5" y="0.5" width="289" height="169" rx="29.5" stroke="#F2F2F2"/>
<path d="M66.96 21.35H65.84L66.68 18.2H67.52L66.96 21.35ZM68.92 21.35H67.8L68.64 18.2H69.48L68.92 21.35ZM77.7384 22.498V18.2H78.7184V28H77.7384V23.422H72.4184V28H71.4384V18.2H72.4184V22.498H77.7384ZM86.68 27.118C85.9613 27.818 85.0933 28.168 84.076 28.168C83.04 28.168 82.1673 27.818 81.458 27.118C80.7487 26.4087 80.394 25.536 80.394 24.5C80.394 23.464 80.7487 22.596 81.458 21.896C82.1673 21.1867 83.04 20.832 84.076 20.832C85.1027 20.832 85.9707 21.1867 86.68 21.896C87.3987 22.596 87.758 23.464 87.758 24.5C87.758 25.5267 87.3987 26.3993 86.68 27.118ZM82.116 26.474C82.648 27.006 83.3013 27.272 84.076 27.272C84.8507 27.272 85.504 27.006 86.036 26.474C86.568 25.9233 86.834 25.2653 86.834 24.5C86.834 23.7253 86.568 23.072 86.036 22.54C85.504 21.9987 84.8507 21.728 84.076 21.728C83.3013 21.728 82.648 21.9987 82.116 22.54C81.584 23.072 81.318 23.7253 81.318 24.5C81.318 25.2653 81.584 25.9233 82.116 26.474ZM95.7368 26.81L97.4588 21H98.4108L96.2548 28H95.2468L93.4408 22.358L91.6348 28H90.6268L88.4708 21H89.4228L91.1448 26.81L92.9788 21H93.9028L95.7368 26.81ZM109.324 22.372V18.2H110.248V28H109.324V26.628C108.68 27.6547 107.738 28.168 106.496 28.168C105.498 28.168 104.644 27.8133 103.934 27.104C103.234 26.3947 102.884 25.5267 102.884 24.5C102.884 23.4733 103.234 22.6053 103.934 21.896C104.644 21.1867 105.498 20.832 106.496 20.832C107.738 20.832 108.68 21.3453 109.324 22.372ZM104.606 26.474C105.138 27.006 105.792 27.272 106.566 27.272C107.341 27.272 107.994 27.006 108.526 26.474C109.058 25.9233 109.324 25.2653 109.324 24.5C109.324 23.7253 109.058 23.072 108.526 22.54C107.994 21.9987 107.341 21.728 106.566 21.728C105.792 21.728 105.138 21.9987 104.606 22.54C104.074 23.072 103.808 23.7253 103.808 24.5C103.808 25.2653 104.074 25.9233 104.606 26.474ZM118.071 27.118C117.352 27.818 116.484 28.168 115.467 28.168C114.431 28.168 113.558 27.818 112.849 27.118C112.139 26.4087 111.785 25.536 111.785 24.5C111.785 23.464 112.139 22.596 112.849 21.896C113.558 21.1867 114.431 20.832 115.467 20.832C116.493 20.832 117.361 21.1867 118.071 21.896C118.789 22.596 119.149 23.464 119.149 24.5C119.149 25.5267 118.789 26.3993 118.071 27.118ZM113.507 26.474C114.039 27.006 114.692 27.272 115.467 27.272C116.241 27.272 116.895 27.006 117.427 26.474C117.959 25.9233 118.225 25.2653 118.225 24.5C118.225 23.7253 117.959 23.072 117.427 22.54C116.895 21.9987 116.241 21.728 115.467 21.728C114.692 21.728 114.039 21.9987 113.507 22.54C112.975 23.072 112.709 23.7253 112.709 24.5C112.709 25.2653 112.975 25.9233 113.507 26.474ZM127.905 21V21.896H125.889V26.138C125.889 26.5207 125.964 26.796 126.113 26.964C126.262 27.1227 126.486 27.2067 126.785 27.216C127.084 27.216 127.457 27.2067 127.905 27.188V28C126.906 28.1493 126.164 28.0793 125.679 27.79C125.203 27.4913 124.965 26.9407 124.965 26.138V21.896H123.495V21H124.965V19.32L125.889 19.04V21H127.905ZM132.721 20.832C133.561 20.832 134.228 21.0933 134.723 21.616C135.218 22.1293 135.465 22.8247 135.465 23.702V28H134.541V23.702C134.541 23.0767 134.373 22.5913 134.037 22.246C133.71 21.9007 133.244 21.728 132.637 21.728C131.937 21.728 131.382 21.9473 130.971 22.386C130.57 22.8247 130.369 23.4733 130.369 24.332V28H129.445V18.2H130.369V22.092C130.892 21.252 131.676 20.832 132.721 20.832ZM140.485 20.832C141.531 20.832 142.366 21.2007 142.991 21.938C143.635 22.666 143.957 23.5293 143.957 24.528C143.957 24.5747 143.948 24.7193 143.929 24.962H137.783C137.877 25.662 138.175 26.222 138.679 26.642C139.183 27.062 139.813 27.272 140.569 27.272C141.633 27.272 142.385 26.8753 142.823 26.082L143.635 26.558C143.327 27.062 142.903 27.4587 142.361 27.748C141.829 28.028 141.227 28.168 140.555 28.168C139.454 28.168 138.558 27.8227 137.867 27.132C137.177 26.4413 136.831 25.564 136.831 24.5C136.831 23.4453 137.172 22.5727 137.853 21.882C138.535 21.182 139.412 20.832 140.485 20.832ZM140.485 21.728C139.757 21.728 139.146 21.9427 138.651 22.372C138.166 22.8013 137.877 23.366 137.783 24.066H143.005C142.903 23.3193 142.618 22.7453 142.151 22.344C141.666 21.9333 141.111 21.728 140.485 21.728ZM147.926 26.866L150.194 21H151.174L148.178 28.644C147.898 29.3533 147.506 29.8993 147.002 30.282C146.507 30.674 145.956 30.8467 145.35 30.8V29.932C146.19 30.0347 146.829 29.5493 147.268 28.476L147.45 28.042L144.314 21H145.294L147.926 26.866ZM156.519 22.834C156.519 23.3753 156.999 23.772 157.961 24.024C158.231 24.0893 158.409 24.136 158.493 24.164C158.577 24.1827 158.74 24.234 158.983 24.318C159.235 24.3927 159.407 24.458 159.501 24.514C159.603 24.57 159.743 24.6587 159.921 24.78C160.098 24.892 160.224 25.0087 160.299 25.13C160.373 25.242 160.443 25.3913 160.509 25.578C160.574 25.7553 160.607 25.9467 160.607 26.152C160.607 26.7493 160.369 27.2347 159.893 27.608C159.435 27.9813 158.829 28.168 158.073 28.168C157.419 28.168 156.855 28.0233 156.379 27.734C155.903 27.4353 155.567 27.0433 155.371 26.558L156.155 26.096C156.285 26.46 156.519 26.7493 156.855 26.964C157.2 27.1693 157.606 27.272 158.073 27.272C158.549 27.272 158.936 27.1787 159.235 26.992C159.533 26.8053 159.683 26.5253 159.683 26.152C159.683 25.6107 159.202 25.214 158.241 24.962C157.97 24.8967 157.793 24.8547 157.709 24.836C157.625 24.808 157.457 24.7567 157.205 24.682C156.962 24.598 156.789 24.528 156.687 24.472C156.593 24.416 156.458 24.332 156.281 24.22C156.103 24.0987 155.977 23.982 155.903 23.87C155.828 23.7487 155.758 23.5993 155.693 23.422C155.627 23.2353 155.595 23.0393 155.595 22.834C155.595 22.2647 155.819 21.7887 156.267 21.406C156.733 21.0233 157.307 20.832 157.989 20.832C158.549 20.832 159.043 20.958 159.473 21.21C159.911 21.462 160.233 21.812 160.439 22.26L159.669 22.708C159.407 22.0547 158.847 21.728 157.989 21.728C157.569 21.728 157.219 21.826 156.939 22.022C156.659 22.218 156.519 22.4887 156.519 22.834ZM167.809 27.118C167.09 27.818 166.222 28.168 165.205 28.168C164.169 28.168 163.296 27.818 162.587 27.118C161.878 26.4087 161.523 25.536 161.523 24.5C161.523 23.464 161.878 22.596 162.587 21.896C163.296 21.1867 164.169 20.832 165.205 20.832C166.232 20.832 167.1 21.1867 167.809 21.896C168.528 22.596 168.887 23.464 168.887 24.5C168.887 25.5267 168.528 26.3993 167.809 27.118ZM163.245 26.474C163.777 27.006 164.43 27.272 165.205 27.272C165.98 27.272 166.633 27.006 167.165 26.474C167.697 25.9233 167.963 25.2653 167.963 24.5C167.963 23.7253 167.697 23.072 167.165 22.54C166.633 21.9987 165.98 21.728 165.205 21.728C164.43 21.728 163.777 21.9987 163.245 22.54C162.713 23.072 162.447 23.7253 162.447 24.5C162.447 25.2653 162.713 25.9233 163.245 26.474ZM175.361 24.668V21H176.285V28H175.361V26.908C174.838 27.748 174.054 28.168 173.009 28.168C172.169 28.168 171.502 27.9113 171.007 27.398C170.512 26.8753 170.265 26.1753 170.265 25.298V21H171.189V25.298C171.189 25.9233 171.352 26.4087 171.679 26.754C172.015 27.0993 172.486 27.272 173.093 27.272C173.793 27.272 174.344 27.0527 174.745 26.614C175.156 26.1753 175.361 25.5267 175.361 24.668ZM181.516 20.832C182.356 20.832 183.023 21.0933 183.518 21.616C184.012 22.1293 184.26 22.8247 184.26 23.702V28H183.336V23.702C183.336 23.0767 183.168 22.5913 182.832 22.246C182.505 21.9007 182.038 21.728 181.432 21.728C180.732 21.728 180.176 21.9473 179.766 22.386C179.364 22.8247 179.164 23.4733 179.164 24.332V28H178.24V21H179.164V22.092C179.686 21.252 180.47 20.832 181.516 20.832ZM192.066 22.372V18.2H192.99V28H192.066V26.628C191.422 27.6547 190.48 28.168 189.238 28.168C188.24 28.168 187.386 27.8133 186.676 27.104C185.976 26.3947 185.626 25.5267 185.626 24.5C185.626 23.4733 185.976 22.6053 186.676 21.896C187.386 21.1867 188.24 20.832 189.238 20.832C190.48 20.832 191.422 21.3453 192.066 22.372ZM187.348 26.474C187.88 27.006 188.534 27.272 189.308 27.272C190.083 27.272 190.736 27.006 191.268 26.474C191.8 25.9233 192.066 25.2653 192.066 24.5C192.066 23.7253 191.8 23.072 191.268 22.54C190.736 21.9987 190.083 21.728 189.308 21.728C188.534 21.728 187.88 21.9987 187.348 22.54C186.816 23.072 186.55 23.7253 186.55 24.5C186.55 25.2653 186.816 25.9233 187.348 26.474ZM204.313 27.118C203.594 27.818 202.726 28.168 201.709 28.168C200.673 28.168 199.8 27.818 199.091 27.118C198.381 26.4087 198.027 25.536 198.027 24.5C198.027 23.464 198.381 22.596 199.091 21.896C199.8 21.1867 200.673 20.832 201.709 20.832C202.735 20.832 203.603 21.1867 204.313 21.896C205.031 22.596 205.391 23.464 205.391 24.5C205.391 25.5267 205.031 26.3993 204.313 27.118ZM199.749 26.474C200.281 27.006 200.934 27.272 201.709 27.272C202.483 27.272 203.137 27.006 203.669 26.474C204.201 25.9233 204.467 25.2653 204.467 24.5C204.467 23.7253 204.201 23.072 203.669 22.54C203.137 21.9987 202.483 21.728 201.709 21.728C200.934 21.728 200.281 21.9987 199.749 22.54C199.217 23.072 198.951 23.7253 198.951 24.5C198.951 25.2653 199.217 25.9233 199.749 26.474ZM210.213 20.832C211.053 20.832 211.72 21.0933 212.215 21.616C212.71 22.1293 212.957 22.8247 212.957 23.702V28H212.033V23.702C212.033 23.0767 211.865 22.5913 211.529 22.246C211.202 21.9007 210.736 21.728 210.129 21.728C209.429 21.728 208.874 21.9473 208.463 22.386C208.062 22.8247 207.861 23.4733 207.861 24.332V28H206.937V21H207.861V22.092C208.384 21.252 209.168 20.832 210.213 20.832ZM221.996 20.832C222.994 20.832 223.844 21.1867 224.544 21.896C225.253 22.6053 225.608 23.4733 225.608 24.5C225.608 25.5267 225.253 26.3947 224.544 27.104C223.844 27.8133 222.994 28.168 221.996 28.168C220.754 28.168 219.812 27.6547 219.168 26.628V30.8H218.244V21H219.168V22.372C219.812 21.3453 220.754 20.832 221.996 20.832ZM219.966 26.474C220.498 27.006 221.151 27.272 221.926 27.272C222.7 27.272 223.354 27.006 223.886 26.474C224.418 25.9233 224.684 25.2653 224.684 24.5C224.684 23.7253 224.418 23.072 223.886 22.54C223.354 21.9987 222.7 21.728 221.926 21.728C221.151 21.728 220.498 21.9987 219.966 22.54C219.434 23.072 219.168 23.7253 219.168 24.5C219.168 25.2653 219.434 25.9233 219.966 26.474ZM230.42 20.832C231.26 20.832 231.927 21.0933 232.422 21.616C232.917 22.1293 233.164 22.8247 233.164 23.702V28H232.24V23.702C232.24 23.0767 232.072 22.5913 231.736 22.246C231.409 21.9007 230.943 21.728 230.336 21.728C229.636 21.728 229.081 21.9473 228.67 22.386C228.269 22.8247 228.068 23.4733 228.068 24.332V28H227.144V18.2H228.068V22.092C228.591 21.252 229.375 20.832 230.42 20.832ZM240.817 27.118C240.098 27.818 239.23 28.168 238.213 28.168C237.177 28.168 236.304 27.818 235.595 27.118C234.885 26.4087 234.531 25.536 234.531 24.5C234.531 23.464 234.885 22.596 235.595 21.896C236.304 21.1867 237.177 20.832 238.213 20.832C239.239 20.832 240.107 21.1867 240.817 21.896C241.535 22.596 241.895 23.464 241.895 24.5C241.895 25.5267 241.535 26.3993 240.817 27.118ZM236.253 26.474C236.785 27.006 237.438 27.272 238.213 27.272C238.987 27.272 239.641 27.006 240.173 26.474C240.705 25.9233 240.971 25.2653 240.971 24.5C240.971 23.7253 240.705 23.072 240.173 22.54C239.641 21.9987 238.987 21.728 238.213 21.728C237.438 21.728 236.785 21.9987 236.253 22.54C235.721 23.072 235.455 23.7253 235.455 24.5C235.455 25.2653 235.721 25.9233 236.253 26.474ZM246.717 20.832C247.557 20.832 248.224 21.0933 248.719 21.616C249.214 22.1293 249.461 22.8247 249.461 23.702V28H248.537V23.702C248.537 23.0767 248.369 22.5913 248.033 22.246C247.706 21.9007 247.24 21.728 246.633 21.728C245.933 21.728 245.378 21.9473 244.967 22.386C244.566 22.8247 244.365 23.4733 244.365 24.332V28H243.441V21H244.365V22.092C244.888 21.252 245.672 20.832 246.717 20.832ZM254.482 20.832C255.527 20.832 256.362 21.2007 256.988 21.938C257.632 22.666 257.954 23.5293 257.954 24.528C257.954 24.5747 257.944 24.7193 257.926 24.962H251.78C251.873 25.662 252.172 26.222 252.676 26.642C253.18 27.062 253.81 27.272 254.566 27.272C255.63 27.272 256.381 26.8753 256.82 26.082L257.632 26.558C257.324 27.062 256.899 27.4587 256.358 27.748C255.826 28.028 255.224 28.168 254.552 28.168C253.45 28.168 252.554 27.8227 251.864 27.132C251.173 26.4413 250.828 25.564 250.828 24.5C250.828 23.4453 251.168 22.5727 251.85 21.882C252.531 21.182 253.408 20.832 254.482 20.832ZM254.482 21.728C253.754 21.728 253.142 21.9427 252.648 22.372C252.162 22.8013 251.873 23.366 251.78 24.066H257.002C256.899 23.3193 256.614 22.7453 256.148 22.344C255.662 21.9333 255.107 21.728 254.482 21.728ZM266.185 28.168C265.131 28.168 264.253 27.818 263.553 27.118C262.853 26.3993 262.503 25.5267 262.503 24.5C262.503 23.464 262.853 22.596 263.553 21.896C264.253 21.1867 265.131 20.832 266.185 20.832C266.876 20.832 267.497 21 268.047 21.336C268.598 21.6627 268.999 22.106 269.251 22.666L268.495 23.1C268.309 22.68 268.005 22.3487 267.585 22.106C267.175 21.854 266.708 21.728 266.185 21.728C265.411 21.728 264.757 21.9987 264.225 22.54C263.693 23.072 263.427 23.7253 263.427 24.5C263.427 25.2653 263.693 25.9233 264.225 26.474C264.757 27.006 265.411 27.272 266.185 27.272C266.699 27.272 267.161 27.1507 267.571 26.908C267.991 26.6653 268.318 26.3293 268.551 25.9L269.321 26.348C269.032 26.908 268.607 27.3513 268.047 27.678C267.487 28.0047 266.867 28.168 266.185 28.168ZM276.6 22.372V21H277.524V28H276.6V26.628C275.956 27.6547 275.013 28.168 273.772 28.168C272.773 28.168 271.919 27.8133 271.21 27.104C270.51 26.3947 270.16 25.5267 270.16 24.5C270.16 23.4733 270.51 22.6053 271.21 21.896C271.919 21.1867 272.773 20.832 273.772 20.832C275.013 20.832 275.956 21.3453 276.6 22.372ZM271.882 26.474C272.414 27.006 273.067 27.272 273.842 27.272C274.616 27.272 275.27 27.006 275.802 26.474C276.334 25.9233 276.6 25.2653 276.6 24.5C276.6 23.7253 276.334 23.072 275.802 22.54C275.27 21.9987 274.616 21.728 273.842 21.728C273.067 21.728 272.414 21.9987 271.882 22.54C271.35 23.072 271.084 23.7253 271.084 24.5C271.084 25.2653 271.35 25.9233 271.882 26.474ZM280.404 28H279.48V17.78H280.404V28ZM283.289 28H282.365V17.78H283.289V28ZM285.978 22.834C285.978 23.3753 286.458 23.772 287.42 24.024C287.69 24.0893 287.868 24.136 287.952 24.164C288.036 24.1827 288.199 24.234 288.442 24.318C288.694 24.3927 288.866 24.458 288.96 24.514C289.062 24.57 289.202 24.6587 289.38 24.78C289.557 24.892 289.683 25.0087 289.758 25.13C289.832 25.242 289.902 25.3913 289.968 25.578C290.033 25.7553 290.066 25.9467 290.066 26.152C290.066 26.7493 289.828 27.2347 289.352 27.608C288.894 27.9813 288.288 28.168 287.532 28.168C286.878 28.168 286.314 28.0233 285.838 27.734C285.362 27.4353 285.026 27.0433 284.83 26.558L285.614 26.096C285.744 26.46 285.978 26.7493 286.314 26.964C286.659 27.1693 287.065 27.272 287.532 27.272C288.008 27.272 288.395 27.1787 288.694 26.992C288.992 26.8053 289.142 26.5253 289.142 26.152C289.142 25.6107 288.661 25.214 287.7 24.962C287.429 24.8967 287.252 24.8547 287.168 24.836C287.084 24.808 286.916 24.7567 286.664 24.682C286.421 24.598 286.248 24.528 286.146 24.472C286.052 24.416 285.917 24.332 285.74 24.22C285.562 24.0987 285.436 23.982 285.362 23.87C285.287 23.7487 285.217 23.5993 285.152 23.422C285.086 23.2353 285.054 23.0393 285.054 22.834C285.054 22.2647 285.278 21.7887 285.726 21.406C286.192 21.0233 286.766 20.832 287.448 20.832C288.008 20.832 288.502 20.958 288.932 21.21C289.37 21.462 289.692 21.812 289.898 22.26L289.128 22.708C288.866 22.0547 288.306 21.728 287.448 21.728C287.028 21.728 286.678 21.826 286.398 22.022C286.118 22.218 285.978 22.4887 285.978 22.834ZM293.713 25.34H292.733C292.733 24.5 293.05 23.7627 293.685 23.128C293.76 23.0533 293.909 22.9087 294.133 22.694C294.366 22.4793 294.534 22.316 294.637 22.204C294.74 22.092 294.866 21.9427 295.015 21.756C295.164 21.56 295.267 21.3733 295.323 21.196C295.388 21.0093 295.421 20.818 295.421 20.622C295.421 20.0993 295.239 19.698 294.875 19.418C294.52 19.1287 294.044 18.984 293.447 18.984C292.299 18.984 291.59 19.4553 291.319 20.398L290.493 19.936C290.708 19.3293 291.076 18.8627 291.599 18.536C292.131 18.2 292.747 18.032 293.447 18.032C294.268 18.032 294.964 18.2607 295.533 18.718C296.112 19.166 296.401 19.8007 296.401 20.622C296.401 21.3407 296.084 22.0173 295.449 22.652C295.412 22.68 295.3 22.7827 295.113 22.96C294.936 23.128 294.819 23.2447 294.763 23.31C294.707 23.366 294.604 23.4733 294.455 23.632C294.306 23.7907 294.203 23.9213 294.147 24.024C294.091 24.1267 294.021 24.2573 293.937 24.416C293.853 24.5653 293.792 24.7193 293.755 24.878C293.727 25.0273 293.713 25.1813 293.713 25.34ZM293.993 27.37C293.993 27.5847 293.918 27.7667 293.769 27.916C293.62 28.0653 293.438 28.14 293.223 28.14C293.008 28.14 292.826 28.0653 292.677 27.916C292.528 27.7667 292.453 27.5847 292.453 27.37C292.453 27.1553 292.528 26.9733 292.677 26.824C292.826 26.6747 293.008 26.6 293.223 26.6C293.438 26.6 293.62 26.6747 293.769 26.824C293.918 26.9733 293.993 27.1553 293.993 27.37ZM65.28 36.2H72.28V37.124H69.27V46H68.29V37.124H65.28V36.2ZM76.8165 38.832C77.6565 38.832 78.3239 39.0933 78.8185 39.616C79.3132 40.1293 79.5605 40.8247 79.5605 41.702V46H78.6365V41.702C78.6365 41.0767 78.4685 40.5913 78.1325 40.246C77.8059 39.9007 77.3392 39.728 76.7325 39.728C76.0325 39.728 75.4772 39.9473 75.0665 40.386C74.6652 40.8247 74.4645 41.4733 74.4645 42.332V46H73.5405V36.2H74.4645V40.092C74.9872 39.252 75.7712 38.832 76.8165 38.832ZM84.5812 38.832C85.6265 38.832 86.4619 39.2007 87.0872 39.938C87.7312 40.666 88.0532 41.5293 88.0532 42.528C88.0532 42.5747 88.0439 42.7193 88.0252 42.962H81.8792C81.9725 43.662 82.2712 44.222 82.7752 44.642C83.2792 45.062 83.9092 45.272 84.6652 45.272C85.7292 45.272 86.4805 44.8753 86.9192 44.082L87.7312 44.558C87.4232 45.062 86.9985 45.4587 86.4572 45.748C85.9252 46.028 85.3232 46.168 84.6512 46.168C83.5499 46.168 82.6539 45.8227 81.9632 45.132C81.2725 44.4413 80.9272 43.564 80.9272 42.5C80.9272 41.4453 81.2679 40.5727 81.9492 39.882C82.6305 39.182 83.5079 38.832 84.5812 38.832ZM84.5812 39.728C83.8532 39.728 83.2419 39.9427 82.7472 40.372C82.2619 40.8013 81.9725 41.366 81.8792 42.066H87.1012C86.9985 41.3193 86.7139 40.7453 86.2472 40.344C85.7619 39.9333 85.2065 39.728 84.5812 39.728ZM89.9775 40.834C89.9775 41.3753 90.4582 41.772 91.4195 42.024C91.6902 42.0893 91.8675 42.136 91.9515 42.164C92.0355 42.1827 92.1989 42.234 92.4415 42.318C92.6935 42.3927 92.8662 42.458 92.9595 42.514C93.0622 42.57 93.2022 42.6587 93.3795 42.78C93.5569 42.892 93.6829 43.0087 93.7575 43.13C93.8322 43.242 93.9022 43.3913 93.9675 43.578C94.0329 43.7553 94.0655 43.9467 94.0655 44.152C94.0655 44.7493 93.8275 45.2347 93.3515 45.608C92.8942 45.9813 92.2875 46.168 91.5315 46.168C90.8782 46.168 90.3135 46.0233 89.8375 45.734C89.3615 45.4353 89.0255 45.0433 88.8295 44.558L89.6135 44.096C89.7442 44.46 89.9775 44.7493 90.3135 44.964C90.6589 45.1693 91.0649 45.272 91.5315 45.272C92.0075 45.272 92.3949 45.1787 92.6935 44.992C92.9922 44.8053 93.1415 44.5253 93.1415 44.152C93.1415 43.6107 92.6609 43.214 91.6995 42.962C91.4289 42.8967 91.2515 42.8547 91.1675 42.836C91.0835 42.808 90.9155 42.7567 90.6635 42.682C90.4209 42.598 90.2482 42.528 90.1455 42.472C90.0522 42.416 89.9169 42.332 89.7395 42.22C89.5622 42.0987 89.4362 41.982 89.3615 41.87C89.2869 41.7487 89.2169 41.5993 89.1515 41.422C89.0862 41.2353 89.0535 41.0393 89.0535 40.834C89.0535 40.2647 89.2775 39.7887 89.7255 39.406C90.1922 39.0233 90.7662 38.832 91.4475 38.832C92.0075 38.832 92.5022 38.958 92.9315 39.21C93.3702 39.462 93.6922 39.812 93.8975 40.26L93.1275 40.708C92.8662 40.0547 92.3062 39.728 91.4475 39.728C91.0275 39.728 90.6775 39.826 90.3975 40.022C90.1175 40.218 89.9775 40.4887 89.9775 40.834ZM98.6359 38.832C99.6812 38.832 100.517 39.2007 101.142 39.938C101.786 40.666 102.108 41.5293 102.108 42.528C102.108 42.5747 102.099 42.7193 102.08 42.962H95.9339C96.0272 43.662 96.3259 44.222 96.8299 44.642C97.3339 45.062 97.9639 45.272 98.7199 45.272C99.7839 45.272 100.535 44.8753 100.974 44.082L101.786 44.558C101.478 45.062 101.053 45.4587 100.512 45.748C99.9799 46.028 99.3779 46.168 98.7059 46.168C97.6045 46.168 96.7085 45.8227 96.0179 45.132C95.3272 44.4413 94.9819 43.564 94.9819 42.5C94.9819 41.4453 95.3225 40.5727 96.0039 39.882C96.6852 39.182 97.5625 38.832 98.6359 38.832ZM98.6359 39.728C97.9079 39.728 97.2965 39.9427 96.8019 40.372C96.3165 40.8013 96.0272 41.366 95.9339 42.066H101.156C101.053 41.3193 100.769 40.7453 100.302 40.344C99.8165 39.9333 99.2612 39.728 98.6359 39.728ZM110.354 38.832C111.194 38.832 111.861 39.0933 112.356 39.616C112.85 40.1293 113.098 40.8247 113.098 41.702V46H112.174V41.702C112.174 41.0767 112.006 40.5913 111.67 40.246C111.343 39.9007 110.876 39.728 110.27 39.728C109.57 39.728 109.014 39.9473 108.604 40.386C108.202 40.8247 108.002 41.4733 108.002 42.332V46H107.078V36.2H108.002V40.092C108.524 39.252 109.308 38.832 110.354 38.832ZM118.118 38.832C119.164 38.832 119.999 39.2007 120.624 39.938C121.268 40.666 121.59 41.5293 121.59 42.528C121.59 42.5747 121.581 42.7193 121.562 42.962H115.416C115.51 43.662 115.808 44.222 116.312 44.642C116.816 45.062 117.446 45.272 118.202 45.272C119.266 45.272 120.018 44.8753 120.456 44.082L121.268 44.558C120.96 45.062 120.536 45.4587 119.994 45.748C119.462 46.028 118.86 46.168 118.188 46.168C117.087 46.168 116.191 45.8227 115.5 45.132C114.81 44.4413 114.464 43.564 114.464 42.5C114.464 41.4453 114.805 40.5727 115.486 39.882C116.168 39.182 117.045 38.832 118.118 38.832ZM118.118 39.728C117.39 39.728 116.779 39.9427 116.284 40.372C115.799 40.8013 115.51 41.366 115.416 42.066H120.638C120.536 41.3193 120.251 40.7453 119.784 40.344C119.299 39.9333 118.744 39.728 118.118 39.728ZM129.08 40.372V39H130.004V46H129.08V44.628C128.436 45.6547 127.493 46.168 126.252 46.168C125.253 46.168 124.399 45.8133 123.69 45.104C122.99 44.3947 122.64 43.5267 122.64 42.5C122.64 41.4733 122.99 40.6053 123.69 39.896C124.399 39.1867 125.253 38.832 126.252 38.832C127.493 38.832 128.436 39.3453 129.08 40.372ZM124.362 44.474C124.894 45.006 125.547 45.272 126.322 45.272C127.097 45.272 127.75 45.006 128.282 44.474C128.814 43.9233 129.08 43.2653 129.08 42.5C129.08 41.7253 128.814 41.072 128.282 40.54C127.75 39.9987 127.097 39.728 126.322 39.728C125.547 39.728 124.894 39.9987 124.362 40.54C123.83 41.072 123.564 41.7253 123.564 42.5C123.564 43.2653 123.83 43.9233 124.362 44.474ZM137.98 40.372V36.2H138.904V46H137.98V44.628C137.336 45.6547 136.394 46.168 135.152 46.168C134.154 46.168 133.3 45.8133 132.59 45.104C131.89 44.3947 131.54 43.5267 131.54 42.5C131.54 41.4733 131.89 40.6053 132.59 39.896C133.3 39.1867 134.154 38.832 135.152 38.832C136.394 38.832 137.336 39.3453 137.98 40.372ZM133.262 44.474C133.794 45.006 134.448 45.272 135.222 45.272C135.997 45.272 136.65 45.006 137.182 44.474C137.714 43.9233 137.98 43.2653 137.98 42.5C137.98 41.7253 137.714 41.072 137.182 40.54C136.65 39.9987 135.997 39.728 135.222 39.728C134.448 39.728 133.794 39.9987 133.262 40.54C132.73 41.072 132.464 41.7253 132.464 42.5C132.464 43.2653 132.73 43.9233 133.262 44.474ZM144.613 38.832C145.612 38.832 146.461 39.1867 147.161 39.896C147.87 40.6053 148.225 41.4733 148.225 42.5C148.225 43.5267 147.87 44.3947 147.161 45.104C146.461 45.8133 145.612 46.168 144.613 46.168C143.372 46.168 142.429 45.6547 141.785 44.628V48.8H140.861V39H141.785V40.372C142.429 39.3453 143.372 38.832 144.613 38.832ZM142.583 44.474C143.115 45.006 143.768 45.272 144.543 45.272C145.318 45.272 145.971 45.006 146.503 44.474C147.035 43.9233 147.301 43.2653 147.301 42.5C147.301 41.7253 147.035 41.072 146.503 40.54C145.971 39.9987 145.318 39.728 144.543 39.728C143.768 39.728 143.115 39.9987 142.583 40.54C142.051 41.072 141.785 41.7253 141.785 42.5C141.785 43.2653 142.051 43.9233 142.583 44.474ZM153.037 38.832C153.877 38.832 154.545 39.0933 155.039 39.616C155.534 40.1293 155.781 40.8247 155.781 41.702V46H154.857V41.702C154.857 41.0767 154.689 40.5913 154.353 40.246C154.027 39.9007 153.56 39.728 152.953 39.728C152.253 39.728 151.698 39.9473 151.287 40.386C150.886 40.8247 150.685 41.4733 150.685 42.332V46H149.761V36.2H150.685V40.092C151.208 39.252 151.992 38.832 153.037 38.832ZM163.434 45.118C162.715 45.818 161.847 46.168 160.83 46.168C159.794 46.168 158.921 45.818 158.212 45.118C157.503 44.4087 157.148 43.536 157.148 42.5C157.148 41.464 157.503 40.596 158.212 39.896C158.921 39.1867 159.794 38.832 160.83 38.832C161.857 38.832 162.725 39.1867 163.434 39.896C164.153 40.596 164.512 41.464 164.512 42.5C164.512 43.5267 164.153 44.3993 163.434 45.118ZM158.87 44.474C159.402 45.006 160.055 45.272 160.83 45.272C161.605 45.272 162.258 45.006 162.79 44.474C163.322 43.9233 163.588 43.2653 163.588 42.5C163.588 41.7253 163.322 41.072 162.79 40.54C162.258 39.9987 161.605 39.728 160.83 39.728C160.055 39.728 159.402 39.9987 158.87 40.54C158.338 41.072 158.072 41.7253 158.072 42.5C158.072 43.2653 158.338 43.9233 158.87 44.474ZM169.334 38.832C170.174 38.832 170.841 39.0933 171.336 39.616C171.831 40.1293 172.078 40.8247 172.078 41.702V46H171.154V41.702C171.154 41.0767 170.986 40.5913 170.65 40.246C170.323 39.9007 169.857 39.728 169.25 39.728C168.55 39.728 167.995 39.9473 167.584 40.386C167.183 40.8247 166.982 41.4733 166.982 42.332V46H166.058V39H166.982V40.092C167.505 39.252 168.289 38.832 169.334 38.832ZM177.099 38.832C178.144 38.832 178.979 39.2007 179.605 39.938C180.249 40.666 180.571 41.5293 180.571 42.528C180.571 42.5747 180.561 42.7193 180.543 42.962H174.397C174.49 43.662 174.789 44.222 175.293 44.642C175.797 45.062 176.427 45.272 177.183 45.272C178.247 45.272 178.998 44.8753 179.437 44.082L180.249 44.558C179.941 45.062 179.516 45.4587 178.975 45.748C178.443 46.028 177.841 46.168 177.169 46.168C176.067 46.168 175.171 45.8227 174.481 45.132C173.79 44.4413 173.445 43.564 173.445 42.5C173.445 41.4453 173.785 40.5727 174.467 39.882C175.148 39.182 176.025 38.832 177.099 38.832ZM177.099 39.728C176.371 39.728 175.759 39.9427 175.265 40.372C174.779 40.8013 174.49 41.366 174.397 42.066H179.619C179.516 41.3193 179.231 40.7453 178.765 40.344C178.279 39.9333 177.724 39.728 177.099 39.728ZM182.495 40.834C182.495 41.3753 182.976 41.772 183.937 42.024C184.208 42.0893 184.385 42.136 184.469 42.164C184.553 42.1827 184.716 42.234 184.959 42.318C185.211 42.3927 185.384 42.458 185.477 42.514C185.58 42.57 185.72 42.6587 185.897 42.78C186.074 42.892 186.2 43.0087 186.275 43.13C186.35 43.242 186.42 43.3913 186.485 43.578C186.55 43.7553 186.583 43.9467 186.583 44.152C186.583 44.7493 186.345 45.2347 185.869 45.608C185.412 45.9813 184.805 46.168 184.049 46.168C183.396 46.168 182.831 46.0233 182.355 45.734C181.879 45.4353 181.543 45.0433 181.347 44.558L182.131 44.096C182.262 44.46 182.495 44.7493 182.831 44.964C183.176 45.1693 183.582 45.272 184.049 45.272C184.525 45.272 184.912 45.1787 185.211 44.992C185.51 44.8053 185.659 44.5253 185.659 44.152C185.659 43.6107 185.178 43.214 184.217 42.962C183.946 42.8967 183.769 42.8547 183.685 42.836C183.601 42.808 183.433 42.7567 183.181 42.682C182.938 42.598 182.766 42.528 182.663 42.472C182.57 42.416 182.434 42.332 182.257 42.22C182.08 42.0987 181.954 41.982 181.879 41.87C181.804 41.7487 181.734 41.5993 181.669 41.422C181.604 41.2353 181.571 41.0393 181.571 40.834C181.571 40.2647 181.795 39.7887 182.243 39.406C182.71 39.0233 183.284 38.832 183.965 38.832C184.525 38.832 185.02 38.958 185.449 39.21C185.888 39.462 186.21 39.812 186.415 40.26L185.645 40.708C185.384 40.0547 184.824 39.728 183.965 39.728C183.545 39.728 183.195 39.826 182.915 40.022C182.635 40.218 182.495 40.4887 182.495 40.834ZM192.353 40.834C192.353 41.3753 192.833 41.772 193.795 42.024C194.065 42.0893 194.243 42.136 194.327 42.164C194.411 42.1827 194.574 42.234 194.817 42.318C195.069 42.3927 195.241 42.458 195.335 42.514C195.437 42.57 195.577 42.6587 195.755 42.78C195.932 42.892 196.058 43.0087 196.133 43.13C196.207 43.242 196.277 43.3913 196.343 43.578C196.408 43.7553 196.441 43.9467 196.441 44.152C196.441 44.7493 196.203 45.2347 195.727 45.608C195.269 45.9813 194.663 46.168 193.907 46.168C193.253 46.168 192.689 46.0233 192.213 45.734C191.737 45.4353 191.401 45.0433 191.205 44.558L191.989 44.096C192.119 44.46 192.353 44.7493 192.689 44.964C193.034 45.1693 193.44 45.272 193.907 45.272C194.383 45.272 194.77 45.1787 195.069 44.992C195.367 44.8053 195.517 44.5253 195.517 44.152C195.517 43.6107 195.036 43.214 194.075 42.962C193.804 42.8967 193.627 42.8547 193.543 42.836C193.459 42.808 193.291 42.7567 193.039 42.682C192.796 42.598 192.623 42.528 192.521 42.472C192.427 42.416 192.292 42.332 192.115 42.22C191.937 42.0987 191.811 41.982 191.737 41.87C191.662 41.7487 191.592 41.5993 191.527 41.422C191.461 41.2353 191.429 41.0393 191.429 40.834C191.429 40.2647 191.653 39.7887 192.101 39.406C192.567 39.0233 193.141 38.832 193.823 38.832C194.383 38.832 194.877 38.958 195.307 39.21C195.745 39.462 196.067 39.812 196.273 40.26L195.503 40.708C195.241 40.0547 194.681 39.728 193.823 39.728C193.403 39.728 193.053 39.826 192.773 40.022C192.493 40.218 192.353 40.4887 192.353 40.834ZM203.643 45.118C202.924 45.818 202.056 46.168 201.039 46.168C200.003 46.168 199.13 45.818 198.421 45.118C197.712 44.4087 197.357 43.536 197.357 42.5C197.357 41.464 197.712 40.596 198.421 39.896C199.13 39.1867 200.003 38.832 201.039 38.832C202.066 38.832 202.934 39.1867 203.643 39.896C204.362 40.596 204.721 41.464 204.721 42.5C204.721 43.5267 204.362 44.3993 203.643 45.118ZM199.079 44.474C199.611 45.006 200.264 45.272 201.039 45.272C201.814 45.272 202.467 45.006 202.999 44.474C203.531 43.9233 203.797 43.2653 203.797 42.5C203.797 41.7253 203.531 41.072 202.999 40.54C202.467 39.9987 201.814 39.728 201.039 39.728C200.264 39.728 199.611 39.9987 199.079 40.54C198.547 41.072 198.281 41.7253 198.281 42.5C198.281 43.2653 198.547 43.9233 199.079 44.474ZM211.195 42.668V39H212.119V46H211.195V44.908C210.672 45.748 209.888 46.168 208.843 46.168C208.003 46.168 207.336 45.9113 206.841 45.398C206.346 44.8753 206.099 44.1753 206.099 43.298V39H207.023V43.298C207.023 43.9233 207.186 44.4087 207.513 44.754C207.849 45.0993 208.32 45.272 208.927 45.272C209.627 45.272 210.178 45.0527 210.579 44.614C210.99 44.1753 211.195 43.5267 211.195 42.668ZM217.35 38.832C218.19 38.832 218.857 39.0933 219.352 39.616C219.846 40.1293 220.094 40.8247 220.094 41.702V46H219.17V41.702C219.17 41.0767 219.002 40.5913 218.666 40.246C218.339 39.9007 217.872 39.728 217.266 39.728C216.566 39.728 216.01 39.9473 215.6 40.386C215.198 40.8247 214.998 41.4733 214.998 42.332V46H214.074V39H214.998V40.092C215.52 39.252 216.304 38.832 217.35 38.832ZM227.9 40.372V36.2H228.824V46H227.9V44.628C227.256 45.6547 226.314 46.168 225.072 46.168C224.074 46.168 223.22 45.8133 222.51 45.104C221.81 44.3947 221.46 43.5267 221.46 42.5C221.46 41.4733 221.81 40.6053 222.51 39.896C223.22 39.1867 224.074 38.832 225.072 38.832C226.314 38.832 227.256 39.3453 227.9 40.372ZM223.182 44.474C223.714 45.006 224.368 45.272 225.142 45.272C225.917 45.272 226.57 45.006 227.102 44.474C227.634 43.9233 227.9 43.2653 227.9 42.5C227.9 41.7253 227.634 41.072 227.102 40.54C226.57 39.9987 225.917 39.728 225.142 39.728C224.368 39.728 223.714 39.9987 223.182 40.54C222.65 41.072 222.384 41.7253 222.384 42.5C222.384 43.2653 222.65 43.9233 223.182 44.474ZM240.301 40.372V39H241.225V45.72C241.225 46.728 240.879 47.5213 240.189 48.1C239.498 48.6787 238.672 48.968 237.711 48.968C236.077 48.968 234.971 48.3987 234.393 47.26L235.205 46.798C235.625 47.6473 236.46 48.072 237.711 48.072C238.513 48.072 239.143 47.862 239.601 47.442C240.067 47.022 240.301 46.448 240.301 45.72V44.628C239.657 45.6547 238.714 46.168 237.473 46.168C236.474 46.168 235.62 45.8133 234.911 45.104C234.211 44.3947 233.861 43.5267 233.861 42.5C233.861 41.4733 234.211 40.6053 234.911 39.896C235.62 39.1867 236.474 38.832 237.473 38.832C238.714 38.832 239.657 39.3453 240.301 40.372ZM235.583 44.474C236.115 45.006 236.768 45.272 237.543 45.272C238.317 45.272 238.971 45.006 239.503 44.474C240.035 43.9233 240.301 43.2653 240.301 42.5C240.301 41.7253 240.035 41.072 239.503 40.54C238.971 39.9987 238.317 39.728 237.543 39.728C236.768 39.728 236.115 39.9987 235.583 40.54C235.051 41.072 234.785 41.7253 234.785 42.5C234.785 43.2653 235.051 43.9233 235.583 44.474ZM244.105 39V40.162C244.535 39.3127 245.272 38.888 246.317 38.888V39.784C245.645 39.784 245.109 39.98 244.707 40.372C244.306 40.7547 244.105 41.3333 244.105 42.108V46H243.181V39H244.105ZM250.394 38.832C251.439 38.832 252.274 39.2007 252.9 39.938C253.544 40.666 253.866 41.5293 253.866 42.528C253.866 42.5747 253.856 42.7193 253.838 42.962H247.692C247.785 43.662 248.084 44.222 248.588 44.642C249.092 45.062 249.722 45.272 250.478 45.272C251.542 45.272 252.293 44.8753 252.732 44.082L253.544 44.558C253.236 45.062 252.811 45.4587 252.27 45.748C251.738 46.028 251.136 46.168 250.464 46.168C249.362 46.168 248.466 45.8227 247.776 45.132C247.085 44.4413 246.74 43.564 246.74 42.5C246.74 41.4453 247.08 40.5727 247.762 39.882C248.443 39.182 249.32 38.832 250.394 38.832ZM250.394 39.728C249.666 39.728 249.054 39.9427 248.56 40.372C248.074 40.8013 247.785 41.366 247.692 42.066H252.914C252.811 41.3193 252.526 40.7453 252.06 40.344C251.574 39.9333 251.019 39.728 250.394 39.728ZM261.355 40.372V39H262.279V46H261.355V44.628C260.711 45.6547 259.769 46.168 258.527 46.168C257.529 46.168 256.675 45.8133 255.965 45.104C255.265 44.3947 254.915 43.5267 254.915 42.5C254.915 41.4733 255.265 40.6053 255.965 39.896C256.675 39.1867 257.529 38.832 258.527 38.832C259.769 38.832 260.711 39.3453 261.355 40.372ZM256.637 44.474C257.169 45.006 257.823 45.272 258.597 45.272C259.372 45.272 260.025 45.006 260.557 44.474C261.089 43.9233 261.355 43.2653 261.355 42.5C261.355 41.7253 261.089 41.072 260.557 40.54C260.025 39.9987 259.372 39.728 258.597 39.728C257.823 39.728 257.169 39.9987 256.637 40.54C256.105 41.072 255.839 41.7253 255.839 42.5C255.839 43.2653 256.105 43.9233 256.637 44.474ZM267.946 39V39.896H265.93V44.138C265.93 44.5207 266.005 44.796 266.154 44.964C266.303 45.1227 266.527 45.2067 266.826 45.216C267.125 45.216 267.498 45.2067 267.946 45.188V46C266.947 46.1493 266.205 46.0793 265.72 45.79C265.244 45.4913 265.006 44.9407 265.006 44.138V39.896H263.536V39H265.006V37.32L265.93 37.04V39H267.946ZM270.886 45.37C270.886 45.5847 270.811 45.7667 270.662 45.916C270.513 46.0653 270.331 46.14 270.116 46.14C269.901 46.14 269.719 46.0653 269.57 45.916C269.421 45.7667 269.346 45.5847 269.346 45.37C269.346 45.1553 269.421 44.9733 269.57 44.824C269.719 44.6747 269.901 44.6 270.116 44.6C270.331 44.6 270.513 44.6747 270.662 44.824C270.811 44.9733 270.886 45.1553 270.886 45.37ZM273.132 36.2H274.252L273.412 39.35H272.572L273.132 36.2ZM275.092 36.2H276.212L275.372 39.35H274.532L275.092 36.2Z" fill="#282828" fill-opacity="0.8"/>
<line x1="65" y1="108.5" x2="325" y2="108.5" stroke="#DCDCDC"/>
<path d="M99.5968 126.507C98.2973 124.962 95.8981 124.332 91.3161 124.332H74.6835C69.9967 124.332 67.5568 125.003 66.2622 126.648C65 128.251 65 130.614 65 133.884V140.116C65 146.451 66.4976 149.668 74.6835 149.668H91.3162C95.2897 149.668 97.4915 149.112 98.9159 147.748C100.377 146.35 101 144.068 101 140.116V133.884C101 130.435 100.902 128.059 99.5968 126.507ZM88.1121 137.86L80.5593 141.808C80.3905 141.896 80.2058 141.94 80.0214 141.94C79.8126 141.94 79.6043 141.884 79.4197 141.772C79.0723 141.561 78.8601 141.185 78.8601 140.779V132.909C78.8601 132.504 79.0717 132.127 79.4185 131.917C79.7653 131.706 80.1968 131.692 80.5566 131.879L88.1094 135.801C88.4937 136 88.735 136.397 88.7356 136.83C88.7361 137.263 88.4958 137.66 88.1121 137.86Z" fill="#FF0000"/>
<path d="M121.461 129.023H122.242C121.961 129.612 121.674 130.068 121.383 130.391C120.638 131.24 119.638 131.776 118.383 132C118.029 132.068 117.664 132.102 117.289 132.102C116.102 132.102 115.029 131.721 114.07 130.961C113.482 130.492 113.008 129.932 112.648 129.281C112.211 128.474 111.992 127.617 111.992 126.711C111.992 125.685 112.268 124.74 112.82 123.875C113.565 122.698 114.555 121.914 115.789 121.523C116.352 121.346 116.938 121.258 117.547 121.258C118.391 121.258 119.169 121.445 119.883 121.82C120.945 122.388 121.682 123.19 122.094 124.227C122.286 124.695 122.383 125.185 122.383 125.695C122.383 126.378 122.221 127.034 121.898 127.664C121.456 128.534 120.784 129.167 119.883 129.562C119.44 129.766 119.021 129.867 118.625 129.867C117.953 129.867 117.591 129.586 117.539 129.023C117.279 129.237 117.057 129.401 116.875 129.516C116.49 129.745 116.107 129.859 115.727 129.859C115.216 129.859 114.799 129.682 114.477 129.328C114.154 128.964 113.992 128.482 113.992 127.883C113.992 126.883 114.305 125.922 114.93 125C115.247 124.521 115.646 124.138 116.125 123.852C116.542 123.602 117 123.477 117.5 123.477C117.891 123.477 118.224 123.576 118.5 123.773C118.609 123.857 118.742 123.984 118.898 124.156L119.055 123.742H120.445L118.781 128.172C118.646 128.547 118.578 128.805 118.578 128.945C118.578 129.143 118.711 129.242 118.977 129.242C119.258 129.242 119.57 129.133 119.914 128.914C120.487 128.555 120.924 128.036 121.227 127.359C121.461 126.849 121.578 126.323 121.578 125.781C121.578 124.74 121.167 123.852 120.344 123.117C119.542 122.393 118.586 122.031 117.477 122.031C116.201 122.031 115.107 122.484 114.195 123.391C113.258 124.312 112.789 125.435 112.789 126.758C112.789 128.076 113.281 129.19 114.266 130.102C115.146 130.919 116.172 131.328 117.344 131.328C118.531 131.328 119.557 130.958 120.422 130.219C120.74 129.943 121.086 129.544 121.461 129.023ZM117.633 127.43L118.438 125.375C118.484 125.26 118.508 125.128 118.508 124.977C118.508 124.424 118.281 124.148 117.828 124.148C117.526 124.148 117.219 124.315 116.906 124.648C116.474 125.107 116.094 125.721 115.766 126.492C115.438 127.279 115.273 127.938 115.273 128.469C115.273 128.953 115.492 129.195 115.93 129.195C116.133 129.195 116.318 129.133 116.484 129.008C116.984 128.633 117.367 128.107 117.633 127.43ZM128.016 128.336H126.648V132H124.461V121.336H127.867C129.143 121.336 130.122 121.638 130.805 122.242C131.477 122.836 131.812 123.672 131.812 124.75C131.812 125.609 131.596 126.341 131.164 126.945C130.508 127.872 129.458 128.336 128.016 128.336ZM126.648 123.148V126.531H127.586C128.008 126.531 128.359 126.471 128.641 126.352C129.276 126.07 129.594 125.57 129.594 124.852C129.594 124.18 129.312 123.69 128.75 123.383C128.448 123.227 128.081 123.148 127.648 123.148H126.648ZM138.844 125.539V124.602H140.883V132H138.844V130.984C138.172 131.833 137.315 132.258 136.273 132.258C135.143 132.258 134.234 131.839 133.547 131C132.979 130.307 132.695 129.438 132.695 128.391C132.695 127.609 132.875 126.885 133.234 126.219C133.536 125.656 133.966 125.206 134.523 124.867C135.086 124.523 135.719 124.352 136.422 124.352C137 124.352 137.521 124.49 137.984 124.766C138.266 124.932 138.552 125.19 138.844 125.539ZM136.844 126.07C136.203 126.07 135.703 126.318 135.344 126.812C135.026 127.255 134.867 127.771 134.867 128.359C134.867 129.062 135.083 129.63 135.516 130.062C135.885 130.432 136.323 130.617 136.828 130.617C137.443 130.617 137.951 130.362 138.352 129.852C138.701 129.409 138.875 128.891 138.875 128.297C138.875 127.708 138.719 127.211 138.406 126.805C138.026 126.315 137.505 126.07 136.844 126.07ZM144.031 124.602L145.531 129L147.258 124.602H149.422L145.25 135.383H143.062L144.461 131.828L141.867 124.602H144.031ZM157.82 128.781H152.031C152.104 129.193 152.25 129.523 152.469 129.773C152.854 130.221 153.354 130.445 153.969 130.445C154.391 130.445 154.784 130.323 155.148 130.078C155.362 129.938 155.539 129.74 155.68 129.484L157.539 130C157.247 130.578 156.875 131.044 156.422 131.398C155.682 131.971 154.857 132.258 153.945 132.258C152.716 132.258 151.706 131.839 150.914 131C150.247 130.292 149.914 129.388 149.914 128.289C149.914 127.581 150.068 126.924 150.375 126.32C150.693 125.69 151.154 125.203 151.758 124.859C152.357 124.516 153.044 124.344 153.82 124.344C155.133 124.344 156.172 124.807 156.938 125.734C157.531 126.453 157.828 127.336 157.828 128.383C157.828 128.534 157.826 128.667 157.82 128.781ZM152.023 127.617H155.734C155.661 127.227 155.521 126.914 155.312 126.68C154.948 126.268 154.458 126.062 153.844 126.062C153.255 126.062 152.786 126.268 152.438 126.68C152.24 126.919 152.102 127.232 152.023 127.617ZM162.352 126.273H161.422V129.82C161.422 130.008 161.466 130.133 161.555 130.195C161.654 130.263 161.802 130.297 162 130.297H162.352V132H160.727C160.253 132 159.901 131.883 159.672 131.648C159.479 131.451 159.383 131.096 159.383 130.586V126.273H158.539V124.562H159.383V122.578H161.422V124.562H162.352V126.273ZM166.898 126.273H165.969V129.82C165.969 130.008 166.013 130.133 166.102 130.195C166.201 130.263 166.349 130.297 166.547 130.297H166.898V132H165.273C164.799 132 164.448 131.883 164.219 131.648C164.026 131.451 163.93 131.096 163.93 130.586V126.273H163.086V124.562H163.93V122.578H165.969V124.562H166.898V126.273ZM175.805 128.781H170.016C170.089 129.193 170.234 129.523 170.453 129.773C170.839 130.221 171.339 130.445 171.953 130.445C172.375 130.445 172.768 130.323 173.133 130.078C173.346 129.938 173.523 129.74 173.664 129.484L175.523 130C175.232 130.578 174.859 131.044 174.406 131.398C173.667 131.971 172.841 132.258 171.93 132.258C170.701 132.258 169.69 131.839 168.898 131C168.232 130.292 167.898 129.388 167.898 128.289C167.898 127.581 168.052 126.924 168.359 126.32C168.677 125.69 169.138 125.203 169.742 124.859C170.341 124.516 171.029 124.344 171.805 124.344C173.117 124.344 174.156 124.807 174.922 125.734C175.516 126.453 175.812 127.336 175.812 128.383C175.812 128.534 175.81 128.667 175.805 128.781ZM170.008 127.617H173.719C173.646 127.227 173.505 126.914 173.297 126.68C172.932 126.268 172.443 126.062 171.828 126.062C171.24 126.062 170.771 126.268 170.422 126.68C170.224 126.919 170.086 127.232 170.008 127.617ZM183.32 123.125H179.57V125.75H183.32V127.539H179.57V132H177.383V121.336H183.32V123.125ZM188.32 124.344C189.565 124.344 190.576 124.781 191.352 125.656C192.003 126.401 192.328 127.305 192.328 128.367C192.328 129.518 191.898 130.474 191.039 131.234C190.268 131.917 189.349 132.258 188.281 132.258C187.443 132.258 186.69 132.049 186.023 131.633C185.398 131.232 184.935 130.708 184.633 130.062C184.393 129.547 184.273 128.964 184.273 128.312C184.273 127.036 184.708 126.026 185.578 125.281C186.307 124.656 187.221 124.344 188.32 124.344ZM188.312 126.164C187.688 126.164 187.188 126.38 186.812 126.812C186.484 127.188 186.32 127.682 186.32 128.297C186.32 128.969 186.513 129.497 186.898 129.883C187.284 130.258 187.75 130.445 188.297 130.445C188.927 130.445 189.438 130.208 189.828 129.734C190.125 129.38 190.273 128.914 190.273 128.336C190.273 127.628 190.083 127.086 189.703 126.711C189.339 126.346 188.875 126.164 188.312 126.164ZM193.852 132V124.602H195.891V125.68C196.062 125.211 196.279 124.885 196.539 124.703C196.862 124.464 197.258 124.344 197.727 124.344C197.815 124.344 197.898 124.346 197.977 124.352V126.43C197.794 126.414 197.654 126.406 197.555 126.406C196.956 126.406 196.5 126.63 196.188 127.078C196.047 127.292 195.961 127.513 195.93 127.742C195.904 127.961 195.891 128.19 195.891 128.43V132H193.852ZM206.273 129.102L207.781 124.602H209.852L207.43 132H205.312L204.016 127.469L202.695 132H200.531L198.148 124.602H200.219L201.711 129.102L202.992 124.602H204.953L206.273 129.102ZM216.5 125.539V124.602H218.539V132H216.5V130.984C215.828 131.833 214.971 132.258 213.93 132.258C212.799 132.258 211.891 131.839 211.203 131C210.635 130.307 210.352 129.438 210.352 128.391C210.352 127.609 210.531 126.885 210.891 126.219C211.193 125.656 211.622 125.206 212.18 124.867C212.742 124.523 213.375 124.352 214.078 124.352C214.656 124.352 215.177 124.49 215.641 124.766C215.922 124.932 216.208 125.19 216.5 125.539ZM214.5 126.07C213.859 126.07 213.359 126.318 213 126.812C212.682 127.255 212.523 127.771 212.523 128.359C212.523 129.062 212.74 129.63 213.172 130.062C213.542 130.432 213.979 130.617 214.484 130.617C215.099 130.617 215.607 130.362 216.008 129.852C216.357 129.409 216.531 128.891 216.531 128.297C216.531 127.708 216.375 127.211 216.062 126.805C215.682 126.315 215.161 126.07 214.5 126.07ZM220.555 132V124.602H222.594V125.68C222.766 125.211 222.982 124.885 223.242 124.703C223.565 124.464 223.961 124.344 224.43 124.344C224.518 124.344 224.602 124.346 224.68 124.352V126.43C224.497 126.414 224.357 126.406 224.258 126.406C223.659 126.406 223.203 126.63 222.891 127.078C222.75 127.292 222.664 127.513 222.633 127.742C222.607 127.961 222.594 128.19 222.594 128.43V132H220.555ZM231.547 125.422V121.336H233.586V132H231.547V131.031C231.26 131.427 230.966 131.708 230.664 131.875C230.206 132.13 229.672 132.258 229.062 132.258C227.917 132.258 227 131.865 226.312 131.078C225.703 130.38 225.398 129.477 225.398 128.367C225.398 127.096 225.794 126.094 226.586 125.359C227.31 124.682 228.148 124.344 229.102 124.344C229.57 124.344 230.026 124.435 230.469 124.617C230.812 124.763 231.172 125.031 231.547 125.422ZM229.578 126.055C228.88 126.055 228.341 126.352 227.961 126.945C227.695 127.357 227.562 127.833 227.562 128.375C227.562 129.062 227.766 129.612 228.172 130.023C228.552 130.419 229.016 130.617 229.562 130.617C230.177 130.617 230.677 130.367 231.062 129.867C231.385 129.44 231.547 128.938 231.547 128.359C231.547 127.693 231.362 127.143 230.992 126.711C230.622 126.273 230.151 126.055 229.578 126.055ZM118.32 141.125H115.781V150H113.594V141.125H111.055V139.336H118.32V141.125ZM126.805 146.781H121.016C121.089 147.193 121.234 147.523 121.453 147.773C121.839 148.221 122.339 148.445 122.953 148.445C123.375 148.445 123.768 148.323 124.133 148.078C124.346 147.938 124.523 147.74 124.664 147.484L126.523 148C126.232 148.578 125.859 149.044 125.406 149.398C124.667 149.971 123.841 150.258 122.93 150.258C121.701 150.258 120.69 149.839 119.898 149C119.232 148.292 118.898 147.388 118.898 146.289C118.898 145.581 119.052 144.924 119.359 144.32C119.677 143.69 120.138 143.203 120.742 142.859C121.341 142.516 122.029 142.344 122.805 142.344C124.117 142.344 125.156 142.807 125.922 143.734C126.516 144.453 126.812 145.336 126.812 146.383C126.812 146.534 126.81 146.667 126.805 146.781ZM121.008 145.617H124.719C124.646 145.227 124.505 144.914 124.297 144.68C123.932 144.268 123.443 144.062 122.828 144.062C122.24 144.062 121.771 144.268 121.422 144.68C121.224 144.919 121.086 145.232 121.008 145.617ZM133.328 147.828L134.555 149.148C133.737 149.888 132.789 150.258 131.711 150.258C130.591 150.258 129.643 149.875 128.867 149.109C128.148 148.401 127.789 147.479 127.789 146.344C127.789 145.51 127.997 144.753 128.414 144.07C128.779 143.482 129.281 143.036 129.922 142.734C130.474 142.474 131.073 142.344 131.719 142.344C132.797 142.344 133.784 142.753 134.68 143.57L133.328 144.812C132.88 144.375 132.37 144.156 131.797 144.156C131.193 144.156 130.703 144.383 130.328 144.836C130.005 145.232 129.844 145.711 129.844 146.273C129.844 146.956 130.062 147.503 130.5 147.914C130.87 148.268 131.328 148.445 131.875 148.445C132.365 148.445 132.849 148.24 133.328 147.828ZM135.758 139.336H137.797V143.391C138.385 142.693 139.055 142.344 139.805 142.344C140.253 142.344 140.682 142.456 141.094 142.68C141.578 142.94 141.901 143.292 142.062 143.734C142.188 144.057 142.25 144.518 142.25 145.117V150H140.211V145.406C140.211 144.927 140.078 144.565 139.812 144.32C139.635 144.148 139.401 144.062 139.109 144.062C138.766 144.062 138.464 144.185 138.203 144.43C138.031 144.596 137.917 144.779 137.859 144.977C137.818 145.154 137.797 145.359 137.797 145.594V150H135.758V139.336ZM154.242 150L151.32 145.758V150H149.133V139.336H152.414C153.753 139.336 154.76 139.617 155.438 140.18C155.703 140.388 155.914 140.643 156.07 140.945C156.352 141.471 156.492 142.052 156.492 142.688C156.492 143.703 156.169 144.51 155.523 145.109C155.122 145.479 154.602 145.745 153.961 145.906L156.898 150H154.242ZM151.32 141.148V144.477H152.32C152.888 144.477 153.339 144.357 153.672 144.117C154.073 143.82 154.273 143.383 154.273 142.805C154.273 142.32 154.128 141.927 153.836 141.625C153.534 141.307 153.089 141.148 152.5 141.148H151.32ZM165.789 146.781H160C160.073 147.193 160.219 147.523 160.438 147.773C160.823 148.221 161.323 148.445 161.938 148.445C162.359 148.445 162.753 148.323 163.117 148.078C163.331 147.938 163.508 147.74 163.648 147.484L165.508 148C165.216 148.578 164.844 149.044 164.391 149.398C163.651 149.971 162.826 150.258 161.914 150.258C160.685 150.258 159.674 149.839 158.883 149C158.216 148.292 157.883 147.388 157.883 146.289C157.883 145.581 158.036 144.924 158.344 144.32C158.661 143.69 159.122 143.203 159.727 142.859C160.326 142.516 161.013 142.344 161.789 142.344C163.102 142.344 164.141 142.807 164.906 143.734C165.5 144.453 165.797 145.336 165.797 146.383C165.797 146.534 165.794 146.667 165.789 146.781ZM159.992 145.617H163.703C163.63 145.227 163.49 144.914 163.281 144.68C162.917 144.268 162.427 144.062 161.812 144.062C161.224 144.062 160.755 144.268 160.406 144.68C160.208 144.919 160.07 145.232 159.992 145.617ZM169.977 147.016L171.609 142.602H173.695L171 150H168.898L166.227 142.602H168.336L169.977 147.016ZM174.68 142.602H176.719V150H174.68V142.602ZM175.711 139.352C176.049 139.352 176.323 139.469 176.531 139.703C176.729 139.927 176.828 140.193 176.828 140.5C176.828 140.844 176.701 141.128 176.445 141.352C176.253 141.523 176.005 141.609 175.703 141.609C175.359 141.609 175.081 141.495 174.867 141.266C174.669 141.042 174.57 140.781 174.57 140.484C174.57 140.125 174.698 139.833 174.953 139.609C175.146 139.438 175.398 139.352 175.711 139.352ZM186.164 146.781H180.375C180.448 147.193 180.594 147.523 180.812 147.773C181.198 148.221 181.698 148.445 182.312 148.445C182.734 148.445 183.128 148.323 183.492 148.078C183.706 147.938 183.883 147.74 184.023 147.484L185.883 148C185.591 148.578 185.219 149.044 184.766 149.398C184.026 149.971 183.201 150.258 182.289 150.258C181.06 150.258 180.049 149.839 179.258 149C178.591 148.292 178.258 147.388 178.258 146.289C178.258 145.581 178.411 144.924 178.719 144.32C179.036 143.69 179.497 143.203 180.102 142.859C180.701 142.516 181.388 142.344 182.164 142.344C183.477 142.344 184.516 142.807 185.281 143.734C185.875 144.453 186.172 145.336 186.172 146.383C186.172 146.534 186.169 146.667 186.164 146.781ZM180.367 145.617H184.078C184.005 145.227 183.865 144.914 183.656 144.68C183.292 144.268 182.802 144.062 182.188 144.062C181.599 144.062 181.13 144.268 180.781 144.68C180.583 144.919 180.445 145.232 180.367 145.617ZM194.727 147.102L196.234 142.602H198.305L195.883 150H193.766L192.469 145.469L191.148 150H188.984L186.602 142.602H188.672L190.164 147.102L191.445 142.602H193.406L194.727 147.102ZM206.711 146.781H200.922C200.995 147.193 201.141 147.523 201.359 147.773C201.745 148.221 202.245 148.445 202.859 148.445C203.281 148.445 203.674 148.323 204.039 148.078C204.253 147.938 204.43 147.74 204.57 147.484L206.43 148C206.138 148.578 205.766 149.044 205.312 149.398C204.573 149.971 203.747 150.258 202.836 150.258C201.607 150.258 200.596 149.839 199.805 149C199.138 148.292 198.805 147.388 198.805 146.289C198.805 145.581 198.958 144.924 199.266 144.32C199.583 143.69 200.044 143.203 200.648 142.859C201.247 142.516 201.935 142.344 202.711 142.344C204.023 142.344 205.062 142.807 205.828 143.734C206.422 144.453 206.719 145.336 206.719 146.383C206.719 146.534 206.716 146.667 206.711 146.781ZM200.914 145.617H204.625C204.552 145.227 204.411 144.914 204.203 144.68C203.839 144.268 203.349 144.062 202.734 144.062C202.146 144.062 201.677 144.268 201.328 144.68C201.13 144.919 200.992 145.232 200.914 145.617ZM208.18 150V142.602H210.219V143.68C210.391 143.211 210.607 142.885 210.867 142.703C211.19 142.464 211.586 142.344 212.055 142.344C212.143 142.344 212.227 142.346 212.305 142.352V144.43C212.122 144.414 211.982 144.406 211.883 144.406C211.284 144.406 210.828 144.63 210.516 145.078C210.375 145.292 210.289 145.513 210.258 145.742C210.232 145.961 210.219 146.19 210.219 146.43V150H208.18Z" fill="#282828"/>
</g>
<defs>
<filter id="filter0_d_1_2357" x="-254" y="-6" width="302" height="182" filterUnits="userSpaceOnUse" color-interpolation-filters="sRGB">
<feFlood flood-opacity="0" result="BackgroundImageFix"/>
<feColorMatrix in="SourceAlpha" type="matrix" values="0 0 0 0 0 0 0 0 0 0 0 0 0 0 0 0 0 0 127 0" result="hardAlpha"/>
<feOffset/>
<feGaussianBlur stdDeviation="3"/>
<feColorMatrix type="matrix" values="0 0 0 0 0 0 0 0 0 0 0 0 0 0 0 0 0 0 0.06 0"/>
<feBlend mode="normal" in2="BackgroundImageFix" result="effect1_dropShadow_1_2357"/>
<feBlend mode="normal" in="SourceGraphic" in2="effect1_dropShadow_1_2357" result="shape"/>
</filter>
<filter id="filter1_d_1_2357" x="44" y="-6" width="302" height="182" filterUnits="userSpaceOnUse" color-interpolation-filters="sRGB">
<feFlood flood-opacity="0" result="BackgroundImageFix"/>
<feColorMatrix in="SourceAlpha" type="matrix" values="0 0 0 0 0 0 0 0 0 0 0 0 0 0 0 0 0 0 127 0" result="hardAlpha"/>
<feOffset/>
<feGaussianBlur stdDeviation="3"/>
<feColorMatrix type="matrix" values="0 0 0 0 0 0 0 0 0 0 0 0 0 0 0 0 0 0 0.06 0"/>
<feBlend mode="normal" in2="BackgroundImageFix" result="effect1_dropShadow_1_2357"/>
<feBlend mode="normal" in="SourceGraphic" in2="effect1_dropShadow_1_2357" result="shape"/>
</filter>
</defs>
</svg>
