<svg width="70" height="40" viewBox="0 0 70 40" fill="none" xmlns="http://www.w3.org/2000/svg">
<rect width="70" height="40" rx="20" fill="#F7F7F7"/>
<path d="M20.161 12.9496C19.6128 13.5913 18.7358 14.0975 17.8588 14.0252C17.7492 13.1575 18.1785 12.2355 18.681 11.666C19.2291 11.0062 20.1884 10.5362 20.9649 10.5C21.0563 11.4039 20.7 12.2897 20.161 12.9496ZM20.9558 14.197C19.6859 14.1246 18.5988 14.911 17.9958 14.911C17.3837 14.911 16.461 14.2331 15.4561 14.2512C14.1497 14.2693 12.9347 15.0014 12.2678 16.1675C10.8974 18.4995 11.9115 21.9524 13.2361 23.8506C13.8848 24.7907 14.6613 25.8211 15.6845 25.785C16.6529 25.7488 17.0366 25.1613 18.2059 25.1613C19.3844 25.1613 19.7225 25.785 20.7457 25.7669C21.8054 25.7488 22.4723 24.8268 23.1209 23.8868C23.8609 22.8202 24.1624 21.7807 24.1807 21.7265C24.1624 21.7084 22.1343 20.9401 22.116 18.6261C22.0977 16.6917 23.7147 15.7697 23.7878 15.7155C22.8743 14.3777 21.4491 14.2331 20.9558 14.197ZM28.2917 11.5756V25.6675H30.5025V20.8497H33.563C36.3585 20.8497 38.3227 18.9515 38.3227 16.2036C38.3227 13.4558 36.3951 11.5756 33.6361 11.5756H28.2917ZM30.5025 13.4196H33.0514C34.9699 13.4196 36.0662 14.432 36.0662 16.2127C36.0662 17.9933 34.9699 19.0147 33.0423 19.0147H30.5025V13.4196ZM42.3606 25.7759C43.7493 25.7759 45.0374 25.0799 45.6221 23.9772H45.6677V25.6675H47.7141V18.6532C47.7141 16.6194 46.0697 15.3088 43.5391 15.3088C41.1913 15.3088 39.4555 16.6375 39.3915 18.4634H41.3831C41.5476 17.5956 42.3606 17.0262 43.4752 17.0262C44.8273 17.0262 45.5855 17.6499 45.5855 18.7978V19.5752L42.8266 19.7379C40.2594 19.8915 38.8708 20.931 38.8708 22.7388C38.8708 24.5647 40.3051 25.7759 42.3606 25.7759ZM42.9545 24.1037C41.776 24.1037 41.0268 23.5433 41.0268 22.6846C41.0268 21.7988 41.7485 21.2835 43.128 21.2022L45.5855 21.0485V21.844C45.5855 23.1637 44.4527 24.1037 42.9545 24.1037ZM50.4457 29.5C52.6017 29.5 53.6158 28.6865 54.5019 26.2188L58.3846 15.4443H56.1372L53.5336 23.7693H53.4879L50.8842 15.4443H48.5729L52.3185 25.7036L52.1175 26.3273C51.7795 27.3849 51.2314 27.7916 50.2538 27.7916C50.0803 27.7916 49.7422 27.7735 49.6052 27.7555V29.4458C49.7331 29.4819 50.2813 29.5 50.4457 29.5Z" fill="#282828"/>
</svg>
