<svg width="70" height="40" viewBox="0 0 70 40" fill="none" xmlns="http://www.w3.org/2000/svg">
<rect width="70" height="40" rx="20" fill="#F7F7F7"/>
<g clip-path="url(#clip0_2001_779)">
<path d="M33.735 20.3583V25.4843H32.01V12.8071H36.495C37.5875 12.8071 38.6225 13.193 39.4275 13.9095C40.2325 14.5709 40.635 15.563 40.635 16.6103C40.635 17.6575 40.2325 18.5945 39.4275 19.3111C38.6225 20.0276 37.645 20.4134 36.495 20.4134L33.735 20.3583ZM33.735 14.3504V18.7599H36.61C37.2425 18.7599 37.875 18.5394 38.2775 18.0985C39.1975 17.2717 39.1975 15.8937 38.335 15.067L38.2775 15.0119C37.8175 14.5709 37.2425 14.2953 36.61 14.3504H33.735Z" fill="#282828"/>
<path d="M44.6025 16.5552C45.8675 16.5552 46.845 16.8859 47.5925 17.5473C48.34 18.2087 48.685 19.0906 48.685 20.193V25.4843H47.075V24.2717H47.0175C46.3275 25.2638 45.35 25.7599 44.2 25.7599C43.2225 25.7599 42.36 25.4843 41.67 24.9331C41.0375 24.3819 40.635 23.6103 40.635 22.7835C40.635 21.9016 40.98 21.1851 41.67 20.6339C42.36 20.0827 43.3375 19.8623 44.4875 19.8623C45.5225 19.8623 46.3275 20.0276 46.96 20.4134V20.0276C46.96 19.4764 46.73 18.9253 46.27 18.5945C45.81 18.2087 45.235 17.9882 44.6025 17.9882C43.625 17.9882 42.8775 18.3741 42.36 19.1457L40.865 18.2638C41.785 17.1064 42.9925 16.5552 44.6025 16.5552ZM42.4175 22.8386C42.4175 23.2796 42.6475 23.6654 42.9925 23.8859C43.395 24.1615 43.855 24.3268 44.315 24.3268C45.005 24.3268 45.695 24.0512 46.2125 23.5552C46.7875 23.0591 47.075 22.4528 47.075 21.7914C46.5575 21.4056 45.81 21.1851 44.8325 21.1851C44.1425 21.1851 43.5675 21.3505 43.1075 21.6812C42.6475 21.9568 42.4175 22.3426 42.4175 22.8386Z" fill="#282828"/>
<path d="M58 16.8308L52.3075 29.3426H50.5825L52.71 24.9883L48.9725 16.8859H50.8125L53.515 23.1143H53.5725L56.2175 16.8859H58V16.8308Z" fill="#282828"/>
<path d="M26.8925 19.256C26.8925 18.7599 26.835 18.2639 26.7775 17.7678H19.59V20.5788H23.6725C23.5 21.4607 22.9825 22.2875 22.1775 22.7836V24.6025H24.65C26.0875 23.3348 26.8925 21.4607 26.8925 19.256Z" fill="#4285F4"/>
<path d="M19.59 26.3661C21.66 26.3661 23.385 25.7047 24.65 24.6024L22.1775 22.7835C21.4875 23.2244 20.625 23.5 19.59 23.5C17.635 23.5 15.91 22.2323 15.335 20.4685H12.805V22.3425C14.1275 24.8228 16.715 26.3661 19.59 26.3661Z" fill="#34A853"/>
<path d="M15.3351 20.4685C14.9901 19.5866 14.9901 18.5945 15.3351 17.6575V15.7834H12.8051C11.7126 17.8228 11.7126 20.248 12.8051 22.3425L15.3351 20.4685Z" fill="#FBBC04"/>
<path d="M19.59 14.6811C20.6825 14.6811 21.7175 15.0669 22.5225 15.7835L24.7075 13.689C23.3275 12.4764 21.4875 11.7599 19.6475 11.815C16.7725 11.815 14.1275 13.3583 12.8625 15.8386L15.3925 17.7126C15.91 15.9488 17.635 14.6811 19.59 14.6811Z" fill="#EA4335"/>
</g>
<defs>
<clipPath id="clip0_2001_779">
<rect width="46" height="21" fill="white" transform="translate(12 9.5)"/>
</clipPath>
</defs>
</svg>
