<svg width="70" height="40" viewBox="0 0 70 40" fill="none" xmlns="http://www.w3.org/2000/svg">
<rect width="70" height="40" rx="20" fill="#F7F7F7"/>
<path d="M39.5 11H29.5V28H39.5V11Z" fill="#FF5F00"/>
<path d="M31.0032 19.9975C31.0032 16.6379 32.6651 13.431 35.4674 11.3542C30.3841 7.59764 23.0198 8.42226 19.0118 13.2173C15.0038 17.9817 15.8836 24.8841 20.9995 28.6407C25.2682 31.7864 31.2313 31.7864 35.5 28.6407C32.6651 26.5639 31.0032 23.357 31.0032 19.9975Z" fill="#EB001B"/>
<path d="M53.5 20.0013C53.5 26.0811 48.5206 31 42.366 31C39.8608 31 37.4485 30.1751 35.5 28.6475C40.3247 24.8896 41.1598 17.9848 37.3557 13.1882C36.799 12.516 36.1804 11.8744 35.5 11.355C40.3247 7.59715 47.3454 8.42205 51.1186 13.2187C52.6649 15.1435 53.5 17.5266 53.5 20.0013Z" fill="#F79E1B"/>
<path d="M52.7333 26.4276V26.0611H52.9V26H52.5V26.0611H52.6667V26.4276H52.7333ZM53.5 26.4276V26H53.3667L53.2333 26.3054L53.1 26H52.9667V26.4276H53.0667V26.0916L53.2 26.3665H53.3L53.4333 26.0916V26.4276H53.5Z" fill="#F79E1B"/>
</svg>
