<svg width="70" height="40" viewBox="0 0 70 40" fill="none" xmlns="http://www.w3.org/2000/svg">
<rect width="70" height="40" rx="20" fill="#F7F7F7"/>
<path d="M49.2664 15.6647C48.9224 12.9809 47.9591 10.538 46.2735 8.74882C44.4846 7.06285 42.042 6.09944 39.3587 5.75537C36.7786 5.41129 35.0241 5.51452 35.0241 5.51452C35.0241 5.51452 33.2696 5.4457 30.6894 5.75537C28.0061 6.09944 25.5636 7.06285 23.7747 8.74882C22.089 10.538 21.1257 12.9809 20.7817 15.6647C20.4377 18.2453 20.5065 20.0001 20.5065 20.0001C20.5065 20.0001 20.4377 21.7548 20.7473 24.3354C21.0913 27.0188 22.0546 29.4621 23.7403 31.2513C25.5292 32.9373 27.9717 33.9003 30.655 34.2444C33.2352 34.5885 34.9897 34.4856 34.9897 34.4856C34.9897 34.4856 36.7442 34.5541 39.3243 34.2444C42.0076 33.9003 44.4502 32.9373 46.239 31.2513C47.9247 29.4624 48.888 27.0188 49.232 24.3354C49.576 21.7548 49.4728 20.0001 49.4728 20.0001C49.4728 20.0001 49.6104 18.2453 49.2664 15.6647Z" fill="#1E4BC6"/>
<path d="M25.5 15.5H28.1495C28.5679 15.5 28.9165 15.5662 29.2651 15.6987C29.6138 15.8311 29.8927 16.0298 30.1367 16.2616C30.3807 16.4934 30.5899 16.7583 30.7294 17.0894C30.8688 17.4205 30.9385 17.7517 30.9385 18.1159C30.9385 18.4801 30.8688 18.8113 30.7294 19.1424C30.5899 19.4735 30.3807 19.7387 30.1367 19.9702C29.8927 20.2017 29.5789 20.401 29.2651 20.5328C28.9514 20.6652 28.5679 20.7321 28.1495 20.7321H26.9642V22.8179H25.5349V15.5H25.5ZM26.9294 16.7586V19.4407H28.045C28.2541 19.4407 28.4633 19.4076 28.6376 19.3414C28.8119 19.2752 28.9514 19.1758 29.0908 19.0434C29.2303 18.9109 29.3 18.7785 29.3697 18.6129C29.4394 18.4474 29.4743 18.2818 29.4743 18.0831C29.4743 17.8844 29.4394 17.7189 29.3697 17.5533C29.3 17.3877 29.1954 17.2553 29.0908 17.1228C28.9514 16.9904 28.8119 16.8911 28.6376 16.8248C28.4633 16.7586 28.2541 16.7255 28.045 16.7255H26.9294V16.7586ZM34.2505 22.8179C33.867 22.8179 33.5183 22.752 33.1349 22.6192C32.7862 22.4868 32.4376 22.2881 32.1587 22.0566C31.8798 21.7914 31.6358 21.4934 31.4615 21.1291C31.2872 20.7649 31.1826 20.3344 31.1826 19.8709C31.1826 19.4073 31.2523 18.9768 31.4266 18.6126C31.6009 18.2483 31.845 17.9503 32.1239 17.6854C32.4028 17.4205 32.7514 17.255 33.1 17.1225C33.4835 16.9901 33.8321 16.9238 34.2505 16.9238C34.6688 16.9238 35.0523 16.9901 35.3661 17.1225C35.7147 17.255 35.9936 17.4536 36.2376 17.6854V16.9238H37.667V22.8175H36.2376V21.9897C36.0284 22.255 35.7147 22.4533 35.3661 22.6189C35.0174 22.752 34.6688 22.8179 34.2505 22.8179ZM34.4945 21.593C34.7734 21.593 35.0174 21.5599 35.2266 21.4606C35.4358 21.3613 35.645 21.2619 35.8193 21.0964C35.9936 20.9308 36.0982 20.7652 36.2028 20.5666C36.3073 20.3672 36.3422 20.1358 36.3422 19.9043C36.3422 19.6722 36.3073 19.4404 36.2028 19.2421C36.0982 19.0434 35.9936 18.8447 35.8193 18.7123C35.645 18.5467 35.4706 18.4474 35.2266 18.348C34.9826 18.2156 34.7385 18.1825 34.4945 18.1825C34.2505 18.1825 34.0064 18.2156 33.7624 18.3149C33.5183 18.4142 33.344 18.5136 33.1697 18.6791C32.9954 18.8447 32.856 19.0103 32.7862 19.2089C32.6817 19.4076 32.6468 19.6394 32.6468 19.8712C32.6468 20.103 32.6817 20.3344 32.7862 20.5331C32.8908 20.7325 33.0303 20.9308 33.1697 21.0964C33.344 21.2619 33.5532 21.3609 33.7624 21.4606C33.9716 21.5265 34.2156 21.593 34.4945 21.593ZM39.6541 16.957L41.3972 20.9636L43.0009 16.957H44.5L40.8395 25.5H39.3752L40.6651 22.5533L38.155 16.957H39.6541Z" fill="white"/>
</svg>
