<svg width="50" height="16" viewBox="0 0 50 16" fill="none" xmlns="http://www.w3.org/2000/svg">
<path d="M32.4257 0C28.951 0 25.8313 1.82588 25.8313 5.17647C25.8313 9.03529 31.3422 9.29882 31.3422 11.2188C31.3422 12.0282 30.4081 12.7624 28.8389 12.7624C26.5972 12.7624 24.9159 11.7459 24.9159 11.7459L24.2061 15.1341C24.2061 15.1341 26.1302 16 28.7082 16C32.5191 16 35.508 14.0988 35.508 10.6729C35.508 6.60706 29.9785 6.34353 29.9785 4.55529C29.9785 3.91529 30.7444 3.21882 32.3136 3.21882C34.0883 3.21882 35.5454 3.95294 35.5454 3.95294L36.2552 0.677647C36.2366 0.677647 34.6487 0 32.4257 0ZM0.593405 0.244706L0.5 0.734118C0.5 0.734118 1.95711 0.997647 3.28345 1.54353C4.98342 2.16471 5.0955 2.52235 5.3944 3.63294L8.51411 15.7365H12.6986L19.1062 0.244706H14.9403L10.8119 10.7859L9.13058 1.84471C8.98113 0.828235 8.19653 0.244706 7.22512 0.244706H0.593405ZM20.7875 0.244706L17.5183 15.7365H21.4973L24.7478 0.244706H20.7875ZM42.943 0.244706C41.9903 0.244706 41.4859 0.752941 41.1123 1.65647L35.2838 15.7365H39.4497L40.253 13.3835H45.3342L45.8199 15.7365H49.5L46.3056 0.244706H42.943ZM43.4848 4.44235L44.7177 10.2588H41.4112L43.4848 4.44235Z" fill="#1434CB"/>
</svg>
