<svg width="42" height="42" viewBox="0 0 42 42" fill="none" xmlns="http://www.w3.org/2000/svg">
<rect x="1.33331" y="1" width="40" height="40" rx="20" fill="url(#paint0_linear_2001_709)" fill-opacity="0.1"/>
<rect x="1.33331" y="1" width="40" height="40" rx="20" stroke="url(#paint1_linear_2001_709)" stroke-opacity="0.5"/>
<g clip-path="url(#clip0_2001_709)">
<path d="M19.1854 9.23796C19.1206 9.38555 19.0558 9.80149 19.0558 10.1772V10.8615H17.8373C16.7225 10.8615 16.567 10.8883 16.2429 11.1835L15.88 11.5055L15.8411 21.6892C15.8152 29.1492 15.8541 31.9535 15.9578 32.2352C16.2689 33 16.23 33 21.4279 33H26.1981L26.5092 32.6512L26.8333 32.2889V21.9039V11.5189L26.4963 11.1969C26.1981 10.9017 26.0167 10.8615 24.9019 10.8346L23.6575 10.7944L23.5927 9.92224L23.5279 9.05012L21.4279 9.00987C19.4576 8.98303 19.315 8.99645 19.1854 9.23796ZM23.139 10.1235V10.7944L21.3631 10.8346L19.5743 10.8749V10.2174C19.5743 9.85516 19.6132 9.51972 19.665 9.46605C19.7169 9.4258 20.5206 9.39897 21.4409 9.41239L23.139 9.45264V10.1235ZM26.263 11.586C26.4185 11.8141 26.4444 13.4376 26.4444 21.9441C26.4444 33.0805 26.4963 32.3694 25.6278 32.5304C25.3945 32.5706 23.3075 32.5975 20.9872 32.5706C17.6429 32.5438 16.7225 32.4901 16.554 32.3426C16.3466 32.1815 16.3337 31.2826 16.3337 21.9844C16.3337 11.9214 16.3337 11.8007 16.5929 11.5323C16.8522 11.264 16.9818 11.2506 21.4668 11.2908C25.8611 11.3311 26.0815 11.3445 26.263 11.586Z" fill="white"/>
<path d="M17.8333 22V31L21.3333 30.9735L24.8333 30.9338V22V13.0662L21.3333 13.0265L17.8333 13V22Z" fill="white"/>
</g>
<defs>
<linearGradient id="paint0_linear_2001_709" x1="8.41024" y1="39.7531" x2="10.982" y2="6.77414" gradientUnits="userSpaceOnUse">
<stop stop-color="white"/>
<stop offset="1" stop-color="#0B0B0B"/>
</linearGradient>
<linearGradient id="paint1_linear_2001_709" x1="35" y1="4.5" x2="25.8164" y2="40.8272" gradientUnits="userSpaceOnUse">
<stop stop-color="white" stop-opacity="0.7"/>
<stop offset="1" stop-color="white" stop-opacity="0"/>
</linearGradient>
<clipPath id="clip0_2001_709">
<rect width="11" height="24" fill="white" transform="translate(15.8333 9)"/>
</clipPath>
</defs>
</svg>
