<svg width="32" height="32" viewBox="0 0 32 32" fill="none" xmlns="http://www.w3.org/2000/svg">
<path d="M12.5333 0.284197C11.8578 0.444197 11.2711 0.58642 11.2533 0.604197C11.2 0.65753 11.1111 9.95531 11.1645 9.95531C11.1822 9.95531 11.52 9.7242 11.9289 9.43975C13.8667 8.01753 16.96 7.76864 19.2356 8.83531C22.1689 10.2042 23.8222 12.7998 23.8222 15.982C23.8222 18.382 23.1111 20.1064 21.4933 21.6886C19.8756 23.2709 18.1333 23.8931 15.68 23.7864C14.2045 23.7331 13.7778 23.6442 12.7467 23.1642C11.2533 22.4531 9.81334 21.1198 9.08445 19.7331C8.0889 17.8842 8.00001 17.0309 8.00001 9.19086C8.00001 5.31531 7.94667 2.13309 7.89334 2.13309C7.53778 2.13309 5.38667 3.91086 4.2489 5.11975C2.18667 7.3242 0.817783 9.93753 0.248894 12.782C-0.142217 14.8086 -0.0177724 18.542 0.515561 20.4086C1.86667 25.0486 5.58223 29.1553 10.0445 30.9509C12.2845 31.8397 13.6 32.0353 16.6222 31.9642C19.0578 31.8931 19.4489 31.822 20.9778 31.3064C25.9733 29.5997 29.6 25.9731 31.3067 20.9775C31.8222 19.4664 31.8933 19.022 31.9645 16.7109C32.0178 14.7553 31.9645 13.7775 31.7511 12.7464C30.5778 7.03975 26.0622 2.16864 20.4089 0.515308C18.6489 -0.000246048 14.3645 -0.124691 12.5333 0.284197Z" fill="white"/>
<path d="M14.0444 11.5733C10.8444 13.0133 10.1867 17.2622 12.8 19.6089C13.8133 20.5333 14.6133 20.8533 16 20.8533C17.9733 20.8711 19.6978 19.7689 20.4978 17.9733C21.0133 16.8177 20.9956 15.1289 20.4622 13.9911C19.9467 12.96 18.5778 11.6977 17.6356 11.4133C16.5511 11.0933 14.9689 11.1466 14.0444 11.5733Z" fill="white"/>
</svg>
