<svg width="74" height="14" viewBox="0 0 74 14" fill="none" xmlns="http://www.w3.org/2000/svg">
<path d="M18.0069 2.0005H25.5583V3.3108H22.5896V10.6781H20.956V3.3108H18V2H18.0064L18.0069 2.0005ZM25.236 4.39455H26.6319V5.60747H26.658C26.7044 5.43592 26.7896 5.27043 26.9148 5.111C27.1826 4.76928 27.5449 4.50438 27.9618 4.34561C28.1735 4.26615 28.399 4.22458 28.6267 4.22301C28.7972 4.22301 28.923 4.22906 28.989 4.23562C29.0546 4.24167 29.1201 4.25378 29.1926 4.25984V5.59485C29.0856 5.57714 28.9781 5.56284 28.8702 5.55197C28.7631 5.53996 28.6552 5.5339 28.5473 5.5338C28.2969 5.5338 28.0604 5.58274 27.8366 5.67508C27.6128 5.7664 27.4215 5.90716 27.2574 6.08527C27.0823 6.28441 26.9482 6.51288 26.8621 6.75883C26.7635 7.02825 26.7172 7.33401 26.7172 7.68365V10.672H25.2296V4.39455H25.236ZM36.0332 10.6786H34.5717V9.80272H34.5451C34.3607 10.1216 34.0911 10.3729 33.7288 10.5626C33.3665 10.7523 32.9978 10.8502 32.6227 10.8502C31.734 10.8502 31.0883 10.6483 30.694 10.2376C30.2987 9.82745 30.101 9.20888 30.101 8.38194V4.39506H31.5891V8.24722C31.5891 8.79869 31.701 9.19072 31.9317 9.41726C32.1555 9.64379 32.4778 9.76034 32.8859 9.76034C33.2019 9.76034 33.4587 9.71746 33.6692 9.62513C33.8801 9.5333 34.0512 9.41725 34.1764 9.26387C34.308 9.11705 34.4002 8.9334 34.4598 8.72503C34.5184 8.51665 34.5451 8.29011 34.5451 8.04541V4.40111H36.0332V10.6786ZM38.5677 8.66398C38.6141 9.06761 38.7782 9.35015 39.0616 9.51514C39.3509 9.67457 39.6935 9.76034 40.0953 9.76034C40.2338 9.76034 40.3915 9.74773 40.5695 9.72957C40.7469 9.7109 40.9179 9.66801 41.0698 9.61352C41.2275 9.55802 41.3521 9.47225 41.4576 9.36226C41.5567 9.25126 41.6026 9.111 41.5962 8.9334C41.5953 8.85098 41.5761 8.76965 41.5399 8.69471C41.5036 8.61978 41.4511 8.55292 41.3857 8.49849C41.2536 8.38244 41.0895 8.29667 40.8849 8.22301C40.657 8.14823 40.4237 8.08888 40.1869 8.04541C39.9237 7.99647 39.6605 7.94097 39.3909 7.88597C39.1193 7.83033 38.8511 7.76077 38.5874 7.6776C38.3402 7.60255 38.1069 7.49102 37.8964 7.34712C37.6912 7.21154 37.5239 7.03077 37.4089 6.82038C37.2842 6.60595 37.2245 6.34258 37.2245 6.02422C37.2245 5.68113 37.3167 5.3996 37.4947 5.1665C37.6742 4.93535 37.9059 4.74505 38.1729 4.60949C38.4599 4.46582 38.7684 4.36458 39.0877 4.30928C39.4234 4.25429 39.7463 4.22351 40.0489 4.22351C40.3979 4.22351 40.7336 4.26034 41.05 4.32795C41.3565 4.39007 41.6485 4.50408 41.9121 4.66448C42.1689 4.81786 42.3794 5.01968 42.5509 5.26488C42.722 5.50959 42.8275 5.80979 42.8733 6.15893H41.3196C41.2472 5.82846 41.0889 5.60192 40.8327 5.49142C40.5759 5.37538 40.2796 5.31988 39.9503 5.31988C39.8449 5.31988 39.7196 5.32593 39.5753 5.3446C39.4361 5.36212 39.2992 5.39289 39.1666 5.43643C39.0454 5.4787 38.9354 5.5455 38.8442 5.63219C38.8 5.67742 38.7656 5.73047 38.743 5.7883C38.7204 5.84613 38.7101 5.90761 38.7126 5.96922C38.7126 6.14077 38.7782 6.27548 38.9034 6.37942C39.0286 6.48335 39.1932 6.56912 39.3973 6.64278C39.6014 6.71039 39.8321 6.77144 40.0953 6.82038C40.3585 6.86932 40.6281 6.92432 40.9051 6.97982C41.1747 7.03481 41.4379 7.10848 41.7017 7.18769C41.9649 7.26741 42.195 7.3779 42.3996 7.51867C42.6037 7.65943 42.7683 7.83098 42.893 8.03935C43.0182 8.24722 43.0843 8.5106 43.0843 8.81685C43.0843 9.19021 42.9921 9.50303 42.8072 9.7664C42.6234 10.0237 42.3863 10.2376 42.0965 10.3971C41.793 10.5626 41.4643 10.6824 41.122 10.7523C40.7737 10.8248 40.4183 10.8617 40.0617 10.8623C39.6624 10.8665 39.2642 10.8212 38.8773 10.7275C38.515 10.6357 38.199 10.501 37.9358 10.3239C37.6757 10.1449 37.4618 9.91238 37.3103 9.64379C37.159 9.37437 37.0796 9.04945 37.0668 8.67608H38.5677V8.66398ZM43.4791 4.39556H44.6049V2.50858H46.093V4.39556H47.4357V5.42987H46.0935V8.78658C46.0935 8.9329 46.0999 9.056 46.1133 9.16599C46.126 9.27043 46.1591 9.36226 46.2054 9.43542C46.2558 9.51228 46.3323 9.57064 46.4223 9.60091C46.5214 9.63774 46.6461 9.65641 46.8176 9.65641C46.9226 9.65641 47.0281 9.65641 47.1336 9.64985C47.2391 9.64379 47.344 9.63168 47.4495 9.60696V10.6786C47.2849 10.6973 47.1202 10.7094 46.9689 10.7275C46.8094 10.7451 46.6489 10.7534 46.4883 10.7523C46.0935 10.7523 45.7776 10.7154 45.54 10.6483C45.3034 10.5807 45.1121 10.4768 44.9805 10.3421C44.842 10.2074 44.7567 10.0419 44.704 9.83956C44.6527 9.61203 44.6242 9.38043 44.6187 9.14783V5.44147H43.4929V4.39405H43.4796L43.4791 4.39556ZM48.489 4.39556H49.8983V5.24622H49.9249C50.1348 4.87891 50.4247 4.62159 50.7998 4.46266C51.1832 4.30124 51.5987 4.21968 52.0183 4.22351C52.5511 4.22351 53.012 4.30928 53.4073 4.48688C53.8021 4.65843 54.1314 4.89758 54.3946 5.20333C54.6578 5.50959 54.8491 5.86478 54.9807 6.26942C55.1148 6.69035 55.1814 7.12795 55.1783 7.56761C55.1783 7.98991 55.1192 8.4001 55.0004 8.79263C54.8913 9.17126 54.7106 9.52802 54.467 9.84561C54.2277 10.1518 53.9168 10.4013 53.5586 10.5747C53.1899 10.7583 52.7621 10.8502 52.2618 10.8502C52.0431 10.8499 51.8249 10.8314 51.6096 10.7947C51.3949 10.758 51.1853 10.6986 50.9847 10.6176C50.7853 10.5388 50.5989 10.4335 50.4311 10.3047C50.2654 10.1796 50.1211 10.031 50.0032 9.86428H49.9766V13H48.489V4.39455V4.39556ZM53.6902 7.54289C53.6905 7.2636 53.6507 6.98558 53.5719 6.71645C53.499 6.46145 53.3784 6.22086 53.216 6.00605C53.0619 5.80169 52.8619 5.63215 52.6305 5.50959C52.3819 5.38238 52.1032 5.3171 51.8206 5.31988C51.1951 5.31988 50.7209 5.52169 50.405 5.92634C50.089 6.33047 49.9308 6.86983 49.9308 7.54289C49.9308 7.86125 49.9707 8.1554 50.056 8.42482C50.1412 8.69425 50.26 8.92735 50.4311 9.12311C50.5962 9.31937 50.7934 9.47225 51.0241 9.58224C51.2543 9.69879 51.5244 9.75378 51.827 9.75378C52.1696 9.75378 52.4525 9.68668 52.6896 9.55802C52.9192 9.43294 53.117 9.26155 53.2688 9.056C53.4201 8.84763 53.5325 8.61453 53.598 8.35167C53.6586 8.08588 53.6895 7.81479 53.6902 7.54289ZM56.3169 2.0005H57.805V3.3113H56.3169V2.0005ZM56.3169 4.39506H57.805V10.6786H56.3169V4.39506ZM59.1349 2.0005H60.623V10.6786H59.1349V2.0005ZM65.1854 10.8502C64.6451 10.8502 64.1646 10.7644 63.7436 10.5994C63.3401 10.4427 62.9749 10.2091 62.6706 9.91322C62.3747 9.61136 62.1481 9.25472 62.0051 8.86579C61.8485 8.43648 61.7707 7.98496 61.7749 7.53078C61.7749 7.05298 61.8538 6.61251 62.0051 6.20787C62.1482 5.81914 62.3748 5.46268 62.6706 5.16095C62.9599 4.8668 63.3222 4.64026 63.7436 4.47477C64.1646 4.30928 64.6451 4.22351 65.1854 4.22351C65.7251 4.22351 66.2057 4.30928 66.6272 4.47477C67.0486 4.64026 67.404 4.87336 67.7002 5.16095C67.996 5.46257 68.2224 5.81907 68.3652 6.20787C68.5165 6.61201 68.5953 7.05298 68.5953 7.53078C68.5953 8.01514 68.5165 8.46165 68.3652 8.86579C68.2225 9.25478 67.9961 9.61146 67.7002 9.91322C67.4104 10.2074 67.0486 10.4339 66.6272 10.5994C66.2057 10.7644 65.7251 10.8502 65.1854 10.8502ZM65.1854 9.75378C65.5147 9.75378 65.804 9.68668 66.0475 9.55802C66.2848 9.43292 66.4896 9.25916 66.6469 9.04945C66.8046 8.84157 66.9165 8.60242 66.9959 8.33905C67.0683 8.07568 67.1077 7.80626 67.1077 7.53078C67.1077 7.26135 67.0683 6.99798 66.9959 6.72856C66.928 6.47299 66.8096 6.23194 66.6469 6.01816C66.4893 5.81044 66.2844 5.63888 66.0475 5.51615C65.804 5.38749 65.5147 5.31988 65.1854 5.31988C64.8561 5.31988 64.5663 5.38749 64.3228 5.51615C64.0874 5.64076 63.8831 5.81199 63.7239 6.01816C63.5635 6.23321 63.4453 6.47384 63.3749 6.72856C63.302 6.99043 63.2643 7.25996 63.2625 7.53078C63.2625 7.80626 63.3025 8.07568 63.3749 8.33905C63.4474 8.60242 63.5657 8.84157 63.7239 9.04945C63.8816 9.25782 64.0793 9.42936 64.3228 9.55802C64.5663 9.69273 64.8561 9.75378 65.1854 9.75378ZM69.0301 4.39556H70.1559V2.50858H71.644V4.39556H72.9867V5.42987H71.644V8.78658C71.644 8.9329 71.6504 9.056 71.6632 9.16599C71.6765 9.27043 71.7096 9.36226 71.7559 9.43542C71.8062 9.51237 71.8827 9.57075 71.9728 9.60091C72.0719 9.63774 72.1965 9.65641 72.3681 9.65641C72.4731 9.65641 72.5786 9.65641 72.684 9.64985C72.7895 9.64379 72.8945 9.63168 73 9.60696V10.6786C72.8354 10.6973 72.6707 10.7094 72.5194 10.7275C72.3599 10.7451 72.1994 10.7534 72.0388 10.7523C71.644 10.7523 71.3275 10.7154 71.0904 10.6483C70.8539 10.5807 70.6626 10.4768 70.531 10.3421C70.393 10.2074 70.3072 10.0419 70.2545 9.83956C70.2033 9.61201 70.1747 9.38042 70.1692 9.14783V5.44147H69.0434V4.39405H69.0301V4.39556Z" fill="#0B0B0B"/>
<path d="M14 4.96845H8.654L7.00272 0L5.34558 4.96887L0 4.96347L4.3295 8.03695L2.67321 13L7.00272 9.93151L11.3272 13L9.67592 8.03695L14 4.96845Z" fill="#04DA8D"/>
<path d="M10.0472 9.16106L9.67592 8.03695L7.00272 9.93151L10.0472 9.16106Z" fill="#126849"/>
</svg>
