<svg width="42" height="42" viewBox="0 0 42 42" fill="none" xmlns="http://www.w3.org/2000/svg">
<rect x="0.666687" y="1" width="40" height="40" rx="20" fill="url(#paint0_linear_2001_717)" fill-opacity="0.1"/>
<rect x="0.666687" y="1" width="40" height="40" rx="20" stroke="url(#paint1_linear_2001_717)" stroke-opacity="0.5"/>
<g clip-path="url(#clip0_2001_717)">
<path d="M21.5077 9.3443C21.5077 10.0754 21.1228 10.5629 20.3864 10.7892L19.6667 11.0155L20.3864 11.207C21.1228 11.4159 21.5077 11.9033 21.5077 12.6518C21.5077 12.8433 21.5914 13 21.6751 13C21.7755 13 21.8424 12.8433 21.8424 12.6518C21.8424 11.9207 22.2274 11.4159 22.947 11.2244L23.6667 11.0155L22.8801 10.7544C22.1604 10.4932 22.0767 10.4236 21.9428 9.72728C21.7755 8.97873 21.5077 8.73502 21.5077 9.3443Z" fill="white"/>
<path d="M14.8846 14.558C14.7428 15.0052 14.5656 15.202 14.1049 15.3451C13.467 15.5598 13.5201 15.6493 14.2998 15.8461C14.6365 15.9176 14.796 16.0965 14.8846 16.4901C15.0263 17.17 15.2567 17.17 15.3984 16.4901C15.4693 16.0608 15.6111 15.9176 16.0363 15.8461C16.7097 15.7029 16.9046 15.4167 16.3199 15.4167C15.7705 15.4167 15.3275 14.9873 15.3275 14.4148C15.3275 13.8066 15.0795 13.8781 14.8846 14.558Z" fill="white"/>
<path d="M19.387 16.1126C18.7009 16.3133 17.8642 17.2666 17.7304 17.969C17.6802 18.27 17.6467 20.0762 17.6802 21.9828C17.7304 25.1604 17.7638 25.4781 18.0818 25.8962C18.7009 26.7324 19.2196 27 20.1567 27C21.144 27 21.6794 26.699 22.2986 25.7959C22.65 25.2607 22.6667 25.1102 22.6667 21.5312C22.6667 17.9523 22.65 17.8018 22.2986 17.2666C21.5623 16.1962 20.4914 15.7781 19.387 16.1126Z" fill="white"/>
<path d="M26.0425 16.525C25.9469 16.8625 25.6985 17.125 25.2782 17.275L24.6667 17.5375L25.2017 17.6687C25.5648 17.7437 25.8323 17.9875 26.0043 18.4L26.2527 19L26.4055 18.4562C26.482 18.1187 26.7304 17.8562 27.0934 17.7062L27.6667 17.4625L27.1125 17.2375C26.7877 17.1062 26.4629 16.7875 26.3673 16.5062L26.1762 16L26.0425 16.525Z" fill="white"/>
<path d="M14.7837 23.1278C14.595 23.2929 14.6465 25.2244 14.8524 26.1489C15.247 27.9318 16.7912 29.3681 18.7644 29.7808L19.811 29.9954V31.2831V32.5708L17.9751 32.6203C16.8427 32.6533 16.1392 32.7359 16.1735 32.8349C16.1907 32.934 17.6663 33 20.1541 33C22.642 33 24.1176 32.934 24.1519 32.8349C24.1691 32.7359 23.4656 32.6533 22.3503 32.6203L20.4973 32.5708V31.2666C20.4973 29.9624 20.4973 29.9459 20.9777 29.8634C23.4484 29.3681 24.5637 28.5427 25.3186 26.6442C25.7304 25.6206 25.799 23.0123 25.4044 23.0123C25.25 23.0123 25.147 23.4085 25.0784 24.5311C24.9926 25.7527 24.8725 26.2314 24.4951 26.9578C23.6543 28.5262 22.2131 29.3186 20.1541 29.3186C18.2325 29.3186 16.7741 28.5757 15.9162 27.189C15.5558 26.5781 15.4529 26.1819 15.4014 25.0924C15.2985 23.1608 15.1784 22.7481 14.7837 23.1278Z" fill="white"/>
</g>
<defs>
<linearGradient id="paint0_linear_2001_717" x1="7.74361" y1="39.7531" x2="10.3154" y2="6.77414" gradientUnits="userSpaceOnUse">
<stop stop-color="white"/>
<stop offset="1" stop-color="#0B0B0B"/>
</linearGradient>
<linearGradient id="paint1_linear_2001_717" x1="34.3334" y1="4.5" x2="25.1498" y2="40.8272" gradientUnits="userSpaceOnUse">
<stop stop-color="white" stop-opacity="0.7"/>
<stop offset="1" stop-color="white" stop-opacity="0"/>
</linearGradient>
<clipPath id="clip0_2001_717">
<rect width="14" height="24" fill="white" transform="translate(13.6667 9)"/>
</clipPath>
</defs>
</svg>
