<svg width="42" height="42" viewBox="0 0 42 42" fill="none" xmlns="http://www.w3.org/2000/svg">
<rect x="1" y="1" width="40" height="40" rx="20" fill="url(#paint0_linear_2001_713)" fill-opacity="0.1"/>
<rect x="1" y="1" width="40" height="40" rx="20" stroke="url(#paint1_linear_2001_713)" stroke-opacity="0.5"/>
<g clip-path="url(#clip0_2001_713)">
<path d="M21.7 9.05323C21.6 9.10411 21.5 14.2938 21.5 20.586C21.5 30.6262 21.5667 32 22 32C22.4333 32 22.5 30.6093 22.5 20.569C22.5 14.2769 22.3667 9.08715 22.2 9.03627C22.0667 8.98539 21.8333 8.98539 21.7 9.05323Z" fill="white"/>
<path d="M13.7883 14.3789C13.6993 14.5944 13.4142 16.5338 13.1647 18.7218C12.9153 20.8932 12.6659 22.7 12.6302 22.7331C12.5946 22.7663 12.5055 22.1364 12.4342 21.3408C12.2739 19.6169 12.1135 19.1362 11.6503 19.1362C11.1336 19.1362 10.9376 19.4843 10.706 20.8932L10.4922 22.2027L10.2962 21.4568C10.1714 20.9927 9.99327 20.6943 9.79728 20.6612C9.42312 20.5949 9.4053 21.0258 9.72601 22.1861C10.1893 23.8769 11.1336 23.4956 11.3652 21.5397C11.4365 20.9264 11.5077 20.4623 11.5434 20.4954C11.579 20.5286 11.6859 21.2413 11.7928 22.1033C12.0066 23.7443 12.2026 24.2747 12.5946 24.2747C13.1113 24.2747 13.2895 23.6448 13.7527 19.7661C14.3407 15.0088 14.3229 14.9922 14.7505 23.0315C14.9108 25.866 15.0712 28.3026 15.1246 28.4684C15.1781 28.6175 15.3741 28.833 15.5523 28.9159C16.3006 29.2806 16.4609 28.6341 16.9064 23.4459C17.0489 21.8215 17.1914 22.0204 17.5121 24.3078C17.7438 25.8494 18.011 26.2969 18.5455 25.982C18.9375 25.7665 19.0623 25.3521 19.3117 23.5619C19.4899 22.2193 19.5433 22.1198 19.9175 22.1198C20.4342 22.1198 20.6836 21.8049 20.3451 21.606C20.2026 21.5231 19.8284 21.4568 19.5255 21.4568C18.8663 21.4568 18.9019 21.4071 18.5812 23.4459C18.4743 24.1255 18.3674 24.6891 18.3317 24.7222C18.3139 24.7554 18.1536 23.9432 18.011 22.9486C17.726 21.1419 17.5121 20.628 17.0489 20.628C16.6035 20.628 16.4253 21.3076 16.1046 24.3244L15.7839 27.3412L15.677 25.9323C15.6057 25.1532 15.4275 22.2856 15.2672 19.5506C15.1068 16.8156 14.9108 14.4618 14.8217 14.2961C14.5723 13.8651 13.9665 13.9148 13.7883 14.3789Z" fill="white"/>
<path d="M26.11 20.6324C25.7108 20.983 25.3116 21.2783 25.2075 21.2783C25.1207 21.2783 24.7562 21.1122 24.4265 20.8908C23.7149 20.4479 22.5 20.4479 22.5 20.9092C22.5 21.0938 22.7083 21.2045 23.1769 21.2414C23.5587 21.2783 24.062 21.4628 24.2876 21.6658C24.8604 22.1457 25.3637 22.1087 26.0753 21.5551C26.405 21.3152 26.8389 20.9646 27.0472 20.7985C27.429 20.5217 27.4637 20.5217 28.0017 21.0015C28.4877 21.4259 28.6439 21.4813 29.3381 21.3706C29.772 21.3152 30.9001 21.2783 31.8373 21.2783C33.4167 21.3152 33.5556 21.2783 33.4861 20.9646C33.4341 20.6878 33.1911 20.614 31.7332 20.4848C30.31 20.374 29.9629 20.411 29.6158 20.6509C29.1993 20.9461 29.1472 20.9277 28.5224 20.4663C27.6026 19.802 26.9778 19.8389 26.11 20.6324Z" fill="white"/>
</g>
<defs>
<linearGradient id="paint0_linear_2001_713" x1="8.07692" y1="39.7531" x2="10.6487" y2="6.77414" gradientUnits="userSpaceOnUse">
<stop stop-color="white"/>
<stop offset="1" stop-color="#0B0B0B"/>
</linearGradient>
<linearGradient id="paint1_linear_2001_713" x1="34.6667" y1="4.5" x2="25.4831" y2="40.8272" gradientUnits="userSpaceOnUse">
<stop stop-color="white" stop-opacity="0.7"/>
<stop offset="1" stop-color="white" stop-opacity="0"/>
</linearGradient>
<clipPath id="clip0_2001_713">
<rect width="25" height="24" fill="white" transform="translate(8.5 9)"/>
</clipPath>
</defs>
</svg>
