<svg width="24" height="24" viewBox="0 0 24 24" fill="none" xmlns="http://www.w3.org/2000/svg">
<path d="M21.12 8.44088L22.2052 7.3557C22.3418 7.21425 22.4174 7.0248 22.4157 6.82815C22.414 6.6315 22.3351 6.44339 22.196 6.30434C22.057 6.16528 21.8689 6.0864 21.6722 6.08469C21.4756 6.08299 21.2861 6.15858 21.1447 6.2952L20.0591 7.38037C18.6326 6.17171 16.8635 5.43999 15 5.28788V4.5C15.3977 4.4996 15.779 4.34144 16.0602 4.06022C16.3414 3.779 16.4996 3.3977 16.5 3V2.25C16.4996 1.8523 16.3414 1.471 16.0602 1.18978C15.779 0.90856 15.3977 0.750397 15 0.75H13.5C13.1023 0.750397 12.721 0.90856 12.4398 1.18978C12.1586 1.471 12.0004 1.8523 12 2.25V3C12.0004 3.3977 12.1586 3.779 12.4398 4.06022C12.721 4.34144 13.1023 4.4996 13.5 4.5V5.28788C11.6365 5.43999 9.86738 6.17171 8.44088 7.38037L7.3557 6.2952C7.21425 6.15858 7.0248 6.08299 6.82815 6.08469C6.6315 6.0864 6.44339 6.16528 6.30434 6.30434C6.16528 6.44339 6.0864 6.6315 6.08469 6.82815C6.08299 7.0248 6.15858 7.21425 6.2952 7.3557L7.38037 8.44088C6.00296 10.0628 5.24778 12.1221 5.25 14.25H9.75C9.94891 14.25 10.1397 14.329 10.2803 14.4697C10.421 14.6103 10.5 14.8011 10.5 15C10.5 15.1989 10.421 15.3897 10.2803 15.5303C10.1397 15.671 9.94891 15.75 9.75 15.75H1.5C1.30109 15.75 1.11032 15.829 0.96967 15.9697C0.829018 16.1103 0.75 16.3011 0.75 16.5C0.75 16.6989 0.829018 16.8897 0.96967 17.0303C1.11032 17.171 1.30109 17.25 1.5 17.25H10.5C10.6989 17.25 10.8897 17.329 11.0303 17.4697C11.171 17.6103 11.25 17.8011 11.25 18C11.25 18.1989 11.171 18.3897 11.0303 18.5303C10.8897 18.671 10.6989 18.75 10.5 18.75H4.5C4.30109 18.75 4.11032 18.829 3.96967 18.9697C3.82902 19.1103 3.75 19.3011 3.75 19.5C3.75 19.6989 3.82902 19.8897 3.96967 20.0303C4.11032 20.171 4.30109 20.25 4.5 20.25H11.25C11.4489 20.25 11.6397 20.329 11.7803 20.4697C11.921 20.6103 12 20.8011 12 21C12 21.1989 11.921 21.3897 11.7803 21.5303C11.6397 21.671 11.4489 21.75 11.25 21.75H6.75C6.55109 21.75 6.36032 21.829 6.21967 21.9697C6.07902 22.1103 6 22.3011 6 22.5C6 22.6989 6.07902 22.8897 6.21967 23.0303C6.36032 23.171 6.55109 23.25 6.75 23.25H14.25C15.9662 23.2508 17.6468 22.7607 19.0936 21.8375C20.5403 20.9143 21.6928 19.5965 22.415 18.0397C23.1372 16.4829 23.399 14.7519 23.1696 13.0511C22.9401 11.3503 22.229 9.75067 21.12 8.44088ZM18.5325 11.0325L16.275 13.2825C16.5077 13.765 16.562 14.3142 16.4284 14.8329C16.2948 15.3516 15.982 15.8063 15.5452 16.1163C15.1085 16.4264 14.576 16.5718 14.0423 16.5269C13.5086 16.4819 13.008 16.2495 12.6293 15.8707C12.2505 15.492 12.0181 14.9914 11.9731 14.4577C11.9282 13.924 12.0736 13.3915 12.3837 12.9548C12.6937 12.518 13.1484 12.2052 13.6671 12.0716C14.1858 11.938 14.735 11.9923 15.2175 12.225L17.4675 9.9675C17.6089 9.82722 17.8002 9.74869 17.9994 9.7491C18.1986 9.74951 18.3895 9.82882 18.5303 9.96967C18.6712 10.1105 18.7505 10.3014 18.7509 10.5006C18.7513 10.6998 18.6728 10.8911 18.5325 11.0325Z" fill="#F65D81"/>
</svg>
